# Null Route authored hard-surface mesh. Centimeters, Z up.
v -6.35592 -6.82264 7.03807
v -5.55066 18.68010 10.85932
v -1.75255 18.56018 10.85922
v -2.55782 -6.94255 7.03797
v -2.48342 -4.57395 -8.78556
v -1.67816 20.92878 -4.96431
v -5.47627 21.04870 -4.96422
v -6.28153 -4.45404 -8.78547
v -6.39842 -8.16735 5.21874
v -2.60032 -8.28726 5.21864
v -2.54080 -6.39238 -7.44018
v -6.33891 -6.27247 -7.44009
v -5.43377 22.39340 -3.14489
v -1.63566 22.27349 -3.14498
v -1.69517 20.37861 9.51385
v -5.49328 20.49852 9.51394
v -7.94769 -6.53529 5.45575
v -7.88817 -4.64041 -7.20307
v -7.08291 20.86233 -3.38182
v -7.14242 18.96745 9.27700
v -0.14591 18.74655 9.27683
v -0.08640 20.64143 -3.38200
v -0.89166 -4.86130 -7.20325
v -0.95117 -6.75618 5.45558
v -6.39842 -8.16735 5.21874
v -6.33891 -6.27247 -7.44009
v -7.88817 -4.64041 -7.20307
v -7.94769 -6.53529 5.45575
v -0.95117 -6.75618 5.45558
v -0.89166 -4.86130 -7.20325
v -2.54080 -6.39238 -7.44018
v -2.60032 -8.28726 5.21864
v -7.14242 18.96745 9.27700
v -7.08291 20.86233 -3.38182
v -5.43377 22.39340 -3.14489
v -5.49328 20.49852 9.51394
v -1.69517 20.37861 9.51385
v -1.63566 22.27349 -3.14498
v -0.08640 20.64143 -3.38200
v -0.14591 18.74655 9.27683
v -7.94769 -6.53529 5.45575
v -7.14242 18.96745 9.27700
v -5.55066 18.68010 10.85932
v -6.35592 -6.82264 7.03807
v -6.28153 -4.45404 -8.78547
v -5.47627 21.04870 -4.96422
v -7.08291 20.86233 -3.38182
v -7.88817 -4.64041 -7.20307
v -2.55782 -6.94255 7.03797
v -1.75255 18.56018 10.85922
v -0.14591 18.74655 9.27683
v -0.95117 -6.75618 5.45558
v -0.89166 -4.86130 -7.20325
v -0.08640 20.64143 -3.38200
v -1.67816 20.92878 -4.96431
v -2.48342 -4.57395 -8.78556
v -6.35592 -6.82264 7.03807
v -2.55782 -6.94255 7.03797
v -2.60032 -8.28726 5.21864
v -6.39842 -8.16735 5.21874
v -5.49328 20.49852 9.51394
v -1.69517 20.37861 9.51385
v -1.75255 18.56018 10.85922
v -5.55066 18.68010 10.85932
v -6.33891 -6.27247 -7.44009
v -2.54080 -6.39238 -7.44018
v -2.48342 -4.57395 -8.78556
v -6.28153 -4.45404 -8.78547
v -5.47627 21.04870 -4.96422
v -1.67816 20.92878 -4.96431
v -1.63566 22.27349 -3.14498
v -5.43377 22.39340 -3.14489
v -6.35592 -6.82264 7.03807
v -6.39842 -8.16735 5.21874
v -7.94769 -6.53529 5.45575
v -0.95117 -6.75618 5.45558
v -2.60032 -8.28726 5.21864
v -2.55782 -6.94255 7.03797
v -7.14242 18.96745 9.27700
v -5.49328 20.49852 9.51394
v -5.55066 18.68010 10.85932
v -1.75255 18.56018 10.85922
v -1.69517 20.37861 9.51385
v -0.14591 18.74655 9.27683
v -7.88817 -4.64041 -7.20307
v -6.33891 -6.27247 -7.44009
v -6.28153 -4.45404 -8.78547
v -2.48342 -4.57395 -8.78556
v -2.54080 -6.39238 -7.44018
v -0.89166 -4.86130 -7.20325
v -5.47627 21.04870 -4.96422
v -5.43377 22.39340 -3.14489
v -7.08291 20.86233 -3.38182
v -0.08640 20.64143 -3.38200
v -1.63566 22.27349 -3.14498
v -1.67816 20.92878 -4.96431
v -2.75554 -0.52965 7.49140
v -2.16251 18.25143 10.30550
v 2.83500 18.09365 10.30538
v 2.24197 -0.68743 7.49128
v 2.31172 1.53313 -7.34328
v 2.90474 20.31421 -4.52918
v -2.09277 20.47199 -4.52906
v -2.68579 1.69091 -7.34316
v -2.80866 -2.21053 5.21724
v 2.18885 -2.36832 5.21712
v 2.23999 -0.73990 -5.66156
v -2.75752 -0.58212 -5.66144
v -2.03965 22.15288 -2.25490
v 2.95786 21.99510 -2.25502
v 2.90672 20.36668 8.62366
v -2.09079 20.52446 8.62378
v -4.74524 -0.17047 5.51351
v -4.69410 1.45795 -5.36517
v -4.10107 20.23903 -2.55107
v -4.15222 18.61062 8.32761
v 4.84330 18.32661 8.32739
v 4.89444 19.95503 -2.55129
v 4.30142 1.17394 -5.36539
v 4.25028 -0.45447 5.51329
v -2.80866 -2.21053 5.21724
v -2.75752 -0.58212 -5.66144
v -4.69410 1.45795 -5.36517
v -4.74524 -0.17047 5.51351
v 4.25028 -0.45447 5.51329
v 4.30142 1.17394 -5.36539
v 2.23999 -0.73990 -5.66156
v 2.18885 -2.36832 5.21712
v -4.15222 18.61062 8.32761
v -4.10107 20.23903 -2.55107
v -2.03965 22.15288 -2.25490
v -2.09079 20.52446 8.62378
v 2.90672 20.36668 8.62366
v 2.95786 21.99510 -2.25502
v 4.89444 19.95503 -2.55129
v 4.84330 18.32661 8.32739
v -4.74524 -0.17047 5.51351
v -4.15222 18.61062 8.32761
v -2.16251 18.25143 10.30550
v -2.75554 -0.52965 7.49140
v -2.68579 1.69091 -7.34316
v -2.09277 20.47199 -4.52906
v -4.10107 20.23903 -2.55107
v -4.69410 1.45795 -5.36517
v 2.24197 -0.68743 7.49128
v 2.83500 18.09365 10.30538
v 4.84330 18.32661 8.32739
v 4.25028 -0.45447 5.51329
v 4.30142 1.17394 -5.36539
v 4.89444 19.95503 -2.55129
v 2.90474 20.31421 -4.52918
v 2.31172 1.53313 -7.34328
v -2.75554 -0.52965 7.49140
v 2.24197 -0.68743 7.49128
v 2.18885 -2.36832 5.21712
v -2.80866 -2.21053 5.21724
v -2.09079 20.52446 8.62378
v 2.90672 20.36668 8.62366
v 2.83500 18.09365 10.30538
v -2.16251 18.25143 10.30550
v -2.75752 -0.58212 -5.66144
v 2.23999 -0.73990 -5.66156
v 2.31172 1.53313 -7.34328
v -2.68579 1.69091 -7.34316
v -2.09277 20.47199 -4.52906
v 2.90474 20.31421 -4.52918
v 2.95786 21.99510 -2.25502
v -2.03965 22.15288 -2.25490
v -2.75554 -0.52965 7.49140
v -2.80866 -2.21053 5.21724
v -4.74524 -0.17047 5.51351
v 4.25028 -0.45447 5.51329
v 2.18885 -2.36832 5.21712
v 2.24197 -0.68743 7.49128
v -4.15222 18.61062 8.32761
v -2.09079 20.52446 8.62378
v -2.16251 18.25143 10.30550
v 2.83500 18.09365 10.30538
v 2.90672 20.36668 8.62366
v 4.84330 18.32661 8.32739
v -4.69410 1.45795 -5.36517
v -2.75752 -0.58212 -5.66144
v -2.68579 1.69091 -7.34316
v 2.31172 1.53313 -7.34328
v 2.23999 -0.73990 -5.66156
v 4.30142 1.17394 -5.36539
v -2.09277 20.47199 -4.52906
v -2.03965 22.15288 -2.25490
v -4.10107 20.23903 -2.55107
v 4.89444 19.95503 -2.55129
v 2.95786 21.99510 -2.25502
v 2.90474 20.31421 -4.52918
v -1.68521 16.25743 10.00927
v 2.16288 16.13594 10.00917
v 3.78602 16.52925 7.04222
v 3.82787 17.86159 -1.85852
v 2.23262 18.35651 -4.82539
v -1.61546 18.47800 -4.82529
v -3.16516 18.19351 -2.60007
v -3.21398 16.63912 7.78412
v -2.73285 19.67789 7.65731
v -2.68940 21.06130 -1.58462
v -1.31017 21.31450 -3.56507
v 2.11462 21.20637 -3.56515
v 3.53440 20.76589 -0.92463
v 3.49715 19.58011 6.99702
v 2.05255 19.23007 9.63761
v -1.37224 19.33820 9.63769
v -3.21398 16.63912 7.78412
v -3.16516 18.19351 -2.60007
v -3.08713 20.66471 -2.22979
v -3.13595 19.11031 8.15440
v -3.13595 19.11031 8.15440
v -3.08713 20.66471 -2.22979
v -2.68940 21.06130 -1.58462
v -2.73285 19.67789 7.65731
v -3.16516 18.19351 -2.60007
v -1.61546 18.47800 -4.82529
v -1.53743 20.94919 -4.45502
v -3.08713 20.66471 -2.22979
v -3.08713 20.66471 -2.22979
v -1.53743 20.94919 -4.45502
v -1.31017 21.31450 -3.56507
v -2.68940 21.06130 -1.58462
v -1.61546 18.47800 -4.82529
v 2.23262 18.35651 -4.82539
v 2.31065 20.82770 -4.45511
v -1.53743 20.94919 -4.45502
v -1.53743 20.94919 -4.45502
v 2.31065 20.82770 -4.45511
v 2.11462 21.20637 -3.56515
v -1.31017 21.31450 -3.56507
v 2.23262 18.35651 -4.82539
v 3.82787 17.86159 -1.85852
v 3.90590 20.33278 -1.48824
v 2.31065 20.82770 -4.45511
v 2.31065 20.82770 -4.45511
v 3.90590 20.33278 -1.48824
v 3.53440 20.76589 -0.92463
v 2.11462 21.20637 -3.56515
v 3.82787 17.86159 -1.85852
v 3.78602 16.52925 7.04222
v 3.86405 19.00045 7.41250
v 3.90590 20.33278 -1.48824
v 3.90590 20.33278 -1.48824
v 3.86405 19.00045 7.41250
v 3.49715 19.58011 6.99702
v 3.53440 20.76589 -0.92463
v 3.78602 16.52925 7.04222
v 2.16288 16.13594 10.00917
v 2.24091 18.60714 10.37945
v 3.86405 19.00045 7.41250
v 3.86405 19.00045 7.41250
v 2.24091 18.60714 10.37945
v 2.05255 19.23007 9.63761
v 3.49715 19.58011 6.99702
v 2.16288 16.13594 10.00917
v -1.68521 16.25743 10.00927
v -1.60718 18.72863 10.37955
v 2.24091 18.60714 10.37945
v 2.24091 18.60714 10.37945
v -1.60718 18.72863 10.37955
v -1.37224 19.33820 9.63769
v 2.05255 19.23007 9.63761
v -1.68521 16.25743 10.00927
v -3.21398 16.63912 7.78412
v -3.13595 19.11031 8.15440
v -1.60718 18.72863 10.37955
v -1.60718 18.72863 10.37955
v -3.13595 19.11031 8.15440
v -2.73285 19.67789 7.65731
v -1.37224 19.33820 9.63769
v 2.59031 -5.49757 5.76175
v 2.87122 3.39874 7.09474
v 8.86823 3.20940 7.09459
v 8.58733 -5.68690 5.76160
v 8.64777 -3.76241 -7.09502
v 8.92868 5.13389 -5.76203
v 2.93166 5.32323 -5.76188
v 2.65076 -3.57308 -7.09488
v 2.56375 -6.33801 4.62466
v 8.56076 -6.52734 4.62452
v 8.61191 -4.89893 -6.25416
v 2.61490 -4.70959 -6.25401
v 2.95823 6.16367 -4.62480
v 8.95524 5.97433 -4.62495
v 8.90409 4.34592 6.25373
v 2.90708 4.53525 6.25388
v 1.59546 -5.31797 4.77280
v 1.64661 -3.68956 -6.10588
v 1.92751 5.20674 -4.77289
v 1.87637 3.57833 6.10579
v 9.87238 3.32588 6.10560
v 9.92353 4.95430 -4.77308
v 9.64262 -3.94201 -6.10608
v 9.59148 -5.57042 4.77260
v 2.56375 -6.33801 4.62466
v 2.61490 -4.70959 -6.25401
v 1.64661 -3.68956 -6.10588
v 1.59546 -5.31797 4.77280
v 9.59148 -5.57042 4.77260
v 9.64262 -3.94201 -6.10608
v 8.61191 -4.89893 -6.25416
v 8.56076 -6.52734 4.62452
v 1.87637 3.57833 6.10579
v 1.92751 5.20674 -4.77289
v 2.95823 6.16367 -4.62480
v 2.90708 4.53525 6.25388
v 8.90409 4.34592 6.25373
v 8.95524 5.97433 -4.62495
v 9.92353 4.95430 -4.77308
v 9.87238 3.32588 6.10560
v 1.59546 -5.31797 4.77280
v 1.87637 3.57833 6.10579
v 2.87122 3.39874 7.09474
v 2.59031 -5.49757 5.76175
v 2.65076 -3.57308 -7.09488
v 2.93166 5.32323 -5.76188
v 1.92751 5.20674 -4.77289
v 1.64661 -3.68956 -6.10588
v 8.58733 -5.68690 5.76160
v 8.86823 3.20940 7.09459
v 9.87238 3.32588 6.10560
v 9.59148 -5.57042 4.77260
v 9.64262 -3.94201 -6.10608
v 9.92353 4.95430 -4.77308
v 8.92868 5.13389 -5.76203
v 8.64777 -3.76241 -7.09502
v 2.59031 -5.49757 5.76175
v 8.58733 -5.68690 5.76160
v 8.56076 -6.52734 4.62452
v 2.56375 -6.33801 4.62466
v 2.90708 4.53525 6.25388
v 8.90409 4.34592 6.25373
v 8.86823 3.20940 7.09459
v 2.87122 3.39874 7.09474
v 2.61490 -4.70959 -6.25401
v 8.61191 -4.89893 -6.25416
v 8.64777 -3.76241 -7.09502
v 2.65076 -3.57308 -7.09488
v 2.93166 5.32323 -5.76188
v 8.92868 5.13389 -5.76203
v 8.95524 5.97433 -4.62495
v 2.95823 6.16367 -4.62480
v 2.59031 -5.49757 5.76175
v 2.56375 -6.33801 4.62466
v 1.59546 -5.31797 4.77280
v 9.59148 -5.57042 4.77260
v 8.56076 -6.52734 4.62452
v 8.58733 -5.68690 5.76160
v 1.87637 3.57833 6.10579
v 2.90708 4.53525 6.25388
v 2.87122 3.39874 7.09474
v 8.86823 3.20940 7.09459
v 8.90409 4.34592 6.25373
v 9.87238 3.32588 6.10560
v 1.64661 -3.68956 -6.10588
v 2.61490 -4.70959 -6.25401
v 2.65076 -3.57308 -7.09488
v 8.64777 -3.76241 -7.09502
v 8.61191 -4.89893 -6.25416
v 9.64262 -3.94201 -6.10608
v 2.93166 5.32323 -5.76188
v 2.95823 6.16367 -4.62480
v 1.92751 5.20674 -4.77289
v 9.92353 4.95430 -4.77308
v 8.95524 5.97433 -4.62495
v 8.92868 5.13389 -5.76203
v -7.89909 1.33968 8.25262
v -7.85539 2.72355 8.45997
v -7.05579 2.69831 8.45995
v -7.09949 1.31444 8.25260
v -7.02510 3.68304 -7.57094
v -6.98140 5.06691 -7.36358
v -7.78100 5.09215 -7.36356
v -7.82470 3.70828 -7.57092
v -7.90706 1.08755 7.91149
v -7.10746 1.06230 7.91147
v -7.03585 3.34208 -7.31868
v -7.83546 3.36733 -7.31866
v -7.77303 5.34428 -7.02244
v -6.97343 5.31904 -7.02246
v -7.04503 3.03926 8.20769
v -7.84464 3.06451 8.20771
v -8.19755 1.39356 7.95593
v -8.12594 3.67334 -7.27422
v -8.08225 5.05721 -7.06686
v -8.15385 2.77743 8.16329
v -6.75455 2.73325 8.16325
v -6.68294 5.01303 -7.06690
v -6.72664 3.62916 -7.27425
v -6.79824 1.34938 7.95590
v -7.90706 1.08755 7.91149
v -7.83546 3.36733 -7.31866
v -8.12594 3.67334 -7.27422
v -8.19755 1.39356 7.95593
v -6.79824 1.34938 7.95590
v -6.72664 3.62916 -7.27425
v -7.03585 3.34208 -7.31868
v -7.10746 1.06230 7.91147
v -8.15385 2.77743 8.16329
v -8.08225 5.05721 -7.06686
v -7.77303 5.34428 -7.02244
v -7.84464 3.06451 8.20771
v -7.04503 3.03926 8.20769
v -6.97343 5.31904 -7.02246
v -6.68294 5.01303 -7.06690
v -6.75455 2.73325 8.16325
v -8.19755 1.39356 7.95593
v -8.15385 2.77743 8.16329
v -7.85539 2.72355 8.45997
v -7.89909 1.33968 8.25262
v -7.82470 3.70828 -7.57092
v -7.78100 5.09215 -7.36356
v -8.08225 5.05721 -7.06686
v -8.12594 3.67334 -7.27422
v -7.09949 1.31444 8.25260
v -7.05579 2.69831 8.45995
v -6.75455 2.73325 8.16325
v -6.79824 1.34938 7.95590
v -6.72664 3.62916 -7.27425
v -6.68294 5.01303 -7.06690
v -6.98140 5.06691 -7.36358
v -7.02510 3.68304 -7.57094
v -7.89909 1.33968 8.25262
v -7.09949 1.31444 8.25260
v -7.10746 1.06230 7.91147
v -7.90706 1.08755 7.91149
v -7.84464 3.06451 8.20771
v -7.04503 3.03926 8.20769
v -7.05579 2.69831 8.45995
v -7.85539 2.72355 8.45997
v -7.83546 3.36733 -7.31866
v -7.03585 3.34208 -7.31868
v -7.02510 3.68304 -7.57094
v -7.82470 3.70828 -7.57092
v -7.78100 5.09215 -7.36356
v -6.98140 5.06691 -7.36358
v -6.97343 5.31904 -7.02246
v -7.77303 5.34428 -7.02244
v -7.89909 1.33968 8.25262
v -7.90706 1.08755 7.91149
v -8.19755 1.39356 7.95593
v -6.79824 1.34938 7.95590
v -7.10746 1.06230 7.91147
v -7.09949 1.31444 8.25260
v -8.15385 2.77743 8.16329
v -7.84464 3.06451 8.20771
v -7.85539 2.72355 8.45997
v -7.05579 2.69831 8.45995
v -7.04503 3.03926 8.20769
v -6.75455 2.73325 8.16325
v -8.12594 3.67334 -7.27422
v -7.83546 3.36733 -7.31866
v -7.82470 3.70828 -7.57092
v -7.02510 3.68304 -7.57094
v -7.03585 3.34208 -7.31868
v -6.72664 3.62916 -7.27425
v -7.78100 5.09215 -7.36356
v -7.77303 5.34428 -7.02244
v -8.08225 5.05721 -7.06686
v -6.68294 5.01303 -7.06690
v -6.97343 5.31904 -7.02246
v -6.98140 5.06691 -7.36358
v -7.74303 6.28207 8.99317
v -7.69934 7.66594 9.20052
v -6.89973 7.64070 9.20050
v -6.94343 6.25683 8.99315
v -6.86904 8.62543 -6.83038
v -6.82534 10.00930 -6.62303
v -7.62494 10.03454 -6.62301
v -7.66864 8.65067 -6.83037
v -7.75100 6.02994 8.65204
v -6.95140 6.00469 8.65202
v -6.87980 8.28447 -6.57813
v -7.67940 8.30972 -6.57811
v -7.61697 10.28667 -6.28189
v -6.81737 10.26143 -6.28191
v -6.88898 7.98165 8.94825
v -7.68858 8.00690 8.94827
v -8.04149 6.33595 8.69648
v -7.96988 8.61573 -6.53367
v -7.92619 9.99960 -6.32631
v -7.99779 7.71982 8.90384
v -6.59849 7.67564 8.90380
v -6.52689 9.95542 -6.32635
v -6.57058 8.57155 -6.53370
v -6.64218 6.29177 8.69645
v -7.75100 6.02994 8.65204
v -7.67940 8.30972 -6.57811
v -7.96988 8.61573 -6.53367
v -8.04149 6.33595 8.69648
v -6.64218 6.29177 8.69645
v -6.57058 8.57155 -6.53370
v -6.87980 8.28447 -6.57813
v -6.95140 6.00469 8.65202
v -7.99779 7.71982 8.90384
v -7.92619 9.99960 -6.32631
v -7.61697 10.28667 -6.28189
v -7.68858 8.00690 8.94827
v -6.88898 7.98165 8.94825
v -6.81737 10.26143 -6.28191
v -6.52689 9.95542 -6.32635
v -6.59849 7.67564 8.90380
v -8.04149 6.33595 8.69648
v -7.99779 7.71982 8.90384
v -7.69934 7.66594 9.20052
v -7.74303 6.28207 8.99317
v -7.66864 8.65067 -6.83037
v -7.62494 10.03454 -6.62301
v -7.92619 9.99960 -6.32631
v -7.96988 8.61573 -6.53367
v -6.94343 6.25683 8.99315
v -6.89973 7.64070 9.20050
v -6.59849 7.67564 8.90380
v -6.64218 6.29177 8.69645
v -6.57058 8.57155 -6.53370
v -6.52689 9.95542 -6.32635
v -6.82534 10.00930 -6.62303
v -6.86904 8.62543 -6.83038
v -7.74303 6.28207 8.99317
v -6.94343 6.25683 8.99315
v -6.95140 6.00469 8.65202
v -7.75100 6.02994 8.65204
v -7.68858 8.00690 8.94827
v -6.88898 7.98165 8.94825
v -6.89973 7.64070 9.20050
v -7.69934 7.66594 9.20052
v -7.67940 8.30972 -6.57811
v -6.87980 8.28447 -6.57813
v -6.86904 8.62543 -6.83038
v -7.66864 8.65067 -6.83037
v -7.62494 10.03454 -6.62301
v -6.82534 10.00930 -6.62303
v -6.81737 10.26143 -6.28191
v -7.61697 10.28667 -6.28189
v -7.74303 6.28207 8.99317
v -7.75100 6.02994 8.65204
v -8.04149 6.33595 8.69648
v -6.64218 6.29177 8.69645
v -6.95140 6.00469 8.65202
v -6.94343 6.25683 8.99315
v -7.99779 7.71982 8.90384
v -7.68858 8.00690 8.94827
v -7.69934 7.66594 9.20052
v -6.89973 7.64070 9.20050
v -6.88898 7.98165 8.94825
v -6.59849 7.67564 8.90380
v -7.96988 8.61573 -6.53367
v -7.67940 8.30972 -6.57811
v -7.66864 8.65067 -6.83037
v -6.86904 8.62543 -6.83038
v -6.87980 8.28447 -6.57813
v -6.57058 8.57155 -6.53370
v -7.62494 10.03454 -6.62301
v -7.61697 10.28667 -6.28189
v -7.92619 9.99960 -6.32631
v -6.52689 9.95542 -6.32635
v -6.81737 10.26143 -6.28191
v -6.82534 10.00930 -6.62303
v -7.58697 11.22446 9.73372
v -7.54328 12.60833 9.94108
v -6.74367 12.58309 9.94106
v -6.78737 11.19922 9.73370
v -6.71298 13.56782 -6.08983
v -6.66928 14.95169 -5.88248
v -7.46888 14.97693 -5.88246
v -7.51258 13.59306 -6.08981
v -7.59494 10.97233 9.39260
v -6.79534 10.94709 9.39258
v -6.72374 13.22686 -5.83757
v -7.52334 13.25211 -5.83755
v -7.46092 15.22906 -5.54133
v -6.66131 15.20382 -5.54135
v -6.73292 12.92404 9.68880
v -7.53252 12.94929 9.68882
v -7.88543 11.27834 9.43704
v -7.81383 13.55812 -5.79311
v -7.77013 14.94199 -5.58576
v -7.84173 12.66221 9.64439
v -6.44243 12.61803 9.64436
v -6.37083 14.89781 -5.58579
v -6.41452 13.51394 -5.79315
v -6.48613 11.23416 9.43700
v -7.59494 10.97233 9.39260
v -7.52334 13.25211 -5.83755
v -7.81383 13.55812 -5.79311
v -7.88543 11.27834 9.43704
v -6.48613 11.23416 9.43700
v -6.41452 13.51394 -5.79315
v -6.72374 13.22686 -5.83757
v -6.79534 10.94709 9.39258
v -7.84173 12.66221 9.64439
v -7.77013 14.94199 -5.58576
v -7.46092 15.22906 -5.54133
v -7.53252 12.94929 9.68882
v -6.73292 12.92404 9.68880
v -6.66131 15.20382 -5.54135
v -6.37083 14.89781 -5.58579
v -6.44243 12.61803 9.64436
v -7.88543 11.27834 9.43704
v -7.84173 12.66221 9.64439
v -7.54328 12.60833 9.94108
v -7.58697 11.22446 9.73372
v -7.51258 13.59306 -6.08981
v -7.46888 14.97693 -5.88246
v -7.77013 14.94199 -5.58576
v -7.81383 13.55812 -5.79311
v -6.78737 11.19922 9.73370
v -6.74367 12.58309 9.94106
v -6.44243 12.61803 9.64436
v -6.48613 11.23416 9.43700
v -6.41452 13.51394 -5.79315
v -6.37083 14.89781 -5.58579
v -6.66928 14.95169 -5.88248
v -6.71298 13.56782 -6.08983
v -7.58697 11.22446 9.73372
v -6.78737 11.19922 9.73370
v -6.79534 10.94709 9.39258
v -7.59494 10.97233 9.39260
v -7.53252 12.94929 9.68882
v -6.73292 12.92404 9.68880
v -6.74367 12.58309 9.94106
v -7.54328 12.60833 9.94108
v -7.52334 13.25211 -5.83755
v -6.72374 13.22686 -5.83757
v -6.71298 13.56782 -6.08983
v -7.51258 13.59306 -6.08981
v -7.46888 14.97693 -5.88246
v -6.66928 14.95169 -5.88248
v -6.66131 15.20382 -5.54135
v -7.46092 15.22906 -5.54133
v -7.58697 11.22446 9.73372
v -7.59494 10.97233 9.39260
v -7.88543 11.27834 9.43704
v -6.48613 11.23416 9.43700
v -6.79534 10.94709 9.39258
v -6.78737 11.19922 9.73370
v -7.84173 12.66221 9.64439
v -7.53252 12.94929 9.68882
v -7.54328 12.60833 9.94108
v -6.74367 12.58309 9.94106
v -6.73292 12.92404 9.68880
v -6.44243 12.61803 9.64436
v -7.81383 13.55812 -5.79311
v -7.52334 13.25211 -5.83755
v -7.51258 13.59306 -6.08981
v -6.71298 13.56782 -6.08983
v -6.72374 13.22686 -5.83757
v -6.41452 13.51394 -5.79315
v -7.46888 14.97693 -5.88246
v -7.46092 15.22906 -5.54133
v -7.77013 14.94199 -5.58576
v -6.37083 14.89781 -5.58579
v -6.66131 15.20382 -5.54135
v -6.66928 14.95169 -5.88248
v -7.43091 16.16685 10.47427
v -7.38722 17.55072 10.68163
v -6.58762 17.52548 10.68161
v -6.63131 16.14161 10.47425
v -6.55692 18.51021 -5.34928
v -6.51322 19.89408 -5.14192
v -7.31282 19.91932 -5.14191
v -7.35652 18.53545 -5.34926
v -7.43888 15.91472 10.13315
v -6.63928 15.88948 10.13313
v -6.56768 18.16925 -5.09702
v -7.36728 18.19450 -5.09700
v -7.30486 20.17146 -4.80078
v -6.50525 20.14621 -4.80080
v -6.57686 17.86643 10.42935
v -7.37646 17.89168 10.42937
v -7.72937 16.22073 10.17759
v -7.65777 18.50051 -5.05256
v -7.61407 19.88438 -4.84521
v -7.68567 17.60460 10.38494
v -6.28637 17.56042 10.38491
v -6.21477 19.84020 -4.84524
v -6.25846 18.45633 -5.05260
v -6.33007 16.17655 10.17756
v -7.43888 15.91472 10.13315
v -7.36728 18.19450 -5.09700
v -7.65777 18.50051 -5.05256
v -7.72937 16.22073 10.17759
v -6.33007 16.17655 10.17756
v -6.25846 18.45633 -5.05260
v -6.56768 18.16925 -5.09702
v -6.63928 15.88948 10.13313
v -7.68567 17.60460 10.38494
v -7.61407 19.88438 -4.84521
v -7.30486 20.17146 -4.80078
v -7.37646 17.89168 10.42937
v -6.57686 17.86643 10.42935
v -6.50525 20.14621 -4.80080
v -6.21477 19.84020 -4.84524
v -6.28637 17.56042 10.38491
v -7.72937 16.22073 10.17759
v -7.68567 17.60460 10.38494
v -7.38722 17.55072 10.68163
v -7.43091 16.16685 10.47427
v -7.35652 18.53545 -5.34926
v -7.31282 19.91932 -5.14191
v -7.61407 19.88438 -4.84521
v -7.65777 18.50051 -5.05256
v -6.63131 16.14161 10.47425
v -6.58762 17.52548 10.68161
v -6.28637 17.56042 10.38491
v -6.33007 16.17655 10.17756
v -6.25846 18.45633 -5.05260
v -6.21477 19.84020 -4.84524
v -6.51322 19.89408 -5.14192
v -6.55692 18.51021 -5.34928
v -7.43091 16.16685 10.47427
v -6.63131 16.14161 10.47425
v -6.63928 15.88948 10.13313
v -7.43888 15.91472 10.13315
v -7.37646 17.89168 10.42937
v -6.57686 17.86643 10.42935
v -6.58762 17.52548 10.68161
v -7.38722 17.55072 10.68163
v -7.36728 18.19450 -5.09700
v -6.56768 18.16925 -5.09702
v -6.55692 18.51021 -5.34928
v -7.35652 18.53545 -5.34926
v -7.31282 19.91932 -5.14191
v -6.51322 19.89408 -5.14192
v -6.50525 20.14621 -4.80080
v -7.30486 20.17146 -4.80078
v -7.43091 16.16685 10.47427
v -7.43888 15.91472 10.13315
v -7.72937 16.22073 10.17759
v -6.33007 16.17655 10.17756
v -6.63928 15.88948 10.13313
v -6.63131 16.14161 10.47425
v -7.68567 17.60460 10.38494
v -7.37646 17.89168 10.42937
v -7.38722 17.55072 10.68163
v -6.58762 17.52548 10.68161
v -6.57686 17.86643 10.42935
v -6.28637 17.56042 10.38491
v -7.65777 18.50051 -5.05256
v -7.36728 18.19450 -5.09700
v -7.35652 18.53545 -5.34926
v -6.55692 18.51021 -5.34928
v -6.56768 18.16925 -5.09702
v -6.25846 18.45633 -5.05260
v -7.31282 19.91932 -5.14191
v -7.30486 20.17146 -4.80078
v -7.61407 19.88438 -4.84521
v -6.21477 19.84020 -4.84524
v -6.50525 20.14621 -4.80080
v -6.51322 19.89408 -5.14192
vt 0.063228 0.942988
vt 0.054995 1.200857
vt 0.017015 1.199645
vt 0.025247 0.941776
vt -0.025247 0.941776
vt -0.017015 1.199645
vt -0.054995 1.200857
vt -0.063228 0.942988
vt 0.061375 1.064002
vt 0.023375 1.064001
vt 0.023378 0.936001
vt 0.061378 0.936002
vt -0.061378 0.936002
vt -0.023378 0.936001
vt -0.023375 1.064001
vt -0.061375 1.064002
vt -0.067828 1.054556
vt -0.048870 0.927967
vt 0.206284 0.966180
vt 0.187326 1.092768
vt -0.187326 1.092768
vt -0.206284 0.966180
vt 0.048870 0.927967
vt 0.067828 1.054556
vt -0.016321 1.062629
vt -0.002839 0.935341
vt 0.019663 0.937725
vt 0.006181 1.065013
vt 0.053413 1.058702
vt 0.039936 0.931414
vt 0.062437 0.929031
vt 0.075915 1.056320
vt 0.078784 1.072699
vt 0.092262 0.945411
vt 0.114763 0.947793
vt 0.101286 1.075082
vt -0.160879 1.081398
vt -0.174361 0.954110
vt -0.151859 0.951726
vt -0.138378 1.079014
vt -0.055760 0.978522
vt 0.196641 1.031981
vt 0.191953 1.054117
vt -0.060448 1.000658
vt -0.054991 0.974892
vt 0.197410 1.028349
vt 0.192722 1.050485
vt -0.059679 0.997029
vt 0.072865 1.059287
vt -0.179536 1.112744
vt -0.184224 1.090607
vt 0.068177 1.037151
vt 0.047262 0.938400
vt -0.205139 0.991858
vt -0.209827 0.969722
vt 0.042573 0.916263
vt 0.061376 1.014851
vt 0.023376 1.014850
vt 0.023377 0.992223
vt 0.061377 0.992224
vt -0.061381 0.893229
vt -0.023381 0.893228
vt -0.023380 0.915855
vt -0.061380 0.915857
vt 0.061376 1.007781
vt 0.023376 1.007779
vt 0.023377 0.985152
vt 0.061377 0.985153
vt -0.061374 1.084148
vt -0.023374 1.084146
vt -0.023373 1.106774
vt -0.061373 1.106775
vt -0.000270 1.016261
vt -0.009154 0.995451
vt 0.013310 0.998162
vt 0.050332 1.025334
vt 0.072796 1.022624
vt 0.063911 1.043434
vt 0.093577 0.951950
vt 0.115985 0.955092
vt 0.102061 0.972927
vt -0.156606 1.015518
vt -0.170531 0.997683
vt -0.148123 0.994541
vt 0.012393 1.005191
vt -0.010015 1.002049
vt 0.003910 0.984214
vt 0.050636 0.941629
vt 0.064561 0.959465
vt 0.042152 0.962606
vt 0.091706 1.052339
vt 0.100591 1.073149
vt 0.078127 1.070439
vt -0.141767 1.043272
vt -0.164231 1.045983
vt -0.155347 1.025172
vt 0.027203 1.005871
vt 0.021140 1.195774
vt -0.028834 1.194179
vt -0.022772 1.004276
vt 0.022772 1.004276
vt 0.028834 1.194179
vt -0.021140 1.195774
vt -0.027203 1.005871
vt 0.027375 1.055001
vt -0.022625 1.054999
vt -0.022622 0.944999
vt 0.027378 0.945001
vt -0.027378 0.945001
vt 0.022622 0.944999
vt 0.022625 1.054999
vt -0.027375 1.055001
vt -0.003201 1.055134
vt 0.013091 0.946347
vt 0.200995 0.974488
vt 0.184703 1.083275
vt -0.184703 1.083275
vt -0.200995 0.974488
vt -0.013091 0.946347
vt 0.003201 1.055134
vt 0.002910 1.055616
vt 0.014496 0.946228
vt 0.042623 0.949207
vt 0.031037 1.058595
vt -0.027697 1.058240
vt -0.039279 0.948851
vt -0.011152 0.945873
vt 0.000430 1.055262
vt 0.098014 1.065685
vt 0.109596 0.956297
vt 0.137724 0.959275
vt 0.126141 1.068663
vt -0.129481 1.069022
vt -0.141067 0.959634
vt -0.112940 0.956654
vt -0.101354 1.066043
vt 0.003775 1.006310
vt 0.189651 1.045679
vt 0.183790 1.073349
vt -0.002086 1.033980
vt 0.011869 0.968092
vt 0.197746 1.007459
vt 0.191885 1.035129
vt 0.006008 0.995762
vt 0.002782 1.037268
vt -0.183095 1.076635
vt -0.188955 1.048965
vt -0.003078 1.009597
vt -0.006705 0.992475
vt -0.192581 1.031843
vt -0.198442 1.004173
vt -0.012565 0.964804
vt 0.027375 1.056569
vt -0.022625 1.056568
vt -0.022625 1.028284
vt 0.027375 1.028285
vt -0.027381 0.886864
vt 0.022619 0.886862
vt 0.022620 0.915146
vt -0.027380 0.915148
vt 0.027378 0.971717
vt -0.022622 0.971715
vt -0.022621 0.943431
vt 0.027379 0.943433
vt -0.027374 1.084854
vt 0.022626 1.084852
vt 0.022627 1.113136
vt -0.027373 1.113138
vt 0.016486 1.054470
vt 0.005381 1.028457
vt 0.033461 1.031846
vt -0.029894 1.033368
vt -0.001813 1.029980
vt -0.012919 1.055993
vt 0.110877 0.960971
vt 0.138887 0.964898
vt 0.121482 0.987192
vt -0.124541 0.989586
vt -0.141948 0.967292
vt -0.113937 0.963364
vt 0.040510 0.977803
vt 0.012500 0.973875
vt 0.029907 0.951582
vt -0.026846 0.949192
vt -0.009440 0.971487
vt -0.037451 0.975413
vt 0.114136 1.043531
vt 0.125242 1.069544
vt 0.097161 1.066156
vt -0.100728 1.064636
vt -0.128808 1.068025
vt -0.117703 1.042012
vt 0.021974 1.075001
vt -0.016526 1.075000
vt -0.032625 1.044999
vt -0.032623 0.954999
vt -0.016522 0.925000
vt 0.021978 0.925001
vt 0.037378 0.947501
vt 0.037375 1.052501
vt -0.033525 1.046726
vt -0.033528 0.953276
vt -0.019822 0.933250
vt 0.014443 0.933250
vt 0.028773 0.959949
vt 0.028775 1.040049
vt 0.014446 1.066750
vt -0.019819 1.066751
vt 0.165294 1.077840
vt 0.180846 0.973998
vt 0.205570 0.977701
vt 0.190018 1.081543
vt 0.108825 1.064316
vt 0.119881 0.959900
vt 0.125496 0.966301
vt 0.115656 1.059232
vt 0.176154 1.009392
vt 0.181023 0.982565
vt 0.205621 0.987029
vt 0.200752 1.013856
vt 0.095727 1.032565
vt 0.109964 1.009312
vt 0.113943 1.018303
vt 0.101272 1.038998
vt -0.016381 1.175612
vt 0.022099 1.174384
vt 0.022897 1.199371
vt -0.015584 1.200599
vt -0.021974 1.088389
vt 0.016526 1.088388
vt 0.014448 1.097757
vt -0.019817 1.097758
vt -0.182290 0.971877
vt -0.176585 1.005442
vt -0.201231 1.009632
vt -0.206936 0.976066
vt -0.120911 0.995277
vt -0.105692 1.025733
vt -0.111345 1.031399
vt -0.124890 1.004292
vt -0.179735 0.981416
vt -0.166405 1.070423
vt -0.191129 1.074126
vt -0.204459 0.985118
vt -0.122434 0.967716
vt -0.112955 1.057215
vt -0.119699 1.052952
vt -0.128136 0.973298
vt -0.168467 1.053205
vt -0.162762 1.086770
vt -0.187408 1.090960
vt -0.193113 1.057394
vt -0.108734 0.996833
vt -0.117279 1.029790
vt -0.123048 1.021801
vt -0.115443 0.992469
vt -0.022099 1.174384
vt 0.016381 1.175612
vt 0.015584 1.200599
vt -0.022897 1.199371
vt 0.016520 0.911611
vt -0.021980 0.911613
vt -0.019824 0.902243
vt 0.014441 0.902242
vt 0.163352 1.079933
vt 0.168221 1.053106
vt 0.192819 1.057570
vt 0.187950 1.084397
vt 0.109521 1.013562
vt 0.100384 0.987873
vt 0.107137 0.982721
vt 0.115269 1.005584
vt -0.026174 0.954141
vt -0.029045 1.044096
vt -0.089015 1.042181
vt -0.086143 0.952227
vt 0.086143 0.952227
vt 0.089015 1.042181
vt 0.029045 1.044096
vt 0.026174 0.954141
vt -0.027625 1.054999
vt -0.087625 1.054998
vt -0.087622 0.944998
vt -0.027622 0.944999
vt 0.027622 0.944999
vt 0.087622 0.944998
vt 0.087625 1.054998
vt 0.027625 1.054999
vt -0.052650 1.047728
vt -0.036358 0.938942
vt 0.052650 0.952272
vt 0.036358 1.061058
vt -0.036358 1.061058
vt -0.052650 0.952272
vt 0.036358 0.938942
vt 0.052650 1.047728
vt -0.063892 1.048540
vt -0.052306 0.939152
vt -0.038242 0.940642
vt -0.049828 1.050030
vt -0.031213 1.058612
vt -0.042795 0.949224
vt -0.028731 0.947735
vt -0.017149 1.057123
vt 0.038244 1.059357
vt 0.049827 0.949968
vt 0.063890 0.951457
vt 0.052308 1.060846
vt 0.028733 1.052264
vt 0.017147 0.942876
vt 0.031211 0.941387
vt 0.042797 1.050775
vt -0.054664 1.040914
vt 0.033383 1.059562
vt 0.030453 1.073398
vt -0.057594 1.054749
vt -0.030453 0.926603
vt 0.057594 0.945250
vt 0.054663 0.959085
vt -0.033383 0.940438
vt 0.040709 0.975026
vt -0.047338 0.993674
vt -0.050268 0.979838
vt 0.037779 0.961191
vt 0.050268 1.020161
vt -0.037778 1.038810
vt -0.040709 1.024974
vt 0.047338 1.006326
vt -0.027624 1.014141
vt -0.087624 1.014139
vt -0.087624 0.999997
vt -0.027624 0.999999
vt 0.027624 0.999999
vt 0.087624 0.999996
vt 0.087624 1.014138
vt 0.027624 1.014141
vt -0.027624 0.999999
vt -0.087624 0.999996
vt -0.087623 0.985854
vt -0.027623 0.985857
vt 0.027623 0.985857
vt 0.087623 0.985855
vt 0.087624 0.999997
vt 0.027624 0.999999
vt -0.056492 1.039494
vt -0.062044 1.026488
vt -0.048004 1.028182
vt -0.038538 0.991234
vt -0.024498 0.989540
vt -0.030051 1.002547
vt 0.039170 1.039551
vt 0.053176 1.041515
vt 0.044473 1.052662
vt 0.029699 0.994754
vt 0.020996 0.983607
vt 0.035001 0.981643
vt -0.039169 0.960447
vt -0.053174 0.958483
vt -0.044471 0.947336
vt -0.029699 1.005245
vt -0.020996 1.016392
vt -0.035001 1.018355
vt 0.056490 0.960503
vt 0.062043 0.973509
vt 0.048003 0.971816
vt 0.038538 1.008764
vt 0.024498 1.010459
vt 0.030051 0.997452
vt 0.078602 1.025521
vt 0.078155 1.039514
vt 0.070159 1.039259
vt 0.070606 1.025266
vt -0.070606 1.025266
vt -0.070159 1.039259
vt -0.078155 1.039514
vt -0.078602 1.025521
vt 0.079374 1.077002
vt 0.071374 1.077002
vt 0.071378 0.923002
vt 0.079378 0.923002
vt -0.079378 0.923002
vt -0.071378 0.923002
vt -0.071374 1.077002
vt -0.079374 1.077002
vt 0.011342 1.079557
vt 0.034151 0.927256
vt 0.047996 0.929329
vt 0.025187 1.081631
vt -0.025187 1.081631
vt -0.047996 0.929329
vt -0.034151 0.927256
vt -0.011342 1.079557
vt 0.061769 1.083973
vt 0.077989 0.930830
vt 0.082208 0.931276
vt 0.065988 1.084420
vt 0.040015 1.073194
vt 0.023800 0.920050
vt 0.028019 0.919603
vt 0.044234 1.072747
vt -0.040015 1.073194
vt -0.023800 0.920050
vt -0.019581 0.920496
vt -0.035796 1.073640
vt -0.070207 1.084867
vt -0.086427 0.931723
vt -0.082208 0.931276
vt -0.065988 1.084420
vt 0.023289 1.001047
vt 0.036985 1.003947
vt 0.036106 1.008098
vt 0.022409 1.005197
vt 0.022592 1.004334
vt 0.036288 1.007235
vt 0.035409 1.011385
vt 0.021713 1.008485
vt -0.000323 1.109482
vt -0.014019 1.112383
vt -0.014898 1.108232
vt -0.001202 1.105331
vt -0.043801 0.904200
vt -0.057497 0.907101
vt -0.058376 0.902950
vt -0.044680 0.900049
vt 0.079374 1.072834
vt 0.071374 1.072834
vt 0.071374 1.068592
vt 0.079374 1.068592
vt -0.079375 1.026166
vt -0.071375 1.026166
vt -0.071375 1.030409
vt -0.079375 1.030409
vt 0.079379 0.931414
vt 0.071379 0.931414
vt 0.071379 0.927171
vt 0.079379 0.927171
vt -0.079377 0.969597
vt -0.071377 0.969597
vt -0.071377 0.973839
vt -0.079377 0.973839
vt 0.066801 1.050673
vt 0.065135 1.046771
vt 0.069347 1.047279
vt 0.043853 1.095610
vt 0.048065 1.095102
vt 0.046399 1.099004
vt -0.033737 1.009544
vt -0.029536 1.010133
vt -0.032147 1.013477
vt -0.064872 1.089226
vt -0.067483 1.085882
vt -0.063282 1.085293
vt 0.079155 0.972091
vt 0.074953 0.971502
vt 0.077564 0.968158
vt 0.019460 0.892408
vt 0.022071 0.895752
vt 0.017869 0.896341
vt -0.027616 0.978730
vt -0.025950 0.982632
vt -0.030162 0.982124
vt -0.083043 0.933793
vt -0.087255 0.934302
vt -0.085589 0.930400
vt 0.077007 1.075496
vt 0.076560 1.089488
vt 0.068564 1.089233
vt 0.069011 1.075240
vt -0.069011 1.075240
vt -0.068564 1.089233
vt -0.076560 1.089488
vt -0.077007 1.075496
vt 0.079374 1.077002
vt 0.071374 1.077002
vt 0.071378 0.923002
vt 0.079378 0.923002
vt -0.079378 0.923002
vt -0.071378 0.923002
vt -0.071374 1.077002
vt -0.079374 1.077002
vt 0.060790 1.086963
vt 0.083599 0.934661
vt 0.097445 0.936735
vt 0.074636 1.089036
vt -0.074636 1.089036
vt -0.097445 0.936735
vt -0.083599 0.934661
vt -0.060790 1.086963
vt 0.096927 1.087697
vt 0.113148 0.934553
vt 0.117367 0.935000
vt 0.101146 1.088144
vt 0.004856 1.076916
vt -0.011359 0.923772
vt -0.007140 0.923326
vt 0.009075 1.076470
vt -0.004856 1.076916
vt 0.011359 0.923772
vt 0.015578 0.924219
vt -0.000637 1.077363
vt -0.105365 1.088591
vt -0.121586 0.935447
vt -0.117367 0.935000
vt -0.101146 1.088144
vt 0.072203 1.011407
vt 0.085900 1.014308
vt 0.085021 1.018458
vt 0.071324 1.015557
vt 0.071507 1.014694
vt 0.085203 1.017594
vt 0.084324 1.021745
vt 0.070628 1.018844
vt -0.049238 1.119842
vt -0.062934 1.122742
vt -0.063813 1.118592
vt -0.050117 1.115691
vt -0.092716 0.914560
vt -0.106412 0.917461
vt -0.107291 0.913311
vt -0.093595 0.910410
vt 0.079373 1.108190
vt 0.071373 1.108189
vt 0.071373 1.103947
vt 0.079373 1.103947
vt -0.079377 0.990811
vt -0.071377 0.990811
vt -0.071377 0.995053
vt -0.079377 0.995054
vt 0.079381 0.896059
vt 0.071381 0.896058
vt 0.071381 0.891816
vt 0.079381 0.891816
vt -0.079376 1.004952
vt -0.071376 1.004952
vt -0.071376 1.009195
vt -0.079376 1.009195
vt 0.099456 1.075174
vt 0.097790 1.071272
vt 0.102002 1.071781
vt 0.011197 1.120110
vt 0.015409 1.119602
vt 0.013743 1.123504
vt 0.004109 0.994237
vt 0.008311 0.994826
vt 0.005700 0.998170
vt -0.102720 1.073921
vt -0.105330 1.070577
vt -0.101129 1.069988
vt 0.117002 0.956786
vt 0.112800 0.956197
vt 0.115411 0.952853
vt -0.018387 0.877101
vt -0.015776 0.880446
vt -0.019977 0.881034
vt 0.005040 1.003230
vt 0.006706 1.007132
vt 0.002494 1.006624
vt -0.115698 0.958295
vt -0.119910 0.958803
vt -0.118244 0.954901
vt 0.075411 1.125470
vt 0.074965 1.139463
vt 0.066969 1.139208
vt 0.067415 1.125215
vt -0.067415 1.125215
vt -0.066969 1.139208
vt -0.074965 1.139463
vt -0.075411 1.125470
vt 0.079374 1.077002
vt 0.071374 1.077002
vt 0.071378 0.923002
vt 0.079378 0.923002
vt -0.079378 0.923002
vt -0.071378 0.923002
vt -0.071374 1.077002
vt -0.079374 1.077002
vt 0.110239 1.094368
vt 0.133048 0.942067
vt 0.146894 0.944140
vt 0.124084 1.096442
vt -0.124084 1.096442
vt -0.146894 0.944140
vt -0.133048 0.942067
vt -0.110239 1.094368
vt 0.132086 1.091421
vt 0.148306 0.938277
vt 0.152525 0.938724
vt 0.136305 1.091867
vt -0.030303 1.080639
vt -0.046518 0.927495
vt -0.042298 0.927048
vt -0.026084 1.080192
vt 0.030303 1.080639
vt 0.046518 0.927495
vt 0.050737 0.927942
vt 0.034522 1.081086
vt -0.140524 1.092314
vt -0.156744 0.939171
vt -0.152525 0.938724
vt -0.136305 1.091867
vt 0.121118 1.021767
vt 0.134815 1.024668
vt 0.133935 1.028818
vt 0.120239 1.025918
vt 0.120422 1.025054
vt 0.134118 1.027954
vt 0.133239 1.032105
vt 0.119543 1.029204
vt -0.098153 1.130201
vt -0.111849 1.133102
vt -0.112728 1.128952
vt -0.099032 1.126051
vt -0.141631 0.924920
vt -0.155327 0.927821
vt -0.156206 0.923671
vt -0.142510 0.920770
vt 0.079372 1.143545
vt 0.071372 1.143545
vt 0.071372 1.139302
vt 0.079372 1.139302
vt -0.079378 0.955456
vt -0.071378 0.955455
vt -0.071378 0.959698
vt -0.079378 0.959698
vt 0.079382 0.860703
vt 0.071382 0.860703
vt 0.071382 0.856460
vt 0.079382 0.856461
vt -0.079375 1.040308
vt -0.071375 1.040307
vt -0.071375 1.044550
vt -0.079375 1.044550
vt 0.132111 1.099676
vt 0.130445 1.095774
vt 0.134657 1.096282
vt -0.021459 1.144611
vt -0.017247 1.144102
vt -0.018913 1.148004
vt 0.041956 0.978930
vt 0.046157 0.979519
vt 0.043547 0.982864
vt -0.140567 1.058616
vt -0.143178 1.055272
vt -0.138976 1.054683
vt 0.154849 0.941480
vt 0.150648 0.940891
vt 0.153259 0.937547
vt -0.056233 0.861794
vt -0.053622 0.865139
vt -0.057824 0.865728
vt 0.037696 1.027730
vt 0.039362 1.031632
vt 0.035150 1.031124
vt -0.148353 0.982796
vt -0.152565 0.983305
vt -0.150899 0.979403
vt 0.073816 1.175445
vt 0.073369 1.189438
vt 0.065373 1.189182
vt 0.065820 1.175189
vt -0.065820 1.175189
vt -0.065373 1.189182
vt -0.073369 1.189438
vt -0.073816 1.175445
vt 0.079374 1.077002
vt 0.071374 1.077002
vt 0.071378 0.923002
vt 0.079378 0.923002
vt -0.079378 0.923002
vt -0.071378 0.923002
vt -0.071374 1.077002
vt -0.079374 1.077002
vt 0.159687 1.101774
vt 0.182496 0.949472
vt 0.196342 0.951546
vt 0.173533 1.103847
vt -0.173533 1.103847
vt -0.196342 0.951546
vt -0.182496 0.949472
vt -0.159687 1.101774
vt 0.167245 1.095145
vt 0.183465 0.942001
vt 0.187684 0.942448
vt 0.171464 1.095591
vt -0.065461 1.084361
vt -0.081676 0.931217
vt -0.077457 0.930771
vt -0.061242 1.083915
vt 0.065461 1.084361
vt 0.081676 0.931217
vt 0.085895 0.931664
vt 0.069680 1.084808
vt -0.175683 1.096038
vt -0.191903 0.942895
vt -0.187684 0.942448
vt -0.171464 1.095591
vt 0.170033 1.032127
vt 0.183729 1.035028
vt 0.182850 1.039179
vt 0.169154 1.036278
vt 0.169337 1.035413
vt 0.183033 1.038314
vt 0.182154 1.042464
vt 0.168458 1.039564
vt -0.147068 1.140561
vt -0.160764 1.143462
vt -0.161643 1.139311
vt -0.147947 1.136411
vt -0.190545 0.935281
vt -0.204242 0.938182
vt -0.205121 0.934031
vt -0.191425 0.931130
vt 0.079371 1.178900
vt 0.071371 1.178900
vt 0.071371 1.174658
vt 0.079371 1.174658
vt -0.079380 0.920100
vt -0.071380 0.920100
vt -0.071379 0.924343
vt -0.079379 0.924343
vt 0.079384 0.825348
vt 0.071384 0.825348
vt 0.071384 0.821105
vt 0.079384 0.821105
vt -0.079374 1.075663
vt -0.071374 1.075663
vt -0.071374 1.079905
vt -0.079374 1.079906
vt 0.164766 1.124177
vt 0.163100 1.120275
vt 0.167312 1.120784
vt -0.054115 1.169111
vt -0.049903 1.168602
vt -0.051569 1.172504
vt 0.079802 0.963624
vt 0.084004 0.964213
vt 0.081393 0.967557
vt -0.178414 1.043311
vt -0.181025 1.039966
vt -0.176823 1.039377
vt 0.192696 0.926175
vt 0.188495 0.925586
vt 0.191106 0.922242
vt -0.094080 0.846488
vt -0.091469 0.849832
vt -0.095671 0.850421
vt 0.070352 1.052230
vt 0.072018 1.056132
vt 0.067806 1.055624
vt -0.181008 1.007298
vt -0.185220 1.007806
vt -0.183554 1.003904
usemtl Surface_2
f 4/4 2/2 1/1
usemtl Surface_2
f 3/3 2/2 4/4
usemtl Surface_2
f 8/8 6/6 5/5
usemtl Surface_2
f 7/7 6/6 8/8
usemtl Surface_2
f 12/12 10/10 9/9
usemtl Surface_2
f 11/11 10/10 12/12
usemtl Surface_2
f 16/16 14/14 13/13
usemtl Surface_2
f 15/15 14/14 16/16
usemtl Surface_2
f 20/20 18/18 17/17
usemtl Surface_2
f 19/19 18/18 20/20
usemtl Surface_2
f 24/24 22/22 21/21
usemtl Surface_2
f 23/23 22/22 24/24
usemtl Surface_2
f 28/28 26/26 25/25
usemtl Surface_2
f 27/27 26/26 28/28
usemtl Surface_2
f 32/32 30/30 29/29
usemtl Surface_2
f 31/31 30/30 32/32
usemtl Surface_2
f 36/36 34/34 33/33
usemtl Surface_2
f 35/35 34/34 36/36
usemtl Surface_2
f 40/40 38/38 37/37
usemtl Surface_2
f 39/39 38/38 40/40
usemtl Surface_2
f 44/44 42/42 41/41
usemtl Surface_2
f 43/43 42/42 44/44
usemtl Surface_2
f 48/48 46/46 45/45
usemtl Surface_2
f 47/47 46/46 48/48
usemtl Surface_2
f 52/52 50/50 49/49
usemtl Surface_2
f 51/51 50/50 52/52
usemtl Surface_2
f 56/56 54/54 53/53
usemtl Surface_2
f 55/55 54/54 56/56
usemtl Surface_2
f 60/60 58/58 57/57
usemtl Surface_2
f 59/59 58/58 60/60
usemtl Surface_2
f 64/64 62/62 61/61
usemtl Surface_2
f 63/63 62/62 64/64
usemtl Surface_2
f 68/68 66/66 65/65
usemtl Surface_2
f 67/67 66/66 68/68
usemtl Surface_2
f 72/72 70/70 69/69
usemtl Surface_2
f 71/71 70/70 72/72
usemtl Surface_2
f 73/73 75/75 74/74
usemtl Surface_2
f 76/76 78/78 77/77
usemtl Surface_2
f 79/79 81/81 80/80
usemtl Surface_2
f 82/82 84/84 83/83
usemtl Surface_2
f 85/85 87/87 86/86
usemtl Surface_2
f 88/88 90/90 89/89
usemtl Surface_2
f 91/91 93/93 92/92
usemtl Surface_2
f 94/94 96/96 95/95
usemtl Surface_0
f 100/100 98/98 97/97
usemtl Surface_0
f 99/99 98/98 100/100
usemtl Surface_0
f 104/104 102/102 101/101
usemtl Surface_0
f 103/103 102/102 104/104
usemtl Surface_0
f 108/108 106/106 105/105
usemtl Surface_0
f 107/107 106/106 108/108
usemtl Surface_0
f 112/112 110/110 109/109
usemtl Surface_0
f 111/111 110/110 112/112
usemtl Surface_0
f 116/116 114/114 113/113
usemtl Surface_0
f 115/115 114/114 116/116
usemtl Surface_0
f 120/120 118/118 117/117
usemtl Surface_0
f 119/119 118/118 120/120
usemtl Surface_0
f 124/124 122/122 121/121
usemtl Surface_0
f 123/123 122/122 124/124
usemtl Surface_0
f 128/128 126/126 125/125
usemtl Surface_0
f 127/127 126/126 128/128
usemtl Surface_0
f 132/132 130/130 129/129
usemtl Surface_0
f 131/131 130/130 132/132
usemtl Surface_0
f 136/136 134/134 133/133
usemtl Surface_0
f 135/135 134/134 136/136
usemtl Surface_0
f 140/140 138/138 137/137
usemtl Surface_0
f 139/139 138/138 140/140
usemtl Surface_0
f 144/144 142/142 141/141
usemtl Surface_0
f 143/143 142/142 144/144
usemtl Surface_0
f 148/148 146/146 145/145
usemtl Surface_0
f 147/147 146/146 148/148
usemtl Surface_0
f 152/152 150/150 149/149
usemtl Surface_0
f 151/151 150/150 152/152
usemtl Surface_0
f 156/156 154/154 153/153
usemtl Surface_0
f 155/155 154/154 156/156
usemtl Surface_0
f 160/160 158/158 157/157
usemtl Surface_0
f 159/159 158/158 160/160
usemtl Surface_0
f 164/164 162/162 161/161
usemtl Surface_0
f 163/163 162/162 164/164
usemtl Surface_0
f 168/168 166/166 165/165
usemtl Surface_0
f 167/167 166/166 168/168
usemtl Surface_0
f 169/169 171/171 170/170
usemtl Surface_0
f 172/172 174/174 173/173
usemtl Surface_0
f 175/175 177/177 176/176
usemtl Surface_0
f 178/178 180/180 179/179
usemtl Surface_0
f 181/181 183/183 182/182
usemtl Surface_0
f 184/184 186/186 185/185
usemtl Surface_0
f 187/187 189/189 188/188
usemtl Surface_0
f 190/190 192/192 191/191
usemtl Surface_0
f 200/200 194/194 193/193
usemtl Surface_0
f 199/199 194/194 200/200
usemtl Surface_0
f 198/198 194/194 199/199
usemtl Surface_0
f 197/197 194/194 198/198
usemtl Surface_0
f 196/196 194/194 197/197
usemtl Surface_0
f 195/195 194/194 196/196
usemtl Surface_0
f 208/208 202/202 201/201
usemtl Surface_0
f 207/207 202/202 208/208
usemtl Surface_0
f 206/206 202/202 207/207
usemtl Surface_0
f 205/205 202/202 206/206
usemtl Surface_0
f 204/204 202/202 205/205
usemtl Surface_0
f 203/203 202/202 204/204
usemtl Surface_0
f 212/212 210/210 209/209
usemtl Surface_0
f 211/211 210/210 212/212
usemtl Surface_1
f 216/216 214/214 213/213
usemtl Surface_1
f 215/215 214/214 216/216
usemtl Surface_0
f 220/220 218/218 217/217
usemtl Surface_0
f 219/219 218/218 220/220
usemtl Surface_1
f 224/224 222/222 221/221
usemtl Surface_1
f 223/223 222/222 224/224
usemtl Surface_0
f 228/228 226/226 225/225
usemtl Surface_0
f 227/227 226/226 228/228
usemtl Surface_1
f 232/232 230/230 229/229
usemtl Surface_1
f 231/231 230/230 232/232
usemtl Surface_0
f 236/236 234/234 233/233
usemtl Surface_0
f 235/235 234/234 236/236
usemtl Surface_1
f 240/240 238/238 237/237
usemtl Surface_1
f 239/239 238/238 240/240
usemtl Surface_0
f 244/244 242/242 241/241
usemtl Surface_0
f 243/243 242/242 244/244
usemtl Surface_1
f 248/248 246/246 245/245
usemtl Surface_1
f 247/247 246/246 248/248
usemtl Surface_0
f 252/252 250/250 249/249
usemtl Surface_0
f 251/251 250/250 252/252
usemtl Surface_1
f 256/256 254/254 253/253
usemtl Surface_1
f 255/255 254/254 256/256
usemtl Surface_0
f 260/260 258/258 257/257
usemtl Surface_0
f 259/259 258/258 260/260
usemtl Surface_1
f 264/264 262/262 261/261
usemtl Surface_1
f 263/263 262/262 264/264
usemtl Surface_0
f 268/268 266/266 265/265
usemtl Surface_0
f 267/267 266/266 268/268
usemtl Surface_1
f 272/272 270/270 269/269
usemtl Surface_1
f 271/271 270/270 272/272
usemtl Surface_0
f 276/276 274/274 273/273
usemtl Surface_0
f 275/275 274/274 276/276
usemtl Surface_0
f 280/280 278/278 277/277
usemtl Surface_0
f 279/279 278/278 280/280
usemtl Surface_0
f 284/284 282/282 281/281
usemtl Surface_0
f 283/283 282/282 284/284
usemtl Surface_0
f 288/288 286/286 285/285
usemtl Surface_0
f 287/287 286/286 288/288
usemtl Surface_0
f 292/292 290/290 289/289
usemtl Surface_0
f 291/291 290/290 292/292
usemtl Surface_0
f 296/296 294/294 293/293
usemtl Surface_0
f 295/295 294/294 296/296
usemtl Surface_0
f 300/300 298/298 297/297
usemtl Surface_0
f 299/299 298/298 300/300
usemtl Surface_0
f 304/304 302/302 301/301
usemtl Surface_0
f 303/303 302/302 304/304
usemtl Surface_0
f 308/308 306/306 305/305
usemtl Surface_0
f 307/307 306/306 308/308
usemtl Surface_0
f 312/312 310/310 309/309
usemtl Surface_0
f 311/311 310/310 312/312
usemtl Surface_0
f 316/316 314/314 313/313
usemtl Surface_0
f 315/315 314/314 316/316
usemtl Surface_0
f 320/320 318/318 317/317
usemtl Surface_0
f 319/319 318/318 320/320
usemtl Surface_0
f 324/324 322/322 321/321
usemtl Surface_0
f 323/323 322/322 324/324
usemtl Surface_0
f 328/328 326/326 325/325
usemtl Surface_0
f 327/327 326/326 328/328
usemtl Surface_0
f 332/332 330/330 329/329
usemtl Surface_0
f 331/331 330/330 332/332
usemtl Surface_0
f 336/336 334/334 333/333
usemtl Surface_0
f 335/335 334/334 336/336
usemtl Surface_0
f 340/340 338/338 337/337
usemtl Surface_0
f 339/339 338/338 340/340
usemtl Surface_0
f 344/344 342/342 341/341
usemtl Surface_0
f 343/343 342/342 344/344
usemtl Surface_0
f 345/345 347/347 346/346
usemtl Surface_0
f 348/348 350/350 349/349
usemtl Surface_0
f 351/351 353/353 352/352
usemtl Surface_0
f 354/354 356/356 355/355
usemtl Surface_0
f 357/357 359/359 358/358
usemtl Surface_0
f 360/360 362/362 361/361
usemtl Surface_0
f 363/363 365/365 364/364
usemtl Surface_0
f 366/366 368/368 367/367
usemtl Surface_4
f 372/372 370/370 369/369
usemtl Surface_4
f 371/371 370/370 372/372
usemtl Surface_4
f 376/376 374/374 373/373
usemtl Surface_4
f 375/375 374/374 376/376
usemtl Surface_4
f 380/380 378/378 377/377
usemtl Surface_4
f 379/379 378/378 380/380
usemtl Surface_4
f 384/384 382/382 381/381
usemtl Surface_4
f 383/383 382/382 384/384
usemtl Surface_4
f 388/388 386/386 385/385
usemtl Surface_4
f 387/387 386/386 388/388
usemtl Surface_4
f 392/392 390/390 389/389
usemtl Surface_4
f 391/391 390/390 392/392
usemtl Surface_4
f 396/396 394/394 393/393
usemtl Surface_4
f 395/395 394/394 396/396
usemtl Surface_4
f 400/400 398/398 397/397
usemtl Surface_4
f 399/399 398/398 400/400
usemtl Surface_4
f 404/404 402/402 401/401
usemtl Surface_4
f 403/403 402/402 404/404
usemtl Surface_4
f 408/408 406/406 405/405
usemtl Surface_4
f 407/407 406/406 408/408
usemtl Surface_4
f 412/412 410/410 409/409
usemtl Surface_4
f 411/411 410/410 412/412
usemtl Surface_4
f 416/416 414/414 413/413
usemtl Surface_4
f 415/415 414/414 416/416
usemtl Surface_4
f 420/420 418/418 417/417
usemtl Surface_4
f 419/419 418/418 420/420
usemtl Surface_4
f 424/424 422/422 421/421
usemtl Surface_4
f 423/423 422/422 424/424
usemtl Surface_4
f 428/428 426/426 425/425
usemtl Surface_4
f 427/427 426/426 428/428
usemtl Surface_4
f 432/432 430/430 429/429
usemtl Surface_4
f 431/431 430/430 432/432
usemtl Surface_4
f 436/436 434/434 433/433
usemtl Surface_4
f 435/435 434/434 436/436
usemtl Surface_4
f 440/440 438/438 437/437
usemtl Surface_4
f 439/439 438/438 440/440
usemtl Surface_4
f 441/441 443/443 442/442
usemtl Surface_4
f 444/444 446/446 445/445
usemtl Surface_4
f 447/447 449/449 448/448
usemtl Surface_4
f 450/450 452/452 451/451
usemtl Surface_4
f 453/453 455/455 454/454
usemtl Surface_4
f 456/456 458/458 457/457
usemtl Surface_4
f 459/459 461/461 460/460
usemtl Surface_4
f 462/462 464/464 463/463
usemtl Surface_4
f 468/468 466/466 465/465
usemtl Surface_4
f 467/467 466/466 468/468
usemtl Surface_4
f 472/472 470/470 469/469
usemtl Surface_4
f 471/471 470/470 472/472
usemtl Surface_4
f 476/476 474/474 473/473
usemtl Surface_4
f 475/475 474/474 476/476
usemtl Surface_4
f 480/480 478/478 477/477
usemtl Surface_4
f 479/479 478/478 480/480
usemtl Surface_4
f 484/484 482/482 481/481
usemtl Surface_4
f 483/483 482/482 484/484
usemtl Surface_4
f 488/488 486/486 485/485
usemtl Surface_4
f 487/487 486/486 488/488
usemtl Surface_4
f 492/492 490/490 489/489
usemtl Surface_4
f 491/491 490/490 492/492
usemtl Surface_4
f 496/496 494/494 493/493
usemtl Surface_4
f 495/495 494/494 496/496
usemtl Surface_4
f 500/500 498/498 497/497
usemtl Surface_4
f 499/499 498/498 500/500
usemtl Surface_4
f 504/504 502/502 501/501
usemtl Surface_4
f 503/503 502/502 504/504
usemtl Surface_4
f 508/508 506/506 505/505
usemtl Surface_4
f 507/507 506/506 508/508
usemtl Surface_4
f 512/512 510/510 509/509
usemtl Surface_4
f 511/511 510/510 512/512
usemtl Surface_4
f 516/516 514/514 513/513
usemtl Surface_4
f 515/515 514/514 516/516
usemtl Surface_4
f 520/520 518/518 517/517
usemtl Surface_4
f 519/519 518/518 520/520
usemtl Surface_4
f 524/524 522/522 521/521
usemtl Surface_4
f 523/523 522/522 524/524
usemtl Surface_4
f 528/528 526/526 525/525
usemtl Surface_4
f 527/527 526/526 528/528
usemtl Surface_4
f 532/532 530/530 529/529
usemtl Surface_4
f 531/531 530/530 532/532
usemtl Surface_4
f 536/536 534/534 533/533
usemtl Surface_4
f 535/535 534/534 536/536
usemtl Surface_4
f 537/537 539/539 538/538
usemtl Surface_4
f 540/540 542/542 541/541
usemtl Surface_4
f 543/543 545/545 544/544
usemtl Surface_4
f 546/546 548/548 547/547
usemtl Surface_4
f 549/549 551/551 550/550
usemtl Surface_4
f 552/552 554/554 553/553
usemtl Surface_4
f 555/555 557/557 556/556
usemtl Surface_4
f 558/558 560/560 559/559
usemtl Surface_4
f 564/564 562/562 561/561
usemtl Surface_4
f 563/563 562/562 564/564
usemtl Surface_4
f 568/568 566/566 565/565
usemtl Surface_4
f 567/567 566/566 568/568
usemtl Surface_4
f 572/572 570/570 569/569
usemtl Surface_4
f 571/571 570/570 572/572
usemtl Surface_4
f 576/576 574/574 573/573
usemtl Surface_4
f 575/575 574/574 576/576
usemtl Surface_4
f 580/580 578/578 577/577
usemtl Surface_4
f 579/579 578/578 580/580
usemtl Surface_4
f 584/584 582/582 581/581
usemtl Surface_4
f 583/583 582/582 584/584
usemtl Surface_4
f 588/588 586/586 585/585
usemtl Surface_4
f 587/587 586/586 588/588
usemtl Surface_4
f 592/592 590/590 589/589
usemtl Surface_4
f 591/591 590/590 592/592
usemtl Surface_4
f 596/596 594/594 593/593
usemtl Surface_4
f 595/595 594/594 596/596
usemtl Surface_4
f 600/600 598/598 597/597
usemtl Surface_4
f 599/599 598/598 600/600
usemtl Surface_4
f 604/604 602/602 601/601
usemtl Surface_4
f 603/603 602/602 604/604
usemtl Surface_4
f 608/608 606/606 605/605
usemtl Surface_4
f 607/607 606/606 608/608
usemtl Surface_4
f 612/612 610/610 609/609
usemtl Surface_4
f 611/611 610/610 612/612
usemtl Surface_4
f 616/616 614/614 613/613
usemtl Surface_4
f 615/615 614/614 616/616
usemtl Surface_4
f 620/620 618/618 617/617
usemtl Surface_4
f 619/619 618/618 620/620
usemtl Surface_4
f 624/624 622/622 621/621
usemtl Surface_4
f 623/623 622/622 624/624
usemtl Surface_4
f 628/628 626/626 625/625
usemtl Surface_4
f 627/627 626/626 628/628
usemtl Surface_4
f 632/632 630/630 629/629
usemtl Surface_4
f 631/631 630/630 632/632
usemtl Surface_4
f 633/633 635/635 634/634
usemtl Surface_4
f 636/636 638/638 637/637
usemtl Surface_4
f 639/639 641/641 640/640
usemtl Surface_4
f 642/642 644/644 643/643
usemtl Surface_4
f 645/645 647/647 646/646
usemtl Surface_4
f 648/648 650/650 649/649
usemtl Surface_4
f 651/651 653/653 652/652
usemtl Surface_4
f 654/654 656/656 655/655
usemtl Surface_4
f 660/660 658/658 657/657
usemtl Surface_4
f 659/659 658/658 660/660
usemtl Surface_4
f 664/664 662/662 661/661
usemtl Surface_4
f 663/663 662/662 664/664
usemtl Surface_4
f 668/668 666/666 665/665
usemtl Surface_4
f 667/667 666/666 668/668
usemtl Surface_4
f 672/672 670/670 669/669
usemtl Surface_4
f 671/671 670/670 672/672
usemtl Surface_4
f 676/676 674/674 673/673
usemtl Surface_4
f 675/675 674/674 676/676
usemtl Surface_4
f 680/680 678/678 677/677
usemtl Surface_4
f 679/679 678/678 680/680
usemtl Surface_4
f 684/684 682/682 681/681
usemtl Surface_4
f 683/683 682/682 684/684
usemtl Surface_4
f 688/688 686/686 685/685
usemtl Surface_4
f 687/687 686/686 688/688
usemtl Surface_4
f 692/692 690/690 689/689
usemtl Surface_4
f 691/691 690/690 692/692
usemtl Surface_4
f 696/696 694/694 693/693
usemtl Surface_4
f 695/695 694/694 696/696
usemtl Surface_4
f 700/700 698/698 697/697
usemtl Surface_4
f 699/699 698/698 700/700
usemtl Surface_4
f 704/704 702/702 701/701
usemtl Surface_4
f 703/703 702/702 704/704
usemtl Surface_4
f 708/708 706/706 705/705
usemtl Surface_4
f 707/707 706/706 708/708
usemtl Surface_4
f 712/712 710/710 709/709
usemtl Surface_4
f 711/711 710/710 712/712
usemtl Surface_4
f 716/716 714/714 713/713
usemtl Surface_4
f 715/715 714/714 716/716
usemtl Surface_4
f 720/720 718/718 717/717
usemtl Surface_4
f 719/719 718/718 720/720
usemtl Surface_4
f 724/724 722/722 721/721
usemtl Surface_4
f 723/723 722/722 724/724
usemtl Surface_4
f 728/728 726/726 725/725
usemtl Surface_4
f 727/727 726/726 728/728
usemtl Surface_4
f 729/729 731/731 730/730
usemtl Surface_4
f 732/732 734/734 733/733
usemtl Surface_4
f 735/735 737/737 736/736
usemtl Surface_4
f 738/738 740/740 739/739
usemtl Surface_4
f 741/741 743/743 742/742
usemtl Surface_4
f 744/744 746/746 745/745
usemtl Surface_4
f 747/747 749/749 748/748
usemtl Surface_4
f 750/750 752/752 751/751
