# Null Route authored hard-surface mesh. Centimeters, Z up.
v 0.03197 4.34118 -0.68238
v 0.18533 3.46107 2.70169
v -6.77482 2.72562 2.82583
v -6.92818 3.60572 -0.55823
v -6.15118 -4.09146 -2.59528
v -5.99782 -4.97157 0.78879
v 0.96233 -4.23611 0.66464
v 0.80898 -3.35601 -2.71942
v 0.08528 3.63049 -1.90388
v -6.87487 2.89503 -1.77974
v -6.29212 -2.87786 -3.30752
v 0.66803 -2.14240 -3.43167
v 0.90903 -3.52542 1.88615
v -6.05113 -4.26088 2.01030
v -6.63388 1.51201 3.53808
v 0.32627 2.24747 3.41393
v 1.12341 3.48410 -0.95474
v 1.70616 -2.28880 -2.48253
v 1.85952 -3.16890 0.90154
v 1.27676 2.60399 2.42932
v -7.67200 1.65841 2.58894
v -7.08925 -4.11449 1.06116
v -7.24261 -3.23438 -2.32291
v -7.82536 2.53851 -0.79513
v 0.08528 3.63049 -1.90388
v 0.66803 -2.14240 -3.43167
v 1.70616 -2.28880 -2.48253
v 1.12341 3.48410 -0.95474
v -7.82536 2.53851 -0.79513
v -7.24261 -3.23438 -2.32291
v -6.29212 -2.87786 -3.30752
v -6.87487 2.89503 -1.77974
v 1.27676 2.60399 2.42932
v 1.85952 -3.16890 0.90154
v 0.90903 -3.52542 1.88615
v 0.32627 2.24747 3.41393
v -6.63388 1.51201 3.53808
v -6.05113 -4.26088 2.01030
v -7.08925 -4.11449 1.06116
v -7.67200 1.65841 2.58894
v 1.12341 3.48410 -0.95474
v 1.27676 2.60399 2.42932
v 0.18533 3.46107 2.70169
v 0.03197 4.34118 -0.68238
v 0.80898 -3.35601 -2.71942
v 0.96233 -4.23611 0.66464
v 1.85952 -3.16890 0.90154
v 1.70616 -2.28880 -2.48253
v -6.92818 3.60572 -0.55823
v -6.77482 2.72562 2.82583
v -7.67200 1.65841 2.58894
v -7.82536 2.53851 -0.79513
v -7.24261 -3.23438 -2.32291
v -7.08925 -4.11449 1.06116
v -5.99782 -4.97157 0.78879
v -6.15118 -4.09146 -2.59528
v 0.03197 4.34118 -0.68238
v -6.92818 3.60572 -0.55823
v -6.87487 2.89503 -1.77974
v 0.08528 3.63049 -1.90388
v 0.32627 2.24747 3.41393
v -6.63388 1.51201 3.53808
v -6.77482 2.72562 2.82583
v 0.18533 3.46107 2.70169
v 0.66803 -2.14240 -3.43167
v -6.29212 -2.87786 -3.30752
v -6.15118 -4.09146 -2.59528
v 0.80898 -3.35601 -2.71942
v 0.96233 -4.23611 0.66464
v -5.99782 -4.97157 0.78879
v -6.05113 -4.26088 2.01030
v 0.90903 -3.52542 1.88615
v 0.03197 4.34118 -0.68238
v 0.08528 3.63049 -1.90388
v 1.12341 3.48410 -0.95474
v -7.82536 2.53851 -0.79513
v -6.87487 2.89503 -1.77974
v -6.92818 3.60572 -0.55823
v 1.27676 2.60399 2.42932
v 0.32627 2.24747 3.41393
v 0.18533 3.46107 2.70169
v -6.77482 2.72562 2.82583
v -6.63388 1.51201 3.53808
v -7.67200 1.65841 2.58894
v 1.70616 -2.28880 -2.48253
v 0.66803 -2.14240 -3.43167
v 0.80898 -3.35601 -2.71942
v -6.15118 -4.09146 -2.59528
v -6.29212 -2.87786 -3.30752
v -7.24261 -3.23438 -2.32291
v 0.96233 -4.23611 0.66464
v 0.90903 -3.52542 1.88615
v 1.85952 -3.16890 0.90154
v -7.08925 -4.11449 1.06116
v -6.05113 -4.26088 2.01030
v -5.99782 -4.97157 0.78879
v -1.02131 2.96243 3.14381
v -5.39626 2.50014 3.22185
v -7.08009 0.86360 2.87254
v -6.64303 -3.46607 1.72670
v -4.66782 -4.71597 1.31212
v -0.29287 -4.25369 1.23408
v 1.34785 -2.98636 1.48933
v 0.83794 2.06492 2.82614
v 0.50298 1.31340 4.40411
v 0.95680 -3.18224 3.21435
v -0.50344 -4.31017 2.98718
v -4.39715 -4.72160 3.05663
v -6.15509 -3.60919 3.42560
v -6.54407 0.24421 4.44540
v -5.04546 1.70074 4.75629
v -1.15175 2.11217 4.68684
v 0.83794 2.06492 2.82614
v 1.34785 -2.98636 1.48933
v 1.40700 -3.32583 2.79461
v 0.89709 1.72545 4.13142
v 0.89709 1.72545 4.13142
v 1.40700 -3.32583 2.79461
v 0.95680 -3.18224 3.21435
v 0.50298 1.31340 4.40411
v 1.34785 -2.98636 1.48933
v -0.29287 -4.25369 1.23408
v -0.23371 -4.59316 2.53937
v 1.40700 -3.32583 2.79461
v 1.40700 -3.32583 2.79461
v -0.23371 -4.59316 2.53937
v -0.50344 -4.31017 2.98718
v 0.95680 -3.18224 3.21435
v -0.29287 -4.25369 1.23408
v -4.66782 -4.71597 1.31212
v -4.60867 -5.05544 2.61740
v -0.23371 -4.59316 2.53937
v -0.23371 -4.59316 2.53937
v -4.60867 -5.05544 2.61740
v -4.39715 -4.72160 3.05663
v -0.50344 -4.31017 2.98718
v -4.66782 -4.71597 1.31212
v -6.64303 -3.46607 1.72670
v -6.58388 -3.80554 3.03198
v -4.60867 -5.05544 2.61740
v -4.60867 -5.05544 2.61740
v -6.58388 -3.80554 3.03198
v -6.15509 -3.60919 3.42560
v -4.39715 -4.72160 3.05663
v -6.64303 -3.46607 1.72670
v -7.08009 0.86360 2.87254
v -7.02094 0.52413 4.17782
v -6.58388 -3.80554 3.03198
v -6.58388 -3.80554 3.03198
v -7.02094 0.52413 4.17782
v -6.54407 0.24421 4.44540
v -6.15509 -3.60919 3.42560
v -7.08009 0.86360 2.87254
v -5.39626 2.50014 3.22185
v -5.33710 2.16067 4.52713
v -7.02094 0.52413 4.17782
v -7.02094 0.52413 4.17782
v -5.33710 2.16067 4.52713
v -5.04546 1.70074 4.75629
v -6.54407 0.24421 4.44540
v -5.39626 2.50014 3.22185
v -1.02131 2.96243 3.14381
v -0.96215 2.62296 4.44910
v -5.33710 2.16067 4.52713
v -5.33710 2.16067 4.52713
v -0.96215 2.62296 4.44910
v -1.15175 2.11217 4.68684
v -5.04546 1.70074 4.75629
v -1.02131 2.96243 3.14381
v 0.83794 2.06492 2.82614
v 0.89709 1.72545 4.13142
v -0.96215 2.62296 4.44910
v -0.96215 2.62296 4.44910
v 0.89709 1.72545 4.13142
v 0.50298 1.31340 4.40411
v -1.15175 2.11217 4.68684
v -7.20799 3.42770 -0.38500
v -7.07216 2.64818 2.61232
v -11.44711 2.18589 2.69035
v -11.58294 2.96541 -0.30696
v -11.40812 1.23354 -0.76530
v -11.27229 0.45402 2.23202
v -6.89734 0.91631 2.15398
v -7.03317 1.69583 -0.84333
v -7.17068 2.93021 -1.24005
v -11.54563 2.46793 -1.16202
v -11.50678 2.08307 -1.26387
v -7.13183 2.54536 -1.34191
v -6.93465 1.41379 3.00904
v -11.30960 0.95151 3.08707
v -11.34845 1.33637 3.18892
v -6.97350 1.79865 3.11089
v -6.44399 2.82774 -0.57565
v -6.40514 2.44288 -0.67751
v -6.26931 1.66336 2.31981
v -6.30816 2.04822 2.42166
v -12.07514 1.43884 2.52452
v -12.03629 1.05398 2.42267
v -12.17212 1.83350 -0.57464
v -12.21097 2.21836 -0.47279
v -7.17068 2.93021 -1.24005
v -7.13183 2.54536 -1.34191
v -6.40514 2.44288 -0.67751
v -6.44399 2.82774 -0.57565
v -12.21097 2.21836 -0.47279
v -12.17212 1.83350 -0.57464
v -11.50678 2.08307 -1.26387
v -11.54563 2.46793 -1.16202
v -6.30816 2.04822 2.42166
v -6.26931 1.66336 2.31981
v -6.93465 1.41379 3.00904
v -6.97350 1.79865 3.11089
v -11.34845 1.33637 3.18892
v -11.30960 0.95151 3.08707
v -12.03629 1.05398 2.42267
v -12.07514 1.43884 2.52452
v -6.44399 2.82774 -0.57565
v -6.30816 2.04822 2.42166
v -7.07216 2.64818 2.61232
v -7.20799 3.42770 -0.38500
v -7.03317 1.69583 -0.84333
v -6.89734 0.91631 2.15398
v -6.26931 1.66336 2.31981
v -6.40514 2.44288 -0.67751
v -11.58294 2.96541 -0.30696
v -11.44711 2.18589 2.69035
v -12.07514 1.43884 2.52452
v -12.21097 2.21836 -0.47279
v -12.17212 1.83350 -0.57464
v -12.03629 1.05398 2.42267
v -11.27229 0.45402 2.23202
v -11.40812 1.23354 -0.76530
v -7.20799 3.42770 -0.38500
v -11.58294 2.96541 -0.30696
v -11.54563 2.46793 -1.16202
v -7.17068 2.93021 -1.24005
v -6.97350 1.79865 3.11089
v -11.34845 1.33637 3.18892
v -11.44711 2.18589 2.69035
v -7.07216 2.64818 2.61232
v -7.13183 2.54536 -1.34191
v -11.50678 2.08307 -1.26387
v -11.40812 1.23354 -0.76530
v -7.03317 1.69583 -0.84333
v -6.89734 0.91631 2.15398
v -11.27229 0.45402 2.23202
v -11.30960 0.95151 3.08707
v -6.93465 1.41379 3.00904
v -7.20799 3.42770 -0.38500
v -7.17068 2.93021 -1.24005
v -6.44399 2.82774 -0.57565
v -12.21097 2.21836 -0.47279
v -11.54563 2.46793 -1.16202
v -11.58294 2.96541 -0.30696
v -6.30816 2.04822 2.42166
v -6.97350 1.79865 3.11089
v -7.07216 2.64818 2.61232
v -11.44711 2.18589 2.69035
v -11.34845 1.33637 3.18892
v -12.07514 1.43884 2.52452
v -6.40514 2.44288 -0.67751
v -7.13183 2.54536 -1.34191
v -7.03317 1.69583 -0.84333
v -11.40812 1.23354 -0.76530
v -11.50678 2.08307 -1.26387
v -12.17212 1.83350 -0.57464
v -6.89734 0.91631 2.15398
v -6.93465 1.41379 3.00904
v -6.26931 1.66336 2.31981
v -12.03629 1.05398 2.42267
v -11.30960 0.95151 3.08707
v -11.27229 0.45402 2.23202
v -7.03444 2.41148 3.32474
v -7.02568 2.36118 3.51812
v -8.41771 2.21409 3.54295
v -8.42647 2.26438 3.34957
v -8.26136 0.62873 2.91670
v -8.25260 0.57844 3.11007
v -6.86057 0.72553 3.08524
v -6.86933 0.77582 2.89187
v -7.01845 2.19827 2.95829
v -8.41048 2.05118 2.98312
v -8.30364 0.99281 2.70303
v -6.91161 1.13990 2.67820
v -6.87656 0.93874 3.45170
v -8.26859 0.79165 3.47653
v -8.37543 1.85001 3.75662
v -6.98340 1.99710 3.73179
v -6.70701 2.15435 3.24303
v -6.60017 1.09599 2.96294
v -6.59141 1.04570 3.15631
v -6.69825 2.10406 3.43641
v -8.68686 1.89393 3.47188
v -8.58003 0.83556 3.19178
v -8.58879 0.88586 2.99841
v -8.69563 1.94422 3.27850
v -7.01845 2.19827 2.95829
v -6.91161 1.13990 2.67820
v -6.60017 1.09599 2.96294
v -6.70701 2.15435 3.24303
v -8.69563 1.94422 3.27850
v -8.58879 0.88586 2.99841
v -8.30364 0.99281 2.70303
v -8.41048 2.05118 2.98312
v -6.69825 2.10406 3.43641
v -6.59141 1.04570 3.15631
v -6.87656 0.93874 3.45170
v -6.98340 1.99710 3.73179
v -8.37543 1.85001 3.75662
v -8.26859 0.79165 3.47653
v -8.58003 0.83556 3.19178
v -8.68686 1.89393 3.47188
v -6.70701 2.15435 3.24303
v -6.69825 2.10406 3.43641
v -7.02568 2.36118 3.51812
v -7.03444 2.41148 3.32474
v -6.86933 0.77582 2.89187
v -6.86057 0.72553 3.08524
v -6.59141 1.04570 3.15631
v -6.60017 1.09599 2.96294
v -8.42647 2.26438 3.34957
v -8.41771 2.21409 3.54295
v -8.68686 1.89393 3.47188
v -8.69563 1.94422 3.27850
v -8.58879 0.88586 2.99841
v -8.58003 0.83556 3.19178
v -8.25260 0.57844 3.11007
v -8.26136 0.62873 2.91670
v -7.03444 2.41148 3.32474
v -8.42647 2.26438 3.34957
v -8.41048 2.05118 2.98312
v -7.01845 2.19827 2.95829
v -6.98340 1.99710 3.73179
v -8.37543 1.85001 3.75662
v -8.41771 2.21409 3.54295
v -7.02568 2.36118 3.51812
v -6.91161 1.13990 2.67820
v -8.30364 0.99281 2.70303
v -8.26136 0.62873 2.91670
v -6.86933 0.77582 2.89187
v -6.86057 0.72553 3.08524
v -8.25260 0.57844 3.11007
v -8.26859 0.79165 3.47653
v -6.87656 0.93874 3.45170
v -7.03444 2.41148 3.32474
v -7.01845 2.19827 2.95829
v -6.70701 2.15435 3.24303
v -8.69563 1.94422 3.27850
v -8.41048 2.05118 2.98312
v -8.42647 2.26438 3.34957
v -6.69825 2.10406 3.43641
v -6.98340 1.99710 3.73179
v -7.02568 2.36118 3.51812
v -8.41771 2.21409 3.54295
v -8.37543 1.85001 3.75662
v -8.68686 1.89393 3.47188
v -6.60017 1.09599 2.96294
v -6.91161 1.13990 2.67820
v -6.86933 0.77582 2.89187
v -8.26136 0.62873 2.91670
v -8.30364 0.99281 2.70303
v -8.58879 0.88586 2.99841
v -6.86057 0.72553 3.08524
v -6.87656 0.93874 3.45170
v -6.59141 1.04570 3.15631
v -8.58003 0.83556 3.19178
v -8.26859 0.79165 3.47653
v -8.25260 0.57844 3.11007
v -7.01374 1.50340 -0.89426
v -6.87791 0.72388 2.10306
v -11.25286 0.26159 2.18109
v -11.38869 1.04111 -0.81622
v -11.21387 -0.69075 -1.27456
v -11.07804 -1.47027 1.72276
v -6.70309 -1.00799 1.64472
v -6.83892 -0.22847 -1.35259
v -6.97643 1.00592 -1.74931
v -11.35138 0.54363 -1.67128
v -11.31253 0.15877 -1.77313
v -6.93758 0.62106 -1.85117
v -6.74040 -0.51051 2.49977
v -11.11535 -0.97279 2.57781
v -11.15420 -0.58793 2.67966
v -6.77925 -0.12565 2.60163
v -6.24974 0.90344 -1.08492
v -6.21089 0.51858 -1.18677
v -6.07506 -0.26094 1.81055
v -6.11391 0.12392 1.91240
v -11.88089 -0.48546 2.01526
v -11.84204 -0.87032 1.91341
v -11.97787 -0.09079 -1.08390
v -12.01672 0.29406 -0.98205
v -6.97643 1.00592 -1.74931
v -6.93758 0.62106 -1.85117
v -6.21089 0.51858 -1.18677
v -6.24974 0.90344 -1.08492
v -12.01672 0.29406 -0.98205
v -11.97787 -0.09079 -1.08390
v -11.31253 0.15877 -1.77313
v -11.35138 0.54363 -1.67128
v -6.11391 0.12392 1.91240
v -6.07506 -0.26094 1.81055
v -6.74040 -0.51051 2.49977
v -6.77925 -0.12565 2.60163
v -11.15420 -0.58793 2.67966
v -11.11535 -0.97279 2.57781
v -11.84204 -0.87032 1.91341
v -11.88089 -0.48546 2.01526
v -6.24974 0.90344 -1.08492
v -6.11391 0.12392 1.91240
v -6.87791 0.72388 2.10306
v -7.01374 1.50340 -0.89426
v -6.83892 -0.22847 -1.35259
v -6.70309 -1.00799 1.64472
v -6.07506 -0.26094 1.81055
v -6.21089 0.51858 -1.18677
v -11.38869 1.04111 -0.81622
v -11.25286 0.26159 2.18109
v -11.88089 -0.48546 2.01526
v -12.01672 0.29406 -0.98205
v -11.97787 -0.09079 -1.08390
v -11.84204 -0.87032 1.91341
v -11.07804 -1.47027 1.72276
v -11.21387 -0.69075 -1.27456
v -7.01374 1.50340 -0.89426
v -11.38869 1.04111 -0.81622
v -11.35138 0.54363 -1.67128
v -6.97643 1.00592 -1.74931
v -6.77925 -0.12565 2.60163
v -11.15420 -0.58793 2.67966
v -11.25286 0.26159 2.18109
v -6.87791 0.72388 2.10306
v -6.93758 0.62106 -1.85117
v -11.31253 0.15877 -1.77313
v -11.21387 -0.69075 -1.27456
v -6.83892 -0.22847 -1.35259
v -6.70309 -1.00799 1.64472
v -11.07804 -1.47027 1.72276
v -11.11535 -0.97279 2.57781
v -6.74040 -0.51051 2.49977
v -7.01374 1.50340 -0.89426
v -6.97643 1.00592 -1.74931
v -6.24974 0.90344 -1.08492
v -12.01672 0.29406 -0.98205
v -11.35138 0.54363 -1.67128
v -11.38869 1.04111 -0.81622
v -6.11391 0.12392 1.91240
v -6.77925 -0.12565 2.60163
v -6.87791 0.72388 2.10306
v -11.25286 0.26159 2.18109
v -11.15420 -0.58793 2.67966
v -11.88089 -0.48546 2.01526
v -6.21089 0.51858 -1.18677
v -6.93758 0.62106 -1.85117
v -6.83892 -0.22847 -1.35259
v -11.21387 -0.69075 -1.27456
v -11.31253 0.15877 -1.77313
v -11.97787 -0.09079 -1.08390
v -6.70309 -1.00799 1.64472
v -6.74040 -0.51051 2.49977
v -6.07506 -0.26094 1.81055
v -11.84204 -0.87032 1.91341
v -11.11535 -0.97279 2.57781
v -11.07804 -1.47027 1.72276
v -6.84019 0.48718 2.81548
v -6.83143 0.43689 3.00886
v -8.22346 0.28980 3.03368
v -8.23222 0.34009 2.84031
v -8.06711 -1.29557 2.40744
v -8.05835 -1.34586 2.60081
v -6.66632 -1.19877 2.57598
v -6.67508 -1.14847 2.38261
v -6.82420 0.27397 2.44903
v -8.21623 0.12688 2.47386
v -8.10939 -0.93148 2.19376
v -6.71736 -0.78439 2.16894
v -6.68231 -0.98556 2.94244
v -8.07434 -1.13265 2.96726
v -8.18118 -0.07429 3.24736
v -6.78915 0.07280 3.22253
v -6.51276 0.23005 2.73377
v -6.40592 -0.82831 2.45368
v -6.39716 -0.87860 2.64705
v -6.50400 0.17976 2.92715
v -8.49261 -0.03037 2.96262
v -8.38578 -1.08873 2.68252
v -8.39454 -1.03844 2.48915
v -8.50138 0.01992 2.76924
v -6.82420 0.27397 2.44903
v -6.71736 -0.78439 2.16894
v -6.40592 -0.82831 2.45368
v -6.51276 0.23005 2.73377
v -8.50138 0.01992 2.76924
v -8.39454 -1.03844 2.48915
v -8.10939 -0.93148 2.19376
v -8.21623 0.12688 2.47386
v -6.50400 0.17976 2.92715
v -6.39716 -0.87860 2.64705
v -6.68231 -0.98556 2.94244
v -6.78915 0.07280 3.22253
v -8.18118 -0.07429 3.24736
v -8.07434 -1.13265 2.96726
v -8.38578 -1.08873 2.68252
v -8.49261 -0.03037 2.96262
v -6.51276 0.23005 2.73377
v -6.50400 0.17976 2.92715
v -6.83143 0.43689 3.00886
v -6.84019 0.48718 2.81548
v -6.67508 -1.14847 2.38261
v -6.66632 -1.19877 2.57598
v -6.39716 -0.87860 2.64705
v -6.40592 -0.82831 2.45368
v -8.23222 0.34009 2.84031
v -8.22346 0.28980 3.03368
v -8.49261 -0.03037 2.96262
v -8.50138 0.01992 2.76924
v -8.39454 -1.03844 2.48915
v -8.38578 -1.08873 2.68252
v -8.05835 -1.34586 2.60081
v -8.06711 -1.29557 2.40744
v -6.84019 0.48718 2.81548
v -8.23222 0.34009 2.84031
v -8.21623 0.12688 2.47386
v -6.82420 0.27397 2.44903
v -6.78915 0.07280 3.22253
v -8.18118 -0.07429 3.24736
v -8.22346 0.28980 3.03368
v -6.83143 0.43689 3.00886
v -6.71736 -0.78439 2.16894
v -8.10939 -0.93148 2.19376
v -8.06711 -1.29557 2.40744
v -6.67508 -1.14847 2.38261
v -6.66632 -1.19877 2.57598
v -8.05835 -1.34586 2.60081
v -8.07434 -1.13265 2.96726
v -6.68231 -0.98556 2.94244
v -6.84019 0.48718 2.81548
v -6.82420 0.27397 2.44903
v -6.51276 0.23005 2.73377
v -8.50138 0.01992 2.76924
v -8.21623 0.12688 2.47386
v -8.23222 0.34009 2.84031
v -6.50400 0.17976 2.92715
v -6.78915 0.07280 3.22253
v -6.83143 0.43689 3.00886
v -8.22346 0.28980 3.03368
v -8.18118 -0.07429 3.24736
v -8.49261 -0.03037 2.96262
v -6.40592 -0.82831 2.45368
v -6.71736 -0.78439 2.16894
v -6.67508 -1.14847 2.38261
v -8.06711 -1.29557 2.40744
v -8.10939 -0.93148 2.19376
v -8.39454 -1.03844 2.48915
v -6.66632 -1.19877 2.57598
v -6.68231 -0.98556 2.94244
v -6.39716 -0.87860 2.64705
v -8.38578 -1.08873 2.68252
v -8.07434 -1.13265 2.96726
v -8.05835 -1.34586 2.60081
v -6.81949 -0.42090 -1.40352
v -6.68366 -1.20042 1.59379
v -11.05861 -1.66270 1.67183
v -11.19444 -0.88318 -1.32549
v -11.01962 -2.61505 -1.78382
v -10.88379 -3.39457 1.21349
v -6.50884 -2.93229 1.13546
v -6.64467 -2.15276 -1.86186
v -6.78218 -0.91838 -2.25858
v -11.15713 -1.38067 -2.18054
v -11.11828 -1.76553 -2.28239
v -6.74333 -1.30324 -2.36043
v -6.54615 -2.43480 1.99051
v -10.92110 -2.89709 2.06855
v -10.95995 -2.51223 2.17040
v -6.58500 -2.04994 2.09237
v -6.05549 -1.02086 -1.59418
v -6.01664 -1.40571 -1.69603
v -5.88081 -2.18524 1.30129
v -5.91966 -1.80038 1.40314
v -11.68664 -2.40975 1.50600
v -11.64779 -2.79461 1.40415
v -11.78362 -2.01509 -1.59316
v -11.82247 -1.63023 -1.49131
v -6.78218 -0.91838 -2.25858
v -6.74333 -1.30324 -2.36043
v -6.01664 -1.40571 -1.69603
v -6.05549 -1.02086 -1.59418
v -11.82247 -1.63023 -1.49131
v -11.78362 -2.01509 -1.59316
v -11.11828 -1.76553 -2.28239
v -11.15713 -1.38067 -2.18054
v -5.91966 -1.80038 1.40314
v -5.88081 -2.18524 1.30129
v -6.54615 -2.43480 1.99051
v -6.58500 -2.04994 2.09237
v -10.95995 -2.51223 2.17040
v -10.92110 -2.89709 2.06855
v -11.64779 -2.79461 1.40415
v -11.68664 -2.40975 1.50600
v -6.05549 -1.02086 -1.59418
v -5.91966 -1.80038 1.40314
v -6.68366 -1.20042 1.59379
v -6.81949 -0.42090 -1.40352
v -6.64467 -2.15276 -1.86186
v -6.50884 -2.93229 1.13546
v -5.88081 -2.18524 1.30129
v -6.01664 -1.40571 -1.69603
v -11.19444 -0.88318 -1.32549
v -11.05861 -1.66270 1.67183
v -11.68664 -2.40975 1.50600
v -11.82247 -1.63023 -1.49131
v -11.78362 -2.01509 -1.59316
v -11.64779 -2.79461 1.40415
v -10.88379 -3.39457 1.21349
v -11.01962 -2.61505 -1.78382
v -6.81949 -0.42090 -1.40352
v -11.19444 -0.88318 -1.32549
v -11.15713 -1.38067 -2.18054
v -6.78218 -0.91838 -2.25858
v -6.58500 -2.04994 2.09237
v -10.95995 -2.51223 2.17040
v -11.05861 -1.66270 1.67183
v -6.68366 -1.20042 1.59379
v -6.74333 -1.30324 -2.36043
v -11.11828 -1.76553 -2.28239
v -11.01962 -2.61505 -1.78382
v -6.64467 -2.15276 -1.86186
v -6.50884 -2.93229 1.13546
v -10.88379 -3.39457 1.21349
v -10.92110 -2.89709 2.06855
v -6.54615 -2.43480 1.99051
v -6.81949 -0.42090 -1.40352
v -6.78218 -0.91838 -2.25858
v -6.05549 -1.02086 -1.59418
v -11.82247 -1.63023 -1.49131
v -11.15713 -1.38067 -2.18054
v -11.19444 -0.88318 -1.32549
v -5.91966 -1.80038 1.40314
v -6.58500 -2.04994 2.09237
v -6.68366 -1.20042 1.59379
v -11.05861 -1.66270 1.67183
v -10.95995 -2.51223 2.17040
v -11.68664 -2.40975 1.50600
v -6.01664 -1.40571 -1.69603
v -6.74333 -1.30324 -2.36043
v -6.64467 -2.15276 -1.86186
v -11.01962 -2.61505 -1.78382
v -11.11828 -1.76553 -2.28239
v -11.78362 -2.01509 -1.59316
v -6.50884 -2.93229 1.13546
v -6.54615 -2.43480 1.99051
v -5.88081 -2.18524 1.30129
v -11.64779 -2.79461 1.40415
v -10.92110 -2.89709 2.06855
v -10.88379 -3.39457 1.21349
v -6.64594 -1.43712 2.30622
v -6.63718 -1.48741 2.49959
v -8.02921 -1.63450 2.52442
v -8.03797 -1.58421 2.33105
v -7.87286 -3.21986 1.89818
v -7.86410 -3.27015 2.09155
v -6.47207 -3.12306 2.06672
v -6.48083 -3.07277 1.87335
v -6.62995 -1.65033 1.93977
v -8.02198 -1.79742 1.96460
v -7.91514 -2.85578 1.68450
v -6.52311 -2.70869 1.65967
v -6.48806 -2.90986 2.43317
v -7.88009 -3.05695 2.45800
v -7.98693 -1.99858 2.73810
v -6.59490 -1.85149 2.71327
v -6.31851 -1.69424 2.22451
v -6.21167 -2.75261 1.94442
v -6.20291 -2.80290 2.13779
v -6.30975 -1.74454 2.41788
v -8.29836 -1.95467 2.45336
v -8.19153 -3.01303 2.17326
v -8.20029 -2.96274 1.97989
v -8.30713 -1.90437 2.25998
v -6.62995 -1.65033 1.93977
v -6.52311 -2.70869 1.65967
v -6.21167 -2.75261 1.94442
v -6.31851 -1.69424 2.22451
v -8.30713 -1.90437 2.25998
v -8.20029 -2.96274 1.97989
v -7.91514 -2.85578 1.68450
v -8.02198 -1.79742 1.96460
v -6.30975 -1.74454 2.41788
v -6.20291 -2.80290 2.13779
v -6.48806 -2.90986 2.43317
v -6.59490 -1.85149 2.71327
v -7.98693 -1.99858 2.73810
v -7.88009 -3.05695 2.45800
v -8.19153 -3.01303 2.17326
v -8.29836 -1.95467 2.45336
v -6.31851 -1.69424 2.22451
v -6.30975 -1.74454 2.41788
v -6.63718 -1.48741 2.49959
v -6.64594 -1.43712 2.30622
v -6.48083 -3.07277 1.87335
v -6.47207 -3.12306 2.06672
v -6.20291 -2.80290 2.13779
v -6.21167 -2.75261 1.94442
v -8.03797 -1.58421 2.33105
v -8.02921 -1.63450 2.52442
v -8.29836 -1.95467 2.45336
v -8.30713 -1.90437 2.25998
v -8.20029 -2.96274 1.97989
v -8.19153 -3.01303 2.17326
v -7.86410 -3.27015 2.09155
v -7.87286 -3.21986 1.89818
v -6.64594 -1.43712 2.30622
v -8.03797 -1.58421 2.33105
v -8.02198 -1.79742 1.96460
v -6.62995 -1.65033 1.93977
v -6.59490 -1.85149 2.71327
v -7.98693 -1.99858 2.73810
v -8.02921 -1.63450 2.52442
v -6.63718 -1.48741 2.49959
v -6.52311 -2.70869 1.65967
v -7.91514 -2.85578 1.68450
v -7.87286 -3.21986 1.89818
v -6.48083 -3.07277 1.87335
v -6.47207 -3.12306 2.06672
v -7.86410 -3.27015 2.09155
v -7.88009 -3.05695 2.45800
v -6.48806 -2.90986 2.43317
v -6.64594 -1.43712 2.30622
v -6.62995 -1.65033 1.93977
v -6.31851 -1.69424 2.22451
v -8.30713 -1.90437 2.25998
v -8.02198 -1.79742 1.96460
v -8.03797 -1.58421 2.33105
v -6.30975 -1.74454 2.41788
v -6.59490 -1.85149 2.71327
v -6.63718 -1.48741 2.49959
v -8.02921 -1.63450 2.52442
v -7.98693 -1.99858 2.73810
v -8.29836 -1.95467 2.45336
v -6.21167 -2.75261 1.94442
v -6.52311 -2.70869 1.65967
v -6.48083 -3.07277 1.87335
v -7.87286 -3.21986 1.89818
v -7.91514 -2.85578 1.68450
v -8.20029 -2.96274 1.97989
v -6.47207 -3.12306 2.06672
v -6.48806 -2.90986 2.43317
v -6.20291 -2.80290 2.13779
v -8.19153 -3.01303 2.17326
v -7.88009 -3.05695 2.45800
v -7.86410 -3.27015 2.09155
v -6.62524 -2.34519 -1.91278
v -6.48941 -3.12472 1.08453
v -10.86436 -3.58700 1.16257
v -11.00019 -2.80748 -1.83475
v -10.82537 -4.53935 -2.29308
v -10.68954 -5.31887 0.70423
v -6.31458 -4.85658 0.62620
v -6.45042 -4.07706 -2.37112
v -6.58793 -2.84268 -2.76784
v -10.96288 -3.30496 -2.68980
v -10.92403 -3.68982 -2.79165
v -6.54908 -3.22754 -2.86969
v -6.35190 -4.35910 1.48125
v -10.72685 -4.82139 1.55929
v -10.76570 -4.43653 1.66114
v -6.39075 -3.97424 1.58310
v -5.86124 -2.94515 -2.10344
v -5.82239 -3.33001 -2.20529
v -5.68656 -4.10953 0.79202
v -5.72541 -3.72467 0.89388
v -11.49239 -4.33405 0.99674
v -11.45354 -4.71891 0.89489
v -11.58937 -3.93939 -2.10243
v -11.62822 -3.55453 -2.00057
v -6.58793 -2.84268 -2.76784
v -6.54908 -3.22754 -2.86969
v -5.82239 -3.33001 -2.20529
v -5.86124 -2.94515 -2.10344
v -11.62822 -3.55453 -2.00057
v -11.58937 -3.93939 -2.10243
v -10.92403 -3.68982 -2.79165
v -10.96288 -3.30496 -2.68980
v -5.72541 -3.72467 0.89388
v -5.68656 -4.10953 0.79202
v -6.35190 -4.35910 1.48125
v -6.39075 -3.97424 1.58310
v -10.76570 -4.43653 1.66114
v -10.72685 -4.82139 1.55929
v -11.45354 -4.71891 0.89489
v -11.49239 -4.33405 0.99674
v -5.86124 -2.94515 -2.10344
v -5.72541 -3.72467 0.89388
v -6.48941 -3.12472 1.08453
v -6.62524 -2.34519 -1.91278
v -6.45042 -4.07706 -2.37112
v -6.31458 -4.85658 0.62620
v -5.68656 -4.10953 0.79202
v -5.82239 -3.33001 -2.20529
v -11.00019 -2.80748 -1.83475
v -10.86436 -3.58700 1.16257
v -11.49239 -4.33405 0.99674
v -11.62822 -3.55453 -2.00057
v -11.58937 -3.93939 -2.10243
v -11.45354 -4.71891 0.89489
v -10.68954 -5.31887 0.70423
v -10.82537 -4.53935 -2.29308
v -6.62524 -2.34519 -1.91278
v -11.00019 -2.80748 -1.83475
v -10.96288 -3.30496 -2.68980
v -6.58793 -2.84268 -2.76784
v -6.39075 -3.97424 1.58310
v -10.76570 -4.43653 1.66114
v -10.86436 -3.58700 1.16257
v -6.48941 -3.12472 1.08453
v -6.54908 -3.22754 -2.86969
v -10.92403 -3.68982 -2.79165
v -10.82537 -4.53935 -2.29308
v -6.45042 -4.07706 -2.37112
v -6.31458 -4.85658 0.62620
v -10.68954 -5.31887 0.70423
v -10.72685 -4.82139 1.55929
v -6.35190 -4.35910 1.48125
v -6.62524 -2.34519 -1.91278
v -6.58793 -2.84268 -2.76784
v -5.86124 -2.94515 -2.10344
v -11.62822 -3.55453 -2.00057
v -10.96288 -3.30496 -2.68980
v -11.00019 -2.80748 -1.83475
v -5.72541 -3.72467 0.89388
v -6.39075 -3.97424 1.58310
v -6.48941 -3.12472 1.08453
v -10.86436 -3.58700 1.16257
v -10.76570 -4.43653 1.66114
v -11.49239 -4.33405 0.99674
v -5.82239 -3.33001 -2.20529
v -6.54908 -3.22754 -2.86969
v -6.45042 -4.07706 -2.37112
v -10.82537 -4.53935 -2.29308
v -10.92403 -3.68982 -2.79165
v -11.58937 -3.93939 -2.10243
v -6.31458 -4.85658 0.62620
v -6.35190 -4.35910 1.48125
v -5.68656 -4.10953 0.79202
v -11.45354 -4.71891 0.89489
v -10.72685 -4.82139 1.55929
v -10.68954 -5.31887 0.70423
v -6.45169 -3.36142 1.79696
v -6.44293 -3.41171 1.99033
v -7.83496 -3.55880 2.01516
v -7.84372 -3.50851 1.82179
v -7.67861 -5.14416 1.38892
v -7.66985 -5.19445 1.58229
v -6.27782 -5.04736 1.55746
v -6.28658 -4.99707 1.36409
v -6.43570 -3.57462 1.43051
v -7.82773 -3.72171 1.45534
v -7.72089 -4.78008 1.17524
v -6.32886 -4.63299 1.15041
v -6.29381 -4.83415 1.92391
v -7.68584 -4.98125 1.94874
v -7.79268 -3.92288 2.22884
v -6.40065 -3.77579 2.20401
v -6.12426 -3.61854 1.71525
v -6.01742 -4.67691 1.43515
v -6.00866 -4.72720 1.62853
v -6.11550 -3.66883 1.90862
v -8.10411 -3.87896 1.94409
v -7.99727 -4.93733 1.66400
v -8.00604 -4.88703 1.47063
v -8.11288 -3.82867 1.75072
v -6.43570 -3.57462 1.43051
v -6.32886 -4.63299 1.15041
v -6.01742 -4.67691 1.43515
v -6.12426 -3.61854 1.71525
v -8.11288 -3.82867 1.75072
v -8.00604 -4.88703 1.47063
v -7.72089 -4.78008 1.17524
v -7.82773 -3.72171 1.45534
v -6.11550 -3.66883 1.90862
v -6.00866 -4.72720 1.62853
v -6.29381 -4.83415 1.92391
v -6.40065 -3.77579 2.20401
v -7.79268 -3.92288 2.22884
v -7.68584 -4.98125 1.94874
v -7.99727 -4.93733 1.66400
v -8.10411 -3.87896 1.94409
v -6.12426 -3.61854 1.71525
v -6.11550 -3.66883 1.90862
v -6.44293 -3.41171 1.99033
v -6.45169 -3.36142 1.79696
v -6.28658 -4.99707 1.36409
v -6.27782 -5.04736 1.55746
v -6.00866 -4.72720 1.62853
v -6.01742 -4.67691 1.43515
v -7.84372 -3.50851 1.82179
v -7.83496 -3.55880 2.01516
v -8.10411 -3.87896 1.94409
v -8.11288 -3.82867 1.75072
v -8.00604 -4.88703 1.47063
v -7.99727 -4.93733 1.66400
v -7.66985 -5.19445 1.58229
v -7.67861 -5.14416 1.38892
v -6.45169 -3.36142 1.79696
v -7.84372 -3.50851 1.82179
v -7.82773 -3.72171 1.45534
v -6.43570 -3.57462 1.43051
v -6.40065 -3.77579 2.20401
v -7.79268 -3.92288 2.22884
v -7.83496 -3.55880 2.01516
v -6.44293 -3.41171 1.99033
v -6.32886 -4.63299 1.15041
v -7.72089 -4.78008 1.17524
v -7.67861 -5.14416 1.38892
v -6.28658 -4.99707 1.36409
v -6.27782 -5.04736 1.55746
v -7.66985 -5.19445 1.58229
v -7.68584 -4.98125 1.94874
v -6.29381 -4.83415 1.92391
v -6.45169 -3.36142 1.79696
v -6.43570 -3.57462 1.43051
v -6.12426 -3.61854 1.71525
v -8.11288 -3.82867 1.75072
v -7.82773 -3.72171 1.45534
v -7.84372 -3.50851 1.82179
v -6.11550 -3.66883 1.90862
v -6.40065 -3.77579 2.20401
v -6.44293 -3.41171 1.99033
v -7.83496 -3.55880 2.01516
v -7.79268 -3.92288 2.22884
v -8.10411 -3.87896 1.94409
v -6.01742 -4.67691 1.43515
v -6.32886 -4.63299 1.15041
v -6.28658 -4.99707 1.36409
v -7.67861 -5.14416 1.38892
v -7.72089 -4.78008 1.17524
v -8.00604 -4.88703 1.47063
v -6.27782 -5.04736 1.55746
v -6.29381 -4.83415 1.92391
v -6.00866 -4.72720 1.62853
v -7.99727 -4.93733 1.66400
v -7.68584 -4.98125 1.94874
v -7.66985 -5.19445 1.58229
v -1.99478 5.77052 1.58724
v -2.83188 5.17146 3.53156
v -7.15431 5.22339 1.68660
v -6.31721 5.82245 -0.25772
v -5.97727 2.45493 -1.14893
v -6.81438 1.85587 0.79539
v -2.49195 1.80394 2.64036
v -1.65484 2.40300 0.69603
v -1.56492 5.14966 0.56267
v -5.88735 5.20159 -1.28230
v -5.72224 3.56594 -1.71517
v -1.39981 3.51400 0.12980
v -2.92181 2.42480 3.66493
v -7.24424 2.47673 1.81996
v -7.40935 4.11238 2.25283
v -3.08692 4.06045 4.09780
v -1.07967 4.89464 1.71136
v -0.91456 3.25899 1.27849
v -1.75166 2.65992 3.22281
v -1.91677 4.29558 3.65569
v -7.89460 4.36740 1.10414
v -7.72949 2.73175 0.67127
v -6.89239 3.33081 -1.27305
v -7.05750 4.96646 -0.84018
v -1.56492 5.14966 0.56267
v -1.39981 3.51400 0.12980
v -0.91456 3.25899 1.27849
v -1.07967 4.89464 1.71136
v -7.05750 4.96646 -0.84018
v -6.89239 3.33081 -1.27305
v -5.72224 3.56594 -1.71517
v -5.88735 5.20159 -1.28230
v -1.91677 4.29558 3.65569
v -1.75166 2.65992 3.22281
v -2.92181 2.42480 3.66493
v -3.08692 4.06045 4.09780
v -7.40935 4.11238 2.25283
v -7.24424 2.47673 1.81996
v -7.72949 2.73175 0.67127
v -7.89460 4.36740 1.10414
v -1.07967 4.89464 1.71136
v -1.91677 4.29558 3.65569
v -2.83188 5.17146 3.53156
v -1.99478 5.77052 1.58724
v -1.65484 2.40300 0.69603
v -2.49195 1.80394 2.64036
v -1.75166 2.65992 3.22281
v -0.91456 3.25899 1.27849
v -6.31721 5.82245 -0.25772
v -7.15431 5.22339 1.68660
v -7.89460 4.36740 1.10414
v -7.05750 4.96646 -0.84018
v -6.89239 3.33081 -1.27305
v -7.72949 2.73175 0.67127
v -6.81438 1.85587 0.79539
v -5.97727 2.45493 -1.14893
v -1.99478 5.77052 1.58724
v -6.31721 5.82245 -0.25772
v -5.88735 5.20159 -1.28230
v -1.56492 5.14966 0.56267
v -3.08692 4.06045 4.09780
v -7.40935 4.11238 2.25283
v -7.15431 5.22339 1.68660
v -2.83188 5.17146 3.53156
v -1.39981 3.51400 0.12980
v -5.72224 3.56594 -1.71517
v -5.97727 2.45493 -1.14893
v -1.65484 2.40300 0.69603
v -2.49195 1.80394 2.64036
v -6.81438 1.85587 0.79539
v -7.24424 2.47673 1.81996
v -2.92181 2.42480 3.66493
v -1.99478 5.77052 1.58724
v -1.56492 5.14966 0.56267
v -1.07967 4.89464 1.71136
v -7.05750 4.96646 -0.84018
v -5.88735 5.20159 -1.28230
v -6.31721 5.82245 -0.25772
v -1.91677 4.29558 3.65569
v -3.08692 4.06045 4.09780
v -2.83188 5.17146 3.53156
v -7.15431 5.22339 1.68660
v -7.40935 4.11238 2.25283
v -7.89460 4.36740 1.10414
v -0.91456 3.25899 1.27849
v -1.39981 3.51400 0.12980
v -1.65484 2.40300 0.69603
v -5.97727 2.45493 -1.14893
v -5.72224 3.56594 -1.71517
v -6.89239 3.33081 -1.27305
v -2.49195 1.80394 2.64036
v -2.92181 2.42480 3.66493
v -1.75166 2.65992 3.22281
v -7.72949 2.73175 0.67127
v -7.24424 2.47673 1.81996
v -6.81438 1.85587 0.79539
vt 0.004678 0.982411
vt 0.005320 1.017405
vt -0.064668 1.018689
vt -0.065310 0.983695
vt 0.065310 0.983695
vt 0.064668 1.018689
vt -0.005320 1.017405
vt -0.004678 0.982411
vt 0.001714 1.030365
vt -0.067872 1.022767
vt -0.061359 0.963121
vt 0.008227 0.970720
vt -0.008227 0.970720
vt 0.061359 0.963121
vt 0.067872 1.022767
vt -0.001714 1.030365
vt -0.033468 0.990717
vt 0.024554 0.975437
vt 0.033468 1.009283
vt -0.024554 1.024563
vt 0.024554 1.024563
vt -0.033468 1.009283
vt -0.024554 0.975437
vt 0.033468 0.990717
vt -0.033693 0.995766
vt 0.022405 0.974483
vt 0.027422 0.987705
vt -0.028676 1.008989
vt 0.014209 1.048489
vt -0.042140 1.027881
vt -0.037283 1.014599
vt 0.019067 1.035208
vt -0.027568 1.011965
vt 0.028782 0.991356
vt 0.033640 1.004638
vt -0.022710 1.025246
vt 0.037455 0.985850
vt -0.018643 0.964566
vt -0.013626 0.951344
vt 0.042472 0.972627
vt -0.013821 0.984909
vt -0.006984 1.019235
vt -0.020853 1.021998
vt -0.027691 0.987672
vt 0.021398 0.978532
vt 0.027373 1.013018
vt 0.013438 1.015432
vt 0.007464 0.980946
vt -0.014431 0.979739
vt -0.020406 1.014225
vt -0.034340 1.011811
vt -0.028365 0.977325
vt 0.034625 0.989053
vt 0.027788 1.023379
vt 0.013918 1.020616
vt 0.020756 0.986291
vt 0.005326 1.015804
vt -0.064660 1.017241
vt -0.064950 1.003102
vt 0.005035 1.001665
vt 0.004935 0.998057
vt -0.065022 1.000521
vt -0.065520 0.986387
vt 0.004437 0.983924
vt -0.005059 1.001591
vt 0.064898 1.004054
vt 0.064400 1.018188
vt -0.005557 1.015724
vt -0.004672 0.983991
vt 0.065313 0.985428
vt 0.065023 0.999567
vt -0.004963 0.998130
vt -0.023317 1.009245
vt -0.019008 0.995776
vt -0.009498 1.006242
vt -0.036509 1.022277
vt -0.027317 1.011529
vt -0.022605 1.024863
vt -0.011313 0.998908
vt -0.014845 1.012602
vt -0.024938 1.002696
vt -0.010310 0.968018
vt -0.020111 0.978212
vt -0.024040 0.964627
vt 0.011276 1.001420
vt 0.015204 0.987835
vt 0.025006 0.998029
vt 0.009377 1.032268
vt 0.019470 1.022362
vt 0.023002 1.036056
vt 0.023585 0.991461
vt 0.018873 1.004795
vt 0.009681 0.994047
vt 0.037163 0.978832
vt 0.027652 0.989299
vt 0.023344 0.975829
vt -0.011626 1.036453
vt -0.055366 1.031677
vt -0.072029 1.014768
vt -0.067144 0.970034
vt -0.047224 0.957120
vt -0.003484 0.961897
vt 0.012790 0.974991
vt 0.007091 1.027180
vt -0.003031 1.023832
vt -0.008103 0.977383
vt 0.006382 0.965730
vt 0.045310 0.961479
vt 0.063039 0.972972
vt 0.067386 1.012786
vt 0.052556 1.027834
vt 0.013627 1.032085
vt -0.019654 1.028443
vt 0.031115 1.015073
vt 0.034553 1.028128
vt -0.016216 1.041498
vt -0.018338 1.026283
vt 0.030968 1.008250
vt 0.030175 1.014488
vt -0.013708 1.030537
vt 0.008488 1.021606
vt 0.029211 1.018987
vt 0.030904 1.032381
vt 0.010181 1.035000
vt 0.006515 1.005126
vt 0.027187 1.002126
vt 0.027886 1.007957
vt 0.009488 1.010627
vt 0.007186 1.022636
vt 0.051179 1.023443
vt 0.050931 1.036940
vt 0.006938 1.036133
vt 0.007620 0.999096
vt 0.051611 0.999999
vt 0.049125 1.005341
vt 0.009973 1.004537
vt 0.012041 1.025039
vt 0.035402 1.029258
vt 0.033003 1.042543
vt 0.009641 1.038324
vt 0.019740 0.985665
vt 0.042953 0.990637
vt 0.039933 0.995919
vt 0.019273 0.991494
vt -0.027488 1.016028
vt 0.016028 1.027488
vt 0.012590 1.040543
vt -0.030926 1.029083
vt -0.012509 0.969540
vt 0.029565 0.985503
vt 0.025269 0.989848
vt -0.012176 0.975641
vt -0.042968 1.016220
vt -0.019499 1.019792
vt -0.021530 1.033138
vt -0.044999 1.029566
vt -0.033808 0.971900
vt -0.010915 0.978183
vt -0.013187 0.983571
vt -0.033562 0.977979
vt -0.051179 1.023443
vt -0.007186 1.022636
vt -0.006938 1.036133
vt -0.050931 1.036940
vt -0.051605 1.000756
vt -0.007633 0.999207
vt -0.009905 1.004683
vt -0.049041 1.006061
vt -0.022781 1.026360
vt -0.002146 1.023114
vt -0.000049 1.036450
vt -0.020683 1.039696
vt -0.023968 1.013009
vt -0.003865 1.007334
vt -0.004341 1.013569
vt -0.022232 1.018619
vt -0.068273 0.985750
vt -0.067704 1.016744
vt -0.111697 1.017551
vt -0.112265 0.986557
vt 0.112265 0.986557
vt 0.111697 1.017551
vt 0.067704 1.016744
vt 0.068273 0.985750
vt -0.071072 1.024429
vt -0.114812 1.019653
vt -0.114378 1.015677
vt -0.070638 1.020453
vt 0.070638 1.020453
vt 0.114378 1.015677
vt 0.114812 1.019653
vt 0.071072 1.024429
vt -0.034892 0.993161
vt -0.031024 0.992142
vt -0.023129 1.022120
vt -0.026997 1.023138
vt 0.026997 1.023138
vt 0.023129 1.022120
vt 0.031024 0.992142
vt 0.034892 0.993161
vt -0.052619 0.951519
vt -0.048879 0.950101
vt -0.045368 0.959356
vt -0.049107 0.960775
vt 0.004915 1.079724
vt 0.001159 1.078350
vt 0.004559 1.069053
vt 0.008316 1.070427
vt -0.011473 1.061794
vt -0.007716 1.060420
vt -0.004316 1.069717
vt -0.008073 1.071091
vt 0.052368 0.952181
vt 0.048628 0.950762
vt 0.052140 0.941506
vt 0.055880 0.942925
vt -0.067522 0.997645
vt -0.061466 1.028048
vt -0.071175 1.029982
vt -0.077231 0.999579
vt 0.030100 0.979054
vt 0.035392 1.009599
vt 0.025638 1.011289
vt 0.020346 0.980744
vt -0.048215 0.975916
vt -0.053507 1.006461
vt -0.063261 1.004771
vt -0.057969 0.974226
vt 0.104970 1.005104
vt 0.098914 1.035507
vt 0.089205 1.033573
vt 0.095261 1.003171
vt -0.067645 1.018009
vt -0.111635 1.018913
vt -0.111838 1.009015
vt -0.067848 1.008112
vt -0.068194 0.995680
vt -0.112167 0.997228
vt -0.112515 0.987335
vt -0.068543 0.985786
vt 0.069215 0.966706
vt 0.113187 0.968255
vt 0.112839 0.978148
vt 0.068866 0.976600
vt 0.067456 1.027200
vt 0.111447 1.028103
vt 0.111243 1.038001
vt 0.067253 1.037097
vt -0.079137 0.992132
vt -0.076120 0.982703
vt -0.069463 0.990030
vt -0.069439 1.036915
vt -0.063005 1.029391
vt -0.059706 1.038725
vt -0.056797 1.041214
vt -0.059269 1.050800
vt -0.066335 1.043866
vt -0.038367 0.940063
vt -0.045228 0.947199
vt -0.047978 0.937689
vt 0.010908 0.946844
vt 0.013658 0.937334
vt 0.020518 0.944471
vt 0.084048 1.048790
vt 0.091113 1.041856
vt 0.093585 1.051442
vt 0.041632 1.042087
vt 0.038333 1.051421
vt 0.031899 1.043897
vt 0.106776 0.998139
vt 0.100118 1.005466
vt 0.097102 0.996037
vt -0.067567 1.024243
vt -0.067530 1.026243
vt -0.081528 1.026500
vt -0.081564 1.024500
vt 0.081564 1.024500
vt 0.081528 1.026500
vt 0.067530 1.026243
vt 0.067567 1.024243
vt -0.071452 1.027909
vt -0.085369 1.026389
vt -0.084175 1.015454
vt -0.070258 1.016974
vt 0.070258 1.016974
vt 0.084175 1.015454
vt 0.085369 1.026389
vt 0.071452 1.027909
vt -0.028472 1.031282
vt -0.017835 1.028481
vt -0.017325 1.030415
vt -0.027963 1.033216
vt 0.027963 1.033216
vt 0.017325 1.030415
vt 0.017835 1.028481
vt 0.028472 1.031282
vt -0.045231 0.980859
vt -0.034947 0.976957
vt -0.033442 0.980924
vt -0.043726 0.984826
vt 0.007110 1.083915
vt -0.003221 1.080137
vt -0.001764 1.076152
vt 0.008567 1.079930
vt -0.011481 1.071961
vt -0.001151 1.068183
vt 0.000307 1.072168
vt -0.010024 1.075946
vt 0.046736 0.976892
vt 0.036452 0.972990
vt 0.037957 0.969023
vt 0.048241 0.972925
vt -0.065202 1.036439
vt -0.064811 1.038401
vt -0.068972 1.039230
vt -0.069363 1.037268
vt 0.036324 1.017050
vt 0.036665 1.019020
vt 0.032485 1.019744
vt 0.032144 1.017774
vt -0.034234 1.017412
vt -0.034575 1.019382
vt -0.038756 1.018658
vt -0.038414 1.016687
vt 0.071443 1.037683
vt 0.071053 1.039644
vt 0.066892 1.038815
vt 0.067282 1.036854
vt -0.067093 1.044874
vt -0.081090 1.045161
vt -0.081177 1.040920
vt -0.067180 1.040632
vt -0.068145 0.997093
vt -0.082136 0.997586
vt -0.082285 0.993346
vt -0.068294 0.992853
vt 0.068070 0.999213
vt 0.082061 0.999706
vt 0.081912 1.003946
vt 0.067921 1.003453
vt 0.067311 1.034269
vt 0.081308 1.034557
vt 0.081221 1.038799
vt 0.067224 1.038511
vt -0.072158 1.022576
vt -0.070866 1.018535
vt -0.068013 1.021675
vt -0.046841 1.060427
vt -0.044083 1.057203
vt -0.042670 1.061203
vt -0.059774 1.050305
vt -0.060834 1.054413
vt -0.063862 1.051441
vt -0.022961 0.964683
vt -0.025901 0.967741
vt -0.027080 0.963666
vt 0.023544 0.975893
vt 0.024723 0.971817
vt 0.027663 0.974876
vt 0.058865 1.061493
vt 0.061893 1.058521
vt 0.062953 1.062629
vt 0.042740 1.049978
vt 0.041326 1.053978
vt 0.038569 1.050754
vt 0.076572 1.012255
vt 0.073719 1.015395
vt 0.072426 1.011354
vt -0.068273 0.985750
vt -0.067704 1.016744
vt -0.111697 1.017551
vt -0.112265 0.986557
vt 0.112265 0.986557
vt 0.111697 1.017551
vt 0.067704 1.016744
vt 0.068273 0.985750
vt -0.068901 1.004547
vt -0.112641 0.999771
vt -0.112207 0.995795
vt -0.068467 1.000571
vt 0.068467 1.000571
vt 0.112207 0.995795
vt 0.112641 0.999771
vt 0.068901 1.004547
vt -0.015552 0.988067
vt -0.011684 0.987048
vt -0.003789 1.017026
vt -0.007657 1.018045
vt 0.007657 1.018045
vt 0.003789 1.017026
vt 0.011684 0.987048
vt 0.015552 0.988067
vt -0.033920 0.944425
vt -0.030180 0.943006
vt -0.026668 0.952262
vt -0.030408 0.953681
vt -0.013868 1.072855
vt -0.017624 1.071481
vt -0.014224 1.062184
vt -0.010468 1.063558
vt 0.007310 1.054924
vt 0.011067 1.053550
vt 0.014467 1.062848
vt 0.010710 1.064222
vt 0.033669 0.945086
vt 0.029929 0.943667
vt 0.033441 0.934411
vt 0.037180 0.935830
vt -0.053652 0.994882
vt -0.047596 1.025285
vt -0.057305 1.027219
vt -0.063361 0.996816
vt 0.044035 0.976640
vt 0.049327 1.007185
vt 0.039573 1.008875
vt 0.034281 0.978330
vt -0.062150 0.973502
vt -0.067442 1.004047
vt -0.077196 1.002357
vt -0.071904 0.971812
vt 0.091100 1.002342
vt 0.085044 1.032745
vt 0.075336 1.030811
vt 0.081392 1.000408
vt -0.067935 1.003870
vt -0.111926 1.004774
vt -0.112129 0.994876
vt -0.068138 0.993973
vt -0.067697 1.009813
vt -0.111669 1.011362
vt -0.112018 1.001468
vt -0.068045 0.999920
vt 0.068717 0.980840
vt 0.112690 0.982388
vt 0.112341 0.992282
vt 0.068368 0.990733
vt 0.067746 1.013061
vt 0.111737 1.013964
vt 0.111534 1.023861
vt 0.067543 1.022958
vt -0.067051 0.981150
vt -0.064035 0.971721
vt -0.057377 0.979048
vt -0.081850 1.026302
vt -0.075416 1.018778
vt -0.072117 1.028112
vt -0.040984 1.045293
vt -0.043457 1.054879
vt -0.050522 1.047944
vt -0.054054 0.944599
vt -0.060915 0.951735
vt -0.063665 0.942225
vt 0.026595 0.951380
vt 0.029345 0.941870
vt 0.036206 0.949007
vt 0.068235 1.052869
vt 0.075300 1.045935
vt 0.077773 1.055521
vt 0.054042 1.031474
vt 0.050744 1.040807
vt 0.044310 1.033284
vt 0.094690 0.987157
vt 0.088033 0.994483
vt 0.085016 0.985055
vt -0.067567 1.024243
vt -0.067530 1.026243
vt -0.081528 1.026500
vt -0.081564 1.024500
vt 0.081564 1.024500
vt 0.081528 1.026500
vt 0.067530 1.026243
vt 0.067567 1.024243
vt -0.069281 1.008027
vt -0.083198 1.006507
vt -0.082004 0.995572
vt -0.068087 0.997092
vt 0.068087 0.997092
vt 0.082004 0.995572
vt 0.083198 1.006507
vt 0.069281 1.008027
vt -0.009132 1.026189
vt 0.001506 1.023388
vt 0.002015 1.025322
vt -0.008622 1.028123
vt 0.008622 1.028123
vt -0.002015 1.025322
vt -0.001506 1.023388
vt 0.009132 1.026189
vt -0.026532 0.973764
vt -0.016247 0.969862
vt -0.014742 0.973829
vt -0.025027 0.977731
vt -0.011674 1.077045
vt -0.022004 1.073267
vt -0.020547 1.069283
vt -0.010216 1.073061
vt 0.007302 1.065092
vt 0.017633 1.061313
vt 0.019090 1.065298
vt 0.008759 1.069076
vt 0.028037 0.969798
vt 0.017752 0.965896
vt 0.019257 0.961929
vt 0.029542 0.965831
vt -0.051332 1.033677
vt -0.050942 1.035638
vt -0.055102 1.036467
vt -0.055493 1.034505
vt 0.050259 1.014635
vt 0.050600 1.016606
vt 0.046420 1.017330
vt 0.046078 1.015360
vt -0.048168 1.014997
vt -0.048510 1.016968
vt -0.052690 1.016244
vt -0.052349 1.014273
vt 0.057574 1.034920
vt 0.057183 1.036881
vt 0.053022 1.036053
vt 0.053413 1.034091
vt -0.067383 1.030735
vt -0.081380 1.031022
vt -0.081467 1.026780
vt -0.067470 1.026493
vt -0.067647 1.011226
vt -0.081638 1.011719
vt -0.081787 1.007479
vt -0.067796 1.006986
vt 0.067572 1.013346
vt 0.081563 1.013839
vt 0.081414 1.018079
vt 0.067423 1.017586
vt 0.067601 1.020130
vt 0.081598 1.020418
vt 0.081511 1.024660
vt 0.067514 1.024372
vt -0.060073 1.011594
vt -0.058780 1.007553
vt -0.055927 1.010692
vt -0.059252 1.049814
vt -0.056494 1.046589
vt -0.055080 1.050590
vt -0.043962 1.054383
vt -0.045021 1.058491
vt -0.048049 1.055520
vt -0.038648 0.969219
vt -0.041589 0.972277
vt -0.042767 0.968202
vt 0.039232 0.980429
vt 0.040410 0.976353
vt 0.043351 0.979412
vt 0.043053 1.065571
vt 0.046081 1.062600
vt 0.047141 1.066708
vt 0.055150 1.039365
vt 0.053737 1.043365
vt 0.050979 1.040141
vt 0.064487 1.001273
vt 0.061634 1.004413
vt 0.060341 1.000372
vt -0.068273 0.985750
vt -0.067704 1.016744
vt -0.111697 1.017551
vt -0.112265 0.986557
vt 0.112265 0.986557
vt 0.111697 1.017551
vt 0.067704 1.016744
vt 0.068273 0.985750
vt -0.066730 0.984666
vt -0.110470 0.979889
vt -0.110036 0.975913
vt -0.066296 0.980689
vt 0.066296 0.980689
vt 0.110036 0.975913
vt 0.110470 0.979889
vt 0.066730 0.984666
vt 0.003789 0.982974
vt 0.007657 0.981955
vt 0.015552 1.011933
vt 0.011684 1.012952
vt -0.011684 1.012952
vt -0.015552 1.011933
vt -0.007657 0.981955
vt -0.003789 0.982974
vt -0.015220 0.937330
vt -0.011480 0.935912
vt -0.007969 0.945167
vt -0.011709 0.946586
vt -0.032651 1.065985
vt -0.036408 1.064611
vt -0.033007 1.055314
vt -0.029251 1.056688
vt 0.026093 1.048055
vt 0.029850 1.046681
vt 0.033250 1.055978
vt 0.029494 1.057352
vt 0.014969 0.937992
vt 0.011230 0.936573
vt 0.014741 0.927317
vt 0.018481 0.928736
vt -0.039783 0.992120
vt -0.033727 1.022522
vt -0.043435 1.024456
vt -0.049491 0.994054
vt 0.057969 0.974226
vt 0.063261 1.004771
vt 0.053507 1.006461
vt 0.048215 0.975916
vt -0.076084 0.971088
vt -0.081376 1.001633
vt -0.091130 0.999943
vt -0.085838 0.969398
vt 0.077231 0.999579
vt 0.071175 1.029982
vt 0.061466 1.028048
vt 0.067522 0.997645
vt -0.068225 0.989731
vt -0.112216 0.990634
vt -0.112419 0.980737
vt -0.068428 0.979834
vt -0.067199 1.023947
vt -0.111172 1.025495
vt -0.111520 1.015602
vt -0.067547 1.014053
vt 0.068219 0.994973
vt 0.112192 0.996522
vt 0.111844 1.006415
vt 0.067871 1.004866
vt 0.068036 0.998922
vt 0.112027 0.999825
vt 0.111824 1.009722
vt 0.067833 1.008819
vt -0.054966 0.970168
vt -0.051949 0.960739
vt -0.045292 0.968066
vt -0.094260 1.015689
vt -0.087827 1.008165
vt -0.084528 1.017499
vt -0.025172 1.049371
vt -0.027645 1.058957
vt -0.034710 1.052023
vt -0.069742 0.949135
vt -0.076602 0.956271
vt -0.079352 0.946761
vt 0.042282 0.955916
vt 0.045032 0.946406
vt 0.051893 0.953543
vt 0.052423 1.056947
vt 0.059488 1.050013
vt 0.061961 1.059599
vt 0.066453 1.020860
vt 0.063154 1.030194
vt 0.056720 1.022671
vt 0.082605 0.976175
vt 0.075947 0.983501
vt 0.072931 0.974072
vt -0.067567 1.024243
vt -0.067530 1.026243
vt -0.081528 1.026500
vt -0.081564 1.024500
vt 0.081564 1.024500
vt 0.081528 1.026500
vt 0.067530 1.026243
vt 0.067567 1.024243
vt -0.067110 0.988145
vt -0.081027 0.986625
vt -0.079833 0.975690
vt -0.065916 0.977210
vt 0.065916 0.977210
vt 0.079833 0.975690
vt 0.081027 0.986625
vt 0.067110 0.988145
vt 0.010209 1.021096
vt 0.020846 1.018294
vt 0.021356 1.020228
vt 0.010718 1.023030
vt -0.010718 1.023030
vt -0.021356 1.020228
vt -0.020846 1.018294
vt -0.010209 1.021096
vt -0.007832 0.966670
vt 0.002452 0.962768
vt 0.003957 0.966735
vt -0.006327 0.970637
vt -0.030457 1.070176
vt -0.040788 1.066397
vt -0.039330 1.062413
vt -0.029000 1.066191
vt 0.026085 1.058222
vt 0.036416 1.054444
vt 0.037873 1.058428
vt 0.027542 1.062207
vt 0.009337 0.962703
vt -0.000947 0.958801
vt 0.000558 0.954834
vt 0.010842 0.958736
vt -0.037463 1.030914
vt -0.037072 1.032876
vt -0.041233 1.033704
vt -0.041624 1.031743
vt 0.064193 1.012221
vt 0.064535 1.014192
vt 0.060354 1.014916
vt 0.060013 1.012945
vt -0.062103 1.012583
vt -0.062444 1.014554
vt -0.066625 1.013830
vt -0.066283 1.011859
vt 0.043704 1.032157
vt 0.043313 1.034119
vt 0.039152 1.033290
vt 0.039543 1.031328
vt -0.067674 1.016596
vt -0.081671 1.016883
vt -0.081758 1.012641
vt -0.067761 1.012354
vt -0.067149 1.025360
vt -0.081140 1.025853
vt -0.081290 1.021613
vt -0.067298 1.021120
vt 0.067074 1.027480
vt 0.081066 1.027973
vt 0.080916 1.032213
vt 0.066925 1.031720
vt 0.067891 1.005991
vt 0.081888 1.006279
vt 0.081801 1.010520
vt 0.067804 1.010233
vt -0.047987 1.000611
vt -0.046695 0.996570
vt -0.043842 0.999710
vt -0.071662 1.039201
vt -0.068905 1.035976
vt -0.067491 1.039976
vt -0.028149 1.058462
vt -0.029209 1.062570
vt -0.032237 1.059598
vt -0.054336 0.973755
vt -0.057276 0.976813
vt -0.058455 0.972738
vt 0.054919 0.984965
vt 0.056098 0.980889
vt 0.059038 0.983948
vt 0.027241 1.069650
vt 0.030268 1.066678
vt 0.031328 1.070786
vt 0.067561 1.028752
vt 0.066147 1.032752
vt 0.063390 1.029527
vt 0.052401 0.990291
vt 0.049548 0.993431
vt 0.048255 0.989390
vt -0.068273 0.985750
vt -0.067704 1.016744
vt -0.111697 1.017551
vt -0.112265 0.986557
vt 0.112265 0.986557
vt 0.111697 1.017551
vt 0.067704 1.016744
vt 0.068273 0.985750
vt -0.064559 0.964784
vt -0.108299 0.960008
vt -0.107864 0.956031
vt -0.064124 0.960808
vt 0.064124 0.960808
vt 0.107864 0.956031
vt 0.108299 0.960008
vt 0.064559 0.964784
vt 0.023129 0.977880
vt 0.026997 0.976862
vt 0.034892 1.006840
vt 0.031024 1.007858
vt -0.031024 1.007858
vt -0.034892 1.006840
vt -0.026997 0.976862
vt -0.023129 0.977880
vt 0.003479 0.930236
vt 0.007219 0.928817
vt 0.010731 0.938073
vt 0.006991 0.939492
vt -0.051434 1.059116
vt -0.055191 1.057742
vt -0.051791 1.048444
vt -0.048034 1.049818
vt 0.044877 1.041185
vt 0.048633 1.039811
vt 0.052033 1.049109
vt 0.048277 1.050482
vt -0.003730 0.930897
vt -0.007470 0.929478
vt -0.003958 0.920222
vt -0.000218 0.921641
vt -0.025913 0.989357
vt -0.019857 1.019760
vt -0.029566 1.021694
vt -0.035622 0.991291
vt 0.071904 0.971812
vt 0.077196 1.002357
vt 0.067442 1.004047
vt 0.062150 0.973502
vt -0.090019 0.968673
vt -0.095311 0.999218
vt -0.105065 0.997528
vt -0.099773 0.966983
vt 0.063361 0.996816
vt 0.057305 1.027219
vt 0.047596 1.025285
vt 0.053652 0.994882
vt -0.068516 0.975592
vt -0.112506 0.976495
vt -0.112709 0.966598
vt -0.068719 0.965695
vt -0.066701 1.038080
vt -0.110674 1.039628
vt -0.111022 1.029735
vt -0.067050 1.028187
vt 0.067721 1.009107
vt 0.111694 1.010655
vt 0.111346 1.020548
vt 0.067373 1.019000
vt 0.068327 0.984782
vt 0.112318 0.985686
vt 0.112114 0.995583
vt 0.068124 0.994680
vt -0.042880 0.959186
vt -0.039864 0.949757
vt -0.033206 0.957083
vt -0.106671 1.005075
vt -0.100237 0.997552
vt -0.096939 1.006885
vt -0.009360 1.053450
vt -0.011832 1.063036
vt -0.018897 1.056102
vt -0.085429 0.953671
vt -0.092290 0.960807
vt -0.095040 0.951297
vt 0.057970 0.960452
vt 0.060719 0.950942
vt 0.067580 0.958079
vt 0.036610 1.061026
vt 0.043676 1.054092
vt 0.046148 1.063678
vt 0.078864 1.010247
vt 0.075565 1.019581
vt 0.069131 1.012057
vt 0.070519 0.965193
vt 0.063862 0.972519
vt 0.060845 0.963090
vt -0.067567 1.024243
vt -0.067530 1.026243
vt -0.081528 1.026500
vt -0.081564 1.024500
vt 0.081564 1.024500
vt 0.081528 1.026500
vt 0.067530 1.026243
vt 0.067567 1.024243
vt -0.064939 0.968263
vt -0.078856 0.966743
vt -0.077662 0.955808
vt -0.063745 0.957328
vt 0.063745 0.957328
vt 0.077662 0.955808
vt 0.078856 0.966743
vt 0.064939 0.968263
vt 0.029550 1.016002
vt 0.040187 1.013201
vt 0.040696 1.015135
vt 0.030059 1.017936
vt -0.030059 1.017936
vt -0.040696 1.015135
vt -0.040187 1.013201
vt -0.029550 1.016002
vt 0.010867 0.959575
vt 0.021152 0.955673
vt 0.022657 0.959640
vt 0.012372 0.963542
vt -0.049240 1.063306
vt -0.059571 1.059528
vt -0.058114 1.055543
vt -0.047783 1.059322
vt 0.044868 1.051353
vt 0.055199 1.047574
vt 0.056656 1.051559
vt 0.046326 1.055337
vt -0.009362 0.955609
vt -0.019647 0.951707
vt -0.018142 0.947740
vt -0.007857 0.951642
vt -0.023593 1.028151
vt -0.023202 1.030113
vt -0.027363 1.030942
vt -0.027754 1.028980
vt 0.078128 1.009807
vt 0.078469 1.011778
vt 0.074289 1.012502
vt 0.073947 1.010531
vt -0.076038 1.010169
vt -0.076379 1.012140
vt -0.080559 1.011416
vt -0.080218 1.009445
vt 0.029834 1.029395
vt 0.029444 1.031356
vt 0.025283 1.030527
vt 0.025673 1.028566
vt -0.067964 1.002456
vt -0.081961 1.002744
vt -0.082048 0.998502
vt -0.068051 0.998215
vt -0.066651 1.039493
vt -0.080643 1.039986
vt -0.080792 1.035746
vt -0.066801 1.035253
vt 0.066577 1.041613
vt 0.080568 1.042106
vt 0.080419 1.046346
vt 0.066427 1.045853
vt 0.068182 0.991852
vt 0.082179 0.992139
vt 0.082092 0.996381
vt 0.068095 0.996094
vt -0.035902 0.989629
vt -0.034609 0.985588
vt -0.031756 0.988728
vt -0.084073 1.028587
vt -0.081316 1.025363
vt -0.079902 1.029363
vt -0.012337 1.062540
vt -0.013396 1.066649
vt -0.016424 1.063677
vt -0.070023 0.978291
vt -0.072963 0.981349
vt -0.074142 0.977274
vt 0.070606 0.989501
vt 0.071785 0.985425
vt 0.074725 0.988483
vt 0.011428 1.073729
vt 0.014456 1.070757
vt 0.015516 1.074865
vt 0.079972 1.018138
vt 0.078558 1.022139
vt 0.075801 1.018914
vt 0.040316 0.979309
vt 0.037463 0.982448
vt 0.036170 0.978408
vt -0.014051 1.000220
vt -0.022982 1.020326
vt -0.065935 1.001247
vt -0.057005 0.981141
vt 0.057005 0.981141
vt 0.065935 1.001247
vt 0.022982 1.020326
vt 0.014051 1.000220
vt -0.050985 1.017872
vt -0.076562 0.978441
vt -0.062300 0.969190
vt -0.036723 1.008621
vt 0.036723 1.008621
vt 0.062300 0.969190
vt 0.076562 0.978441
vt 0.050985 1.017872
vt -0.048813 1.020209
vt -0.032478 1.015502
vt -0.026387 1.036642
vt -0.042722 1.041349
vt 0.042722 1.041349
vt 0.026387 1.036642
vt 0.032478 1.015502
vt 0.048813 1.020209
vt -0.053570 1.003471
vt -0.037209 0.998855
vt -0.033753 1.011104
vt -0.050114 1.015721
vt 0.011131 1.073615
vt -0.002579 1.063564
vt 0.004946 1.053299
vt 0.018656 1.063350
vt -0.029108 1.049093
vt -0.015397 1.039042
vt -0.007872 1.049307
vt -0.021583 1.059358
vt 0.054914 0.998707
vt 0.038553 0.994091
vt 0.042009 0.981841
vt 0.058370 0.986457
vt -0.040184 1.001506
vt -0.042597 1.023374
vt -0.055248 1.021978
vt -0.052835 1.000111
vt -0.005917 1.009713
vt 0.004199 1.029250
vt -0.007104 1.035102
vt -0.017220 1.015566
vt -0.001618 1.005812
vt -0.011734 1.025348
vt -0.023036 1.019496
vt -0.012920 0.999959
vt 0.073920 0.997784
vt 0.076333 1.019651
vt 0.063682 1.021047
vt 0.061269 0.999180
vt -0.032353 1.037251
vt -0.074598 1.016650
vt -0.069019 1.005210
vt -0.026774 1.025810
vt -0.002266 0.983294
vt -0.037508 0.952197
vt -0.029087 0.942654
vt 0.006155 0.973750
vt -0.008494 0.971099
vt 0.026748 0.940003
vt 0.035169 0.949546
vt -0.000073 0.980643
vt 0.028324 1.028988
vt 0.070569 1.008388
vt 0.076147 1.019828
vt 0.033903 1.040428
vt -0.054683 1.019433
vt -0.047265 1.009091
vt -0.042017 1.020687
vt -0.040254 1.038244
vt -0.028764 1.032769
vt -0.029767 1.045457
vt -0.039503 0.994525
vt -0.048026 1.003979
vt -0.051951 0.991871
vt 0.014612 0.977599
vt 0.003538 0.983873
vt 0.003641 0.971145
vt -0.025030 1.001726
vt -0.025134 0.988999
vt -0.014059 0.995273
vt 0.063485 1.005274
vt 0.067411 0.993167
vt 0.075933 1.002620
vt 0.013984 1.037484
vt 0.014988 1.050172
vt 0.003498 1.044697
vt 0.074266 1.001907
vt 0.069018 1.013503
vt 0.061600 1.003160
usemtl Surface_2
f 4/4 2/2 1/1
usemtl Surface_2
f 3/3 2/2 4/4
usemtl Surface_2
f 8/8 6/6 5/5
usemtl Surface_2
f 7/7 6/6 8/8
usemtl Surface_2
f 12/12 10/10 9/9
usemtl Surface_2
f 11/11 10/10 12/12
usemtl Surface_2
f 16/16 14/14 13/13
usemtl Surface_2
f 15/15 14/14 16/16
usemtl Surface_2
f 20/20 18/18 17/17
usemtl Surface_2
f 19/19 18/18 20/20
usemtl Surface_2
f 24/24 22/22 21/21
usemtl Surface_2
f 23/23 22/22 24/24
usemtl Surface_2
f 28/28 26/26 25/25
usemtl Surface_2
f 27/27 26/26 28/28
usemtl Surface_2
f 32/32 30/30 29/29
usemtl Surface_2
f 31/31 30/30 32/32
usemtl Surface_2
f 36/36 34/34 33/33
usemtl Surface_2
f 35/35 34/34 36/36
usemtl Surface_2
f 40/40 38/38 37/37
usemtl Surface_2
f 39/39 38/38 40/40
usemtl Surface_2
f 44/44 42/42 41/41
usemtl Surface_2
f 43/43 42/42 44/44
usemtl Surface_2
f 48/48 46/46 45/45
usemtl Surface_2
f 47/47 46/46 48/48
usemtl Surface_2
f 52/52 50/50 49/49
usemtl Surface_2
f 51/51 50/50 52/52
usemtl Surface_2
f 56/56 54/54 53/53
usemtl Surface_2
f 55/55 54/54 56/56
usemtl Surface_2
f 60/60 58/58 57/57
usemtl Surface_2
f 59/59 58/58 60/60
usemtl Surface_2
f 64/64 62/62 61/61
usemtl Surface_2
f 63/63 62/62 64/64
usemtl Surface_2
f 68/68 66/66 65/65
usemtl Surface_2
f 67/67 66/66 68/68
usemtl Surface_2
f 72/72 70/70 69/69
usemtl Surface_2
f 71/71 70/70 72/72
usemtl Surface_2
f 73/73 75/75 74/74
usemtl Surface_2
f 76/76 78/78 77/77
usemtl Surface_2
f 79/79 81/81 80/80
usemtl Surface_2
f 82/82 84/84 83/83
usemtl Surface_2
f 85/85 87/87 86/86
usemtl Surface_2
f 88/88 90/90 89/89
usemtl Surface_2
f 91/91 93/93 92/92
usemtl Surface_2
f 94/94 96/96 95/95
usemtl Surface_0
f 104/104 98/98 97/97
usemtl Surface_0
f 103/103 98/98 104/104
usemtl Surface_0
f 102/102 98/98 103/103
usemtl Surface_0
f 101/101 98/98 102/102
usemtl Surface_0
f 100/100 98/98 101/101
usemtl Surface_0
f 99/99 98/98 100/100
usemtl Surface_0
f 112/112 106/106 105/105
usemtl Surface_0
f 111/111 106/106 112/112
usemtl Surface_0
f 110/110 106/106 111/111
usemtl Surface_0
f 109/109 106/106 110/110
usemtl Surface_0
f 108/108 106/106 109/109
usemtl Surface_0
f 107/107 106/106 108/108
usemtl Surface_0
f 116/116 114/114 113/113
usemtl Surface_0
f 115/115 114/114 116/116
usemtl Surface_1
f 120/120 118/118 117/117
usemtl Surface_1
f 119/119 118/118 120/120
usemtl Surface_0
f 124/124 122/122 121/121
usemtl Surface_0
f 123/123 122/122 124/124
usemtl Surface_1
f 128/128 126/126 125/125
usemtl Surface_1
f 127/127 126/126 128/128
usemtl Surface_0
f 132/132 130/130 129/129
usemtl Surface_0
f 131/131 130/130 132/132
usemtl Surface_1
f 136/136 134/134 133/133
usemtl Surface_1
f 135/135 134/134 136/136
usemtl Surface_0
f 140/140 138/138 137/137
usemtl Surface_0
f 139/139 138/138 140/140
usemtl Surface_1
f 144/144 142/142 141/141
usemtl Surface_1
f 143/143 142/142 144/144
usemtl Surface_0
f 148/148 146/146 145/145
usemtl Surface_0
f 147/147 146/146 148/148
usemtl Surface_1
f 152/152 150/150 149/149
usemtl Surface_1
f 151/151 150/150 152/152
usemtl Surface_0
f 156/156 154/154 153/153
usemtl Surface_0
f 155/155 154/154 156/156
usemtl Surface_1
f 160/160 158/158 157/157
usemtl Surface_1
f 159/159 158/158 160/160
usemtl Surface_0
f 164/164 162/162 161/161
usemtl Surface_0
f 163/163 162/162 164/164
usemtl Surface_1
f 168/168 166/166 165/165
usemtl Surface_1
f 167/167 166/166 168/168
usemtl Surface_0
f 172/172 170/170 169/169
usemtl Surface_0
f 171/171 170/170 172/172
usemtl Surface_1
f 176/176 174/174 173/173
usemtl Surface_1
f 175/175 174/174 176/176
usemtl Surface_2
f 180/180 178/178 177/177
usemtl Surface_2
f 179/179 178/178 180/180
usemtl Surface_2
f 184/184 182/182 181/181
usemtl Surface_2
f 183/183 182/182 184/184
usemtl Surface_2
f 188/188 186/186 185/185
usemtl Surface_2
f 187/187 186/186 188/188
usemtl Surface_2
f 192/192 190/190 189/189
usemtl Surface_2
f 191/191 190/190 192/192
usemtl Surface_2
f 196/196 194/194 193/193
usemtl Surface_2
f 195/195 194/194 196/196
usemtl Surface_2
f 200/200 198/198 197/197
usemtl Surface_2
f 199/199 198/198 200/200
usemtl Surface_2
f 204/204 202/202 201/201
usemtl Surface_2
f 203/203 202/202 204/204
usemtl Surface_2
f 208/208 206/206 205/205
usemtl Surface_2
f 207/207 206/206 208/208
usemtl Surface_2
f 212/212 210/210 209/209
usemtl Surface_2
f 211/211 210/210 212/212
usemtl Surface_2
f 216/216 214/214 213/213
usemtl Surface_2
f 215/215 214/214 216/216
usemtl Surface_2
f 220/220 218/218 217/217
usemtl Surface_2
f 219/219 218/218 220/220
usemtl Surface_2
f 224/224 222/222 221/221
usemtl Surface_2
f 223/223 222/222 224/224
usemtl Surface_2
f 228/228 226/226 225/225
usemtl Surface_2
f 227/227 226/226 228/228
usemtl Surface_2
f 232/232 230/230 229/229
usemtl Surface_2
f 231/231 230/230 232/232
usemtl Surface_2
f 236/236 234/234 233/233
usemtl Surface_2
f 235/235 234/234 236/236
usemtl Surface_2
f 240/240 238/238 237/237
usemtl Surface_2
f 239/239 238/238 240/240
usemtl Surface_2
f 244/244 242/242 241/241
usemtl Surface_2
f 243/243 242/242 244/244
usemtl Surface_2
f 248/248 246/246 245/245
usemtl Surface_2
f 247/247 246/246 248/248
usemtl Surface_2
f 249/249 251/251 250/250
usemtl Surface_2
f 252/252 254/254 253/253
usemtl Surface_2
f 255/255 257/257 256/256
usemtl Surface_2
f 258/258 260/260 259/259
usemtl Surface_2
f 261/261 263/263 262/262
usemtl Surface_2
f 264/264 266/266 265/265
usemtl Surface_2
f 267/267 269/269 268/268
usemtl Surface_2
f 270/270 272/272 271/271
usemtl Surface_1
f 276/276 274/274 273/273
usemtl Surface_1
f 275/275 274/274 276/276
usemtl Surface_1
f 280/280 278/278 277/277
usemtl Surface_1
f 279/279 278/278 280/280
usemtl Surface_1
f 284/284 282/282 281/281
usemtl Surface_1
f 283/283 282/282 284/284
usemtl Surface_1
f 288/288 286/286 285/285
usemtl Surface_1
f 287/287 286/286 288/288
usemtl Surface_1
f 292/292 290/290 289/289
usemtl Surface_1
f 291/291 290/290 292/292
usemtl Surface_1
f 296/296 294/294 293/293
usemtl Surface_1
f 295/295 294/294 296/296
usemtl Surface_1
f 300/300 298/298 297/297
usemtl Surface_1
f 299/299 298/298 300/300
usemtl Surface_1
f 304/304 302/302 301/301
usemtl Surface_1
f 303/303 302/302 304/304
usemtl Surface_1
f 308/308 306/306 305/305
usemtl Surface_1
f 307/307 306/306 308/308
usemtl Surface_1
f 312/312 310/310 309/309
usemtl Surface_1
f 311/311 310/310 312/312
usemtl Surface_1
f 316/316 314/314 313/313
usemtl Surface_1
f 315/315 314/314 316/316
usemtl Surface_1
f 320/320 318/318 317/317
usemtl Surface_1
f 319/319 318/318 320/320
usemtl Surface_1
f 324/324 322/322 321/321
usemtl Surface_1
f 323/323 322/322 324/324
usemtl Surface_1
f 328/328 326/326 325/325
usemtl Surface_1
f 327/327 326/326 328/328
usemtl Surface_1
f 332/332 330/330 329/329
usemtl Surface_1
f 331/331 330/330 332/332
usemtl Surface_1
f 336/336 334/334 333/333
usemtl Surface_1
f 335/335 334/334 336/336
usemtl Surface_1
f 340/340 338/338 337/337
usemtl Surface_1
f 339/339 338/338 340/340
usemtl Surface_1
f 344/344 342/342 341/341
usemtl Surface_1
f 343/343 342/342 344/344
usemtl Surface_1
f 345/345 347/347 346/346
usemtl Surface_1
f 348/348 350/350 349/349
usemtl Surface_1
f 351/351 353/353 352/352
usemtl Surface_1
f 354/354 356/356 355/355
usemtl Surface_1
f 357/357 359/359 358/358
usemtl Surface_1
f 360/360 362/362 361/361
usemtl Surface_1
f 363/363 365/365 364/364
usemtl Surface_1
f 366/366 368/368 367/367
usemtl Surface_2
f 372/372 370/370 369/369
usemtl Surface_2
f 371/371 370/370 372/372
usemtl Surface_2
f 376/376 374/374 373/373
usemtl Surface_2
f 375/375 374/374 376/376
usemtl Surface_2
f 380/380 378/378 377/377
usemtl Surface_2
f 379/379 378/378 380/380
usemtl Surface_2
f 384/384 382/382 381/381
usemtl Surface_2
f 383/383 382/382 384/384
usemtl Surface_2
f 388/388 386/386 385/385
usemtl Surface_2
f 387/387 386/386 388/388
usemtl Surface_2
f 392/392 390/390 389/389
usemtl Surface_2
f 391/391 390/390 392/392
usemtl Surface_2
f 396/396 394/394 393/393
usemtl Surface_2
f 395/395 394/394 396/396
usemtl Surface_2
f 400/400 398/398 397/397
usemtl Surface_2
f 399/399 398/398 400/400
usemtl Surface_2
f 404/404 402/402 401/401
usemtl Surface_2
f 403/403 402/402 404/404
usemtl Surface_2
f 408/408 406/406 405/405
usemtl Surface_2
f 407/407 406/406 408/408
usemtl Surface_2
f 412/412 410/410 409/409
usemtl Surface_2
f 411/411 410/410 412/412
usemtl Surface_2
f 416/416 414/414 413/413
usemtl Surface_2
f 415/415 414/414 416/416
usemtl Surface_2
f 420/420 418/418 417/417
usemtl Surface_2
f 419/419 418/418 420/420
usemtl Surface_2
f 424/424 422/422 421/421
usemtl Surface_2
f 423/423 422/422 424/424
usemtl Surface_2
f 428/428 426/426 425/425
usemtl Surface_2
f 427/427 426/426 428/428
usemtl Surface_2
f 432/432 430/430 429/429
usemtl Surface_2
f 431/431 430/430 432/432
usemtl Surface_2
f 436/436 434/434 433/433
usemtl Surface_2
f 435/435 434/434 436/436
usemtl Surface_2
f 440/440 438/438 437/437
usemtl Surface_2
f 439/439 438/438 440/440
usemtl Surface_2
f 441/441 443/443 442/442
usemtl Surface_2
f 444/444 446/446 445/445
usemtl Surface_2
f 447/447 449/449 448/448
usemtl Surface_2
f 450/450 452/452 451/451
usemtl Surface_2
f 453/453 455/455 454/454
usemtl Surface_2
f 456/456 458/458 457/457
usemtl Surface_2
f 459/459 461/461 460/460
usemtl Surface_2
f 462/462 464/464 463/463
usemtl Surface_1
f 468/468 466/466 465/465
usemtl Surface_1
f 467/467 466/466 468/468
usemtl Surface_1
f 472/472 470/470 469/469
usemtl Surface_1
f 471/471 470/470 472/472
usemtl Surface_1
f 476/476 474/474 473/473
usemtl Surface_1
f 475/475 474/474 476/476
usemtl Surface_1
f 480/480 478/478 477/477
usemtl Surface_1
f 479/479 478/478 480/480
usemtl Surface_1
f 484/484 482/482 481/481
usemtl Surface_1
f 483/483 482/482 484/484
usemtl Surface_1
f 488/488 486/486 485/485
usemtl Surface_1
f 487/487 486/486 488/488
usemtl Surface_1
f 492/492 490/490 489/489
usemtl Surface_1
f 491/491 490/490 492/492
usemtl Surface_1
f 496/496 494/494 493/493
usemtl Surface_1
f 495/495 494/494 496/496
usemtl Surface_1
f 500/500 498/498 497/497
usemtl Surface_1
f 499/499 498/498 500/500
usemtl Surface_1
f 504/504 502/502 501/501
usemtl Surface_1
f 503/503 502/502 504/504
usemtl Surface_1
f 508/508 506/506 505/505
usemtl Surface_1
f 507/507 506/506 508/508
usemtl Surface_1
f 512/512 510/510 509/509
usemtl Surface_1
f 511/511 510/510 512/512
usemtl Surface_1
f 516/516 514/514 513/513
usemtl Surface_1
f 515/515 514/514 516/516
usemtl Surface_1
f 520/520 518/518 517/517
usemtl Surface_1
f 519/519 518/518 520/520
usemtl Surface_1
f 524/524 522/522 521/521
usemtl Surface_1
f 523/523 522/522 524/524
usemtl Surface_1
f 528/528 526/526 525/525
usemtl Surface_1
f 527/527 526/526 528/528
usemtl Surface_1
f 532/532 530/530 529/529
usemtl Surface_1
f 531/531 530/530 532/532
usemtl Surface_1
f 536/536 534/534 533/533
usemtl Surface_1
f 535/535 534/534 536/536
usemtl Surface_1
f 537/537 539/539 538/538
usemtl Surface_1
f 540/540 542/542 541/541
usemtl Surface_1
f 543/543 545/545 544/544
usemtl Surface_1
f 546/546 548/548 547/547
usemtl Surface_1
f 549/549 551/551 550/550
usemtl Surface_1
f 552/552 554/554 553/553
usemtl Surface_1
f 555/555 557/557 556/556
usemtl Surface_1
f 558/558 560/560 559/559
usemtl Surface_2
f 564/564 562/562 561/561
usemtl Surface_2
f 563/563 562/562 564/564
usemtl Surface_2
f 568/568 566/566 565/565
usemtl Surface_2
f 567/567 566/566 568/568
usemtl Surface_2
f 572/572 570/570 569/569
usemtl Surface_2
f 571/571 570/570 572/572
usemtl Surface_2
f 576/576 574/574 573/573
usemtl Surface_2
f 575/575 574/574 576/576
usemtl Surface_2
f 580/580 578/578 577/577
usemtl Surface_2
f 579/579 578/578 580/580
usemtl Surface_2
f 584/584 582/582 581/581
usemtl Surface_2
f 583/583 582/582 584/584
usemtl Surface_2
f 588/588 586/586 585/585
usemtl Surface_2
f 587/587 586/586 588/588
usemtl Surface_2
f 592/592 590/590 589/589
usemtl Surface_2
f 591/591 590/590 592/592
usemtl Surface_2
f 596/596 594/594 593/593
usemtl Surface_2
f 595/595 594/594 596/596
usemtl Surface_2
f 600/600 598/598 597/597
usemtl Surface_2
f 599/599 598/598 600/600
usemtl Surface_2
f 604/604 602/602 601/601
usemtl Surface_2
f 603/603 602/602 604/604
usemtl Surface_2
f 608/608 606/606 605/605
usemtl Surface_2
f 607/607 606/606 608/608
usemtl Surface_2
f 612/612 610/610 609/609
usemtl Surface_2
f 611/611 610/610 612/612
usemtl Surface_2
f 616/616 614/614 613/613
usemtl Surface_2
f 615/615 614/614 616/616
usemtl Surface_2
f 620/620 618/618 617/617
usemtl Surface_2
f 619/619 618/618 620/620
usemtl Surface_2
f 624/624 622/622 621/621
usemtl Surface_2
f 623/623 622/622 624/624
usemtl Surface_2
f 628/628 626/626 625/625
usemtl Surface_2
f 627/627 626/626 628/628
usemtl Surface_2
f 632/632 630/630 629/629
usemtl Surface_2
f 631/631 630/630 632/632
usemtl Surface_2
f 633/633 635/635 634/634
usemtl Surface_2
f 636/636 638/638 637/637
usemtl Surface_2
f 639/639 641/641 640/640
usemtl Surface_2
f 642/642 644/644 643/643
usemtl Surface_2
f 645/645 647/647 646/646
usemtl Surface_2
f 648/648 650/650 649/649
usemtl Surface_2
f 651/651 653/653 652/652
usemtl Surface_2
f 654/654 656/656 655/655
usemtl Surface_1
f 660/660 658/658 657/657
usemtl Surface_1
f 659/659 658/658 660/660
usemtl Surface_1
f 664/664 662/662 661/661
usemtl Surface_1
f 663/663 662/662 664/664
usemtl Surface_1
f 668/668 666/666 665/665
usemtl Surface_1
f 667/667 666/666 668/668
usemtl Surface_1
f 672/672 670/670 669/669
usemtl Surface_1
f 671/671 670/670 672/672
usemtl Surface_1
f 676/676 674/674 673/673
usemtl Surface_1
f 675/675 674/674 676/676
usemtl Surface_1
f 680/680 678/678 677/677
usemtl Surface_1
f 679/679 678/678 680/680
usemtl Surface_1
f 684/684 682/682 681/681
usemtl Surface_1
f 683/683 682/682 684/684
usemtl Surface_1
f 688/688 686/686 685/685
usemtl Surface_1
f 687/687 686/686 688/688
usemtl Surface_1
f 692/692 690/690 689/689
usemtl Surface_1
f 691/691 690/690 692/692
usemtl Surface_1
f 696/696 694/694 693/693
usemtl Surface_1
f 695/695 694/694 696/696
usemtl Surface_1
f 700/700 698/698 697/697
usemtl Surface_1
f 699/699 698/698 700/700
usemtl Surface_1
f 704/704 702/702 701/701
usemtl Surface_1
f 703/703 702/702 704/704
usemtl Surface_1
f 708/708 706/706 705/705
usemtl Surface_1
f 707/707 706/706 708/708
usemtl Surface_1
f 712/712 710/710 709/709
usemtl Surface_1
f 711/711 710/710 712/712
usemtl Surface_1
f 716/716 714/714 713/713
usemtl Surface_1
f 715/715 714/714 716/716
usemtl Surface_1
f 720/720 718/718 717/717
usemtl Surface_1
f 719/719 718/718 720/720
usemtl Surface_1
f 724/724 722/722 721/721
usemtl Surface_1
f 723/723 722/722 724/724
usemtl Surface_1
f 728/728 726/726 725/725
usemtl Surface_1
f 727/727 726/726 728/728
usemtl Surface_1
f 729/729 731/731 730/730
usemtl Surface_1
f 732/732 734/734 733/733
usemtl Surface_1
f 735/735 737/737 736/736
usemtl Surface_1
f 738/738 740/740 739/739
usemtl Surface_1
f 741/741 743/743 742/742
usemtl Surface_1
f 744/744 746/746 745/745
usemtl Surface_1
f 747/747 749/749 748/748
usemtl Surface_1
f 750/750 752/752 751/751
usemtl Surface_2
f 756/756 754/754 753/753
usemtl Surface_2
f 755/755 754/754 756/756
usemtl Surface_2
f 760/760 758/758 757/757
usemtl Surface_2
f 759/759 758/758 760/760
usemtl Surface_2
f 764/764 762/762 761/761
usemtl Surface_2
f 763/763 762/762 764/764
usemtl Surface_2
f 768/768 766/766 765/765
usemtl Surface_2
f 767/767 766/766 768/768
usemtl Surface_2
f 772/772 770/770 769/769
usemtl Surface_2
f 771/771 770/770 772/772
usemtl Surface_2
f 776/776 774/774 773/773
usemtl Surface_2
f 775/775 774/774 776/776
usemtl Surface_2
f 780/780 778/778 777/777
usemtl Surface_2
f 779/779 778/778 780/780
usemtl Surface_2
f 784/784 782/782 781/781
usemtl Surface_2
f 783/783 782/782 784/784
usemtl Surface_2
f 788/788 786/786 785/785
usemtl Surface_2
f 787/787 786/786 788/788
usemtl Surface_2
f 792/792 790/790 789/789
usemtl Surface_2
f 791/791 790/790 792/792
usemtl Surface_2
f 796/796 794/794 793/793
usemtl Surface_2
f 795/795 794/794 796/796
usemtl Surface_2
f 800/800 798/798 797/797
usemtl Surface_2
f 799/799 798/798 800/800
usemtl Surface_2
f 804/804 802/802 801/801
usemtl Surface_2
f 803/803 802/802 804/804
usemtl Surface_2
f 808/808 806/806 805/805
usemtl Surface_2
f 807/807 806/806 808/808
usemtl Surface_2
f 812/812 810/810 809/809
usemtl Surface_2
f 811/811 810/810 812/812
usemtl Surface_2
f 816/816 814/814 813/813
usemtl Surface_2
f 815/815 814/814 816/816
usemtl Surface_2
f 820/820 818/818 817/817
usemtl Surface_2
f 819/819 818/818 820/820
usemtl Surface_2
f 824/824 822/822 821/821
usemtl Surface_2
f 823/823 822/822 824/824
usemtl Surface_2
f 825/825 827/827 826/826
usemtl Surface_2
f 828/828 830/830 829/829
usemtl Surface_2
f 831/831 833/833 832/832
usemtl Surface_2
f 834/834 836/836 835/835
usemtl Surface_2
f 837/837 839/839 838/838
usemtl Surface_2
f 840/840 842/842 841/841
usemtl Surface_2
f 843/843 845/845 844/844
usemtl Surface_2
f 846/846 848/848 847/847
usemtl Surface_1
f 852/852 850/850 849/849
usemtl Surface_1
f 851/851 850/850 852/852
usemtl Surface_1
f 856/856 854/854 853/853
usemtl Surface_1
f 855/855 854/854 856/856
usemtl Surface_1
f 860/860 858/858 857/857
usemtl Surface_1
f 859/859 858/858 860/860
usemtl Surface_1
f 864/864 862/862 861/861
usemtl Surface_1
f 863/863 862/862 864/864
usemtl Surface_1
f 868/868 866/866 865/865
usemtl Surface_1
f 867/867 866/866 868/868
usemtl Surface_1
f 872/872 870/870 869/869
usemtl Surface_1
f 871/871 870/870 872/872
usemtl Surface_1
f 876/876 874/874 873/873
usemtl Surface_1
f 875/875 874/874 876/876
usemtl Surface_1
f 880/880 878/878 877/877
usemtl Surface_1
f 879/879 878/878 880/880
usemtl Surface_1
f 884/884 882/882 881/881
usemtl Surface_1
f 883/883 882/882 884/884
usemtl Surface_1
f 888/888 886/886 885/885
usemtl Surface_1
f 887/887 886/886 888/888
usemtl Surface_1
f 892/892 890/890 889/889
usemtl Surface_1
f 891/891 890/890 892/892
usemtl Surface_1
f 896/896 894/894 893/893
usemtl Surface_1
f 895/895 894/894 896/896
usemtl Surface_1
f 900/900 898/898 897/897
usemtl Surface_1
f 899/899 898/898 900/900
usemtl Surface_1
f 904/904 902/902 901/901
usemtl Surface_1
f 903/903 902/902 904/904
usemtl Surface_1
f 908/908 906/906 905/905
usemtl Surface_1
f 907/907 906/906 908/908
usemtl Surface_1
f 912/912 910/910 909/909
usemtl Surface_1
f 911/911 910/910 912/912
usemtl Surface_1
f 916/916 914/914 913/913
usemtl Surface_1
f 915/915 914/914 916/916
usemtl Surface_1
f 920/920 918/918 917/917
usemtl Surface_1
f 919/919 918/918 920/920
usemtl Surface_1
f 921/921 923/923 922/922
usemtl Surface_1
f 924/924 926/926 925/925
usemtl Surface_1
f 927/927 929/929 928/928
usemtl Surface_1
f 930/930 932/932 931/931
usemtl Surface_1
f 933/933 935/935 934/934
usemtl Surface_1
f 936/936 938/938 937/937
usemtl Surface_1
f 939/939 941/941 940/940
usemtl Surface_1
f 942/942 944/944 943/943
usemtl Surface_2
f 948/948 946/946 945/945
usemtl Surface_2
f 947/947 946/946 948/948
usemtl Surface_2
f 952/952 950/950 949/949
usemtl Surface_2
f 951/951 950/950 952/952
usemtl Surface_2
f 956/956 954/954 953/953
usemtl Surface_2
f 955/955 954/954 956/956
usemtl Surface_2
f 960/960 958/958 957/957
usemtl Surface_2
f 959/959 958/958 960/960
usemtl Surface_2
f 964/964 962/962 961/961
usemtl Surface_2
f 963/963 962/962 964/964
usemtl Surface_2
f 968/968 966/966 965/965
usemtl Surface_2
f 967/967 966/966 968/968
usemtl Surface_2
f 972/972 970/970 969/969
usemtl Surface_2
f 971/971 970/970 972/972
usemtl Surface_2
f 976/976 974/974 973/973
usemtl Surface_2
f 975/975 974/974 976/976
usemtl Surface_2
f 980/980 978/978 977/977
usemtl Surface_2
f 979/979 978/978 980/980
usemtl Surface_2
f 984/984 982/982 981/981
usemtl Surface_2
f 983/983 982/982 984/984
usemtl Surface_2
f 988/988 986/986 985/985
usemtl Surface_2
f 987/987 986/986 988/988
usemtl Surface_2
f 992/992 990/990 989/989
usemtl Surface_2
f 991/991 990/990 992/992
usemtl Surface_2
f 996/996 994/994 993/993
usemtl Surface_2
f 995/995 994/994 996/996
usemtl Surface_2
f 1000/1000 998/998 997/997
usemtl Surface_2
f 999/999 998/998 1000/1000
usemtl Surface_2
f 1004/1004 1002/1002 1001/1001
usemtl Surface_2
f 1003/1003 1002/1002 1004/1004
usemtl Surface_2
f 1008/1008 1006/1006 1005/1005
usemtl Surface_2
f 1007/1007 1006/1006 1008/1008
usemtl Surface_2
f 1012/1012 1010/1010 1009/1009
usemtl Surface_2
f 1011/1011 1010/1010 1012/1012
usemtl Surface_2
f 1016/1016 1014/1014 1013/1013
usemtl Surface_2
f 1015/1015 1014/1014 1016/1016
usemtl Surface_2
f 1017/1017 1019/1019 1018/1018
usemtl Surface_2
f 1020/1020 1022/1022 1021/1021
usemtl Surface_2
f 1023/1023 1025/1025 1024/1024
usemtl Surface_2
f 1026/1026 1028/1028 1027/1027
usemtl Surface_2
f 1029/1029 1031/1031 1030/1030
usemtl Surface_2
f 1032/1032 1034/1034 1033/1033
usemtl Surface_2
f 1035/1035 1037/1037 1036/1036
usemtl Surface_2
f 1038/1038 1040/1040 1039/1039
