# Null Route authored hard-surface mesh. Centimeters, Z up.
v 6.28213 4.45402 8.78547
v 5.47686 -21.04872 4.96422
v 1.67875 -20.92880 4.96431
v 2.48402 4.57394 8.78556
v 2.55841 6.94254 -7.03797
v 1.75315 -18.56020 -10.85922
v 5.55125 -18.68011 -10.85932
v 6.35652 6.82262 -7.03807
v 6.33950 6.27245 7.44009
v 2.54140 6.39236 7.44018
v 2.60091 8.28724 -5.21864
v 6.39902 8.16733 -5.21874
v 5.49388 -20.49854 -9.51394
v 1.69577 -20.37863 -9.51385
v 1.63625 -22.27351 3.14498
v 5.43436 -22.39342 3.14489
v 7.88877 4.64039 7.20307
v 7.94828 6.53527 -5.45575
v 7.14302 -18.96746 -9.27700
v 7.08350 -20.86234 3.38182
v 0.08699 -20.64145 3.38200
v 0.14650 -18.74657 -9.27683
v 0.95177 6.75617 -5.45558
v 0.89225 4.86129 7.20325
v 6.33950 6.27245 7.44009
v 6.39902 8.16733 -5.21874
v 7.94828 6.53527 -5.45575
v 7.88877 4.64039 7.20307
v 0.89225 4.86129 7.20325
v 0.95177 6.75617 -5.45558
v 2.60091 8.28724 -5.21864
v 2.54140 6.39236 7.44018
v 7.08350 -20.86234 3.38182
v 7.14302 -18.96746 -9.27700
v 5.49388 -20.49854 -9.51394
v 5.43436 -22.39342 3.14489
v 1.63625 -22.27351 3.14498
v 1.69577 -20.37863 -9.51385
v 0.14650 -18.74657 -9.27683
v 0.08699 -20.64145 3.38200
v 7.88877 4.64039 7.20307
v 7.08350 -20.86234 3.38182
v 5.47686 -21.04872 4.96422
v 6.28213 4.45402 8.78547
v 6.35652 6.82262 -7.03807
v 5.55125 -18.68011 -10.85932
v 7.14302 -18.96746 -9.27700
v 7.94828 6.53527 -5.45575
v 2.48402 4.57394 8.78556
v 1.67875 -20.92880 4.96431
v 0.08699 -20.64145 3.38200
v 0.89225 4.86129 7.20325
v 0.95177 6.75617 -5.45558
v 0.14650 -18.74657 -9.27683
v 1.75315 -18.56020 -10.85922
v 2.55841 6.94254 -7.03797
v 6.28213 4.45402 8.78547
v 2.48402 4.57394 8.78556
v 2.54140 6.39236 7.44018
v 6.33950 6.27245 7.44009
v 5.43436 -22.39342 3.14489
v 1.63625 -22.27351 3.14498
v 1.67875 -20.92880 4.96431
v 5.47686 -21.04872 4.96422
v 6.39902 8.16733 -5.21874
v 2.60091 8.28724 -5.21864
v 2.55841 6.94254 -7.03797
v 6.35652 6.82262 -7.03807
v 5.55125 -18.68011 -10.85932
v 1.75315 -18.56020 -10.85922
v 1.69577 -20.37863 -9.51385
v 5.49388 -20.49854 -9.51394
v 6.28213 4.45402 8.78547
v 6.33950 6.27245 7.44009
v 7.88877 4.64039 7.20307
v 0.89225 4.86129 7.20325
v 2.54140 6.39236 7.44018
v 2.48402 4.57394 8.78556
v 7.08350 -20.86234 3.38182
v 5.43436 -22.39342 3.14489
v 5.47686 -21.04872 4.96422
v 1.67875 -20.92880 4.96431
v 1.63625 -22.27351 3.14498
v 0.08699 -20.64145 3.38200
v 7.94828 6.53527 -5.45575
v 6.39902 8.16733 -5.21874
v 6.35652 6.82262 -7.03807
v 2.55841 6.94254 -7.03797
v 2.60091 8.28724 -5.21864
v 0.95177 6.75617 -5.45558
v 5.55125 -18.68011 -10.85932
v 5.49388 -20.49854 -9.51394
v 7.14302 -18.96746 -9.27700
v 0.14650 -18.74657 -9.27683
v 1.69577 -20.37863 -9.51385
v 1.75315 -18.56020 -10.85922
v 2.68639 -1.69093 7.34316
v 2.09336 -20.47201 4.52906
v -2.90415 -20.31423 4.52918
v -2.31112 -1.53315 7.34328
v -2.24138 0.68742 -7.49128
v -2.83440 -18.09367 -10.30538
v 2.16311 -18.25145 -10.30550
v 2.75613 0.52963 -7.49140
v 2.75811 0.58210 5.66144
v -2.23940 0.73988 5.66156
v -2.18825 2.36830 -5.21712
v 2.80926 2.21052 -5.21724
v 2.09138 -20.52448 -8.62378
v -2.90613 -20.36670 -8.62366
v -2.95727 -21.99511 2.25502
v 2.04024 -22.15289 2.25490
v 4.69469 -1.45797 5.36517
v 4.74584 0.17045 -5.51351
v 4.15281 -18.61064 -8.32761
v 4.10167 -20.23905 2.55107
v -4.89385 -19.95505 2.55129
v -4.84271 -18.32663 -8.32739
v -4.24968 0.45445 -5.51329
v -4.30083 -1.17396 5.36539
v 2.75811 0.58210 5.66144
v 2.80926 2.21052 -5.21724
v 4.74584 0.17045 -5.51351
v 4.69469 -1.45797 5.36517
v -4.30083 -1.17396 5.36539
v -4.24968 0.45445 -5.51329
v -2.18825 2.36830 -5.21712
v -2.23940 0.73988 5.66156
v 4.10167 -20.23905 2.55107
v 4.15281 -18.61064 -8.32761
v 2.09138 -20.52448 -8.62378
v 2.04024 -22.15289 2.25490
v -2.95727 -21.99511 2.25502
v -2.90613 -20.36670 -8.62366
v -4.84271 -18.32663 -8.32739
v -4.89385 -19.95505 2.55129
v 4.69469 -1.45797 5.36517
v 4.10167 -20.23905 2.55107
v 2.09336 -20.47201 4.52906
v 2.68639 -1.69093 7.34316
v 2.75613 0.52963 -7.49140
v 2.16311 -18.25145 -10.30550
v 4.15281 -18.61064 -8.32761
v 4.74584 0.17045 -5.51351
v -2.31112 -1.53315 7.34328
v -2.90415 -20.31423 4.52918
v -4.89385 -19.95505 2.55129
v -4.30083 -1.17396 5.36539
v -4.24968 0.45445 -5.51329
v -4.84271 -18.32663 -8.32739
v -2.83440 -18.09367 -10.30538
v -2.24138 0.68742 -7.49128
v 2.68639 -1.69093 7.34316
v -2.31112 -1.53315 7.34328
v -2.23940 0.73988 5.66156
v 2.75811 0.58210 5.66144
v 2.04024 -22.15289 2.25490
v -2.95727 -21.99511 2.25502
v -2.90415 -20.31423 4.52918
v 2.09336 -20.47201 4.52906
v 2.80926 2.21052 -5.21724
v -2.18825 2.36830 -5.21712
v -2.24138 0.68742 -7.49128
v 2.75613 0.52963 -7.49140
v 2.16311 -18.25145 -10.30550
v -2.83440 -18.09367 -10.30538
v -2.90613 -20.36670 -8.62366
v 2.09138 -20.52448 -8.62378
v 2.68639 -1.69093 7.34316
v 2.75811 0.58210 5.66144
v 4.69469 -1.45797 5.36517
v -4.30083 -1.17396 5.36539
v -2.23940 0.73988 5.66156
v -2.31112 -1.53315 7.34328
v 4.10167 -20.23905 2.55107
v 2.04024 -22.15289 2.25490
v 2.09336 -20.47201 4.52906
v -2.90415 -20.31423 4.52918
v -2.95727 -21.99511 2.25502
v -4.89385 -19.95505 2.55129
v 4.74584 0.17045 -5.51351
v 2.80926 2.21052 -5.21724
v 2.75613 0.52963 -7.49140
v -2.24138 0.68742 -7.49128
v -2.18825 2.36830 -5.21712
v -4.24968 0.45445 -5.51329
v 2.16311 -18.25145 -10.30550
v 2.09138 -20.52448 -8.62378
v 4.15281 -18.61064 -8.32761
v -4.84271 -18.32663 -8.32739
v -2.90613 -20.36670 -8.62366
v -2.83440 -18.09367 -10.30538
v 1.61606 -18.47802 4.82529
v -2.23203 -18.35653 4.82539
v -3.82728 -17.86161 1.85852
v -3.78543 -16.52927 -7.04222
v -2.16228 -16.13596 -10.00917
v 1.68580 -16.25745 -10.00927
v 3.21457 -16.63914 -7.78412
v 3.16575 -18.19353 2.60007
v 2.68999 -21.06132 1.58462
v 2.73344 -19.67791 -7.65731
v 1.37284 -19.33822 -9.63769
v -2.05196 -19.23009 -9.63761
v -3.49656 -19.58013 -6.99702
v -3.53380 -20.76591 0.92463
v -2.11403 -21.20639 3.56515
v 1.31076 -21.31452 3.56507
v 3.16575 -18.19353 2.60007
v 3.21457 -16.63914 -7.78412
v 3.13654 -19.11033 -8.15440
v 3.08772 -20.66472 2.22979
v 3.08772 -20.66472 2.22979
v 3.13654 -19.11033 -8.15440
v 2.73344 -19.67791 -7.65731
v 2.68999 -21.06132 1.58462
v 3.21457 -16.63914 -7.78412
v 1.68580 -16.25745 -10.00927
v 1.60777 -18.72865 -10.37955
v 3.13654 -19.11033 -8.15440
v 3.13654 -19.11033 -8.15440
v 1.60777 -18.72865 -10.37955
v 1.37284 -19.33822 -9.63769
v 2.73344 -19.67791 -7.65731
v 1.68580 -16.25745 -10.00927
v -2.16228 -16.13596 -10.00917
v -2.24031 -18.60716 -10.37945
v 1.60777 -18.72865 -10.37955
v 1.60777 -18.72865 -10.37955
v -2.24031 -18.60716 -10.37945
v -2.05196 -19.23009 -9.63761
v 1.37284 -19.33822 -9.63769
v -2.16228 -16.13596 -10.00917
v -3.78543 -16.52927 -7.04222
v -3.86346 -19.00047 -7.41250
v -2.24031 -18.60716 -10.37945
v -2.24031 -18.60716 -10.37945
v -3.86346 -19.00047 -7.41250
v -3.49656 -19.58013 -6.99702
v -2.05196 -19.23009 -9.63761
v -3.78543 -16.52927 -7.04222
v -3.82728 -17.86161 1.85852
v -3.90530 -20.33280 1.48824
v -3.86346 -19.00047 -7.41250
v -3.86346 -19.00047 -7.41250
v -3.90530 -20.33280 1.48824
v -3.53380 -20.76591 0.92463
v -3.49656 -19.58013 -6.99702
v -3.82728 -17.86161 1.85852
v -2.23203 -18.35653 4.82539
v -2.31006 -20.82772 4.45511
v -3.90530 -20.33280 1.48824
v -3.90530 -20.33280 1.48824
v -2.31006 -20.82772 4.45511
v -2.11403 -21.20639 3.56515
v -3.53380 -20.76591 0.92463
v -2.23203 -18.35653 4.82539
v 1.61606 -18.47802 4.82529
v 1.53803 -20.94921 4.45502
v -2.31006 -20.82772 4.45511
v -2.31006 -20.82772 4.45511
v 1.53803 -20.94921 4.45502
v 1.31076 -21.31452 3.56507
v -2.11403 -21.20639 3.56515
v 1.61606 -18.47802 4.82529
v 3.16575 -18.19353 2.60007
v 3.08772 -20.66472 2.22979
v 1.53803 -20.94921 4.45502
v 1.53803 -20.94921 4.45502
v 3.08772 -20.66472 2.22979
v 2.68999 -21.06132 1.58462
v 1.31076 -21.31452 3.56507
v -2.65016 3.57306 7.09488
v -2.93107 -5.32324 5.76188
v -8.92808 -5.13391 5.76203
v -8.64718 3.76240 7.09502
v -8.58673 5.68688 -5.76160
v -8.86764 -3.20942 -7.09459
v -2.87063 -3.39876 -7.09474
v -2.58972 5.49755 -5.76175
v -2.61430 4.70957 6.25401
v -8.61131 4.89891 6.25416
v -8.56017 6.52732 -4.62452
v -2.56316 6.33799 -4.62466
v -2.90649 -4.53527 -6.25388
v -8.90350 -4.34594 -6.25373
v -8.95464 -5.97435 4.62495
v -2.95763 -6.16369 4.62480
v -1.64601 3.68954 6.10588
v -1.59487 5.31795 -4.77280
v -1.87577 -3.57835 -6.10579
v -1.92692 -5.20676 4.77289
v -9.92293 -4.95431 4.77308
v -9.87179 -3.32590 -6.10560
v -9.59088 5.57040 -4.77260
v -9.64203 3.94199 6.10608
v -2.61430 4.70957 6.25401
v -2.56316 6.33799 -4.62466
v -1.59487 5.31795 -4.77280
v -1.64601 3.68954 6.10588
v -9.64203 3.94199 6.10608
v -9.59088 5.57040 -4.77260
v -8.56017 6.52732 -4.62452
v -8.61131 4.89891 6.25416
v -1.92692 -5.20676 4.77289
v -1.87577 -3.57835 -6.10579
v -2.90649 -4.53527 -6.25388
v -2.95763 -6.16369 4.62480
v -8.95464 -5.97435 4.62495
v -8.90350 -4.34594 -6.25373
v -9.87179 -3.32590 -6.10560
v -9.92293 -4.95431 4.77308
v -1.64601 3.68954 6.10588
v -1.92692 -5.20676 4.77289
v -2.93107 -5.32324 5.76188
v -2.65016 3.57306 7.09488
v -2.58972 5.49755 -5.76175
v -2.87063 -3.39876 -7.09474
v -1.87577 -3.57835 -6.10579
v -1.59487 5.31795 -4.77280
v -8.64718 3.76240 7.09502
v -8.92808 -5.13391 5.76203
v -9.92293 -4.95431 4.77308
v -9.64203 3.94199 6.10608
v -9.59088 5.57040 -4.77260
v -9.87179 -3.32590 -6.10560
v -8.86764 -3.20942 -7.09459
v -8.58673 5.68688 -5.76160
v -2.65016 3.57306 7.09488
v -8.64718 3.76240 7.09502
v -8.61131 4.89891 6.25416
v -2.61430 4.70957 6.25401
v -2.95763 -6.16369 4.62480
v -8.95464 -5.97435 4.62495
v -8.92808 -5.13391 5.76203
v -2.93107 -5.32324 5.76188
v -2.56316 6.33799 -4.62466
v -8.56017 6.52732 -4.62452
v -8.58673 5.68688 -5.76160
v -2.58972 5.49755 -5.76175
v -2.87063 -3.39876 -7.09474
v -8.86764 -3.20942 -7.09459
v -8.90350 -4.34594 -6.25373
v -2.90649 -4.53527 -6.25388
v -2.65016 3.57306 7.09488
v -2.61430 4.70957 6.25401
v -1.64601 3.68954 6.10588
v -9.64203 3.94199 6.10608
v -8.61131 4.89891 6.25416
v -8.64718 3.76240 7.09502
v -1.92692 -5.20676 4.77289
v -2.95763 -6.16369 4.62480
v -2.93107 -5.32324 5.76188
v -8.92808 -5.13391 5.76203
v -8.95464 -5.97435 4.62495
v -9.92293 -4.95431 4.77308
v -1.59487 5.31795 -4.77280
v -2.56316 6.33799 -4.62466
v -2.58972 5.49755 -5.76175
v -8.58673 5.68688 -5.76160
v -8.56017 6.52732 -4.62452
v -9.59088 5.57040 -4.77260
v -2.87063 -3.39876 -7.09474
v -2.90649 -4.53527 -6.25388
v -1.87577 -3.57835 -6.10579
v -9.87179 -3.32590 -6.10560
v -8.90350 -4.34594 -6.25373
v -8.86764 -3.20942 -7.09459
v 7.82529 -3.70830 7.57092
v 7.78160 -5.09217 7.36356
v 6.98199 -5.06692 7.36358
v 7.02569 -3.68306 7.57094
v 7.10008 -1.31446 -8.25260
v 7.05639 -2.69832 -8.45995
v 7.85599 -2.72357 -8.45997
v 7.89968 -1.33970 -8.25262
v 7.83605 -3.36735 7.31866
v 7.03645 -3.34210 7.31868
v 7.10805 -1.06232 -7.91147
v 7.90765 -1.08757 -7.91149
v 7.84523 -3.06452 -8.20771
v 7.04563 -3.03928 -8.20769
v 6.97403 -5.31906 7.02246
v 7.77363 -5.34430 7.02244
v 8.12654 -3.67336 7.27422
v 8.19814 -1.39358 -7.95593
v 8.15444 -2.77745 -8.16329
v 8.08284 -5.05723 7.06686
v 6.68354 -5.01305 7.06690
v 6.75514 -2.73327 -8.16325
v 6.79884 -1.34940 -7.95590
v 6.72724 -3.62918 7.27425
v 7.83605 -3.36735 7.31866
v 7.90765 -1.08757 -7.91149
v 8.19814 -1.39358 -7.95593
v 8.12654 -3.67336 7.27422
v 6.72724 -3.62918 7.27425
v 6.79884 -1.34940 -7.95590
v 7.10805 -1.06232 -7.91147
v 7.03645 -3.34210 7.31868
v 8.08284 -5.05723 7.06686
v 8.15444 -2.77745 -8.16329
v 7.84523 -3.06452 -8.20771
v 7.77363 -5.34430 7.02244
v 6.97403 -5.31906 7.02246
v 7.04563 -3.03928 -8.20769
v 6.75514 -2.73327 -8.16325
v 6.68354 -5.01305 7.06690
v 8.12654 -3.67336 7.27422
v 8.08284 -5.05723 7.06686
v 7.78160 -5.09217 7.36356
v 7.82529 -3.70830 7.57092
v 7.89968 -1.33970 -8.25262
v 7.85599 -2.72357 -8.45997
v 8.15444 -2.77745 -8.16329
v 8.19814 -1.39358 -7.95593
v 7.02569 -3.68306 7.57094
v 6.98199 -5.06692 7.36358
v 6.68354 -5.01305 7.06690
v 6.72724 -3.62918 7.27425
v 6.79884 -1.34940 -7.95590
v 6.75514 -2.73327 -8.16325
v 7.05639 -2.69832 -8.45995
v 7.10008 -1.31446 -8.25260
v 7.82529 -3.70830 7.57092
v 7.02569 -3.68306 7.57094
v 7.03645 -3.34210 7.31868
v 7.83605 -3.36735 7.31866
v 7.77363 -5.34430 7.02244
v 6.97403 -5.31906 7.02246
v 6.98199 -5.06692 7.36358
v 7.78160 -5.09217 7.36356
v 7.90765 -1.08757 -7.91149
v 7.10805 -1.06232 -7.91147
v 7.10008 -1.31446 -8.25260
v 7.89968 -1.33970 -8.25262
v 7.85599 -2.72357 -8.45997
v 7.05639 -2.69832 -8.45995
v 7.04563 -3.03928 -8.20769
v 7.84523 -3.06452 -8.20771
v 7.82529 -3.70830 7.57092
v 7.83605 -3.36735 7.31866
v 8.12654 -3.67336 7.27422
v 6.72724 -3.62918 7.27425
v 7.03645 -3.34210 7.31868
v 7.02569 -3.68306 7.57094
v 8.08284 -5.05723 7.06686
v 7.77363 -5.34430 7.02244
v 7.78160 -5.09217 7.36356
v 6.98199 -5.06692 7.36358
v 6.97403 -5.31906 7.02246
v 6.68354 -5.01305 7.06690
v 8.19814 -1.39358 -7.95593
v 7.90765 -1.08757 -7.91149
v 7.89968 -1.33970 -8.25262
v 7.10008 -1.31446 -8.25260
v 7.10805 -1.06232 -7.91147
v 6.79884 -1.34940 -7.95590
v 7.85599 -2.72357 -8.45997
v 7.84523 -3.06452 -8.20771
v 8.15444 -2.77745 -8.16329
v 6.75514 -2.73327 -8.16325
v 7.04563 -3.03928 -8.20769
v 7.05639 -2.69832 -8.45995
v 7.66923 -8.65069 6.83037
v 7.62554 -10.03456 6.62301
v 6.82594 -10.00932 6.62303
v 6.86963 -8.62545 6.83038
v 6.94402 -6.25685 -8.99315
v 6.90033 -7.64072 -9.20050
v 7.69993 -7.66596 -9.20052
v 7.74363 -6.28209 -8.99317
v 7.67999 -8.30974 6.57811
v 6.88039 -8.28449 6.57813
v 6.95199 -6.00471 -8.65202
v 7.75160 -6.02996 -8.65204
v 7.68917 -8.00692 -8.94827
v 6.88957 -7.98167 -8.94825
v 6.81797 -10.26145 6.28191
v 7.61757 -10.28669 6.28189
v 7.97048 -8.61575 6.53367
v 8.04208 -6.33597 -8.69648
v 7.99839 -7.71984 -8.90384
v 7.92678 -9.99962 6.32631
v 6.52748 -9.95544 6.32635
v 6.59908 -7.67566 -8.90380
v 6.64278 -6.29179 -8.69645
v 6.57118 -8.57157 6.53370
v 7.67999 -8.30974 6.57811
v 7.75160 -6.02996 -8.65204
v 8.04208 -6.33597 -8.69648
v 7.97048 -8.61575 6.53367
v 6.57118 -8.57157 6.53370
v 6.64278 -6.29179 -8.69645
v 6.95199 -6.00471 -8.65202
v 6.88039 -8.28449 6.57813
v 7.92678 -9.99962 6.32631
v 7.99839 -7.71984 -8.90384
v 7.68917 -8.00692 -8.94827
v 7.61757 -10.28669 6.28189
v 6.81797 -10.26145 6.28191
v 6.88957 -7.98167 -8.94825
v 6.59908 -7.67566 -8.90380
v 6.52748 -9.95544 6.32635
v 7.97048 -8.61575 6.53367
v 7.92678 -9.99962 6.32631
v 7.62554 -10.03456 6.62301
v 7.66923 -8.65069 6.83037
v 7.74363 -6.28209 -8.99317
v 7.69993 -7.66596 -9.20052
v 7.99839 -7.71984 -8.90384
v 8.04208 -6.33597 -8.69648
v 6.86963 -8.62545 6.83038
v 6.82594 -10.00932 6.62303
v 6.52748 -9.95544 6.32635
v 6.57118 -8.57157 6.53370
v 6.64278 -6.29179 -8.69645
v 6.59908 -7.67566 -8.90380
v 6.90033 -7.64072 -9.20050
v 6.94402 -6.25685 -8.99315
v 7.66923 -8.65069 6.83037
v 6.86963 -8.62545 6.83038
v 6.88039 -8.28449 6.57813
v 7.67999 -8.30974 6.57811
v 7.61757 -10.28669 6.28189
v 6.81797 -10.26145 6.28191
v 6.82594 -10.00932 6.62303
v 7.62554 -10.03456 6.62301
v 7.75160 -6.02996 -8.65204
v 6.95199 -6.00471 -8.65202
v 6.94402 -6.25685 -8.99315
v 7.74363 -6.28209 -8.99317
v 7.69993 -7.66596 -9.20052
v 6.90033 -7.64072 -9.20050
v 6.88957 -7.98167 -8.94825
v 7.68917 -8.00692 -8.94827
v 7.66923 -8.65069 6.83037
v 7.67999 -8.30974 6.57811
v 7.97048 -8.61575 6.53367
v 6.57118 -8.57157 6.53370
v 6.88039 -8.28449 6.57813
v 6.86963 -8.62545 6.83038
v 7.92678 -9.99962 6.32631
v 7.61757 -10.28669 6.28189
v 7.62554 -10.03456 6.62301
v 6.82594 -10.00932 6.62303
v 6.81797 -10.26145 6.28191
v 6.52748 -9.95544 6.32635
v 8.04208 -6.33597 -8.69648
v 7.75160 -6.02996 -8.65204
v 7.74363 -6.28209 -8.99317
v 6.94402 -6.25685 -8.99315
v 6.95199 -6.00471 -8.65202
v 6.64278 -6.29179 -8.69645
v 7.69993 -7.66596 -9.20052
v 7.68917 -8.00692 -8.94827
v 7.99839 -7.71984 -8.90384
v 6.59908 -7.67566 -8.90380
v 6.88957 -7.98167 -8.94825
v 6.90033 -7.64072 -9.20050
v 7.51318 -13.59308 6.08981
v 7.46948 -14.97695 5.88246
v 6.66988 -14.95171 5.88248
v 6.71357 -13.56784 6.08983
v 6.78797 -11.19924 -9.73370
v 6.74427 -12.58311 -9.94106
v 7.54387 -12.60835 -9.94108
v 7.58757 -11.22448 -9.73372
v 7.52393 -13.25213 5.83755
v 6.72433 -13.22688 5.83757
v 6.79593 -10.94710 -9.39258
v 7.59554 -10.97235 -9.39260
v 7.53311 -12.94931 -9.68882
v 6.73351 -12.92406 -9.68880
v 6.66191 -15.20384 5.54135
v 7.46151 -15.22908 5.54133
v 7.81442 -13.55814 5.79311
v 7.88602 -11.27836 -9.43704
v 7.84233 -12.66223 -9.64439
v 7.77072 -14.94201 5.58576
v 6.37142 -14.89783 5.58579
v 6.44302 -12.61805 -9.64436
v 6.48672 -11.23418 -9.43700
v 6.41512 -13.51396 5.79315
v 7.52393 -13.25213 5.83755
v 7.59554 -10.97235 -9.39260
v 7.88602 -11.27836 -9.43704
v 7.81442 -13.55814 5.79311
v 6.41512 -13.51396 5.79315
v 6.48672 -11.23418 -9.43700
v 6.79593 -10.94710 -9.39258
v 6.72433 -13.22688 5.83757
v 7.77072 -14.94201 5.58576
v 7.84233 -12.66223 -9.64439
v 7.53311 -12.94931 -9.68882
v 7.46151 -15.22908 5.54133
v 6.66191 -15.20384 5.54135
v 6.73351 -12.92406 -9.68880
v 6.44302 -12.61805 -9.64436
v 6.37142 -14.89783 5.58579
v 7.81442 -13.55814 5.79311
v 7.77072 -14.94201 5.58576
v 7.46948 -14.97695 5.88246
v 7.51318 -13.59308 6.08981
v 7.58757 -11.22448 -9.73372
v 7.54387 -12.60835 -9.94108
v 7.84233 -12.66223 -9.64439
v 7.88602 -11.27836 -9.43704
v 6.71357 -13.56784 6.08983
v 6.66988 -14.95171 5.88248
v 6.37142 -14.89783 5.58579
v 6.41512 -13.51396 5.79315
v 6.48672 -11.23418 -9.43700
v 6.44302 -12.61805 -9.64436
v 6.74427 -12.58311 -9.94106
v 6.78797 -11.19924 -9.73370
v 7.51318 -13.59308 6.08981
v 6.71357 -13.56784 6.08983
v 6.72433 -13.22688 5.83757
v 7.52393 -13.25213 5.83755
v 7.46151 -15.22908 5.54133
v 6.66191 -15.20384 5.54135
v 6.66988 -14.95171 5.88248
v 7.46948 -14.97695 5.88246
v 7.59554 -10.97235 -9.39260
v 6.79593 -10.94710 -9.39258
v 6.78797 -11.19924 -9.73370
v 7.58757 -11.22448 -9.73372
v 7.54387 -12.60835 -9.94108
v 6.74427 -12.58311 -9.94106
v 6.73351 -12.92406 -9.68880
v 7.53311 -12.94931 -9.68882
v 7.51318 -13.59308 6.08981
v 7.52393 -13.25213 5.83755
v 7.81442 -13.55814 5.79311
v 6.41512 -13.51396 5.79315
v 6.72433 -13.22688 5.83757
v 6.71357 -13.56784 6.08983
v 7.77072 -14.94201 5.58576
v 7.46151 -15.22908 5.54133
v 7.46948 -14.97695 5.88246
v 6.66988 -14.95171 5.88248
v 6.66191 -15.20384 5.54135
v 6.37142 -14.89783 5.58579
v 7.88602 -11.27836 -9.43704
v 7.59554 -10.97235 -9.39260
v 7.58757 -11.22448 -9.73372
v 6.78797 -11.19924 -9.73370
v 6.79593 -10.94710 -9.39258
v 6.48672 -11.23418 -9.43700
v 7.54387 -12.60835 -9.94108
v 7.53311 -12.94931 -9.68882
v 7.84233 -12.66223 -9.64439
v 6.44302 -12.61805 -9.64436
v 6.73351 -12.92406 -9.68880
v 6.74427 -12.58311 -9.94106
v 7.35712 -18.53547 5.34926
v 7.31342 -19.91934 5.14191
v 6.51382 -19.89410 5.14192
v 6.55751 -18.51023 5.34928
v 6.63191 -16.14163 -10.47425
v 6.58821 -17.52550 -10.68161
v 7.38781 -17.55074 -10.68163
v 7.43151 -16.16687 -10.47427
v 7.36787 -18.19452 5.09700
v 6.56827 -18.16927 5.09702
v 6.63988 -15.88950 -10.13313
v 7.43948 -15.91474 -10.13315
v 7.37705 -17.89170 -10.42937
v 6.57745 -17.86645 -10.42935
v 6.50585 -20.14623 4.80080
v 7.30545 -20.17147 4.80078
v 7.65836 -18.50053 5.05256
v 7.72996 -16.22075 -10.17759
v 7.68627 -17.60462 -10.38494
v 7.61467 -19.88440 4.84521
v 6.21536 -19.84022 4.84524
v 6.28696 -17.56044 -10.38491
v 6.33066 -16.17657 -10.17756
v 6.25906 -18.45635 5.05260
v 7.36787 -18.19452 5.09700
v 7.43948 -15.91474 -10.13315
v 7.72996 -16.22075 -10.17759
v 7.65836 -18.50053 5.05256
v 6.25906 -18.45635 5.05260
v 6.33066 -16.17657 -10.17756
v 6.63988 -15.88950 -10.13313
v 6.56827 -18.16927 5.09702
v 7.61467 -19.88440 4.84521
v 7.68627 -17.60462 -10.38494
v 7.37705 -17.89170 -10.42937
v 7.30545 -20.17147 4.80078
v 6.50585 -20.14623 4.80080
v 6.57745 -17.86645 -10.42935
v 6.28696 -17.56044 -10.38491
v 6.21536 -19.84022 4.84524
v 7.65836 -18.50053 5.05256
v 7.61467 -19.88440 4.84521
v 7.31342 -19.91934 5.14191
v 7.35712 -18.53547 5.34926
v 7.43151 -16.16687 -10.47427
v 7.38781 -17.55074 -10.68163
v 7.68627 -17.60462 -10.38494
v 7.72996 -16.22075 -10.17759
v 6.55751 -18.51023 5.34928
v 6.51382 -19.89410 5.14192
v 6.21536 -19.84022 4.84524
v 6.25906 -18.45635 5.05260
v 6.33066 -16.17657 -10.17756
v 6.28696 -17.56044 -10.38491
v 6.58821 -17.52550 -10.68161
v 6.63191 -16.14163 -10.47425
v 7.35712 -18.53547 5.34926
v 6.55751 -18.51023 5.34928
v 6.56827 -18.16927 5.09702
v 7.36787 -18.19452 5.09700
v 7.30545 -20.17147 4.80078
v 6.50585 -20.14623 4.80080
v 6.51382 -19.89410 5.14192
v 7.31342 -19.91934 5.14191
v 7.43948 -15.91474 -10.13315
v 6.63988 -15.88950 -10.13313
v 6.63191 -16.14163 -10.47425
v 7.43151 -16.16687 -10.47427
v 7.38781 -17.55074 -10.68163
v 6.58821 -17.52550 -10.68161
v 6.57745 -17.86645 -10.42935
v 7.37705 -17.89170 -10.42937
v 7.35712 -18.53547 5.34926
v 7.36787 -18.19452 5.09700
v 7.65836 -18.50053 5.05256
v 6.25906 -18.45635 5.05260
v 6.56827 -18.16927 5.09702
v 6.55751 -18.51023 5.34928
v 7.61467 -19.88440 4.84521
v 7.30545 -20.17147 4.80078
v 7.31342 -19.91934 5.14191
v 6.51382 -19.89410 5.14192
v 6.50585 -20.14623 4.80080
v 6.21536 -19.84022 4.84524
v 7.72996 -16.22075 -10.17759
v 7.43948 -15.91474 -10.13315
v 7.43151 -16.16687 -10.47427
v 6.63191 -16.14163 -10.47425
v 6.63988 -15.88950 -10.13313
v 6.33066 -16.17657 -10.17756
v 7.38781 -17.55074 -10.68163
v 7.37705 -17.89170 -10.42937
v 7.68627 -17.60462 -10.38494
v 6.28696 -17.56044 -10.38491
v 6.57745 -17.86645 -10.42935
v 6.58821 -17.52550 -10.68161
vt -0.063234 1.057011
vt -0.055001 0.799143
vt -0.017021 0.800355
vt -0.025253 1.058224
vt 0.025253 1.058224
vt 0.017021 0.800355
vt 0.055001 0.799143
vt 0.063234 1.057011
vt 0.061384 1.063998
vt 0.023384 1.063999
vt 0.023381 0.935999
vt 0.061381 0.935998
vt -0.061381 0.935998
vt -0.023381 0.935999
vt -0.023384 1.063999
vt -0.061384 1.063998
vt -0.048870 1.072033
vt -0.067828 0.945444
vt 0.187326 0.907232
vt 0.206284 1.033820
vt -0.206284 1.033820
vt -0.187326 0.907232
vt 0.067828 0.945444
vt 0.048870 1.072033
vt -0.002835 1.064658
vt -0.016316 0.937370
vt 0.006185 0.934987
vt 0.019667 1.062275
vt 0.039940 1.068587
vt 0.053417 0.941298
vt 0.075919 0.943681
vt 0.062441 1.070969
vt 0.092257 1.054590
vt 0.078780 0.927301
vt 0.101282 0.924919
vt 0.114759 1.052207
vt -0.174365 1.045890
vt -0.160883 0.918602
vt -0.138382 0.920985
vt -0.151863 1.048273
vt -0.059680 1.002967
vt 0.192721 0.949511
vt 0.197409 0.971647
vt -0.054992 1.025104
vt -0.060447 0.999346
vt 0.191953 0.945887
vt 0.196642 0.968024
vt -0.055759 1.021482
vt 0.042572 1.083741
vt -0.209828 1.030282
vt -0.205140 1.008146
vt 0.047261 1.061604
vt 0.068178 0.962845
vt -0.184224 0.909389
vt -0.179535 0.887252
vt 0.072866 0.940709
vt 0.061383 1.014847
vt 0.023383 1.014848
vt 0.023382 0.992221
vt 0.061382 0.992219
vt -0.061379 0.893225
vt -0.023379 0.893226
vt -0.023380 0.915854
vt -0.061380 0.915852
vt 0.061383 1.007776
vt 0.023383 1.007777
vt 0.023382 0.985150
vt 0.061382 0.985149
vt -0.061386 1.084143
vt -0.023386 1.084145
vt -0.023387 1.106772
vt -0.061387 1.106771
vt 0.003914 1.015783
vt -0.010011 0.997948
vt 0.012397 0.994806
vt 0.042156 1.037397
vt 0.064565 1.040538
vt 0.050640 1.058374
vt 0.078122 0.929559
vt 0.100587 0.926849
vt 0.091702 0.947659
vt -0.155351 0.974829
vt -0.164236 0.954019
vt -0.141771 0.956730
vt 0.013315 1.001840
vt -0.009150 1.004551
vt -0.000265 0.983741
vt 0.063916 0.956564
vt 0.072801 0.977374
vt 0.050336 0.974664
vt 0.102057 1.027076
vt 0.115982 1.044911
vt 0.093573 1.048052
vt -0.148127 1.005456
vt -0.170535 1.002314
vt -0.156610 0.984479
vt -0.027209 0.994129
vt -0.021146 0.804226
vt 0.028828 0.805821
vt 0.022766 0.995724
vt -0.022766 0.995724
vt -0.028828 0.805821
vt 0.021146 0.804226
vt 0.027209 0.994129
vt 0.027384 1.054999
vt -0.022616 1.055001
vt -0.022619 0.945001
vt 0.027381 0.944999
vt -0.027381 0.944999
vt 0.022619 0.945001
vt 0.022616 1.055001
vt -0.027384 1.054999
vt 0.013091 1.053653
vt -0.003201 0.944866
vt 0.184703 0.916725
vt 0.200995 1.025512
vt -0.200995 1.025512
vt -0.184703 0.916725
vt 0.003201 0.944866
vt -0.013091 1.053653
vt 0.014500 1.053772
vt 0.002914 0.944384
vt 0.031041 0.941405
vt 0.042627 1.050793
vt -0.039275 1.051149
vt -0.027693 0.941760
vt 0.000434 0.944739
vt -0.011148 1.054127
vt 0.109592 1.043704
vt 0.098010 0.934315
vt 0.126137 0.931337
vt 0.137719 1.040726
vt -0.141071 1.040366
vt -0.129485 0.930978
vt -0.101358 0.933957
vt -0.112944 1.043345
vt 0.006008 1.004234
vt 0.191885 0.964867
vt 0.197745 0.992537
vt 0.011868 1.031904
vt -0.002085 0.966024
vt 0.183791 0.926655
vt 0.189652 0.954325
vt 0.003775 0.993694
vt -0.012566 1.035200
vt -0.198443 0.995831
vt -0.192582 0.968161
vt -0.006706 1.007530
vt -0.003077 0.990398
vt -0.188954 0.951031
vt -0.183094 0.923361
vt 0.002783 0.962728
vt 0.027385 1.056567
vt -0.022615 1.056569
vt -0.022617 1.028285
vt 0.027383 1.028283
vt -0.027379 0.886862
vt 0.022621 0.886864
vt 0.022620 0.915148
vt -0.027380 0.915146
vt 0.027381 0.971715
vt -0.022619 0.971716
vt -0.022619 0.943432
vt 0.027381 0.943431
vt -0.027386 1.084852
vt 0.022614 1.084854
vt 0.022613 1.113138
vt -0.027387 1.113136
vt 0.029910 1.048415
vt 0.012504 1.026122
vt 0.040514 1.022194
vt -0.037447 1.024590
vt -0.009436 1.028516
vt -0.026842 1.050811
vt 0.097157 0.933842
vt 0.125238 0.930454
vt 0.114131 0.956467
vt -0.117707 0.957990
vt -0.128813 0.931977
vt -0.100732 0.935365
vt 0.033466 0.968156
vt 0.005385 0.971545
vt 0.016490 0.945532
vt -0.012915 0.944005
vt -0.001808 0.970018
vt -0.029889 0.966630
vt 0.121478 1.012811
vt 0.138884 1.035105
vt 0.110873 1.039032
vt -0.113941 1.036633
vt -0.141951 1.032705
vt -0.124545 1.010412
vt 0.021984 1.074999
vt -0.016516 1.075000
vt -0.032617 1.045001
vt -0.032619 0.955001
vt -0.016520 0.925000
vt 0.021980 0.924999
vt 0.037381 0.947499
vt 0.037384 1.052499
vt -0.033533 1.046724
vt -0.033531 0.953274
vt -0.019825 0.933250
vt 0.014440 0.933250
vt 0.028769 0.959951
vt 0.028767 1.040051
vt 0.014437 1.066750
vt -0.019828 1.066749
vt 0.180846 1.026002
vt 0.165294 0.922160
vt 0.190018 0.918457
vt 0.205570 1.022299
vt 0.119877 1.040101
vt 0.108821 0.935685
vt 0.115652 0.940769
vt 0.125492 1.033699
vt 0.168221 0.946898
vt 0.163353 0.920070
vt 0.187951 0.915606
vt 0.192820 0.942433
vt 0.100380 1.012129
vt 0.109517 0.986440
vt 0.115264 0.994418
vt 0.107132 1.017281
vt 0.016387 0.824388
vt -0.022093 0.825616
vt -0.022891 0.800629
vt 0.015590 0.799400
vt -0.021986 1.088387
vt 0.016514 1.088389
vt 0.014435 1.097758
vt -0.019830 1.097757
vt -0.162761 0.913227
vt -0.168466 0.946793
vt -0.193113 0.942604
vt -0.187408 0.909038
vt -0.117283 0.970208
vt -0.108738 1.003165
vt -0.115447 1.007530
vt -0.123052 0.978198
vt -0.166405 0.929577
vt -0.179735 1.018584
vt -0.204459 1.014882
vt -0.191129 0.925874
vt -0.112959 0.942784
vt -0.122439 1.032284
vt -0.128140 1.026702
vt -0.119704 0.947048
vt -0.176585 0.994560
vt -0.182290 1.028126
vt -0.206937 1.023937
vt -0.201232 0.990371
vt -0.105697 0.974267
vt -0.120916 1.004724
vt -0.124895 0.995708
vt -0.111350 0.968602
vt 0.022093 0.825616
vt -0.016387 0.824388
vt -0.015590 0.799400
vt 0.022891 0.800629
vt 0.016520 0.911612
vt -0.021980 0.911611
vt -0.019823 0.902242
vt 0.014442 0.902243
vt 0.181022 1.017432
vt 0.176153 0.990604
vt 0.200752 0.986140
vt 0.205620 1.012968
vt 0.109959 0.990687
vt 0.095722 0.967434
vt 0.101267 0.961001
vt 0.113938 0.981696
vt 0.026168 1.045858
vt 0.029039 0.955904
vt 0.089009 0.957819
vt 0.086137 1.047773
vt -0.086137 1.047773
vt -0.089009 0.957819
vt -0.029039 0.955904
vt -0.026168 1.045858
vt -0.027616 1.055001
vt -0.087616 1.055002
vt -0.087619 0.945002
vt -0.027619 0.945001
vt 0.027619 0.945001
vt 0.087619 0.945002
vt 0.087616 1.055002
vt 0.027616 1.055001
vt -0.036358 1.061058
vt -0.052650 0.952272
vt 0.036358 0.938942
vt 0.052650 1.047728
vt -0.052650 1.047728
vt -0.036358 0.938942
vt 0.052650 0.952272
vt 0.036358 1.061058
vt -0.052302 1.060847
vt -0.063888 0.951459
vt -0.049824 0.949970
vt -0.038238 1.059358
vt -0.042791 1.050777
vt -0.031208 0.941388
vt -0.017145 0.942877
vt -0.028727 1.052266
vt 0.049822 1.050032
vt 0.038240 0.940644
vt 0.052304 0.939155
vt 0.063886 1.048543
vt 0.017143 1.057123
vt 0.028729 0.947735
vt 0.042792 0.949225
vt 0.031206 1.058613
vt -0.033384 1.059558
vt 0.054663 1.040910
vt 0.057593 1.054746
vt -0.030454 1.073393
vt -0.057593 0.945255
vt 0.030453 0.926606
vt 0.033384 0.940442
vt -0.054663 0.959090
vt 0.047337 0.993678
vt -0.040710 0.975030
vt -0.037779 0.961195
vt 0.050268 0.979843
vt 0.037780 1.038805
vt -0.050267 1.020158
vt -0.047337 1.006322
vt 0.040710 1.024970
vt -0.027617 1.014143
vt -0.087617 1.014146
vt -0.087618 1.000004
vt -0.027618 1.000001
vt 0.027618 1.000001
vt 0.087618 1.000003
vt 0.087617 1.014145
vt 0.027617 1.014143
vt -0.027618 1.000001
vt -0.087618 1.000003
vt -0.087618 0.985861
vt -0.027618 0.985859
vt 0.027618 0.985859
vt 0.087618 0.985861
vt 0.087618 1.000004
vt 0.027618 1.000001
vt -0.044467 1.052661
vt -0.053170 1.041514
vt -0.039165 1.039550
vt -0.034998 0.981648
vt -0.020992 0.983611
vt -0.029695 0.994758
vt 0.047998 1.028183
vt 0.062039 1.026489
vt 0.056486 1.039495
vt 0.030046 1.002550
vt 0.024494 0.989543
vt 0.038534 0.991238
vt -0.048000 0.971820
vt -0.062040 0.973514
vt -0.056487 0.960508
vt -0.030046 0.997452
vt -0.024493 1.010458
vt -0.038533 1.008764
vt 0.044469 0.947341
vt 0.053172 0.958488
vt 0.039167 0.960452
vt 0.034997 1.018354
vt 0.020992 1.016390
vt 0.029695 1.005243
vt -0.078608 0.974479
vt -0.078161 0.960486
vt -0.070165 0.960741
vt -0.070612 0.974734
vt 0.070612 0.974734
vt 0.070165 0.960741
vt 0.078161 0.960486
vt 0.078608 0.974479
vt 0.079384 1.076998
vt 0.071384 1.076998
vt 0.071380 0.922998
vt 0.079380 0.922998
vt -0.079380 0.922998
vt -0.071380 0.922998
vt -0.071384 1.076998
vt -0.079384 1.076998
vt 0.034151 1.072744
vt 0.011342 0.920443
vt 0.025187 0.918369
vt 0.047996 1.070671
vt -0.047996 1.070671
vt -0.025187 0.918369
vt -0.011342 0.920443
vt -0.034151 1.072744
vt 0.077993 1.069170
vt 0.061773 0.916027
vt 0.065992 0.915580
vt 0.082212 1.068723
vt 0.023804 1.079951
vt 0.040019 0.926807
vt 0.044238 0.927254
vt 0.028023 1.080397
vt -0.023804 1.079951
vt -0.040019 0.926807
vt -0.035800 0.926360
vt -0.019585 1.079504
vt -0.086431 1.068276
vt -0.070211 0.915133
vt -0.065992 0.915580
vt -0.082212 1.068723
vt 0.021712 0.991511
vt 0.035409 0.988611
vt 0.036288 0.992761
vt 0.022591 0.995662
vt 0.022410 0.994807
vt 0.036107 0.991906
vt 0.036986 0.996057
vt 0.023289 0.998958
vt -0.044681 1.099955
vt -0.058377 1.097054
vt -0.057498 1.092903
vt -0.043802 1.095804
vt -0.001201 0.894665
vt -0.014897 0.891764
vt -0.014018 0.887613
vt -0.000322 0.890514
vt 0.079385 1.072829
vt 0.071385 1.072829
vt 0.071385 1.068586
vt 0.079385 1.068586
vt -0.079383 1.026160
vt -0.071383 1.026161
vt -0.071383 1.030403
vt -0.079383 1.030403
vt 0.079380 0.931408
vt 0.071380 0.931408
vt 0.071380 0.927166
vt 0.079380 0.927166
vt -0.079381 0.969591
vt -0.071381 0.969591
vt -0.071381 0.973834
vt -0.079381 0.973834
vt 0.077568 1.031839
vt 0.074957 1.028495
vt 0.079158 1.027906
vt 0.017873 1.103662
vt 0.022075 1.104251
vt 0.019464 1.107595
vt -0.030166 1.017874
vt -0.025954 1.017366
vt -0.027620 1.021268
vt -0.085594 1.069602
vt -0.087260 1.065700
vt -0.083048 1.066209
vt 0.069352 0.952723
vt 0.065140 0.953231
vt 0.066805 0.949329
vt 0.046404 0.900994
vt 0.048070 0.904896
vt 0.043858 0.904388
vt -0.032151 0.986526
vt -0.029540 0.989870
vt -0.033741 0.990459
vt -0.063286 0.914704
vt -0.067487 0.914115
vt -0.064876 0.910771
vt -0.077013 0.924504
vt -0.076566 0.910511
vt -0.068570 0.910767
vt -0.069017 0.924760
vt 0.069017 0.924760
vt 0.068570 0.910767
vt 0.076566 0.910511
vt 0.077013 0.924504
vt 0.079384 1.076998
vt 0.071384 1.076998
vt 0.071380 0.922998
vt 0.079380 0.922998
vt -0.079380 0.922998
vt -0.071380 0.922998
vt -0.071384 1.076998
vt -0.079384 1.076998
vt 0.083599 1.065339
vt 0.060790 0.913037
vt 0.074636 0.910964
vt 0.097445 1.063265
vt -0.097445 1.063265
vt -0.074636 0.910964
vt -0.060790 0.913037
vt -0.083599 1.065339
vt 0.113152 1.065446
vt 0.096932 0.912303
vt 0.101151 0.911856
vt 0.117371 1.064999
vt -0.011355 1.076228
vt 0.004860 0.923084
vt 0.009079 0.923531
vt -0.007135 1.076675
vt 0.011355 1.076228
vt -0.004860 0.923084
vt -0.000641 0.922638
vt 0.015574 1.075781
vt -0.121590 1.064552
vt -0.105370 0.911409
vt -0.101151 0.911856
vt -0.117371 1.064999
vt 0.070627 0.981152
vt 0.084324 0.978251
vt 0.085203 0.982401
vt 0.071506 0.985302
vt 0.071325 0.984447
vt 0.085021 0.981546
vt 0.085900 0.985696
vt 0.072204 0.988597
vt -0.093596 1.089594
vt -0.107292 1.086694
vt -0.106413 1.082543
vt -0.092717 1.085444
vt -0.050116 0.884305
vt -0.063812 0.881404
vt -0.062933 0.877253
vt -0.049237 0.880154
vt 0.079387 1.108184
vt 0.071387 1.108184
vt 0.071387 1.103942
vt 0.079387 1.103941
vt -0.079382 0.990805
vt -0.071382 0.990805
vt -0.071382 0.995048
vt -0.079382 0.995048
vt 0.079379 0.896053
vt 0.071379 0.896053
vt 0.071379 0.891810
vt 0.079379 0.891810
vt -0.079383 1.004946
vt -0.071383 1.004947
vt -0.071383 1.009189
vt -0.079383 1.009189
vt 0.115415 1.047145
vt 0.112804 1.043800
vt 0.117006 1.043211
vt -0.019973 1.118968
vt -0.015772 1.119557
vt -0.018383 1.122902
vt 0.002490 0.993374
vt 0.006702 0.992866
vt 0.005036 0.996768
vt -0.118249 1.045101
vt -0.119915 1.041199
vt -0.115702 1.041707
vt 0.102007 0.928221
vt 0.097794 0.928729
vt 0.099460 0.924828
vt 0.013748 0.876494
vt 0.015414 0.880396
vt 0.011202 0.879888
vt 0.005696 1.001833
vt 0.008307 1.005177
vt 0.004105 1.005766
vt -0.101133 0.930009
vt -0.105334 0.929420
vt -0.102723 0.926076
vt -0.075417 0.874530
vt -0.074971 0.860537
vt -0.066975 0.860792
vt -0.067421 0.874785
vt 0.067421 0.874785
vt 0.066975 0.860792
vt 0.074971 0.860537
vt 0.075417 0.874530
vt 0.079384 1.076998
vt 0.071384 1.076998
vt 0.071380 0.922998
vt 0.079380 0.922998
vt -0.079380 0.922998
vt -0.071380 0.922998
vt -0.071384 1.076998
vt -0.079384 1.076998
vt 0.133048 1.057933
vt 0.110239 0.905632
vt 0.124084 0.903558
vt 0.146894 1.055860
vt -0.146894 1.055860
vt -0.124084 0.903558
vt -0.110239 0.905632
vt -0.133048 1.057933
vt 0.148310 1.061722
vt 0.132090 0.908579
vt 0.136309 0.908132
vt 0.152530 1.061275
vt -0.046513 1.072506
vt -0.030298 0.919362
vt -0.026079 0.919808
vt -0.042294 1.072952
vt 0.046513 1.072506
vt 0.030298 0.919362
vt 0.034517 0.918915
vt 0.050732 1.072059
vt -0.156749 1.060829
vt -0.140528 0.907685
vt -0.136309 0.908132
vt -0.152530 1.061275
vt 0.119542 0.970792
vt 0.133239 0.967891
vt 0.134118 0.972042
vt 0.120421 0.974942
vt 0.120240 0.974087
vt 0.133936 0.971186
vt 0.134815 0.975336
vt 0.121119 0.978237
vt -0.142510 1.079234
vt -0.156207 1.076333
vt -0.155328 1.072183
vt -0.141631 1.075084
vt -0.099031 0.873945
vt -0.112727 0.871044
vt -0.111848 0.866894
vt -0.098152 0.869794
vt 0.079388 1.143539
vt 0.071388 1.143540
vt 0.071388 1.139297
vt 0.079388 1.139297
vt -0.079381 0.955450
vt -0.071381 0.955450
vt -0.071381 0.959693
vt -0.079381 0.959692
vt 0.079378 0.860698
vt 0.071378 0.860698
vt 0.071378 0.856455
vt 0.079378 0.856455
vt -0.079384 1.040302
vt -0.071384 1.040302
vt -0.071384 1.044545
vt -0.079384 1.044544
vt 0.153262 1.062450
vt 0.150651 1.059106
vt 0.154853 1.058517
vt -0.057820 1.134275
vt -0.053619 1.134864
vt -0.056229 1.138209
vt 0.035146 0.968874
vt 0.039358 0.968366
vt 0.037692 0.972268
vt -0.150904 1.020599
vt -0.152570 1.016697
vt -0.148357 1.017206
vt 0.134661 0.903720
vt 0.130449 0.904228
vt 0.132115 0.900326
vt -0.018908 0.851994
vt -0.017242 0.855896
vt -0.021454 0.855388
vt 0.043543 1.017139
vt 0.046154 1.020484
vt 0.041952 1.021073
vt -0.138980 0.945314
vt -0.143182 0.944725
vt -0.140571 0.941381
vt -0.073822 0.824555
vt -0.073375 0.810562
vt -0.065379 0.810818
vt -0.065826 0.824810
vt 0.065826 0.824810
vt 0.065379 0.810818
vt 0.073375 0.810562
vt 0.073822 0.824555
vt 0.079384 1.076998
vt 0.071384 1.076998
vt 0.071380 0.922998
vt 0.079380 0.922998
vt -0.079380 0.922998
vt -0.071380 0.922998
vt -0.071384 1.076998
vt -0.079384 1.076998
vt 0.182496 1.050528
vt 0.159687 0.898226
vt 0.173533 0.896153
vt 0.196342 1.048454
vt -0.196342 1.048454
vt -0.173533 0.896153
vt -0.159687 0.898226
vt -0.182496 1.050528
vt 0.183469 1.057998
vt 0.167249 0.904855
vt 0.171468 0.904408
vt 0.187688 1.057552
vt -0.081672 1.068783
vt -0.065457 0.915639
vt -0.061238 0.916086
vt -0.077453 1.069230
vt 0.081672 1.068783
vt 0.065457 0.915639
vt 0.069676 0.915192
vt 0.085891 1.068336
vt -0.191907 1.057105
vt -0.175687 0.903961
vt -0.171468 0.904408
vt -0.187688 1.057552
vt 0.168457 0.960432
vt 0.182153 0.957531
vt 0.183033 0.961682
vt 0.169336 0.964583
vt 0.169155 0.963726
vt 0.182851 0.960825
vt 0.183730 0.964976
vt 0.170034 0.967877
vt -0.191425 1.068874
vt -0.205122 1.065973
vt -0.204242 1.061823
vt -0.190546 1.064723
vt -0.147946 0.863585
vt -0.161642 0.860685
vt -0.160763 0.856534
vt -0.147067 0.859435
vt 0.079390 1.178895
vt 0.071390 1.178895
vt 0.071390 1.174652
vt 0.079390 1.174652
vt -0.079380 0.920094
vt -0.071380 0.920095
vt -0.071380 0.924337
vt -0.079380 0.924337
vt 0.079377 0.825342
vt 0.071377 0.825342
vt 0.071377 0.821100
vt 0.079377 0.821100
vt -0.079385 1.075657
vt -0.071385 1.075657
vt -0.071386 1.079900
vt -0.079386 1.079900
vt 0.191110 1.077755
vt 0.188499 1.074411
vt 0.192700 1.073822
vt -0.095667 1.149582
vt -0.091465 1.150171
vt -0.094076 1.153515
vt 0.067802 0.944374
vt 0.072014 0.943866
vt 0.070348 0.947768
vt -0.183559 0.996098
vt -0.185224 0.992196
vt -0.181012 0.992704
vt 0.167316 0.879218
vt 0.163104 0.879727
vt 0.164770 0.875825
vt -0.051564 0.827494
vt -0.049898 0.831396
vt -0.054110 0.830888
vt 0.081389 1.032446
vt 0.084000 1.035790
vt 0.079799 1.036379
vt -0.176827 0.960620
vt -0.181029 0.960031
vt -0.178418 0.956686
usemtl Surface_2
f 4/4 2/2 1/1
usemtl Surface_2
f 3/3 2/2 4/4
usemtl Surface_2
f 8/8 6/6 5/5
usemtl Surface_2
f 7/7 6/6 8/8
usemtl Surface_2
f 12/12 10/10 9/9
usemtl Surface_2
f 11/11 10/10 12/12
usemtl Surface_2
f 16/16 14/14 13/13
usemtl Surface_2
f 15/15 14/14 16/16
usemtl Surface_2
f 20/20 18/18 17/17
usemtl Surface_2
f 19/19 18/18 20/20
usemtl Surface_2
f 24/24 22/22 21/21
usemtl Surface_2
f 23/23 22/22 24/24
usemtl Surface_2
f 28/28 26/26 25/25
usemtl Surface_2
f 27/27 26/26 28/28
usemtl Surface_2
f 32/32 30/30 29/29
usemtl Surface_2
f 31/31 30/30 32/32
usemtl Surface_2
f 36/36 34/34 33/33
usemtl Surface_2
f 35/35 34/34 36/36
usemtl Surface_2
f 40/40 38/38 37/37
usemtl Surface_2
f 39/39 38/38 40/40
usemtl Surface_2
f 44/44 42/42 41/41
usemtl Surface_2
f 43/43 42/42 44/44
usemtl Surface_2
f 48/48 46/46 45/45
usemtl Surface_2
f 47/47 46/46 48/48
usemtl Surface_2
f 52/52 50/50 49/49
usemtl Surface_2
f 51/51 50/50 52/52
usemtl Surface_2
f 56/56 54/54 53/53
usemtl Surface_2
f 55/55 54/54 56/56
usemtl Surface_2
f 60/60 58/58 57/57
usemtl Surface_2
f 59/59 58/58 60/60
usemtl Surface_2
f 64/64 62/62 61/61
usemtl Surface_2
f 63/63 62/62 64/64
usemtl Surface_2
f 68/68 66/66 65/65
usemtl Surface_2
f 67/67 66/66 68/68
usemtl Surface_2
f 72/72 70/70 69/69
usemtl Surface_2
f 71/71 70/70 72/72
usemtl Surface_2
f 73/73 75/75 74/74
usemtl Surface_2
f 76/76 78/78 77/77
usemtl Surface_2
f 79/79 81/81 80/80
usemtl Surface_2
f 82/82 84/84 83/83
usemtl Surface_2
f 85/85 87/87 86/86
usemtl Surface_2
f 88/88 90/90 89/89
usemtl Surface_2
f 91/91 93/93 92/92
usemtl Surface_2
f 94/94 96/96 95/95
usemtl Surface_0
f 100/100 98/98 97/97
usemtl Surface_0
f 99/99 98/98 100/100
usemtl Surface_0
f 104/104 102/102 101/101
usemtl Surface_0
f 103/103 102/102 104/104
usemtl Surface_0
f 108/108 106/106 105/105
usemtl Surface_0
f 107/107 106/106 108/108
usemtl Surface_0
f 112/112 110/110 109/109
usemtl Surface_0
f 111/111 110/110 112/112
usemtl Surface_0
f 116/116 114/114 113/113
usemtl Surface_0
f 115/115 114/114 116/116
usemtl Surface_0
f 120/120 118/118 117/117
usemtl Surface_0
f 119/119 118/118 120/120
usemtl Surface_0
f 124/124 122/122 121/121
usemtl Surface_0
f 123/123 122/122 124/124
usemtl Surface_0
f 128/128 126/126 125/125
usemtl Surface_0
f 127/127 126/126 128/128
usemtl Surface_0
f 132/132 130/130 129/129
usemtl Surface_0
f 131/131 130/130 132/132
usemtl Surface_0
f 136/136 134/134 133/133
usemtl Surface_0
f 135/135 134/134 136/136
usemtl Surface_0
f 140/140 138/138 137/137
usemtl Surface_0
f 139/139 138/138 140/140
usemtl Surface_0
f 144/144 142/142 141/141
usemtl Surface_0
f 143/143 142/142 144/144
usemtl Surface_0
f 148/148 146/146 145/145
usemtl Surface_0
f 147/147 146/146 148/148
usemtl Surface_0
f 152/152 150/150 149/149
usemtl Surface_0
f 151/151 150/150 152/152
usemtl Surface_0
f 156/156 154/154 153/153
usemtl Surface_0
f 155/155 154/154 156/156
usemtl Surface_0
f 160/160 158/158 157/157
usemtl Surface_0
f 159/159 158/158 160/160
usemtl Surface_0
f 164/164 162/162 161/161
usemtl Surface_0
f 163/163 162/162 164/164
usemtl Surface_0
f 168/168 166/166 165/165
usemtl Surface_0
f 167/167 166/166 168/168
usemtl Surface_0
f 169/169 171/171 170/170
usemtl Surface_0
f 172/172 174/174 173/173
usemtl Surface_0
f 175/175 177/177 176/176
usemtl Surface_0
f 178/178 180/180 179/179
usemtl Surface_0
f 181/181 183/183 182/182
usemtl Surface_0
f 184/184 186/186 185/185
usemtl Surface_0
f 187/187 189/189 188/188
usemtl Surface_0
f 190/190 192/192 191/191
usemtl Surface_0
f 200/200 194/194 193/193
usemtl Surface_0
f 199/199 194/194 200/200
usemtl Surface_0
f 198/198 194/194 199/199
usemtl Surface_0
f 197/197 194/194 198/198
usemtl Surface_0
f 196/196 194/194 197/197
usemtl Surface_0
f 195/195 194/194 196/196
usemtl Surface_0
f 208/208 202/202 201/201
usemtl Surface_0
f 207/207 202/202 208/208
usemtl Surface_0
f 206/206 202/202 207/207
usemtl Surface_0
f 205/205 202/202 206/206
usemtl Surface_0
f 204/204 202/202 205/205
usemtl Surface_0
f 203/203 202/202 204/204
usemtl Surface_0
f 212/212 210/210 209/209
usemtl Surface_0
f 211/211 210/210 212/212
usemtl Surface_1
f 216/216 214/214 213/213
usemtl Surface_1
f 215/215 214/214 216/216
usemtl Surface_0
f 220/220 218/218 217/217
usemtl Surface_0
f 219/219 218/218 220/220
usemtl Surface_1
f 224/224 222/222 221/221
usemtl Surface_1
f 223/223 222/222 224/224
usemtl Surface_0
f 228/228 226/226 225/225
usemtl Surface_0
f 227/227 226/226 228/228
usemtl Surface_1
f 232/232 230/230 229/229
usemtl Surface_1
f 231/231 230/230 232/232
usemtl Surface_0
f 236/236 234/234 233/233
usemtl Surface_0
f 235/235 234/234 236/236
usemtl Surface_1
f 240/240 238/238 237/237
usemtl Surface_1
f 239/239 238/238 240/240
usemtl Surface_0
f 244/244 242/242 241/241
usemtl Surface_0
f 243/243 242/242 244/244
usemtl Surface_1
f 248/248 246/246 245/245
usemtl Surface_1
f 247/247 246/246 248/248
usemtl Surface_0
f 252/252 250/250 249/249
usemtl Surface_0
f 251/251 250/250 252/252
usemtl Surface_1
f 256/256 254/254 253/253
usemtl Surface_1
f 255/255 254/254 256/256
usemtl Surface_0
f 260/260 258/258 257/257
usemtl Surface_0
f 259/259 258/258 260/260
usemtl Surface_1
f 264/264 262/262 261/261
usemtl Surface_1
f 263/263 262/262 264/264
usemtl Surface_0
f 268/268 266/266 265/265
usemtl Surface_0
f 267/267 266/266 268/268
usemtl Surface_1
f 272/272 270/270 269/269
usemtl Surface_1
f 271/271 270/270 272/272
usemtl Surface_0
f 276/276 274/274 273/273
usemtl Surface_0
f 275/275 274/274 276/276
usemtl Surface_0
f 280/280 278/278 277/277
usemtl Surface_0
f 279/279 278/278 280/280
usemtl Surface_0
f 284/284 282/282 281/281
usemtl Surface_0
f 283/283 282/282 284/284
usemtl Surface_0
f 288/288 286/286 285/285
usemtl Surface_0
f 287/287 286/286 288/288
usemtl Surface_0
f 292/292 290/290 289/289
usemtl Surface_0
f 291/291 290/290 292/292
usemtl Surface_0
f 296/296 294/294 293/293
usemtl Surface_0
f 295/295 294/294 296/296
usemtl Surface_0
f 300/300 298/298 297/297
usemtl Surface_0
f 299/299 298/298 300/300
usemtl Surface_0
f 304/304 302/302 301/301
usemtl Surface_0
f 303/303 302/302 304/304
usemtl Surface_0
f 308/308 306/306 305/305
usemtl Surface_0
f 307/307 306/306 308/308
usemtl Surface_0
f 312/312 310/310 309/309
usemtl Surface_0
f 311/311 310/310 312/312
usemtl Surface_0
f 316/316 314/314 313/313
usemtl Surface_0
f 315/315 314/314 316/316
usemtl Surface_0
f 320/320 318/318 317/317
usemtl Surface_0
f 319/319 318/318 320/320
usemtl Surface_0
f 324/324 322/322 321/321
usemtl Surface_0
f 323/323 322/322 324/324
usemtl Surface_0
f 328/328 326/326 325/325
usemtl Surface_0
f 327/327 326/326 328/328
usemtl Surface_0
f 332/332 330/330 329/329
usemtl Surface_0
f 331/331 330/330 332/332
usemtl Surface_0
f 336/336 334/334 333/333
usemtl Surface_0
f 335/335 334/334 336/336
usemtl Surface_0
f 340/340 338/338 337/337
usemtl Surface_0
f 339/339 338/338 340/340
usemtl Surface_0
f 344/344 342/342 341/341
usemtl Surface_0
f 343/343 342/342 344/344
usemtl Surface_0
f 345/345 347/347 346/346
usemtl Surface_0
f 348/348 350/350 349/349
usemtl Surface_0
f 351/351 353/353 352/352
usemtl Surface_0
f 354/354 356/356 355/355
usemtl Surface_0
f 357/357 359/359 358/358
usemtl Surface_0
f 360/360 362/362 361/361
usemtl Surface_0
f 363/363 365/365 364/364
usemtl Surface_0
f 366/366 368/368 367/367
usemtl Surface_4
f 372/372 370/370 369/369
usemtl Surface_4
f 371/371 370/370 372/372
usemtl Surface_4
f 376/376 374/374 373/373
usemtl Surface_4
f 375/375 374/374 376/376
usemtl Surface_4
f 380/380 378/378 377/377
usemtl Surface_4
f 379/379 378/378 380/380
usemtl Surface_4
f 384/384 382/382 381/381
usemtl Surface_4
f 383/383 382/382 384/384
usemtl Surface_4
f 388/388 386/386 385/385
usemtl Surface_4
f 387/387 386/386 388/388
usemtl Surface_4
f 392/392 390/390 389/389
usemtl Surface_4
f 391/391 390/390 392/392
usemtl Surface_4
f 396/396 394/394 393/393
usemtl Surface_4
f 395/395 394/394 396/396
usemtl Surface_4
f 400/400 398/398 397/397
usemtl Surface_4
f 399/399 398/398 400/400
usemtl Surface_4
f 404/404 402/402 401/401
usemtl Surface_4
f 403/403 402/402 404/404
usemtl Surface_4
f 408/408 406/406 405/405
usemtl Surface_4
f 407/407 406/406 408/408
usemtl Surface_4
f 412/412 410/410 409/409
usemtl Surface_4
f 411/411 410/410 412/412
usemtl Surface_4
f 416/416 414/414 413/413
usemtl Surface_4
f 415/415 414/414 416/416
usemtl Surface_4
f 420/420 418/418 417/417
usemtl Surface_4
f 419/419 418/418 420/420
usemtl Surface_4
f 424/424 422/422 421/421
usemtl Surface_4
f 423/423 422/422 424/424
usemtl Surface_4
f 428/428 426/426 425/425
usemtl Surface_4
f 427/427 426/426 428/428
usemtl Surface_4
f 432/432 430/430 429/429
usemtl Surface_4
f 431/431 430/430 432/432
usemtl Surface_4
f 436/436 434/434 433/433
usemtl Surface_4
f 435/435 434/434 436/436
usemtl Surface_4
f 440/440 438/438 437/437
usemtl Surface_4
f 439/439 438/438 440/440
usemtl Surface_4
f 441/441 443/443 442/442
usemtl Surface_4
f 444/444 446/446 445/445
usemtl Surface_4
f 447/447 449/449 448/448
usemtl Surface_4
f 450/450 452/452 451/451
usemtl Surface_4
f 453/453 455/455 454/454
usemtl Surface_4
f 456/456 458/458 457/457
usemtl Surface_4
f 459/459 461/461 460/460
usemtl Surface_4
f 462/462 464/464 463/463
usemtl Surface_4
f 468/468 466/466 465/465
usemtl Surface_4
f 467/467 466/466 468/468
usemtl Surface_4
f 472/472 470/470 469/469
usemtl Surface_4
f 471/471 470/470 472/472
usemtl Surface_4
f 476/476 474/474 473/473
usemtl Surface_4
f 475/475 474/474 476/476
usemtl Surface_4
f 480/480 478/478 477/477
usemtl Surface_4
f 479/479 478/478 480/480
usemtl Surface_4
f 484/484 482/482 481/481
usemtl Surface_4
f 483/483 482/482 484/484
usemtl Surface_4
f 488/488 486/486 485/485
usemtl Surface_4
f 487/487 486/486 488/488
usemtl Surface_4
f 492/492 490/490 489/489
usemtl Surface_4
f 491/491 490/490 492/492
usemtl Surface_4
f 496/496 494/494 493/493
usemtl Surface_4
f 495/495 494/494 496/496
usemtl Surface_4
f 500/500 498/498 497/497
usemtl Surface_4
f 499/499 498/498 500/500
usemtl Surface_4
f 504/504 502/502 501/501
usemtl Surface_4
f 503/503 502/502 504/504
usemtl Surface_4
f 508/508 506/506 505/505
usemtl Surface_4
f 507/507 506/506 508/508
usemtl Surface_4
f 512/512 510/510 509/509
usemtl Surface_4
f 511/511 510/510 512/512
usemtl Surface_4
f 516/516 514/514 513/513
usemtl Surface_4
f 515/515 514/514 516/516
usemtl Surface_4
f 520/520 518/518 517/517
usemtl Surface_4
f 519/519 518/518 520/520
usemtl Surface_4
f 524/524 522/522 521/521
usemtl Surface_4
f 523/523 522/522 524/524
usemtl Surface_4
f 528/528 526/526 525/525
usemtl Surface_4
f 527/527 526/526 528/528
usemtl Surface_4
f 532/532 530/530 529/529
usemtl Surface_4
f 531/531 530/530 532/532
usemtl Surface_4
f 536/536 534/534 533/533
usemtl Surface_4
f 535/535 534/534 536/536
usemtl Surface_4
f 537/537 539/539 538/538
usemtl Surface_4
f 540/540 542/542 541/541
usemtl Surface_4
f 543/543 545/545 544/544
usemtl Surface_4
f 546/546 548/548 547/547
usemtl Surface_4
f 549/549 551/551 550/550
usemtl Surface_4
f 552/552 554/554 553/553
usemtl Surface_4
f 555/555 557/557 556/556
usemtl Surface_4
f 558/558 560/560 559/559
usemtl Surface_4
f 564/564 562/562 561/561
usemtl Surface_4
f 563/563 562/562 564/564
usemtl Surface_4
f 568/568 566/566 565/565
usemtl Surface_4
f 567/567 566/566 568/568
usemtl Surface_4
f 572/572 570/570 569/569
usemtl Surface_4
f 571/571 570/570 572/572
usemtl Surface_4
f 576/576 574/574 573/573
usemtl Surface_4
f 575/575 574/574 576/576
usemtl Surface_4
f 580/580 578/578 577/577
usemtl Surface_4
f 579/579 578/578 580/580
usemtl Surface_4
f 584/584 582/582 581/581
usemtl Surface_4
f 583/583 582/582 584/584
usemtl Surface_4
f 588/588 586/586 585/585
usemtl Surface_4
f 587/587 586/586 588/588
usemtl Surface_4
f 592/592 590/590 589/589
usemtl Surface_4
f 591/591 590/590 592/592
usemtl Surface_4
f 596/596 594/594 593/593
usemtl Surface_4
f 595/595 594/594 596/596
usemtl Surface_4
f 600/600 598/598 597/597
usemtl Surface_4
f 599/599 598/598 600/600
usemtl Surface_4
f 604/604 602/602 601/601
usemtl Surface_4
f 603/603 602/602 604/604
usemtl Surface_4
f 608/608 606/606 605/605
usemtl Surface_4
f 607/607 606/606 608/608
usemtl Surface_4
f 612/612 610/610 609/609
usemtl Surface_4
f 611/611 610/610 612/612
usemtl Surface_4
f 616/616 614/614 613/613
usemtl Surface_4
f 615/615 614/614 616/616
usemtl Surface_4
f 620/620 618/618 617/617
usemtl Surface_4
f 619/619 618/618 620/620
usemtl Surface_4
f 624/624 622/622 621/621
usemtl Surface_4
f 623/623 622/622 624/624
usemtl Surface_4
f 628/628 626/626 625/625
usemtl Surface_4
f 627/627 626/626 628/628
usemtl Surface_4
f 632/632 630/630 629/629
usemtl Surface_4
f 631/631 630/630 632/632
usemtl Surface_4
f 633/633 635/635 634/634
usemtl Surface_4
f 636/636 638/638 637/637
usemtl Surface_4
f 639/639 641/641 640/640
usemtl Surface_4
f 642/642 644/644 643/643
usemtl Surface_4
f 645/645 647/647 646/646
usemtl Surface_4
f 648/648 650/650 649/649
usemtl Surface_4
f 651/651 653/653 652/652
usemtl Surface_4
f 654/654 656/656 655/655
usemtl Surface_4
f 660/660 658/658 657/657
usemtl Surface_4
f 659/659 658/658 660/660
usemtl Surface_4
f 664/664 662/662 661/661
usemtl Surface_4
f 663/663 662/662 664/664
usemtl Surface_4
f 668/668 666/666 665/665
usemtl Surface_4
f 667/667 666/666 668/668
usemtl Surface_4
f 672/672 670/670 669/669
usemtl Surface_4
f 671/671 670/670 672/672
usemtl Surface_4
f 676/676 674/674 673/673
usemtl Surface_4
f 675/675 674/674 676/676
usemtl Surface_4
f 680/680 678/678 677/677
usemtl Surface_4
f 679/679 678/678 680/680
usemtl Surface_4
f 684/684 682/682 681/681
usemtl Surface_4
f 683/683 682/682 684/684
usemtl Surface_4
f 688/688 686/686 685/685
usemtl Surface_4
f 687/687 686/686 688/688
usemtl Surface_4
f 692/692 690/690 689/689
usemtl Surface_4
f 691/691 690/690 692/692
usemtl Surface_4
f 696/696 694/694 693/693
usemtl Surface_4
f 695/695 694/694 696/696
usemtl Surface_4
f 700/700 698/698 697/697
usemtl Surface_4
f 699/699 698/698 700/700
usemtl Surface_4
f 704/704 702/702 701/701
usemtl Surface_4
f 703/703 702/702 704/704
usemtl Surface_4
f 708/708 706/706 705/705
usemtl Surface_4
f 707/707 706/706 708/708
usemtl Surface_4
f 712/712 710/710 709/709
usemtl Surface_4
f 711/711 710/710 712/712
usemtl Surface_4
f 716/716 714/714 713/713
usemtl Surface_4
f 715/715 714/714 716/716
usemtl Surface_4
f 720/720 718/718 717/717
usemtl Surface_4
f 719/719 718/718 720/720
usemtl Surface_4
f 724/724 722/722 721/721
usemtl Surface_4
f 723/723 722/722 724/724
usemtl Surface_4
f 728/728 726/726 725/725
usemtl Surface_4
f 727/727 726/726 728/728
usemtl Surface_4
f 729/729 731/731 730/730
usemtl Surface_4
f 732/732 734/734 733/733
usemtl Surface_4
f 735/735 737/737 736/736
usemtl Surface_4
f 738/738 740/740 739/739
usemtl Surface_4
f 741/741 743/743 742/742
usemtl Surface_4
f 744/744 746/746 745/745
usemtl Surface_4
f 747/747 749/749 748/748
usemtl Surface_4
f 750/750 752/752 751/751
