# Null Route authored hard-surface mesh. Centimeters, Z up.
v -0.80884 3.35596 2.71952
v -0.96220 4.23616 -0.66452
v 5.99797 4.97140 -0.78871
v 6.15133 4.09120 2.59533
v 6.92807 -3.60596 0.55808
v 6.77471 -2.72576 -2.82596
v -0.18547 -3.46100 -2.70178
v -0.03211 -4.34120 0.68226
v -0.66794 2.14233 3.43173
v 6.29224 2.87757 3.30755
v 6.87479 -2.89530 1.77960
v -0.08538 -3.63054 1.90379
v -0.32637 -2.24737 -3.41399
v 6.63380 -1.51213 -3.53817
v 6.05125 4.26074 -2.01023
v -0.90893 3.52550 -1.88605
v -1.70606 2.28878 2.48260
v -1.12351 -3.48409 0.95466
v -1.27687 -2.60389 -2.42938
v -1.85942 3.16898 -0.90144
v 7.08937 4.11429 -1.06110
v 7.67193 -1.65858 -2.58905
v 7.82528 -2.53878 0.79499
v 7.24273 3.23409 2.32294
v -0.66794 2.14233 3.43173
v -0.08538 -3.63054 1.90379
v -1.12351 -3.48409 0.95466
v -1.70606 2.28878 2.48260
v 7.24273 3.23409 2.32294
v 7.82528 -2.53878 0.79499
v 6.87479 -2.89530 1.77960
v 6.29224 2.87757 3.30755
v -1.85942 3.16898 -0.90144
v -1.27687 -2.60389 -2.42938
v -0.32637 -2.24737 -3.41399
v -0.90893 3.52550 -1.88605
v 6.05125 4.26074 -2.01023
v 6.63380 -1.51213 -3.53817
v 7.67193 -1.65858 -2.58905
v 7.08937 4.11429 -1.06110
v -1.70606 2.28878 2.48260
v -1.85942 3.16898 -0.90144
v -0.96220 4.23616 -0.66452
v -0.80884 3.35596 2.71952
v -0.03211 -4.34120 0.68226
v -0.18547 -3.46100 -2.70178
v -1.27687 -2.60389 -2.42938
v -1.12351 -3.48409 0.95466
v 6.15133 4.09120 2.59533
v 5.99797 4.97140 -0.78871
v 7.08937 4.11429 -1.06110
v 7.24273 3.23409 2.32294
v 7.82528 -2.53878 0.79499
v 7.67193 -1.65858 -2.58905
v 6.77471 -2.72576 -2.82596
v 6.92807 -3.60596 0.55808
v -0.80884 3.35596 2.71952
v 6.15133 4.09120 2.59533
v 6.29224 2.87757 3.30755
v -0.66794 2.14233 3.43173
v -0.90893 3.52550 -1.88605
v 6.05125 4.26074 -2.01023
v 5.99797 4.97140 -0.78871
v -0.96220 4.23616 -0.66452
v -0.08538 -3.63054 1.90379
v 6.87479 -2.89530 1.77960
v 6.92807 -3.60596 0.55808
v -0.03211 -4.34120 0.68226
v -0.18547 -3.46100 -2.70178
v 6.77471 -2.72576 -2.82596
v 6.63380 -1.51213 -3.53817
v -0.32637 -2.24737 -3.41399
v -0.80884 3.35596 2.71952
v -0.66794 2.14233 3.43173
v -1.70606 2.28878 2.48260
v 7.24273 3.23409 2.32294
v 6.29224 2.87757 3.30755
v 6.15133 4.09120 2.59533
v -1.85942 3.16898 -0.90144
v -0.90893 3.52550 -1.88605
v -0.96220 4.23616 -0.66452
v 5.99797 4.97140 -0.78871
v 6.05125 4.26074 -2.01023
v 7.08937 4.11429 -1.06110
v -1.12351 -3.48409 0.95466
v -0.08538 -3.63054 1.90379
v -0.03211 -4.34120 0.68226
v 6.92807 -3.60596 0.55808
v 6.87479 -2.89530 1.77960
v 7.82528 -2.53878 0.79499
v -0.18547 -3.46100 -2.70178
v -0.32637 -2.24737 -3.41399
v -1.27687 -2.60389 -2.42938
v 7.67193 -1.65858 -2.58905
v 6.63380 -1.51213 -3.53817
v 6.77471 -2.72576 -2.82596
v 0.29299 4.25371 -1.23397
v 4.66796 4.71586 -1.31203
v 6.64313 3.46590 -1.72666
v 7.08004 -0.86375 -2.87262
v 5.39615 -2.50023 -3.22196
v 1.02118 -2.96238 -3.14390
v -0.83803 -2.06482 -2.82619
v -1.34776 2.98644 -1.48924
v -0.95672 3.18236 -3.21425
v -0.50306 -1.31326 -4.40414
v 1.15164 -2.11208 -4.68690
v 5.04536 -1.70077 -4.75638
v 6.54403 -0.24431 -4.44546
v 6.15517 3.60908 -3.42556
v 4.39727 4.72154 -3.05654
v 0.50355 4.31023 -2.98707
v -1.34776 2.98644 -1.48924
v -0.83803 -2.06482 -2.82619
v -0.89718 -1.72532 -4.13146
v -1.40692 3.32595 -2.79451
v -1.40692 3.32595 -2.79451
v -0.89718 -1.72532 -4.13146
v -0.50306 -1.31326 -4.40414
v -0.95672 3.18236 -3.21425
v -0.83803 -2.06482 -2.82619
v 1.02118 -2.96238 -3.14390
v 0.96203 -2.62287 -4.44917
v -0.89718 -1.72532 -4.13146
v -0.89718 -1.72532 -4.13146
v 0.96203 -2.62287 -4.44917
v 1.15164 -2.11208 -4.68690
v -0.50306 -1.31326 -4.40414
v 1.02118 -2.96238 -3.14390
v 5.39615 -2.50023 -3.22196
v 5.33700 -2.16072 -4.52723
v 0.96203 -2.62287 -4.44917
v 0.96203 -2.62287 -4.44917
v 5.33700 -2.16072 -4.52723
v 5.04536 -1.70077 -4.75638
v 1.15164 -2.11208 -4.68690
v 5.39615 -2.50023 -3.22196
v 7.08004 -0.86375 -2.87262
v 7.02089 -0.52424 -4.17789
v 5.33700 -2.16072 -4.52723
v 5.33700 -2.16072 -4.52723
v 7.02089 -0.52424 -4.17789
v 6.54403 -0.24431 -4.44546
v 5.04536 -1.70077 -4.75638
v 7.08004 -0.86375 -2.87262
v 6.64313 3.46590 -1.72666
v 6.58398 3.80541 -3.03193
v 7.02089 -0.52424 -4.17789
v 7.02089 -0.52424 -4.17789
v 6.58398 3.80541 -3.03193
v 6.15517 3.60908 -3.42556
v 6.54403 -0.24431 -4.44546
v 6.64313 3.46590 -1.72666
v 4.66796 4.71586 -1.31203
v 4.60881 5.05537 -2.61731
v 6.58398 3.80541 -3.03193
v 6.58398 3.80541 -3.03193
v 4.60881 5.05537 -2.61731
v 4.39727 4.72154 -3.05654
v 6.15517 3.60908 -3.42556
v 4.66796 4.71586 -1.31203
v 0.29299 4.25371 -1.23397
v 0.23384 4.59322 -2.53925
v 4.60881 5.05537 -2.61731
v 4.60881 5.05537 -2.61731
v 0.23384 4.59322 -2.53925
v 0.50355 4.31023 -2.98707
v 4.39727 4.72154 -3.05654
v 0.29299 4.25371 -1.23397
v -1.34776 2.98644 -1.48924
v -1.40692 3.32595 -2.79451
v 0.23384 4.59322 -2.53925
v 0.23384 4.59322 -2.53925
v -1.40692 3.32595 -2.79451
v -0.95672 3.18236 -3.21425
v 0.50355 4.31023 -2.98707
v 6.45057 4.07679 2.37117
v 6.31474 4.85640 -0.62612
v 10.68970 5.31854 -0.70418
v 10.82553 4.53894 2.29311
v 11.00030 2.80708 1.83473
v 10.86447 3.58668 -1.16256
v 6.48950 3.12454 -1.08450
v 6.62533 2.34493 1.91279
v 6.54920 3.22725 2.86972
v 10.92417 3.68940 2.79166
v 10.96301 3.30454 2.68980
v 6.58804 2.84239 2.76786
v 6.39087 3.97408 -1.58305
v 10.76583 4.43622 -1.66111
v 10.72699 4.82108 -1.55925
v 6.35203 4.35894 -1.48119
v 5.82251 3.32977 2.20533
v 5.86135 2.94491 2.10347
v 5.72552 3.72451 -0.89382
v 5.68668 4.10937 -0.79196
v 11.45368 4.71857 -0.89486
v 11.49252 4.33371 -0.99672
v 11.62835 3.55410 2.00057
v 11.58951 3.93896 2.10244
v 6.54920 3.22725 2.86972
v 6.58804 2.84239 2.76786
v 5.86135 2.94491 2.10347
v 5.82251 3.32977 2.20533
v 11.58951 3.93896 2.10244
v 11.62835 3.55410 2.00057
v 10.96301 3.30454 2.68980
v 10.92417 3.68940 2.79166
v 5.68668 4.10937 -0.79196
v 5.72552 3.72451 -0.89382
v 6.39087 3.97408 -1.58305
v 6.35203 4.35894 -1.48119
v 10.72699 4.82108 -1.55925
v 10.76583 4.43622 -1.66111
v 11.49252 4.33371 -0.99672
v 11.45368 4.71857 -0.89486
v 5.82251 3.32977 2.20533
v 5.68668 4.10937 -0.79196
v 6.31474 4.85640 -0.62612
v 6.45057 4.07679 2.37117
v 6.62533 2.34493 1.91279
v 6.48950 3.12454 -1.08450
v 5.72552 3.72451 -0.89382
v 5.86135 2.94491 2.10347
v 10.82553 4.53894 2.29311
v 10.68970 5.31854 -0.70418
v 11.45368 4.71857 -0.89486
v 11.58951 3.93896 2.10244
v 11.62835 3.55410 2.00057
v 11.49252 4.33371 -0.99672
v 10.86447 3.58668 -1.16256
v 11.00030 2.80708 1.83473
v 6.45057 4.07679 2.37117
v 10.82553 4.53894 2.29311
v 10.92417 3.68940 2.79166
v 6.54920 3.22725 2.86972
v 6.35203 4.35894 -1.48119
v 10.72699 4.82108 -1.55925
v 10.68970 5.31854 -0.70418
v 6.31474 4.85640 -0.62612
v 6.58804 2.84239 2.76786
v 10.96301 3.30454 2.68980
v 11.00030 2.80708 1.83473
v 6.62533 2.34493 1.91279
v 6.48950 3.12454 -1.08450
v 10.86447 3.58668 -1.16256
v 10.76583 4.43622 -1.66111
v 6.39087 3.97408 -1.58305
v 6.45057 4.07679 2.37117
v 6.54920 3.22725 2.86972
v 5.82251 3.32977 2.20533
v 11.58951 3.93896 2.10244
v 10.92417 3.68940 2.79166
v 10.82553 4.53894 2.29311
v 5.68668 4.10937 -0.79196
v 6.35203 4.35894 -1.48119
v 6.31474 4.85640 -0.62612
v 10.68970 5.31854 -0.70418
v 10.72699 4.82108 -1.55925
v 11.45368 4.71857 -0.89486
v 5.86135 2.94491 2.10347
v 6.58804 2.84239 2.76786
v 6.62533 2.34493 1.91279
v 11.00030 2.80708 1.83473
v 10.96301 3.30454 2.68980
v 11.62835 3.55410 2.00057
v 6.48950 3.12454 -1.08450
v 6.39087 3.97408 -1.58305
v 5.72552 3.72451 -0.89382
v 11.49252 4.33371 -0.99672
v 10.76583 4.43622 -1.66111
v 10.86447 3.58668 -1.16256
v 6.28673 4.99690 -1.36400
v 6.27796 5.04720 -1.55738
v 7.67000 5.19425 -1.58222
v 7.67876 5.14395 -1.38884
v 7.84382 3.50830 -1.82176
v 7.83506 3.55860 -2.01513
v 6.44302 3.41155 -1.99030
v 6.45178 3.36126 -1.79692
v 6.32900 4.63281 -1.15034
v 7.72104 4.77986 -1.17518
v 7.82784 3.72150 -1.45530
v 6.43580 3.57446 -1.43046
v 6.40075 3.77564 -2.20396
v 7.79278 3.92269 -2.22880
v 7.68598 4.98105 -1.94867
v 6.29395 4.83400 -1.92384
v 6.01756 4.67675 -1.43508
v 6.12436 3.61839 -1.71520
v 6.11560 3.66869 -1.90858
v 6.00880 4.72705 -1.62845
v 7.99742 4.93711 -1.66393
v 8.10422 3.87876 -1.94406
v 8.11298 3.82846 -1.75068
v 8.00618 4.88682 -1.47056
v 6.32900 4.63281 -1.15034
v 6.43580 3.57446 -1.43046
v 6.12436 3.61839 -1.71520
v 6.01756 4.67675 -1.43508
v 8.00618 4.88682 -1.47056
v 8.11298 3.82846 -1.75068
v 7.82784 3.72150 -1.45530
v 7.72104 4.77986 -1.17518
v 6.00880 4.72705 -1.62845
v 6.11560 3.66869 -1.90858
v 6.40075 3.77564 -2.20396
v 6.29395 4.83400 -1.92384
v 7.68598 4.98105 -1.94867
v 7.79278 3.92269 -2.22880
v 8.10422 3.87876 -1.94406
v 7.99742 4.93711 -1.66393
v 6.01756 4.67675 -1.43508
v 6.00880 4.72705 -1.62845
v 6.27796 5.04720 -1.55738
v 6.28673 4.99690 -1.36400
v 6.45178 3.36126 -1.79692
v 6.44302 3.41155 -1.99030
v 6.11560 3.66869 -1.90858
v 6.12436 3.61839 -1.71520
v 7.67876 5.14395 -1.38884
v 7.67000 5.19425 -1.58222
v 7.99742 4.93711 -1.66393
v 8.00618 4.88682 -1.47056
v 8.11298 3.82846 -1.75068
v 8.10422 3.87876 -1.94406
v 7.83506 3.55860 -2.01513
v 7.84382 3.50830 -1.82176
v 6.28673 4.99690 -1.36400
v 7.67876 5.14395 -1.38884
v 7.72104 4.77986 -1.17518
v 6.32900 4.63281 -1.15034
v 6.29395 4.83400 -1.92384
v 7.68598 4.98105 -1.94867
v 7.67000 5.19425 -1.58222
v 6.27796 5.04720 -1.55738
v 6.43580 3.57446 -1.43046
v 7.82784 3.72150 -1.45530
v 7.84382 3.50830 -1.82176
v 6.45178 3.36126 -1.79692
v 6.44302 3.41155 -1.99030
v 7.83506 3.55860 -2.01513
v 7.79278 3.92269 -2.22880
v 6.40075 3.77564 -2.20396
v 6.28673 4.99690 -1.36400
v 6.32900 4.63281 -1.15034
v 6.01756 4.67675 -1.43508
v 8.00618 4.88682 -1.47056
v 7.72104 4.77986 -1.17518
v 7.67876 5.14395 -1.38884
v 6.00880 4.72705 -1.62845
v 6.29395 4.83400 -1.92384
v 6.27796 5.04720 -1.55738
v 7.67000 5.19425 -1.58222
v 7.68598 4.98105 -1.94867
v 7.99742 4.93711 -1.66393
v 6.12436 3.61839 -1.71520
v 6.43580 3.57446 -1.43046
v 6.45178 3.36126 -1.79692
v 7.84382 3.50830 -1.82176
v 7.82784 3.72150 -1.45530
v 8.11298 3.82846 -1.75068
v 6.44302 3.41155 -1.99030
v 6.40075 3.77564 -2.20396
v 6.11560 3.66869 -1.90858
v 8.10422 3.87876 -1.94406
v 7.79278 3.92269 -2.22880
v 7.83506 3.55860 -2.01513
v 6.64475 2.15250 1.86186
v 6.50892 2.93211 -1.13543
v 10.88389 3.39425 -1.21349
v 11.01972 2.61465 1.78380
v 11.19448 0.88279 1.32542
v 11.05865 1.66239 -1.67188
v 6.68369 1.20025 -1.59382
v 6.81952 0.42064 1.40348
v 6.74339 1.30296 2.36041
v 11.11835 1.76511 2.28235
v 11.15719 1.38025 2.18049
v 6.78222 0.91810 2.25854
v 6.58505 2.04979 -2.09237
v 10.96002 2.51194 -2.17042
v 10.92118 2.89679 -2.06856
v 6.54621 2.43465 -1.99050
v 6.01670 1.40548 1.69602
v 6.05554 1.02062 1.59415
v 5.91970 1.80022 -1.40314
v 5.88087 2.18508 -1.30128
v 11.64787 2.79428 -1.40417
v 11.68670 2.40942 -1.50603
v 11.82254 1.62981 1.49126
v 11.78370 2.01467 1.59312
v 6.74339 1.30296 2.36041
v 6.78222 0.91810 2.25854
v 6.05554 1.02062 1.59415
v 6.01670 1.40548 1.69602
v 11.78370 2.01467 1.59312
v 11.82254 1.62981 1.49126
v 11.15719 1.38025 2.18049
v 11.11835 1.76511 2.28235
v 5.88087 2.18508 -1.30128
v 5.91970 1.80022 -1.40314
v 6.58505 2.04979 -2.09237
v 6.54621 2.43465 -1.99050
v 10.92118 2.89679 -2.06856
v 10.96002 2.51194 -2.17042
v 11.68670 2.40942 -1.50603
v 11.64787 2.79428 -1.40417
v 6.01670 1.40548 1.69602
v 5.88087 2.18508 -1.30128
v 6.50892 2.93211 -1.13543
v 6.64475 2.15250 1.86186
v 6.81952 0.42064 1.40348
v 6.68369 1.20025 -1.59382
v 5.91970 1.80022 -1.40314
v 6.05554 1.02062 1.59415
v 11.01972 2.61465 1.78380
v 10.88389 3.39425 -1.21349
v 11.64787 2.79428 -1.40417
v 11.78370 2.01467 1.59312
v 11.82254 1.62981 1.49126
v 11.68670 2.40942 -1.50603
v 11.05865 1.66239 -1.67188
v 11.19448 0.88279 1.32542
v 6.64475 2.15250 1.86186
v 11.01972 2.61465 1.78380
v 11.11835 1.76511 2.28235
v 6.74339 1.30296 2.36041
v 6.54621 2.43465 -1.99050
v 10.92118 2.89679 -2.06856
v 10.88389 3.39425 -1.21349
v 6.50892 2.93211 -1.13543
v 6.78222 0.91810 2.25854
v 11.15719 1.38025 2.18049
v 11.19448 0.88279 1.32542
v 6.81952 0.42064 1.40348
v 6.68369 1.20025 -1.59382
v 11.05865 1.66239 -1.67188
v 10.96002 2.51194 -2.17042
v 6.58505 2.04979 -2.09237
v 6.64475 2.15250 1.86186
v 6.74339 1.30296 2.36041
v 6.01670 1.40548 1.69602
v 11.78370 2.01467 1.59312
v 11.11835 1.76511 2.28235
v 11.01972 2.61465 1.78380
v 5.88087 2.18508 -1.30128
v 6.54621 2.43465 -1.99050
v 6.50892 2.93211 -1.13543
v 10.88389 3.39425 -1.21349
v 10.92118 2.89679 -2.06856
v 11.64787 2.79428 -1.40417
v 6.05554 1.02062 1.59415
v 6.78222 0.91810 2.25854
v 6.81952 0.42064 1.40348
v 11.19448 0.88279 1.32542
v 11.15719 1.38025 2.18049
v 11.82254 1.62981 1.49126
v 6.68369 1.20025 -1.59382
v 6.58505 2.04979 -2.09237
v 5.91970 1.80022 -1.40314
v 11.68670 2.40942 -1.50603
v 10.96002 2.51194 -2.17042
v 11.05865 1.66239 -1.67188
v 6.48091 3.07261 -1.87332
v 6.47215 3.12291 -2.06669
v 7.86418 3.26996 -2.09153
v 7.87295 3.21966 -1.89816
v 8.03800 1.58401 -2.33107
v 8.02924 1.63431 -2.52445
v 6.63721 1.48726 -2.49961
v 6.64597 1.43697 -2.30624
v 6.52318 2.70852 -1.65966
v 7.91522 2.85557 -1.68449
v 8.02202 1.79721 -1.96461
v 6.62999 1.65017 -1.93978
v 6.59493 1.85135 -2.71327
v 7.98697 1.99840 -2.73811
v 7.88017 3.05676 -2.45799
v 6.48813 2.90971 -2.43315
v 6.21175 2.75246 -1.94439
v 6.31855 1.69410 -2.22452
v 6.30978 1.74440 -2.41789
v 6.20298 2.80276 -2.13777
v 8.19160 3.01282 -2.17325
v 8.29841 1.95447 -2.45337
v 8.30717 1.90417 -2.26000
v 8.20037 2.96253 -1.97987
v 6.52318 2.70852 -1.65966
v 6.62999 1.65017 -1.93978
v 6.31855 1.69410 -2.22452
v 6.21175 2.75246 -1.94439
v 8.20037 2.96253 -1.97987
v 8.30717 1.90417 -2.26000
v 8.02202 1.79721 -1.96461
v 7.91522 2.85557 -1.68449
v 6.20298 2.80276 -2.13777
v 6.30978 1.74440 -2.41789
v 6.59493 1.85135 -2.71327
v 6.48813 2.90971 -2.43315
v 7.88017 3.05676 -2.45799
v 7.98697 1.99840 -2.73811
v 8.29841 1.95447 -2.45337
v 8.19160 3.01282 -2.17325
v 6.21175 2.75246 -1.94439
v 6.20298 2.80276 -2.13777
v 6.47215 3.12291 -2.06669
v 6.48091 3.07261 -1.87332
v 6.64597 1.43697 -2.30624
v 6.63721 1.48726 -2.49961
v 6.30978 1.74440 -2.41789
v 6.31855 1.69410 -2.22452
v 7.87295 3.21966 -1.89816
v 7.86418 3.26996 -2.09153
v 8.19160 3.01282 -2.17325
v 8.20037 2.96253 -1.97987
v 8.30717 1.90417 -2.26000
v 8.29841 1.95447 -2.45337
v 8.02924 1.63431 -2.52445
v 8.03800 1.58401 -2.33107
v 6.48091 3.07261 -1.87332
v 7.87295 3.21966 -1.89816
v 7.91522 2.85557 -1.68449
v 6.52318 2.70852 -1.65966
v 6.48813 2.90971 -2.43315
v 7.88017 3.05676 -2.45799
v 7.86418 3.26996 -2.09153
v 6.47215 3.12291 -2.06669
v 6.62999 1.65017 -1.93978
v 8.02202 1.79721 -1.96461
v 8.03800 1.58401 -2.33107
v 6.64597 1.43697 -2.30624
v 6.63721 1.48726 -2.49961
v 8.02924 1.63431 -2.52445
v 7.98697 1.99840 -2.73811
v 6.59493 1.85135 -2.71327
v 6.48091 3.07261 -1.87332
v 6.52318 2.70852 -1.65966
v 6.21175 2.75246 -1.94439
v 8.20037 2.96253 -1.97987
v 7.91522 2.85557 -1.68449
v 7.87295 3.21966 -1.89816
v 6.20298 2.80276 -2.13777
v 6.48813 2.90971 -2.43315
v 6.47215 3.12291 -2.06669
v 7.86418 3.26996 -2.09153
v 7.88017 3.05676 -2.45799
v 8.19160 3.01282 -2.17325
v 6.31855 1.69410 -2.22452
v 6.62999 1.65017 -1.93978
v 6.64597 1.43697 -2.30624
v 8.03800 1.58401 -2.33107
v 8.02202 1.79721 -1.96461
v 8.30717 1.90417 -2.26000
v 6.63721 1.48726 -2.49961
v 6.59493 1.85135 -2.71327
v 6.30978 1.74440 -2.41789
v 8.29841 1.95447 -2.45337
v 7.98697 1.99840 -2.73811
v 8.02924 1.63431 -2.52445
v 6.83894 0.22821 1.35254
v 6.70310 1.00782 -1.64475
v 11.07807 1.46996 -1.72281
v 11.21390 0.69036 1.27449
v 11.38867 -1.04150 0.81610
v 11.25284 -0.26190 -2.18119
v 6.87787 -0.72404 -2.10313
v 7.01370 -1.50365 0.89416
v 6.93757 -0.62133 1.85109
v 11.31254 -0.15918 1.77303
v 11.35137 -0.54404 1.67117
v 6.97641 -1.00619 1.74923
v 6.77923 0.12550 -2.60168
v 11.15420 0.58765 -2.67974
v 11.11536 0.97250 -2.57788
v 6.74040 0.51036 -2.49982
v 6.21088 -0.51881 1.18670
v 6.24972 -0.90367 1.08484
v 6.11389 -0.12407 -1.91245
v 6.07505 0.26079 -1.81059
v 11.84205 0.86999 -1.91349
v 11.88089 0.48513 -2.01535
v 12.01672 -0.29448 0.98194
v 11.97788 0.09038 1.08381
v 6.93757 -0.62133 1.85109
v 6.97641 -1.00619 1.74923
v 6.24972 -0.90367 1.08484
v 6.21088 -0.51881 1.18670
v 11.97788 0.09038 1.08381
v 12.01672 -0.29448 0.98194
v 11.35137 -0.54404 1.67117
v 11.31254 -0.15918 1.77303
v 6.07505 0.26079 -1.81059
v 6.11389 -0.12407 -1.91245
v 6.77923 0.12550 -2.60168
v 6.74040 0.51036 -2.49982
v 11.11536 0.97250 -2.57788
v 11.15420 0.58765 -2.67974
v 11.88089 0.48513 -2.01535
v 11.84205 0.86999 -1.91349
v 6.21088 -0.51881 1.18670
v 6.07505 0.26079 -1.81059
v 6.70310 1.00782 -1.64475
v 6.83894 0.22821 1.35254
v 7.01370 -1.50365 0.89416
v 6.87787 -0.72404 -2.10313
v 6.11389 -0.12407 -1.91245
v 6.24972 -0.90367 1.08484
v 11.21390 0.69036 1.27449
v 11.07807 1.46996 -1.72281
v 11.84205 0.86999 -1.91349
v 11.97788 0.09038 1.08381
v 12.01672 -0.29448 0.98194
v 11.88089 0.48513 -2.01535
v 11.25284 -0.26190 -2.18119
v 11.38867 -1.04150 0.81610
v 6.83894 0.22821 1.35254
v 11.21390 0.69036 1.27449
v 11.31254 -0.15918 1.77303
v 6.93757 -0.62133 1.85109
v 6.74040 0.51036 -2.49982
v 11.11536 0.97250 -2.57788
v 11.07807 1.46996 -1.72281
v 6.70310 1.00782 -1.64475
v 6.97641 -1.00619 1.74923
v 11.35137 -0.54404 1.67117
v 11.38867 -1.04150 0.81610
v 7.01370 -1.50365 0.89416
v 6.87787 -0.72404 -2.10313
v 11.25284 -0.26190 -2.18119
v 11.15420 0.58765 -2.67974
v 6.77923 0.12550 -2.60168
v 6.83894 0.22821 1.35254
v 6.93757 -0.62133 1.85109
v 6.21088 -0.51881 1.18670
v 11.97788 0.09038 1.08381
v 11.31254 -0.15918 1.77303
v 11.21390 0.69036 1.27449
v 6.07505 0.26079 -1.81059
v 6.74040 0.51036 -2.49982
v 6.70310 1.00782 -1.64475
v 11.07807 1.46996 -1.72281
v 11.11536 0.97250 -2.57788
v 11.84205 0.86999 -1.91349
v 6.24972 -0.90367 1.08484
v 6.97641 -1.00619 1.74923
v 7.01370 -1.50365 0.89416
v 11.38867 -1.04150 0.81610
v 11.35137 -0.54404 1.67117
v 12.01672 -0.29448 0.98194
v 6.87787 -0.72404 -2.10313
v 6.77923 0.12550 -2.60168
v 6.11389 -0.12407 -1.91245
v 11.88089 0.48513 -2.01535
v 11.15420 0.58765 -2.67974
v 11.25284 -0.26190 -2.18119
v 6.67510 1.14832 -2.38263
v 6.66633 1.19862 -2.57601
v 8.05837 1.34567 -2.60084
v 8.06713 1.29537 -2.40747
v 8.23219 -0.34028 -2.84039
v 8.22342 -0.28998 -3.03376
v 6.83139 -0.43703 -3.00892
v 6.84015 -0.48732 -2.81555
v 6.71737 0.78423 -2.16897
v 8.10940 0.93128 -2.19381
v 8.21620 -0.12708 -2.47393
v 6.82417 -0.27412 -2.44909
v 6.78912 -0.07294 -3.22259
v 8.18115 0.07411 -3.24742
v 8.07435 1.13247 -2.96730
v 6.68232 0.98542 -2.94246
v 6.40593 0.82817 -2.45371
v 6.51273 -0.23019 -2.73383
v 6.50397 -0.17989 -2.92720
v 6.39717 0.87847 -2.64708
v 8.38579 1.08853 -2.68256
v 8.49259 0.03018 -2.96269
v 8.50135 -0.02012 -2.76931
v 8.39455 1.03824 -2.48919
v 6.71737 0.78423 -2.16897
v 6.82417 -0.27412 -2.44909
v 6.51273 -0.23019 -2.73383
v 6.40593 0.82817 -2.45371
v 8.39455 1.03824 -2.48919
v 8.50135 -0.02012 -2.76931
v 8.21620 -0.12708 -2.47393
v 8.10940 0.93128 -2.19381
v 6.39717 0.87847 -2.64708
v 6.50397 -0.17989 -2.92720
v 6.78912 -0.07294 -3.22259
v 6.68232 0.98542 -2.94246
v 8.07435 1.13247 -2.96730
v 8.18115 0.07411 -3.24742
v 8.49259 0.03018 -2.96269
v 8.38579 1.08853 -2.68256
v 6.40593 0.82817 -2.45371
v 6.39717 0.87847 -2.64708
v 6.66633 1.19862 -2.57601
v 6.67510 1.14832 -2.38263
v 6.84015 -0.48732 -2.81555
v 6.83139 -0.43703 -3.00892
v 6.50397 -0.17989 -2.92720
v 6.51273 -0.23019 -2.73383
v 8.06713 1.29537 -2.40747
v 8.05837 1.34567 -2.60084
v 8.38579 1.08853 -2.68256
v 8.39455 1.03824 -2.48919
v 8.50135 -0.02012 -2.76931
v 8.49259 0.03018 -2.96269
v 8.22342 -0.28998 -3.03376
v 8.23219 -0.34028 -2.84039
v 6.67510 1.14832 -2.38263
v 8.06713 1.29537 -2.40747
v 8.10940 0.93128 -2.19381
v 6.71737 0.78423 -2.16897
v 6.68232 0.98542 -2.94246
v 8.07435 1.13247 -2.96730
v 8.05837 1.34567 -2.60084
v 6.66633 1.19862 -2.57601
v 6.82417 -0.27412 -2.44909
v 8.21620 -0.12708 -2.47393
v 8.23219 -0.34028 -2.84039
v 6.84015 -0.48732 -2.81555
v 6.83139 -0.43703 -3.00892
v 8.22342 -0.28998 -3.03376
v 8.18115 0.07411 -3.24742
v 6.78912 -0.07294 -3.22259
v 6.67510 1.14832 -2.38263
v 6.71737 0.78423 -2.16897
v 6.40593 0.82817 -2.45371
v 8.39455 1.03824 -2.48919
v 8.10940 0.93128 -2.19381
v 8.06713 1.29537 -2.40747
v 6.39717 0.87847 -2.64708
v 6.68232 0.98542 -2.94246
v 6.66633 1.19862 -2.57601
v 8.05837 1.34567 -2.60084
v 8.07435 1.13247 -2.96730
v 8.38579 1.08853 -2.68256
v 6.51273 -0.23019 -2.73383
v 6.82417 -0.27412 -2.44909
v 6.84015 -0.48732 -2.81555
v 8.23219 -0.34028 -2.84039
v 8.21620 -0.12708 -2.47393
v 8.50135 -0.02012 -2.76931
v 6.83139 -0.43703 -3.00892
v 6.78912 -0.07294 -3.22259
v 6.50397 -0.17989 -2.92720
v 8.49259 0.03018 -2.96269
v 8.18115 0.07411 -3.24742
v 8.22342 -0.28998 -3.03376
v 7.03312 -1.69608 0.84323
v 6.89729 -0.91647 -2.15406
v 11.27225 -0.45433 -2.23212
v 11.40809 -1.23393 0.76517
v 11.58285 -2.96579 0.30679
v 11.44702 -2.18619 -2.69050
v 7.07205 -2.64833 -2.61245
v 7.20789 -3.42794 0.38485
v 7.13176 -2.54562 1.34178
v 11.50672 -2.08347 1.26372
v 11.54556 -2.46833 1.16186
v 7.17059 -2.93048 1.23992
v 6.97342 -1.79879 -3.11099
v 11.34838 -1.33664 -3.18905
v 11.30955 -0.95179 -3.08719
v 6.93458 -1.41393 -3.00913
v 6.40507 -2.44310 0.67739
v 6.44390 -2.82796 0.57553
v 6.30807 -2.04836 -2.42177
v 6.26924 -1.66350 -2.31990
v 12.03624 -1.05430 -2.42280
v 12.07507 -1.43916 -2.52466
v 12.21091 -2.21877 0.47263
v 12.17207 -1.83391 0.57449
v 7.13176 -2.54562 1.34178
v 7.17059 -2.93048 1.23992
v 6.44390 -2.82796 0.57553
v 6.40507 -2.44310 0.67739
v 12.17207 -1.83391 0.57449
v 12.21091 -2.21877 0.47263
v 11.54556 -2.46833 1.16186
v 11.50672 -2.08347 1.26372
v 6.26924 -1.66350 -2.31990
v 6.30807 -2.04836 -2.42177
v 6.97342 -1.79879 -3.11099
v 6.93458 -1.41393 -3.00913
v 11.30955 -0.95179 -3.08719
v 11.34838 -1.33664 -3.18905
v 12.07507 -1.43916 -2.52466
v 12.03624 -1.05430 -2.42280
v 6.40507 -2.44310 0.67739
v 6.26924 -1.66350 -2.31990
v 6.89729 -0.91647 -2.15406
v 7.03312 -1.69608 0.84323
v 7.20789 -3.42794 0.38485
v 7.07205 -2.64833 -2.61245
v 6.30807 -2.04836 -2.42177
v 6.44390 -2.82796 0.57553
v 11.40809 -1.23393 0.76517
v 11.27225 -0.45433 -2.23212
v 12.03624 -1.05430 -2.42280
v 12.17207 -1.83391 0.57449
v 12.21091 -2.21877 0.47263
v 12.07507 -1.43916 -2.52466
v 11.44702 -2.18619 -2.69050
v 11.58285 -2.96579 0.30679
v 7.03312 -1.69608 0.84323
v 11.40809 -1.23393 0.76517
v 11.50672 -2.08347 1.26372
v 7.13176 -2.54562 1.34178
v 6.93458 -1.41393 -3.00913
v 11.30955 -0.95179 -3.08719
v 11.27225 -0.45433 -2.23212
v 6.89729 -0.91647 -2.15406
v 7.17059 -2.93048 1.23992
v 11.54556 -2.46833 1.16186
v 11.58285 -2.96579 0.30679
v 7.20789 -3.42794 0.38485
v 7.07205 -2.64833 -2.61245
v 11.44702 -2.18619 -2.69050
v 11.34838 -1.33664 -3.18905
v 6.97342 -1.79879 -3.11099
v 7.03312 -1.69608 0.84323
v 7.13176 -2.54562 1.34178
v 6.40507 -2.44310 0.67739
v 12.17207 -1.83391 0.57449
v 11.50672 -2.08347 1.26372
v 11.40809 -1.23393 0.76517
v 6.26924 -1.66350 -2.31990
v 6.93458 -1.41393 -3.00913
v 6.89729 -0.91647 -2.15406
v 11.27225 -0.45433 -2.23212
v 11.30955 -0.95179 -3.08719
v 12.03624 -1.05430 -2.42280
v 6.44390 -2.82796 0.57553
v 7.17059 -2.93048 1.23992
v 7.20789 -3.42794 0.38485
v 11.58285 -2.96579 0.30679
v 11.54556 -2.46833 1.16186
v 12.21091 -2.21877 0.47263
v 7.07205 -2.64833 -2.61245
v 6.97342 -1.79879 -3.11099
v 6.30807 -2.04836 -2.42177
v 12.07507 -1.43916 -2.52466
v 11.34838 -1.33664 -3.18905
v 11.44702 -2.18619 -2.69050
v 6.86928 -0.77597 -2.89195
v 6.86052 -0.72567 -3.08532
v 8.25255 -0.57862 -3.11016
v 8.26132 -0.62892 -2.91678
v 8.42637 -2.26457 -3.34970
v 8.41761 -2.21427 -3.54307
v 7.02557 -2.36132 -3.51824
v 7.03434 -2.41161 -3.32486
v 6.91155 -1.14006 -2.67828
v 8.30359 -0.99301 -2.70312
v 8.41039 -2.05137 -2.98324
v 7.01835 -2.19841 -2.95841
v 6.98330 -1.99723 -3.73190
v 8.37534 -1.85018 -3.75674
v 8.26853 -0.79182 -3.47662
v 6.87650 -0.93887 -3.45178
v 6.60012 -1.09612 -2.96302
v 6.70692 -2.15448 -3.24314
v 6.69815 -2.10418 -3.43652
v 6.59135 -1.04582 -3.15640
v 8.57997 -0.83576 -3.19188
v 8.68677 -1.89411 -3.47200
v 8.69554 -1.94441 -3.27863
v 8.58874 -0.88605 -2.99850
v 6.91155 -1.14006 -2.67828
v 7.01835 -2.19841 -2.95841
v 6.70692 -2.15448 -3.24314
v 6.60012 -1.09612 -2.96302
v 8.58874 -0.88605 -2.99850
v 8.69554 -1.94441 -3.27863
v 8.41039 -2.05137 -2.98324
v 8.30359 -0.99301 -2.70312
v 6.59135 -1.04582 -3.15640
v 6.69815 -2.10418 -3.43652
v 6.98330 -1.99723 -3.73190
v 6.87650 -0.93887 -3.45178
v 8.26853 -0.79182 -3.47662
v 8.37534 -1.85018 -3.75674
v 8.68677 -1.89411 -3.47200
v 8.57997 -0.83576 -3.19188
v 6.60012 -1.09612 -2.96302
v 6.59135 -1.04582 -3.15640
v 6.86052 -0.72567 -3.08532
v 6.86928 -0.77597 -2.89195
v 7.03434 -2.41161 -3.32486
v 7.02557 -2.36132 -3.51824
v 6.69815 -2.10418 -3.43652
v 6.70692 -2.15448 -3.24314
v 8.26132 -0.62892 -2.91678
v 8.25255 -0.57862 -3.11016
v 8.57997 -0.83576 -3.19188
v 8.58874 -0.88605 -2.99850
v 8.69554 -1.94441 -3.27863
v 8.68677 -1.89411 -3.47200
v 8.41761 -2.21427 -3.54307
v 8.42637 -2.26457 -3.34970
v 6.86928 -0.77597 -2.89195
v 8.26132 -0.62892 -2.91678
v 8.30359 -0.99301 -2.70312
v 6.91155 -1.14006 -2.67828
v 6.87650 -0.93887 -3.45178
v 8.26853 -0.79182 -3.47662
v 8.25255 -0.57862 -3.11016
v 6.86052 -0.72567 -3.08532
v 7.01835 -2.19841 -2.95841
v 8.41039 -2.05137 -2.98324
v 8.42637 -2.26457 -3.34970
v 7.03434 -2.41161 -3.32486
v 7.02557 -2.36132 -3.51824
v 8.41761 -2.21427 -3.54307
v 8.37534 -1.85018 -3.75674
v 6.98330 -1.99723 -3.73190
v 6.86928 -0.77597 -2.89195
v 6.91155 -1.14006 -2.67828
v 6.60012 -1.09612 -2.96302
v 8.58874 -0.88605 -2.99850
v 8.30359 -0.99301 -2.70312
v 8.26132 -0.62892 -2.91678
v 6.59135 -1.04582 -3.15640
v 6.87650 -0.93887 -3.45178
v 6.86052 -0.72567 -3.08532
v 8.25255 -0.57862 -3.11016
v 8.26853 -0.79182 -3.47662
v 8.57997 -0.83576 -3.19188
v 6.70692 -2.15448 -3.24314
v 7.01835 -2.19841 -2.95841
v 7.03434 -2.41161 -3.32486
v 8.42637 -2.26457 -3.34970
v 8.41039 -2.05137 -2.98324
v 8.69554 -1.94441 -3.27863
v 7.02557 -2.36132 -3.51824
v 6.98330 -1.99723 -3.73190
v 6.69815 -2.10418 -3.43652
v 8.68677 -1.89411 -3.47200
v 8.37534 -1.85018 -3.75674
v 8.41761 -2.21427 -3.54307
v 2.66626 -2.80490 1.20789
v 1.65443 -2.40113 -0.70343
v 5.80281 -1.45420 -2.69950
v 6.81464 -1.85797 -0.78818
v 7.15447 -5.22548 -1.67948
v 6.14263 -4.82170 -3.59080
v 1.99425 -5.76864 -1.59473
v 3.00609 -6.17241 0.31659
v 3.16758 -3.83602 1.76060
v 7.31596 -2.88908 -0.23546
v 7.48101 -4.52473 -0.66838
v 3.33264 -5.47166 1.32769
v 1.49294 -4.73752 -2.14745
v 5.64131 -3.79059 -4.14351
v 5.47626 -2.15494 -3.71059
v 1.32788 -3.10188 -1.71453
v 1.95928 -3.85216 1.36092
v 2.12433 -5.48781 0.92801
v 1.11250 -5.08403 -0.98332
v 0.94744 -3.44839 -0.55040
v 6.68456 -2.13880 -3.31091
v 6.84962 -3.77444 -3.74383
v 7.86145 -4.17822 -1.83251
v 7.69640 -2.54257 -1.39959
v 3.16758 -3.83602 1.76060
v 3.33264 -5.47166 1.32769
v 2.12433 -5.48781 0.92801
v 1.95928 -3.85216 1.36092
v 7.69640 -2.54257 -1.39959
v 7.86145 -4.17822 -1.83251
v 7.48101 -4.52473 -0.66838
v 7.31596 -2.88908 -0.23546
v 0.94744 -3.44839 -0.55040
v 1.11250 -5.08403 -0.98332
v 1.49294 -4.73752 -2.14745
v 1.32788 -3.10188 -1.71453
v 5.47626 -2.15494 -3.71059
v 5.64131 -3.79059 -4.14351
v 6.84962 -3.77444 -3.74383
v 6.68456 -2.13880 -3.31091
v 1.95928 -3.85216 1.36092
v 0.94744 -3.44839 -0.55040
v 1.65443 -2.40113 -0.70343
v 2.66626 -2.80490 1.20789
v 3.00609 -6.17241 0.31659
v 1.99425 -5.76864 -1.59473
v 1.11250 -5.08403 -0.98332
v 2.12433 -5.48781 0.92801
v 6.81464 -1.85797 -0.78818
v 5.80281 -1.45420 -2.69950
v 6.68456 -2.13880 -3.31091
v 7.69640 -2.54257 -1.39959
v 7.86145 -4.17822 -1.83251
v 6.84962 -3.77444 -3.74383
v 6.14263 -4.82170 -3.59080
v 7.15447 -5.22548 -1.67948
v 2.66626 -2.80490 1.20789
v 6.81464 -1.85797 -0.78818
v 7.31596 -2.88908 -0.23546
v 3.16758 -3.83602 1.76060
v 1.32788 -3.10188 -1.71453
v 5.47626 -2.15494 -3.71059
v 5.80281 -1.45420 -2.69950
v 1.65443 -2.40113 -0.70343
v 3.33264 -5.47166 1.32769
v 7.48101 -4.52473 -0.66838
v 7.15447 -5.22548 -1.67948
v 3.00609 -6.17241 0.31659
v 1.99425 -5.76864 -1.59473
v 6.14263 -4.82170 -3.59080
v 5.64131 -3.79059 -4.14351
v 1.49294 -4.73752 -2.14745
v 2.66626 -2.80490 1.20789
v 3.16758 -3.83602 1.76060
v 1.95928 -3.85216 1.36092
v 7.69640 -2.54257 -1.39959
v 7.31596 -2.88908 -0.23546
v 6.81464 -1.85797 -0.78818
v 0.94744 -3.44839 -0.55040
v 1.32788 -3.10188 -1.71453
v 1.65443 -2.40113 -0.70343
v 5.80281 -1.45420 -2.69950
v 5.47626 -2.15494 -3.71059
v 6.68456 -2.13880 -3.31091
v 2.12433 -5.48781 0.92801
v 3.33264 -5.47166 1.32769
v 3.00609 -6.17241 0.31659
v 7.15447 -5.22548 -1.67948
v 7.48101 -4.52473 -0.66838
v 7.86145 -4.17822 -1.83251
v 1.99425 -5.76864 -1.59473
v 1.49294 -4.73752 -2.14745
v 1.11250 -5.08403 -0.98332
v 6.84962 -3.77444 -3.74383
v 5.64131 -3.79059 -4.14351
v 6.14263 -4.82170 -3.59080
vt -0.004678 1.017589
vt -0.005320 0.982595
vt 0.064668 0.981310
vt 0.065310 1.016305
vt -0.065310 1.016305
vt -0.064668 0.981310
vt 0.005320 0.982595
vt 0.004678 1.017589
vt 0.008226 1.029280
vt -0.061360 1.036877
vt -0.067872 0.977231
vt 0.001715 0.969635
vt -0.001715 0.969635
vt 0.067872 0.977231
vt 0.061360 1.036877
vt -0.008226 1.029280
vt 0.024553 1.024564
vt -0.033468 1.009282
vt -0.024553 0.975436
vt 0.033468 0.990718
vt -0.033468 0.990718
vt 0.024553 0.975436
vt 0.033468 1.009282
vt -0.024553 1.024564
vt 0.022404 1.025518
vt -0.033693 1.004232
vt -0.028676 0.991010
vt 0.027422 1.012296
vt -0.042141 0.972121
vt 0.014208 0.951510
vt 0.019066 0.964792
vt -0.037283 0.985402
vt 0.028782 1.008645
vt -0.027567 0.988034
vt -0.022709 0.974753
vt 0.033640 0.995364
vt -0.018642 1.035435
vt 0.037456 1.014149
vt 0.042473 1.027371
vt -0.013625 1.048657
vt 0.007463 1.019054
vt 0.013439 0.984568
vt 0.027373 0.986982
vt 0.021398 1.021468
vt -0.027691 1.012327
vt -0.020853 0.978002
vt -0.006983 0.980765
vt -0.013821 1.015090
vt 0.020756 1.013709
vt 0.013918 0.979383
vt 0.027788 0.976620
vt 0.034626 1.010946
vt -0.028365 1.022675
vt -0.034340 0.988189
vt -0.020406 0.985775
vt -0.014431 1.020261
vt -0.005557 0.984276
vt 0.064400 0.981812
vt 0.064897 0.995945
vt -0.005059 0.998409
vt -0.004963 1.001870
vt 0.065023 1.000433
vt 0.065313 1.014572
vt -0.004672 1.016009
vt 0.005035 0.998335
vt -0.064950 0.996898
vt -0.064660 0.982759
vt 0.005326 0.984196
vt 0.004437 1.016076
vt -0.065520 1.013612
vt -0.065022 0.999478
vt 0.004935 1.001943
vt 0.025006 1.001971
vt 0.015204 1.012166
vt 0.011276 0.998580
vt 0.023001 0.963943
vt 0.019470 0.977637
vt 0.009376 0.967731
vt 0.009681 1.005953
vt 0.018873 0.995205
vt 0.023585 1.008539
vt 0.023344 1.024171
vt 0.027652 1.010701
vt 0.037164 1.021167
vt -0.009497 0.993758
vt -0.019009 1.004224
vt -0.023317 0.990754
vt -0.022605 0.975137
vt -0.027318 0.988471
vt -0.036509 0.977723
vt -0.024938 0.997303
vt -0.014844 0.987398
vt -0.011313 1.001092
vt -0.024039 1.035374
vt -0.020111 1.021788
vt -0.010309 1.031983
vt -0.003486 1.038103
vt -0.047226 1.042878
vt -0.067145 1.029964
vt -0.072028 0.985229
vt -0.055365 0.968321
vt -0.011625 0.963546
vt 0.007092 0.972820
vt 0.012790 1.025010
vt -0.008102 1.022617
vt -0.003032 0.976168
vt 0.013626 0.967914
vt 0.052555 0.972164
vt 0.067386 0.987212
vt 0.063039 1.027026
vt 0.045311 1.038520
vt 0.006383 1.034270
vt 0.031115 0.984928
vt -0.019654 0.971556
vt -0.016215 0.958501
vt 0.034553 0.971873
vt 0.030968 0.991751
vt -0.018337 0.973717
vt -0.013707 0.969462
vt 0.030175 0.985513
vt -0.002146 0.976886
vt -0.022781 0.973640
vt -0.020683 0.960304
vt -0.000048 0.963550
vt -0.003865 0.992666
vt -0.023967 0.986990
vt -0.022232 0.981380
vt -0.004341 0.986431
vt -0.007186 0.977364
vt -0.051179 0.976557
vt -0.050931 0.963059
vt -0.006938 0.963867
vt -0.007633 1.000792
vt -0.051605 0.999243
vt -0.049041 0.993939
vt -0.009905 0.995317
vt -0.019499 0.980209
vt -0.042969 0.983781
vt -0.045000 0.970434
vt -0.021531 0.966862
vt -0.010914 1.021818
vt -0.033807 1.028101
vt -0.033561 1.022022
vt -0.013186 1.016430
vt 0.016027 0.972511
vt -0.027489 0.983973
vt -0.030927 0.970918
vt 0.012589 0.959457
vt 0.029566 1.014496
vt -0.012507 1.030460
vt -0.012175 1.024359
vt 0.025270 1.010151
vt 0.035401 0.970741
vt 0.012040 0.974961
vt 0.009640 0.961676
vt 0.033002 0.957456
vt 0.042953 1.009362
vt 0.019740 1.014334
vt 0.019273 1.008505
vt 0.039933 1.004080
vt 0.051179 0.976557
vt 0.007186 0.977364
vt 0.006938 0.963867
vt 0.050931 0.963059
vt 0.051611 1.000001
vt 0.007620 1.000904
vt 0.009973 0.995463
vt 0.049125 0.994659
vt 0.029212 0.981013
vt 0.008488 0.978394
vt 0.010181 0.965000
vt 0.030905 0.967620
vt 0.027187 0.997874
vt 0.006515 0.994875
vt 0.009488 0.989374
vt 0.027886 0.992043
vt 0.068273 1.014250
vt 0.067704 0.983255
vt 0.111697 0.982448
vt 0.112266 1.013443
vt -0.112266 1.013443
vt -0.111697 0.982448
vt -0.067704 0.983255
vt -0.068273 1.014250
vt -0.064126 1.039190
vt -0.107866 1.043965
vt -0.108300 1.039989
vt -0.064560 1.035214
vt 0.064560 1.035214
vt 0.108300 1.039989
vt 0.107866 1.043965
vt 0.064126 1.039190
vt 0.026997 1.023139
vt 0.023129 1.022120
vt 0.031024 0.992143
vt 0.034892 0.993161
vt -0.034892 0.993161
vt -0.031024 0.992143
vt -0.023129 1.022120
vt -0.026997 1.023139
vt 0.007216 1.071183
vt 0.003476 1.069764
vt 0.006988 1.060509
vt 0.010728 1.061928
vt -0.055193 0.942260
vt -0.051436 0.940886
vt -0.048036 0.950183
vt -0.051792 0.951557
vt 0.048635 0.960190
vt 0.044878 0.958816
vt 0.048279 0.949519
vt 0.052035 0.950893
vt -0.007467 1.070522
vt -0.003727 1.069103
vt -0.000215 1.078359
vt -0.003955 1.079778
vt 0.062149 1.026499
vt 0.067442 0.995954
vt 0.077196 0.997644
vt 0.071903 1.028189
vt -0.035622 1.008708
vt -0.029565 0.978306
vt -0.019857 0.980240
vt -0.025913 1.010642
vt 0.053652 1.005116
vt 0.047596 0.974714
vt 0.057304 0.972780
vt 0.063361 1.003182
vt -0.099773 1.033018
vt -0.105065 1.002473
vt -0.095311 1.000783
vt -0.090018 1.031328
vt 0.067373 0.980999
vt 0.111346 0.979450
vt 0.111694 0.989344
vt 0.067721 0.990893
vt 0.068124 1.005320
vt 0.112114 1.004416
vt 0.112318 1.014314
vt 0.068327 1.015217
vt -0.068719 1.034305
vt -0.112710 1.033401
vt -0.112506 1.023504
vt -0.068516 1.024408
vt -0.067049 0.971813
vt -0.111022 0.970264
vt -0.110673 0.960370
vt -0.066701 0.961919
vt 0.067579 1.041923
vt 0.060718 1.049059
vt 0.057969 1.039549
vt 0.046146 0.936321
vt 0.043674 0.945907
vt 0.036608 0.938973
vt 0.069131 0.987944
vt 0.075565 0.980420
vt 0.078864 0.989754
vt 0.060846 1.036908
vt 0.063862 1.027479
vt 0.070520 1.034806
vt -0.033207 1.042916
vt -0.039865 1.050242
vt -0.042881 1.040813
vt -0.096939 0.993116
vt -0.100237 1.002450
vt -0.106671 0.994926
vt -0.018895 0.943898
vt -0.011830 0.936964
vt -0.009358 0.946550
vt -0.095038 1.048705
vt -0.092289 1.039196
vt -0.085428 1.046332
vt 0.067567 0.975756
vt 0.067530 0.973757
vt 0.081528 0.973500
vt 0.081564 0.975500
vt -0.081564 0.975500
vt -0.081528 0.973500
vt -0.067530 0.973757
vt -0.067567 0.975756
vt -0.063746 1.042670
vt -0.077663 1.044189
vt -0.078857 1.033254
vt -0.064940 1.031735
vt 0.064940 1.031735
vt 0.078857 1.033254
vt 0.077663 1.044189
vt 0.063746 1.042670
vt 0.040187 0.986800
vt 0.029550 0.983999
vt 0.030059 0.982065
vt 0.040697 0.984866
vt -0.040697 0.984866
vt -0.030059 0.982065
vt -0.029550 0.983999
vt -0.040187 0.986800
vt 0.021150 1.044327
vt 0.010865 1.040425
vt 0.012371 1.036458
vt 0.022655 1.040361
vt -0.059573 0.940474
vt -0.049242 0.936696
vt -0.047785 0.940680
vt -0.058115 0.944459
vt 0.055201 0.952428
vt 0.044870 0.948649
vt 0.046327 0.944665
vt 0.056658 0.948443
vt -0.019645 1.048294
vt -0.009360 1.044392
vt -0.007855 1.048359
vt -0.018140 1.052261
vt 0.073948 0.989470
vt 0.074289 0.987499
vt 0.078469 0.988224
vt 0.078128 0.990194
vt -0.027753 0.971019
vt -0.027362 0.969058
vt -0.023202 0.969887
vt -0.023592 0.971848
vt 0.025673 0.971434
vt 0.025282 0.969472
vt 0.029443 0.968643
vt 0.029834 0.970605
vt -0.080218 0.990556
vt -0.080560 0.988586
vt -0.076379 0.987861
vt -0.076038 0.989832
vt 0.066427 0.954146
vt 0.080418 0.953653
vt 0.080568 0.957893
vt 0.066576 0.958386
vt 0.068095 1.003906
vt 0.082092 1.003618
vt 0.082179 1.007860
vt 0.068182 1.008148
vt -0.068051 1.001785
vt -0.082048 1.001498
vt -0.081961 0.997256
vt -0.067964 0.997543
vt -0.066800 0.964746
vt -0.080792 0.964253
vt -0.080642 0.960013
vt -0.066651 0.960506
vt 0.074725 1.011519
vt 0.071784 1.014577
vt 0.070606 1.010501
vt 0.015513 0.925134
vt 0.014454 0.929243
vt 0.011425 0.926271
vt 0.075801 0.981087
vt 0.078558 0.977863
vt 0.079972 0.981863
vt 0.036170 1.021592
vt 0.037463 1.017551
vt 0.040316 1.020691
vt -0.031756 1.011271
vt -0.034610 1.014411
vt -0.035902 1.010370
vt -0.079902 0.970638
vt -0.081316 0.974638
vt -0.084073 0.971414
vt -0.016422 0.936323
vt -0.013394 0.933351
vt -0.012335 0.937459
vt -0.074141 1.022728
vt -0.072963 1.018653
vt -0.070022 1.021711
vt 0.068273 1.014250
vt 0.067704 0.983255
vt 0.111697 0.982448
vt 0.112266 1.013443
vt -0.112266 1.013443
vt -0.111697 0.982448
vt -0.067704 0.983255
vt -0.068273 1.014250
vt -0.066296 1.019309
vt -0.110036 1.024083
vt -0.110470 1.020107
vt -0.066730 1.015332
vt 0.066730 1.015332
vt 0.110470 1.020107
vt 0.110036 1.024083
vt 0.066296 1.019309
vt 0.007656 1.018045
vt 0.003788 1.017026
vt 0.011684 0.987049
vt 0.015552 0.988068
vt -0.015552 0.988068
vt -0.011684 0.987049
vt -0.003788 1.017026
vt -0.007656 1.018045
vt -0.011483 1.064088
vt -0.015223 1.062669
vt -0.011711 1.053413
vt -0.007971 1.054832
vt -0.036410 0.935390
vt -0.032653 0.934016
vt -0.029253 0.943313
vt -0.033009 0.944687
vt 0.029852 0.953320
vt 0.026095 0.951946
vt 0.029496 0.942649
vt 0.033252 0.944023
vt 0.011232 1.063427
vt 0.014972 1.062008
vt 0.018484 1.071263
vt 0.014744 1.072682
vt 0.048215 1.024085
vt 0.053507 0.993540
vt 0.063261 0.995230
vt 0.057969 1.025775
vt -0.049491 1.005945
vt -0.043435 0.975543
vt -0.033726 0.977477
vt -0.039783 1.007879
vt 0.067522 1.002353
vt 0.061465 0.971951
vt 0.071174 0.970017
vt 0.077231 1.000419
vt -0.085838 1.030604
vt -0.091130 1.000059
vt -0.081376 0.998369
vt -0.076084 1.028914
vt 0.067871 0.995133
vt 0.111843 0.993584
vt 0.112192 1.003477
vt 0.068219 1.005026
vt 0.067833 0.991181
vt 0.111824 0.990277
vt 0.112027 1.000174
vt 0.068036 1.001078
vt -0.068429 1.020166
vt -0.112419 1.019262
vt -0.112216 1.009365
vt -0.068225 1.010268
vt -0.067547 0.985946
vt -0.111520 0.984397
vt -0.111171 0.974504
vt -0.067199 0.976053
vt 0.051892 1.046459
vt 0.045031 1.053595
vt 0.042281 1.044085
vt 0.061958 0.940399
vt 0.059486 0.949984
vt 0.052421 0.943051
vt 0.056721 0.977330
vt 0.063155 0.969807
vt 0.066453 0.979141
vt 0.072932 1.025926
vt 0.075947 1.016497
vt 0.082605 1.023823
vt -0.045293 1.031933
vt -0.051950 1.039260
vt -0.054966 1.029831
vt -0.084528 0.982503
vt -0.087827 0.991836
vt -0.094261 0.984313
vt -0.034708 0.947976
vt -0.027642 0.941042
vt -0.025170 0.950628
vt -0.079351 1.053241
vt -0.076601 1.043731
vt -0.069740 1.050867
vt 0.067567 0.975756
vt 0.067530 0.973757
vt 0.081528 0.973500
vt 0.081564 0.975500
vt -0.081564 0.975500
vt -0.081528 0.973500
vt -0.067530 0.973757
vt -0.067567 0.975756
vt -0.065916 1.022788
vt -0.079834 1.024307
vt -0.081027 1.013372
vt -0.067110 1.011853
vt 0.067110 1.011853
vt 0.081027 1.013372
vt 0.079834 1.024307
vt 0.065916 1.022788
vt 0.020847 0.981706
vt 0.010210 0.978905
vt 0.010719 0.976971
vt 0.021356 0.979772
vt -0.021356 0.979772
vt -0.010719 0.976971
vt -0.010210 0.978905
vt -0.020847 0.981706
vt 0.002451 1.037232
vt -0.007834 1.033330
vt -0.006329 1.029363
vt 0.003956 1.033266
vt -0.040790 0.933604
vt -0.030459 0.929825
vt -0.029002 0.933810
vt -0.039333 0.937588
vt 0.036418 0.945557
vt 0.026087 0.941779
vt 0.027544 0.937794
vt 0.037875 0.941573
vt -0.000946 1.041199
vt 0.009339 1.037297
vt 0.010844 1.041263
vt 0.000559 1.045166
vt 0.060013 0.987056
vt 0.060354 0.985085
vt 0.064535 0.985809
vt 0.064193 0.987780
vt -0.041623 0.968256
vt -0.041232 0.966295
vt -0.037071 0.967124
vt -0.037462 0.969085
vt 0.039542 0.968671
vt 0.039152 0.966709
vt 0.043312 0.965880
vt 0.043703 0.967842
vt -0.066284 0.988142
vt -0.066625 0.986171
vt -0.062445 0.985447
vt -0.062103 0.987418
vt 0.066925 0.968279
vt 0.080916 0.967786
vt 0.081065 0.972026
vt 0.067074 0.972519
vt 0.067804 0.989767
vt 0.081801 0.989479
vt 0.081888 0.993721
vt 0.067891 0.994008
vt -0.067761 0.987646
vt -0.081758 0.987358
vt -0.081671 0.983117
vt -0.067673 0.983404
vt -0.067298 0.978879
vt -0.081289 0.978386
vt -0.081140 0.974146
vt -0.067149 0.974639
vt 0.059038 1.016054
vt 0.056097 1.019112
vt 0.054919 1.015037
vt 0.031326 0.929212
vt 0.030266 0.933321
vt 0.027238 0.930349
vt 0.063390 0.970474
vt 0.066148 0.967249
vt 0.067562 0.971249
vt 0.048256 1.010609
vt 0.049548 1.006568
vt 0.052402 1.009708
vt -0.043842 1.000289
vt -0.046695 1.003428
vt -0.047987 0.999387
vt -0.067492 0.960025
vt -0.068905 0.964025
vt -0.071663 0.960800
vt -0.032235 0.940401
vt -0.029207 0.937429
vt -0.028147 0.941537
vt -0.058454 1.027264
vt -0.057275 1.023188
vt -0.054335 1.026247
vt 0.068273 1.014250
vt 0.067704 0.983255
vt 0.111697 0.982448
vt 0.112266 1.013443
vt -0.112266 1.013443
vt -0.111697 0.982448
vt -0.067704 0.983255
vt -0.068273 1.014250
vt -0.068467 0.999427
vt -0.112207 1.004202
vt -0.112641 1.000225
vt -0.068901 0.995450
vt 0.068901 0.995450
vt 0.112641 1.000225
vt 0.112207 1.004202
vt 0.068467 0.999427
vt -0.011684 1.012951
vt -0.015552 1.011932
vt -0.007656 0.981955
vt -0.003788 0.982974
vt 0.003788 0.982974
vt 0.007656 0.981955
vt 0.015552 1.011932
vt 0.011684 1.012951
vt -0.030182 1.056993
vt -0.033922 1.055574
vt -0.030410 1.046318
vt -0.026670 1.047737
vt -0.017627 0.928520
vt -0.013870 0.927146
vt -0.010470 0.936443
vt -0.014226 0.937817
vt 0.011069 0.946450
vt 0.007312 0.945076
vt 0.010713 0.935779
vt 0.014469 0.937153
vt 0.029931 1.056332
vt 0.033671 1.054913
vt 0.037183 1.064168
vt 0.033443 1.065587
vt 0.034280 1.021671
vt 0.039573 0.991126
vt 0.049327 0.992816
vt 0.044034 1.023361
vt -0.063361 1.003182
vt -0.057304 0.972780
vt -0.047596 0.974714
vt -0.053652 1.005116
vt 0.081392 0.999590
vt 0.075335 0.969188
vt 0.085044 0.967254
vt 0.091100 0.997656
vt -0.071903 1.028189
vt -0.077196 0.997644
vt -0.067442 0.995954
vt -0.062149 1.026499
vt 0.068369 1.009266
vt 0.112341 1.007717
vt 0.112690 1.017610
vt 0.068717 1.019159
vt 0.067543 0.977041
vt 0.111534 0.976138
vt 0.111737 0.986035
vt 0.067746 0.986939
vt -0.068138 1.006027
vt -0.112129 1.005123
vt -0.111926 0.995226
vt -0.067935 0.996129
vt -0.068045 1.000079
vt -0.112018 0.998530
vt -0.111669 0.988637
vt -0.067696 0.990186
vt 0.036204 1.050994
vt 0.029343 1.058130
vt 0.026594 1.048620
vt 0.077771 0.944477
vt 0.075299 0.954062
vt 0.068233 0.947129
vt 0.044310 0.966717
vt 0.050744 0.959193
vt 0.054043 0.968527
vt 0.085017 1.014943
vt 0.088033 1.005515
vt 0.094690 1.012841
vt -0.057378 1.020951
vt -0.064036 1.028277
vt -0.067052 1.018848
vt -0.072118 0.971889
vt -0.075416 0.981223
vt -0.081850 0.973699
vt -0.050521 0.952054
vt -0.043455 0.945120
vt -0.040983 0.954706
vt -0.063663 1.057777
vt -0.060914 1.048267
vt -0.054053 1.055403
vt 0.067567 0.975756
vt 0.067530 0.973757
vt 0.081528 0.973500
vt 0.081564 0.975500
vt -0.081564 0.975500
vt -0.081528 0.973500
vt -0.067530 0.973757
vt -0.067567 0.975756
vt -0.068087 1.002906
vt -0.082004 1.004425
vt -0.083198 0.993490
vt -0.069280 0.991971
vt 0.069280 0.991971
vt 0.083198 0.993490
vt 0.082004 1.004425
vt 0.068087 1.002906
vt 0.001506 0.976612
vt -0.009131 0.973811
vt -0.008621 0.971877
vt 0.002016 0.974678
vt -0.002016 0.974678
vt 0.008621 0.971877
vt 0.009131 0.973811
vt -0.001506 0.976612
vt -0.016248 1.030137
vt -0.026533 1.026235
vt -0.025028 1.022268
vt -0.014743 1.026170
vt -0.022007 0.926734
vt -0.011676 0.922955
vt -0.010219 0.926940
vt -0.020550 0.930718
vt 0.017635 0.938687
vt 0.007304 0.934909
vt 0.008762 0.930924
vt 0.019092 0.934703
vt 0.017753 1.034104
vt 0.028038 1.030201
vt 0.029543 1.034168
vt 0.019259 1.038070
vt 0.046079 0.984641
vt 0.046420 0.982670
vt 0.050600 0.983395
vt 0.050259 0.985365
vt -0.055492 0.965493
vt -0.055102 0.963532
vt -0.050941 0.964361
vt -0.051331 0.966322
vt 0.053412 0.965908
vt 0.053021 0.963946
vt 0.057182 0.963117
vt 0.057573 0.965079
vt -0.052349 0.985728
vt -0.052691 0.983757
vt -0.048510 0.983033
vt -0.048169 0.985003
vt 0.067423 0.982413
vt 0.081414 0.981920
vt 0.081563 0.986160
vt 0.067572 0.986653
vt 0.067514 0.975627
vt 0.081511 0.975340
vt 0.081598 0.979582
vt 0.067601 0.979869
vt -0.067470 0.973507
vt -0.081467 0.973219
vt -0.081380 0.968977
vt -0.067383 0.969265
vt -0.067796 0.993013
vt -0.081787 0.992520
vt -0.081638 0.988280
vt -0.067647 0.988773
vt 0.043350 1.020590
vt 0.040410 1.023648
vt 0.039231 1.019572
vt 0.047138 0.933290
vt 0.046079 0.937399
vt 0.043051 0.934427
vt 0.050980 0.959860
vt 0.053737 0.956636
vt 0.055151 0.960636
vt 0.060341 0.999627
vt 0.061633 0.995586
vt 0.064487 0.998726
vt -0.055927 0.989306
vt -0.058780 0.992446
vt -0.060073 0.988405
vt -0.055081 0.949411
vt -0.056495 0.953411
vt -0.059252 0.950187
vt -0.048047 0.944479
vt -0.045019 0.941507
vt -0.043960 0.945615
vt -0.042766 1.031799
vt -0.041588 1.027724
vt -0.038648 1.030782
vt 0.068273 1.014250
vt 0.067704 0.983255
vt 0.111697 0.982448
vt 0.112266 1.013443
vt -0.112266 1.013443
vt -0.111697 0.982448
vt -0.067704 0.983255
vt -0.068273 1.014250
vt -0.070637 0.979545
vt -0.114377 0.984320
vt -0.114811 0.980343
vt -0.071071 0.975568
vt 0.071071 0.975568
vt 0.114811 0.980343
vt 0.114377 0.984320
vt 0.070637 0.979545
vt -0.031024 1.007857
vt -0.034892 1.006839
vt -0.026997 0.976861
vt -0.023129 0.977880
vt 0.023129 0.977880
vt 0.026997 0.976861
vt 0.034892 1.006839
vt 0.031024 1.007857
vt -0.048881 1.049897
vt -0.052621 1.048478
vt -0.049109 1.039223
vt -0.045369 1.040642
vt 0.001156 0.921650
vt 0.004913 0.920276
vt 0.008313 0.929573
vt 0.004557 0.930947
vt -0.007714 0.939580
vt -0.011471 0.938206
vt -0.008070 0.928909
vt -0.004314 0.930283
vt 0.048630 1.049236
vt 0.052370 1.047817
vt 0.055882 1.057073
vt 0.052142 1.058492
vt 0.020346 1.019256
vt 0.025638 0.988711
vt 0.035392 0.990401
vt 0.030100 1.020946
vt -0.077231 1.000419
vt -0.071174 0.970017
vt -0.061465 0.971951
vt -0.067522 1.002353
vt 0.095261 0.996827
vt 0.089204 0.966425
vt 0.098913 0.964490
vt 0.104970 0.994893
vt -0.057969 1.025775
vt -0.063261 0.995230
vt -0.053507 0.993540
vt -0.048215 1.024085
vt 0.068866 1.023399
vt 0.112839 1.021850
vt 0.113188 1.031744
vt 0.069215 1.033293
vt 0.067252 0.962902
vt 0.111243 0.961999
vt 0.111446 0.971896
vt 0.067456 0.972800
vt -0.067848 0.991888
vt -0.111838 0.990984
vt -0.111635 0.981087
vt -0.067644 0.981990
vt -0.068543 1.014213
vt -0.112516 1.012664
vt -0.112167 1.002770
vt -0.068194 1.004319
vt 0.020517 1.055530
vt 0.013656 1.062666
vt 0.010906 1.053156
vt 0.093584 0.948555
vt 0.091111 0.958140
vt 0.084046 0.951207
vt 0.031900 0.956103
vt 0.038334 0.948580
vt 0.041632 0.957914
vt 0.097102 1.003961
vt 0.100118 0.994532
vt 0.106776 1.001858
vt -0.069463 1.009969
vt -0.076121 1.017295
vt -0.079137 1.007866
vt -0.059707 0.961276
vt -0.063006 0.970610
vt -0.069440 0.963086
vt -0.066333 0.956132
vt -0.059268 0.949198
vt -0.056795 0.958784
vt -0.047976 1.062312
vt -0.045226 1.052802
vt -0.038365 1.059938
vt 0.067567 0.975756
vt 0.067530 0.973757
vt 0.081528 0.973500
vt 0.081564 0.975500
vt -0.081564 0.975500
vt -0.081528 0.973500
vt -0.067530 0.973757
vt -0.067567 0.975756
vt -0.070257 0.983024
vt -0.084174 0.984543
vt -0.085368 0.973608
vt -0.071451 0.972089
vt 0.071451 0.972089
vt 0.085368 0.973608
vt 0.084174 0.984543
vt 0.070257 0.983024
vt -0.017834 0.971518
vt -0.028471 0.968717
vt -0.027962 0.966783
vt -0.017325 0.969584
vt 0.017325 0.969584
vt 0.027962 0.966783
vt 0.028471 0.968717
vt 0.017834 0.971518
vt -0.034947 1.023042
vt -0.045232 1.019139
vt -0.043727 1.015173
vt -0.033442 1.019075
vt -0.003224 0.919864
vt 0.007107 0.916085
vt 0.008564 0.920069
vt -0.001767 0.923848
vt -0.001148 0.931817
vt -0.011479 0.928038
vt -0.010021 0.924054
vt 0.000309 0.927832
vt 0.036453 1.027009
vt 0.046737 1.023106
vt 0.048242 1.027073
vt 0.037958 1.030975
vt 0.032144 0.982227
vt 0.032485 0.980256
vt 0.036666 0.980980
vt 0.036324 0.982951
vt -0.069362 0.962730
vt -0.068971 0.960769
vt -0.064810 0.961598
vt -0.065201 0.963559
vt 0.067282 0.963145
vt 0.066891 0.961183
vt 0.071052 0.960354
vt 0.071442 0.962316
vt -0.038415 0.983313
vt -0.038756 0.981343
vt -0.034576 0.980618
vt -0.034234 0.982589
vt 0.067921 0.996546
vt 0.081912 0.996053
vt 0.082061 1.000293
vt 0.068070 1.000786
vt 0.067223 0.961488
vt 0.081220 0.961201
vt 0.081308 0.965443
vt 0.067310 0.965730
vt -0.067180 0.959368
vt -0.081177 0.959080
vt -0.081090 0.954838
vt -0.067093 0.955126
vt -0.068294 1.007146
vt -0.082285 1.006653
vt -0.082136 1.002413
vt -0.068145 1.002906
vt 0.027663 1.025125
vt 0.024722 1.028184
vt 0.023544 1.024108
vt 0.062951 0.937368
vt 0.061891 0.941477
vt 0.058863 0.938505
vt 0.038569 0.949247
vt 0.041327 0.946022
vt 0.042740 0.950022
vt 0.072426 0.988644
vt 0.073719 0.984603
vt 0.076572 0.987743
vt -0.068012 0.978324
vt -0.070865 0.981464
vt -0.072158 0.977423
vt -0.042671 0.938798
vt -0.044084 0.942798
vt -0.046842 0.939574
vt -0.063860 0.948557
vt -0.060832 0.945585
vt -0.059772 0.949693
vt -0.027079 1.036335
vt -0.025901 1.032259
vt -0.022960 1.035318
vt 0.023712 1.019469
vt 0.014050 0.999704
vt 0.056275 0.979063
vt 0.065937 0.998828
vt -0.065937 0.998828
vt -0.056275 0.979063
vt -0.014050 0.999704
vt -0.023712 1.019469
vt 0.023888 0.970807
vt -0.000282 0.930498
vt 0.014298 0.921756
vt 0.038468 0.962065
vt -0.038468 0.962065
vt -0.014298 0.921756
vt 0.000282 0.930498
vt -0.023888 0.970807
vt -0.041916 1.016792
vt -0.058229 1.012011
vt -0.052041 0.990899
vt -0.035728 0.995681
vt 0.035728 0.995681
vt 0.052041 0.990899
vt 0.058229 1.012011
vt 0.041916 1.016792
vt -0.049689 1.004912
vt -0.062893 0.994204
vt -0.054876 0.984318
vt -0.041672 0.995026
vt 0.026452 0.962653
vt 0.042829 0.958093
vt 0.046243 0.970355
vt 0.029866 0.974914
vt -0.034607 0.991944
vt -0.050984 0.987384
vt -0.047571 0.975123
vt -0.031193 0.979683
vt 0.052807 1.008756
vt 0.066011 0.998048
vt 0.074028 1.007934
vt 0.060824 1.018642
vt -0.018412 1.030719
vt -0.021428 1.008927
vt -0.008820 1.007182
vt -0.005804 1.028974
vt -0.059451 0.999014
vt -0.048805 0.979761
vt -0.037667 0.985920
vt -0.048312 1.005173
vt 0.066877 0.994908
vt 0.056231 0.975655
vt 0.067370 0.969497
vt 0.078015 0.988750
vt -0.015209 1.026066
vt -0.012193 1.004274
vt 0.000415 1.006018
vt -0.002601 1.027811
vt 0.036015 1.018587
vt 0.069617 0.985725
vt 0.078516 0.994824
vt 0.044914 1.027687
vt -0.001621 0.969920
vt 0.039828 0.947761
vt 0.045829 0.958986
vt 0.004380 0.981145
vt -0.006047 0.984263
vt -0.047495 0.962104
vt -0.041495 0.950879
vt -0.000046 0.973038
vt -0.042442 1.025159
vt -0.076044 0.992297
vt -0.067145 0.983197
vt -0.033543 1.016059
vt 0.001040 1.039994
vt -0.002135 1.052320
vt -0.011222 1.043407
vt 0.067576 0.969137
vt 0.067947 0.981859
vt 0.056743 0.975819
vt -0.023639 0.991594
vt -0.018655 0.979883
vt -0.011005 0.990055
vt 0.059820 0.978098
vt 0.058293 0.965462
vt 0.069999 0.970457
vt -0.033542 0.978426
vt -0.045249 0.983421
vt -0.043721 0.970785
vt 0.004458 0.973629
vt -0.003192 0.983801
vt -0.008176 0.972089
vt -0.057666 0.993477
vt -0.046463 0.987437
vt -0.046833 1.000159
vt -0.025636 1.049252
vt -0.016550 1.040339
vt -0.013374 1.052665
usemtl Surface_2
f 4/4 2/2 1/1
usemtl Surface_2
f 3/3 2/2 4/4
usemtl Surface_2
f 8/8 6/6 5/5
usemtl Surface_2
f 7/7 6/6 8/8
usemtl Surface_2
f 12/12 10/10 9/9
usemtl Surface_2
f 11/11 10/10 12/12
usemtl Surface_2
f 16/16 14/14 13/13
usemtl Surface_2
f 15/15 14/14 16/16
usemtl Surface_2
f 20/20 18/18 17/17
usemtl Surface_2
f 19/19 18/18 20/20
usemtl Surface_2
f 24/24 22/22 21/21
usemtl Surface_2
f 23/23 22/22 24/24
usemtl Surface_2
f 28/28 26/26 25/25
usemtl Surface_2
f 27/27 26/26 28/28
usemtl Surface_2
f 32/32 30/30 29/29
usemtl Surface_2
f 31/31 30/30 32/32
usemtl Surface_2
f 36/36 34/34 33/33
usemtl Surface_2
f 35/35 34/34 36/36
usemtl Surface_2
f 40/40 38/38 37/37
usemtl Surface_2
f 39/39 38/38 40/40
usemtl Surface_2
f 44/44 42/42 41/41
usemtl Surface_2
f 43/43 42/42 44/44
usemtl Surface_2
f 48/48 46/46 45/45
usemtl Surface_2
f 47/47 46/46 48/48
usemtl Surface_2
f 52/52 50/50 49/49
usemtl Surface_2
f 51/51 50/50 52/52
usemtl Surface_2
f 56/56 54/54 53/53
usemtl Surface_2
f 55/55 54/54 56/56
usemtl Surface_2
f 60/60 58/58 57/57
usemtl Surface_2
f 59/59 58/58 60/60
usemtl Surface_2
f 64/64 62/62 61/61
usemtl Surface_2
f 63/63 62/62 64/64
usemtl Surface_2
f 68/68 66/66 65/65
usemtl Surface_2
f 67/67 66/66 68/68
usemtl Surface_2
f 72/72 70/70 69/69
usemtl Surface_2
f 71/71 70/70 72/72
usemtl Surface_2
f 73/73 75/75 74/74
usemtl Surface_2
f 76/76 78/78 77/77
usemtl Surface_2
f 79/79 81/81 80/80
usemtl Surface_2
f 82/82 84/84 83/83
usemtl Surface_2
f 85/85 87/87 86/86
usemtl Surface_2
f 88/88 90/90 89/89
usemtl Surface_2
f 91/91 93/93 92/92
usemtl Surface_2
f 94/94 96/96 95/95
usemtl Surface_0
f 104/104 98/98 97/97
usemtl Surface_0
f 103/103 98/98 104/104
usemtl Surface_0
f 102/102 98/98 103/103
usemtl Surface_0
f 101/101 98/98 102/102
usemtl Surface_0
f 100/100 98/98 101/101
usemtl Surface_0
f 99/99 98/98 100/100
usemtl Surface_0
f 112/112 106/106 105/105
usemtl Surface_0
f 111/111 106/106 112/112
usemtl Surface_0
f 110/110 106/106 111/111
usemtl Surface_0
f 109/109 106/106 110/110
usemtl Surface_0
f 108/108 106/106 109/109
usemtl Surface_0
f 107/107 106/106 108/108
usemtl Surface_0
f 116/116 114/114 113/113
usemtl Surface_0
f 115/115 114/114 116/116
usemtl Surface_1
f 120/120 118/118 117/117
usemtl Surface_1
f 119/119 118/118 120/120
usemtl Surface_0
f 124/124 122/122 121/121
usemtl Surface_0
f 123/123 122/122 124/124
usemtl Surface_1
f 128/128 126/126 125/125
usemtl Surface_1
f 127/127 126/126 128/128
usemtl Surface_0
f 132/132 130/130 129/129
usemtl Surface_0
f 131/131 130/130 132/132
usemtl Surface_1
f 136/136 134/134 133/133
usemtl Surface_1
f 135/135 134/134 136/136
usemtl Surface_0
f 140/140 138/138 137/137
usemtl Surface_0
f 139/139 138/138 140/140
usemtl Surface_1
f 144/144 142/142 141/141
usemtl Surface_1
f 143/143 142/142 144/144
usemtl Surface_0
f 148/148 146/146 145/145
usemtl Surface_0
f 147/147 146/146 148/148
usemtl Surface_1
f 152/152 150/150 149/149
usemtl Surface_1
f 151/151 150/150 152/152
usemtl Surface_0
f 156/156 154/154 153/153
usemtl Surface_0
f 155/155 154/154 156/156
usemtl Surface_1
f 160/160 158/158 157/157
usemtl Surface_1
f 159/159 158/158 160/160
usemtl Surface_0
f 164/164 162/162 161/161
usemtl Surface_0
f 163/163 162/162 164/164
usemtl Surface_1
f 168/168 166/166 165/165
usemtl Surface_1
f 167/167 166/166 168/168
usemtl Surface_0
f 172/172 170/170 169/169
usemtl Surface_0
f 171/171 170/170 172/172
usemtl Surface_1
f 176/176 174/174 173/173
usemtl Surface_1
f 175/175 174/174 176/176
usemtl Surface_2
f 180/180 178/178 177/177
usemtl Surface_2
f 179/179 178/178 180/180
usemtl Surface_2
f 184/184 182/182 181/181
usemtl Surface_2
f 183/183 182/182 184/184
usemtl Surface_2
f 188/188 186/186 185/185
usemtl Surface_2
f 187/187 186/186 188/188
usemtl Surface_2
f 192/192 190/190 189/189
usemtl Surface_2
f 191/191 190/190 192/192
usemtl Surface_2
f 196/196 194/194 193/193
usemtl Surface_2
f 195/195 194/194 196/196
usemtl Surface_2
f 200/200 198/198 197/197
usemtl Surface_2
f 199/199 198/198 200/200
usemtl Surface_2
f 204/204 202/202 201/201
usemtl Surface_2
f 203/203 202/202 204/204
usemtl Surface_2
f 208/208 206/206 205/205
usemtl Surface_2
f 207/207 206/206 208/208
usemtl Surface_2
f 212/212 210/210 209/209
usemtl Surface_2
f 211/211 210/210 212/212
usemtl Surface_2
f 216/216 214/214 213/213
usemtl Surface_2
f 215/215 214/214 216/216
usemtl Surface_2
f 220/220 218/218 217/217
usemtl Surface_2
f 219/219 218/218 220/220
usemtl Surface_2
f 224/224 222/222 221/221
usemtl Surface_2
f 223/223 222/222 224/224
usemtl Surface_2
f 228/228 226/226 225/225
usemtl Surface_2
f 227/227 226/226 228/228
usemtl Surface_2
f 232/232 230/230 229/229
usemtl Surface_2
f 231/231 230/230 232/232
usemtl Surface_2
f 236/236 234/234 233/233
usemtl Surface_2
f 235/235 234/234 236/236
usemtl Surface_2
f 240/240 238/238 237/237
usemtl Surface_2
f 239/239 238/238 240/240
usemtl Surface_2
f 244/244 242/242 241/241
usemtl Surface_2
f 243/243 242/242 244/244
usemtl Surface_2
f 248/248 246/246 245/245
usemtl Surface_2
f 247/247 246/246 248/248
usemtl Surface_2
f 249/249 251/251 250/250
usemtl Surface_2
f 252/252 254/254 253/253
usemtl Surface_2
f 255/255 257/257 256/256
usemtl Surface_2
f 258/258 260/260 259/259
usemtl Surface_2
f 261/261 263/263 262/262
usemtl Surface_2
f 264/264 266/266 265/265
usemtl Surface_2
f 267/267 269/269 268/268
usemtl Surface_2
f 270/270 272/272 271/271
usemtl Surface_1
f 276/276 274/274 273/273
usemtl Surface_1
f 275/275 274/274 276/276
usemtl Surface_1
f 280/280 278/278 277/277
usemtl Surface_1
f 279/279 278/278 280/280
usemtl Surface_1
f 284/284 282/282 281/281
usemtl Surface_1
f 283/283 282/282 284/284
usemtl Surface_1
f 288/288 286/286 285/285
usemtl Surface_1
f 287/287 286/286 288/288
usemtl Surface_1
f 292/292 290/290 289/289
usemtl Surface_1
f 291/291 290/290 292/292
usemtl Surface_1
f 296/296 294/294 293/293
usemtl Surface_1
f 295/295 294/294 296/296
usemtl Surface_1
f 300/300 298/298 297/297
usemtl Surface_1
f 299/299 298/298 300/300
usemtl Surface_1
f 304/304 302/302 301/301
usemtl Surface_1
f 303/303 302/302 304/304
usemtl Surface_1
f 308/308 306/306 305/305
usemtl Surface_1
f 307/307 306/306 308/308
usemtl Surface_1
f 312/312 310/310 309/309
usemtl Surface_1
f 311/311 310/310 312/312
usemtl Surface_1
f 316/316 314/314 313/313
usemtl Surface_1
f 315/315 314/314 316/316
usemtl Surface_1
f 320/320 318/318 317/317
usemtl Surface_1
f 319/319 318/318 320/320
usemtl Surface_1
f 324/324 322/322 321/321
usemtl Surface_1
f 323/323 322/322 324/324
usemtl Surface_1
f 328/328 326/326 325/325
usemtl Surface_1
f 327/327 326/326 328/328
usemtl Surface_1
f 332/332 330/330 329/329
usemtl Surface_1
f 331/331 330/330 332/332
usemtl Surface_1
f 336/336 334/334 333/333
usemtl Surface_1
f 335/335 334/334 336/336
usemtl Surface_1
f 340/340 338/338 337/337
usemtl Surface_1
f 339/339 338/338 340/340
usemtl Surface_1
f 344/344 342/342 341/341
usemtl Surface_1
f 343/343 342/342 344/344
usemtl Surface_1
f 345/345 347/347 346/346
usemtl Surface_1
f 348/348 350/350 349/349
usemtl Surface_1
f 351/351 353/353 352/352
usemtl Surface_1
f 354/354 356/356 355/355
usemtl Surface_1
f 357/357 359/359 358/358
usemtl Surface_1
f 360/360 362/362 361/361
usemtl Surface_1
f 363/363 365/365 364/364
usemtl Surface_1
f 366/366 368/368 367/367
usemtl Surface_2
f 372/372 370/370 369/369
usemtl Surface_2
f 371/371 370/370 372/372
usemtl Surface_2
f 376/376 374/374 373/373
usemtl Surface_2
f 375/375 374/374 376/376
usemtl Surface_2
f 380/380 378/378 377/377
usemtl Surface_2
f 379/379 378/378 380/380
usemtl Surface_2
f 384/384 382/382 381/381
usemtl Surface_2
f 383/383 382/382 384/384
usemtl Surface_2
f 388/388 386/386 385/385
usemtl Surface_2
f 387/387 386/386 388/388
usemtl Surface_2
f 392/392 390/390 389/389
usemtl Surface_2
f 391/391 390/390 392/392
usemtl Surface_2
f 396/396 394/394 393/393
usemtl Surface_2
f 395/395 394/394 396/396
usemtl Surface_2
f 400/400 398/398 397/397
usemtl Surface_2
f 399/399 398/398 400/400
usemtl Surface_2
f 404/404 402/402 401/401
usemtl Surface_2
f 403/403 402/402 404/404
usemtl Surface_2
f 408/408 406/406 405/405
usemtl Surface_2
f 407/407 406/406 408/408
usemtl Surface_2
f 412/412 410/410 409/409
usemtl Surface_2
f 411/411 410/410 412/412
usemtl Surface_2
f 416/416 414/414 413/413
usemtl Surface_2
f 415/415 414/414 416/416
usemtl Surface_2
f 420/420 418/418 417/417
usemtl Surface_2
f 419/419 418/418 420/420
usemtl Surface_2
f 424/424 422/422 421/421
usemtl Surface_2
f 423/423 422/422 424/424
usemtl Surface_2
f 428/428 426/426 425/425
usemtl Surface_2
f 427/427 426/426 428/428
usemtl Surface_2
f 432/432 430/430 429/429
usemtl Surface_2
f 431/431 430/430 432/432
usemtl Surface_2
f 436/436 434/434 433/433
usemtl Surface_2
f 435/435 434/434 436/436
usemtl Surface_2
f 440/440 438/438 437/437
usemtl Surface_2
f 439/439 438/438 440/440
usemtl Surface_2
f 441/441 443/443 442/442
usemtl Surface_2
f 444/444 446/446 445/445
usemtl Surface_2
f 447/447 449/449 448/448
usemtl Surface_2
f 450/450 452/452 451/451
usemtl Surface_2
f 453/453 455/455 454/454
usemtl Surface_2
f 456/456 458/458 457/457
usemtl Surface_2
f 459/459 461/461 460/460
usemtl Surface_2
f 462/462 464/464 463/463
usemtl Surface_1
f 468/468 466/466 465/465
usemtl Surface_1
f 467/467 466/466 468/468
usemtl Surface_1
f 472/472 470/470 469/469
usemtl Surface_1
f 471/471 470/470 472/472
usemtl Surface_1
f 476/476 474/474 473/473
usemtl Surface_1
f 475/475 474/474 476/476
usemtl Surface_1
f 480/480 478/478 477/477
usemtl Surface_1
f 479/479 478/478 480/480
usemtl Surface_1
f 484/484 482/482 481/481
usemtl Surface_1
f 483/483 482/482 484/484
usemtl Surface_1
f 488/488 486/486 485/485
usemtl Surface_1
f 487/487 486/486 488/488
usemtl Surface_1
f 492/492 490/490 489/489
usemtl Surface_1
f 491/491 490/490 492/492
usemtl Surface_1
f 496/496 494/494 493/493
usemtl Surface_1
f 495/495 494/494 496/496
usemtl Surface_1
f 500/500 498/498 497/497
usemtl Surface_1
f 499/499 498/498 500/500
usemtl Surface_1
f 504/504 502/502 501/501
usemtl Surface_1
f 503/503 502/502 504/504
usemtl Surface_1
f 508/508 506/506 505/505
usemtl Surface_1
f 507/507 506/506 508/508
usemtl Surface_1
f 512/512 510/510 509/509
usemtl Surface_1
f 511/511 510/510 512/512
usemtl Surface_1
f 516/516 514/514 513/513
usemtl Surface_1
f 515/515 514/514 516/516
usemtl Surface_1
f 520/520 518/518 517/517
usemtl Surface_1
f 519/519 518/518 520/520
usemtl Surface_1
f 524/524 522/522 521/521
usemtl Surface_1
f 523/523 522/522 524/524
usemtl Surface_1
f 528/528 526/526 525/525
usemtl Surface_1
f 527/527 526/526 528/528
usemtl Surface_1
f 532/532 530/530 529/529
usemtl Surface_1
f 531/531 530/530 532/532
usemtl Surface_1
f 536/536 534/534 533/533
usemtl Surface_1
f 535/535 534/534 536/536
usemtl Surface_1
f 537/537 539/539 538/538
usemtl Surface_1
f 540/540 542/542 541/541
usemtl Surface_1
f 543/543 545/545 544/544
usemtl Surface_1
f 546/546 548/548 547/547
usemtl Surface_1
f 549/549 551/551 550/550
usemtl Surface_1
f 552/552 554/554 553/553
usemtl Surface_1
f 555/555 557/557 556/556
usemtl Surface_1
f 558/558 560/560 559/559
usemtl Surface_2
f 564/564 562/562 561/561
usemtl Surface_2
f 563/563 562/562 564/564
usemtl Surface_2
f 568/568 566/566 565/565
usemtl Surface_2
f 567/567 566/566 568/568
usemtl Surface_2
f 572/572 570/570 569/569
usemtl Surface_2
f 571/571 570/570 572/572
usemtl Surface_2
f 576/576 574/574 573/573
usemtl Surface_2
f 575/575 574/574 576/576
usemtl Surface_2
f 580/580 578/578 577/577
usemtl Surface_2
f 579/579 578/578 580/580
usemtl Surface_2
f 584/584 582/582 581/581
usemtl Surface_2
f 583/583 582/582 584/584
usemtl Surface_2
f 588/588 586/586 585/585
usemtl Surface_2
f 587/587 586/586 588/588
usemtl Surface_2
f 592/592 590/590 589/589
usemtl Surface_2
f 591/591 590/590 592/592
usemtl Surface_2
f 596/596 594/594 593/593
usemtl Surface_2
f 595/595 594/594 596/596
usemtl Surface_2
f 600/600 598/598 597/597
usemtl Surface_2
f 599/599 598/598 600/600
usemtl Surface_2
f 604/604 602/602 601/601
usemtl Surface_2
f 603/603 602/602 604/604
usemtl Surface_2
f 608/608 606/606 605/605
usemtl Surface_2
f 607/607 606/606 608/608
usemtl Surface_2
f 612/612 610/610 609/609
usemtl Surface_2
f 611/611 610/610 612/612
usemtl Surface_2
f 616/616 614/614 613/613
usemtl Surface_2
f 615/615 614/614 616/616
usemtl Surface_2
f 620/620 618/618 617/617
usemtl Surface_2
f 619/619 618/618 620/620
usemtl Surface_2
f 624/624 622/622 621/621
usemtl Surface_2
f 623/623 622/622 624/624
usemtl Surface_2
f 628/628 626/626 625/625
usemtl Surface_2
f 627/627 626/626 628/628
usemtl Surface_2
f 632/632 630/630 629/629
usemtl Surface_2
f 631/631 630/630 632/632
usemtl Surface_2
f 633/633 635/635 634/634
usemtl Surface_2
f 636/636 638/638 637/637
usemtl Surface_2
f 639/639 641/641 640/640
usemtl Surface_2
f 642/642 644/644 643/643
usemtl Surface_2
f 645/645 647/647 646/646
usemtl Surface_2
f 648/648 650/650 649/649
usemtl Surface_2
f 651/651 653/653 652/652
usemtl Surface_2
f 654/654 656/656 655/655
usemtl Surface_1
f 660/660 658/658 657/657
usemtl Surface_1
f 659/659 658/658 660/660
usemtl Surface_1
f 664/664 662/662 661/661
usemtl Surface_1
f 663/663 662/662 664/664
usemtl Surface_1
f 668/668 666/666 665/665
usemtl Surface_1
f 667/667 666/666 668/668
usemtl Surface_1
f 672/672 670/670 669/669
usemtl Surface_1
f 671/671 670/670 672/672
usemtl Surface_1
f 676/676 674/674 673/673
usemtl Surface_1
f 675/675 674/674 676/676
usemtl Surface_1
f 680/680 678/678 677/677
usemtl Surface_1
f 679/679 678/678 680/680
usemtl Surface_1
f 684/684 682/682 681/681
usemtl Surface_1
f 683/683 682/682 684/684
usemtl Surface_1
f 688/688 686/686 685/685
usemtl Surface_1
f 687/687 686/686 688/688
usemtl Surface_1
f 692/692 690/690 689/689
usemtl Surface_1
f 691/691 690/690 692/692
usemtl Surface_1
f 696/696 694/694 693/693
usemtl Surface_1
f 695/695 694/694 696/696
usemtl Surface_1
f 700/700 698/698 697/697
usemtl Surface_1
f 699/699 698/698 700/700
usemtl Surface_1
f 704/704 702/702 701/701
usemtl Surface_1
f 703/703 702/702 704/704
usemtl Surface_1
f 708/708 706/706 705/705
usemtl Surface_1
f 707/707 706/706 708/708
usemtl Surface_1
f 712/712 710/710 709/709
usemtl Surface_1
f 711/711 710/710 712/712
usemtl Surface_1
f 716/716 714/714 713/713
usemtl Surface_1
f 715/715 714/714 716/716
usemtl Surface_1
f 720/720 718/718 717/717
usemtl Surface_1
f 719/719 718/718 720/720
usemtl Surface_1
f 724/724 722/722 721/721
usemtl Surface_1
f 723/723 722/722 724/724
usemtl Surface_1
f 728/728 726/726 725/725
usemtl Surface_1
f 727/727 726/726 728/728
usemtl Surface_1
f 729/729 731/731 730/730
usemtl Surface_1
f 732/732 734/734 733/733
usemtl Surface_1
f 735/735 737/737 736/736
usemtl Surface_1
f 738/738 740/740 739/739
usemtl Surface_1
f 741/741 743/743 742/742
usemtl Surface_1
f 744/744 746/746 745/745
usemtl Surface_1
f 747/747 749/749 748/748
usemtl Surface_1
f 750/750 752/752 751/751
usemtl Surface_2
f 756/756 754/754 753/753
usemtl Surface_2
f 755/755 754/754 756/756
usemtl Surface_2
f 760/760 758/758 757/757
usemtl Surface_2
f 759/759 758/758 760/760
usemtl Surface_2
f 764/764 762/762 761/761
usemtl Surface_2
f 763/763 762/762 764/764
usemtl Surface_2
f 768/768 766/766 765/765
usemtl Surface_2
f 767/767 766/766 768/768
usemtl Surface_2
f 772/772 770/770 769/769
usemtl Surface_2
f 771/771 770/770 772/772
usemtl Surface_2
f 776/776 774/774 773/773
usemtl Surface_2
f 775/775 774/774 776/776
usemtl Surface_2
f 780/780 778/778 777/777
usemtl Surface_2
f 779/779 778/778 780/780
usemtl Surface_2
f 784/784 782/782 781/781
usemtl Surface_2
f 783/783 782/782 784/784
usemtl Surface_2
f 788/788 786/786 785/785
usemtl Surface_2
f 787/787 786/786 788/788
usemtl Surface_2
f 792/792 790/790 789/789
usemtl Surface_2
f 791/791 790/790 792/792
usemtl Surface_2
f 796/796 794/794 793/793
usemtl Surface_2
f 795/795 794/794 796/796
usemtl Surface_2
f 800/800 798/798 797/797
usemtl Surface_2
f 799/799 798/798 800/800
usemtl Surface_2
f 804/804 802/802 801/801
usemtl Surface_2
f 803/803 802/802 804/804
usemtl Surface_2
f 808/808 806/806 805/805
usemtl Surface_2
f 807/807 806/806 808/808
usemtl Surface_2
f 812/812 810/810 809/809
usemtl Surface_2
f 811/811 810/810 812/812
usemtl Surface_2
f 816/816 814/814 813/813
usemtl Surface_2
f 815/815 814/814 816/816
usemtl Surface_2
f 820/820 818/818 817/817
usemtl Surface_2
f 819/819 818/818 820/820
usemtl Surface_2
f 824/824 822/822 821/821
usemtl Surface_2
f 823/823 822/822 824/824
usemtl Surface_2
f 825/825 827/827 826/826
usemtl Surface_2
f 828/828 830/830 829/829
usemtl Surface_2
f 831/831 833/833 832/832
usemtl Surface_2
f 834/834 836/836 835/835
usemtl Surface_2
f 837/837 839/839 838/838
usemtl Surface_2
f 840/840 842/842 841/841
usemtl Surface_2
f 843/843 845/845 844/844
usemtl Surface_2
f 846/846 848/848 847/847
usemtl Surface_1
f 852/852 850/850 849/849
usemtl Surface_1
f 851/851 850/850 852/852
usemtl Surface_1
f 856/856 854/854 853/853
usemtl Surface_1
f 855/855 854/854 856/856
usemtl Surface_1
f 860/860 858/858 857/857
usemtl Surface_1
f 859/859 858/858 860/860
usemtl Surface_1
f 864/864 862/862 861/861
usemtl Surface_1
f 863/863 862/862 864/864
usemtl Surface_1
f 868/868 866/866 865/865
usemtl Surface_1
f 867/867 866/866 868/868
usemtl Surface_1
f 872/872 870/870 869/869
usemtl Surface_1
f 871/871 870/870 872/872
usemtl Surface_1
f 876/876 874/874 873/873
usemtl Surface_1
f 875/875 874/874 876/876
usemtl Surface_1
f 880/880 878/878 877/877
usemtl Surface_1
f 879/879 878/878 880/880
usemtl Surface_1
f 884/884 882/882 881/881
usemtl Surface_1
f 883/883 882/882 884/884
usemtl Surface_1
f 888/888 886/886 885/885
usemtl Surface_1
f 887/887 886/886 888/888
usemtl Surface_1
f 892/892 890/890 889/889
usemtl Surface_1
f 891/891 890/890 892/892
usemtl Surface_1
f 896/896 894/894 893/893
usemtl Surface_1
f 895/895 894/894 896/896
usemtl Surface_1
f 900/900 898/898 897/897
usemtl Surface_1
f 899/899 898/898 900/900
usemtl Surface_1
f 904/904 902/902 901/901
usemtl Surface_1
f 903/903 902/902 904/904
usemtl Surface_1
f 908/908 906/906 905/905
usemtl Surface_1
f 907/907 906/906 908/908
usemtl Surface_1
f 912/912 910/910 909/909
usemtl Surface_1
f 911/911 910/910 912/912
usemtl Surface_1
f 916/916 914/914 913/913
usemtl Surface_1
f 915/915 914/914 916/916
usemtl Surface_1
f 920/920 918/918 917/917
usemtl Surface_1
f 919/919 918/918 920/920
usemtl Surface_1
f 921/921 923/923 922/922
usemtl Surface_1
f 924/924 926/926 925/925
usemtl Surface_1
f 927/927 929/929 928/928
usemtl Surface_1
f 930/930 932/932 931/931
usemtl Surface_1
f 933/933 935/935 934/934
usemtl Surface_1
f 936/936 938/938 937/937
usemtl Surface_1
f 939/939 941/941 940/940
usemtl Surface_1
f 942/942 944/944 943/943
usemtl Surface_2
f 948/948 946/946 945/945
usemtl Surface_2
f 947/947 946/946 948/948
usemtl Surface_2
f 952/952 950/950 949/949
usemtl Surface_2
f 951/951 950/950 952/952
usemtl Surface_2
f 956/956 954/954 953/953
usemtl Surface_2
f 955/955 954/954 956/956
usemtl Surface_2
f 960/960 958/958 957/957
usemtl Surface_2
f 959/959 958/958 960/960
usemtl Surface_2
f 964/964 962/962 961/961
usemtl Surface_2
f 963/963 962/962 964/964
usemtl Surface_2
f 968/968 966/966 965/965
usemtl Surface_2
f 967/967 966/966 968/968
usemtl Surface_2
f 972/972 970/970 969/969
usemtl Surface_2
f 971/971 970/970 972/972
usemtl Surface_2
f 976/976 974/974 973/973
usemtl Surface_2
f 975/975 974/974 976/976
usemtl Surface_2
f 980/980 978/978 977/977
usemtl Surface_2
f 979/979 978/978 980/980
usemtl Surface_2
f 984/984 982/982 981/981
usemtl Surface_2
f 983/983 982/982 984/984
usemtl Surface_2
f 988/988 986/986 985/985
usemtl Surface_2
f 987/987 986/986 988/988
usemtl Surface_2
f 992/992 990/990 989/989
usemtl Surface_2
f 991/991 990/990 992/992
usemtl Surface_2
f 996/996 994/994 993/993
usemtl Surface_2
f 995/995 994/994 996/996
usemtl Surface_2
f 1000/1000 998/998 997/997
usemtl Surface_2
f 999/999 998/998 1000/1000
usemtl Surface_2
f 1004/1004 1002/1002 1001/1001
usemtl Surface_2
f 1003/1003 1002/1002 1004/1004
usemtl Surface_2
f 1008/1008 1006/1006 1005/1005
usemtl Surface_2
f 1007/1007 1006/1006 1008/1008
usemtl Surface_2
f 1012/1012 1010/1010 1009/1009
usemtl Surface_2
f 1011/1011 1010/1010 1012/1012
usemtl Surface_2
f 1016/1016 1014/1014 1013/1013
usemtl Surface_2
f 1015/1015 1014/1014 1016/1016
usemtl Surface_2
f 1017/1017 1019/1019 1018/1018
usemtl Surface_2
f 1020/1020 1022/1022 1021/1021
usemtl Surface_2
f 1023/1023 1025/1025 1024/1024
usemtl Surface_2
f 1026/1026 1028/1028 1027/1027
usemtl Surface_2
f 1029/1029 1031/1031 1030/1030
usemtl Surface_2
f 1032/1032 1034/1034 1033/1033
usemtl Surface_2
f 1035/1035 1037/1037 1036/1036
usemtl Surface_2
f 1038/1038 1040/1040 1039/1039
