# Null Route authored hard-surface mesh. Centimeters, Z up.
v 5.91161 20.22764 5.00016
v 13.50704 21.49232 5.00017
v 16.68331 22.02120 3.00017
v 16.68331 22.02124 -2.99983
v 13.50704 21.49239 -4.99983
v 5.91161 20.22771 -4.99984
v 2.87343 19.72183 -3.49985
v 2.87343 19.72178 3.50015
v 3.53443 20.44010 3.11516
v 3.53443 20.44015 -3.11484
v 6.23840 20.89038 -4.44984
v 12.99834 22.01595 -4.44983
v 15.82522 22.48662 -2.66982
v 15.82522 22.48658 2.67018
v 12.99834 22.01588 4.45017
v 6.23840 20.89031 4.45016
v 2.87343 19.72178 3.50015
v 2.87343 19.72183 -3.49985
v 2.80774 20.11640 -3.49984
v 2.80774 20.11634 3.50016
v 2.80774 20.11634 3.50016
v 2.80774 20.11640 -3.49984
v 3.53443 20.44015 -3.11484
v 3.53443 20.44010 3.11516
v 2.87343 19.72183 -3.49985
v 5.91161 20.22771 -4.99984
v 5.84591 20.62228 -4.99984
v 2.80774 20.11640 -3.49984
v 2.80774 20.11640 -3.49984
v 5.84591 20.62228 -4.99984
v 6.23840 20.89038 -4.44984
v 3.53443 20.44015 -3.11484
v 5.91161 20.22771 -4.99984
v 13.50704 21.49239 -4.99983
v 13.44134 21.88696 -4.99983
v 5.84591 20.62228 -4.99984
v 5.84591 20.62228 -4.99984
v 13.44134 21.88696 -4.99983
v 12.99834 22.01595 -4.44983
v 6.23840 20.89038 -4.44984
v 13.50704 21.49239 -4.99983
v 16.68331 22.02124 -2.99983
v 16.61761 22.41581 -2.99982
v 13.44134 21.88696 -4.99983
v 13.44134 21.88696 -4.99983
v 16.61761 22.41581 -2.99982
v 15.82522 22.48662 -2.66982
v 12.99834 22.01595 -4.44983
v 16.68331 22.02124 -2.99983
v 16.68331 22.02120 3.00017
v 16.61761 22.41576 3.00018
v 16.61761 22.41581 -2.99982
v 16.61761 22.41581 -2.99982
v 16.61761 22.41576 3.00018
v 15.82522 22.48658 2.67018
v 15.82522 22.48662 -2.66982
v 16.68331 22.02120 3.00017
v 13.50704 21.49232 5.00017
v 13.44134 21.88688 5.00017
v 16.61761 22.41576 3.00018
v 16.61761 22.41576 3.00018
v 13.44134 21.88688 5.00017
v 12.99834 22.01588 4.45017
v 15.82522 22.48658 2.67018
v 13.50704 21.49232 5.00017
v 5.91161 20.22764 5.00016
v 5.84591 20.62220 5.00016
v 13.44134 21.88688 5.00017
v 13.44134 21.88688 5.00017
v 5.84591 20.62220 5.00016
v 6.23840 20.89031 4.45016
v 12.99834 22.01588 4.45017
v 5.91161 20.22764 5.00016
v 2.87343 19.72178 3.50015
v 2.80774 20.11634 3.50016
v 5.84591 20.62220 5.00016
v 5.84591 20.62220 5.00016
v 2.80774 20.11634 3.50016
v 3.53443 20.44010 3.11516
v 6.23840 20.89031 4.45016
v 7.21302 21.13376 -4.15729
v 8.41582 21.33404 -4.41337
v 9.66669 21.54231 -4.49983
v 6.10452 20.94919 -3.74145
v 7.21302 21.13376 -4.15729
v 9.66669 21.54231 -4.49983
v 5.13291 20.78741 -3.18182
v 6.10452 20.94919 -3.74145
v 9.66669 21.54231 -4.49983
v 4.33553 20.65463 -2.49990
v 5.13291 20.78741 -3.18182
v 9.66669 21.54231 -4.49983
v 3.74302 20.55597 -1.72191
v 4.33553 20.65463 -2.49990
v 9.66669 21.54231 -4.49983
v 3.37816 20.49521 -0.87775
v 3.74302 20.55597 -1.72191
v 9.66669 21.54231 -4.49983
v 3.25496 20.47469 0.00016
v 3.37816 20.49521 -0.87775
v 9.66669 21.54231 -4.49983
v 3.37816 20.49520 0.87807
v 3.25496 20.47469 0.00016
v 9.66669 21.54231 -4.49983
v 3.74302 20.55594 1.72224
v 3.37816 20.49520 0.87807
v 9.66669 21.54231 -4.49983
v 4.33553 20.65459 2.50023
v 3.74302 20.55594 1.72224
v 9.66669 21.54231 -4.49983
v 5.13291 20.78736 3.18214
v 4.33553 20.65459 2.50023
v 9.66669 21.54231 -4.49983
v 6.10452 20.94913 3.74178
v 5.13291 20.78736 3.18214
v 9.66669 21.54231 -4.49983
v 7.21303 21.13370 4.15762
v 6.10452 20.94913 3.74178
v 9.66669 21.54231 -4.49983
v 8.41582 21.33397 4.41370
v 7.21303 21.13370 4.15762
v 9.66669 21.54231 -4.49983
v 9.66669 21.54224 4.50017
v 8.41582 21.33397 4.41370
v 9.66669 21.54231 -4.49983
v 10.91755 21.75052 4.41370
v 9.66669 21.54224 4.50017
v 9.66669 21.54231 -4.49983
v 12.12035 21.95079 4.15763
v 10.91755 21.75052 4.41370
v 9.66669 21.54231 -4.49983
v 13.22885 22.13537 3.74179
v 12.12035 21.95079 4.15763
v 9.66669 21.54231 -4.49983
v 14.20046 22.29715 3.18215
v 13.22885 22.13537 3.74179
v 9.66669 21.54231 -4.49983
v 14.99784 22.42992 2.50024
v 14.20046 22.29715 3.18215
v 9.66669 21.54231 -4.49983
v 15.59035 22.52859 1.72225
v 14.99784 22.42992 2.50024
v 9.66669 21.54231 -4.49983
v 15.95521 22.58934 0.87808
v 15.59035 22.52859 1.72225
v 9.66669 21.54231 -4.49983
v 16.07841 22.60986 0.00018
v 15.95521 22.58934 0.87808
v 9.66669 21.54231 -4.49983
v 15.95521 22.58936 -0.87773
v 16.07841 22.60986 0.00018
v 9.66669 21.54231 -4.49983
v 15.59035 22.52861 -1.72190
v 15.95521 22.58936 -0.87773
v 9.66669 21.54231 -4.49983
v 14.99784 22.42996 -2.49989
v 15.59035 22.52861 -1.72190
v 9.66669 21.54231 -4.49983
v 14.20046 22.29720 -3.18181
v 14.99784 22.42996 -2.49989
v 9.66669 21.54231 -4.49983
v 13.22885 22.13543 -3.74144
v 14.20046 22.29720 -3.18181
v 9.66669 21.54231 -4.49983
v 12.12035 21.95086 -4.15729
v 13.22885 22.13543 -3.74144
v 9.66669 21.54231 -4.49983
v 10.91755 21.75059 -4.41336
v 12.12035 21.95086 -4.15729
v 9.66669 21.54231 -4.49983
vt -0.091536 1.050000
vt -0.168536 1.050000
vt -0.200736 1.030000
vt -0.200736 0.970000
vt -0.168536 0.950000
vt -0.091536 0.950000
vt -0.060736 0.965000
vt -0.060736 1.035000
vt 0.068436 1.031150
vt 0.068436 0.968850
vt 0.095848 0.955500
vt 0.164378 0.955500
vt 0.193036 0.973300
vt 0.193036 1.026700
vt 0.164378 1.044500
vt 0.095848 1.044500
vt 0.189820 1.035002
vt 0.189821 0.965001
vt 0.193821 0.965002
vt 0.193820 1.035002
vt 0.179998 1.035001
vt 0.179999 0.965001
vt 0.186858 0.968851
vt 0.186857 1.031151
vt 0.189822 0.930074
vt 0.189822 0.895816
vt 0.193822 0.895816
vt 0.193822 0.930074
vt 0.133375 1.070368
vt 0.161589 1.050936
vt 0.166341 1.055247
vt 0.141231 1.072541
vt 0.059116 1.202277
vt 0.135070 1.214924
vt 0.134413 1.218869
vt 0.058459 1.206222
vt 0.091536 1.101696
vt 0.168536 1.101697
vt 0.164378 1.107000
vt 0.095848 1.107000
vt -0.189819 1.116789
vt -0.189818 1.154695
vt -0.193818 1.154695
vt -0.193819 1.116789
vt 0.058613 1.110235
vt 0.087093 1.135251
vt 0.079349 1.136793
vt 0.054003 1.114529
vt -0.189821 0.970001
vt -0.189820 1.030002
vt -0.193820 1.030002
vt -0.193821 0.970002
vt 0.004890 0.970000
vt 0.004890 1.030000
vt -0.001969 1.026700
vt -0.001969 0.973300
vt -0.189823 0.845311
vt -0.189822 0.883217
vt -0.193822 0.883217
vt -0.193823 0.845311
vt 0.087092 0.864749
vt 0.058613 0.889765
vt 0.054002 0.885470
vt 0.079348 0.863206
vt -0.135070 1.214924
vt -0.059116 1.202277
vt -0.058459 1.206222
vt -0.134413 1.218869
vt 0.168536 0.898304
vt 0.091536 0.898304
vt 0.095848 0.893001
vt 0.164378 0.893001
vt 0.189818 1.104191
vt 0.189819 1.069933
vt 0.193819 1.069933
vt 0.193818 1.104191
vt 0.161590 0.949066
vt 0.133376 0.929633
vt 0.141231 0.927460
vt 0.166342 0.944755
vt 0.655592 0.378368
vt 0.664868 0.436522
vt 0.668000 0.497000
vt 0.640530 0.324773
vt 0.655592 0.378368
vt 0.668000 0.497000
vt 0.620258 0.277797
vt 0.640530 0.324773
vt 0.668000 0.497000
vt 0.595558 0.239244
vt 0.620258 0.277797
vt 0.668000 0.497000
vt 0.567377 0.210597
vt 0.595558 0.239244
vt 0.668000 0.497000
vt 0.536800 0.192957
vt 0.567377 0.210597
vt 0.668000 0.497000
vt 0.505000 0.187000
vt 0.536800 0.192957
vt 0.668000 0.497000
vt 0.473200 0.192957
vt 0.505000 0.187000
vt 0.668000 0.497000
vt 0.442623 0.210597
vt 0.473200 0.192957
vt 0.668000 0.497000
vt 0.414442 0.239244
vt 0.442623 0.210597
vt 0.668000 0.497000
vt 0.389742 0.277797
vt 0.414442 0.239244
vt 0.668000 0.497000
vt 0.369470 0.324773
vt 0.389742 0.277797
vt 0.668000 0.497000
vt 0.354408 0.378368
vt 0.369470 0.324773
vt 0.668000 0.497000
vt 0.345132 0.436522
vt 0.354408 0.378368
vt 0.668000 0.497000
vt 0.342000 0.497000
vt 0.345132 0.436522
vt 0.668000 0.497000
vt 0.345132 0.557478
vt 0.342000 0.497000
vt 0.668000 0.497000
vt 0.354408 0.615632
vt 0.345132 0.557478
vt 0.668000 0.497000
vt 0.369470 0.669227
vt 0.354408 0.615632
vt 0.668000 0.497000
vt 0.389742 0.716203
vt 0.369470 0.669227
vt 0.668000 0.497000
vt 0.414442 0.754756
vt 0.389742 0.716203
vt 0.668000 0.497000
vt 0.442623 0.783403
vt 0.414442 0.754756
vt 0.668000 0.497000
vt 0.473200 0.801043
vt 0.442623 0.783403
vt 0.668000 0.497000
vt 0.505000 0.807000
vt 0.473200 0.801043
vt 0.668000 0.497000
vt 0.536800 0.801043
vt 0.505000 0.807000
vt 0.668000 0.497000
vt 0.567377 0.783403
vt 0.536800 0.801043
vt 0.668000 0.497000
vt 0.595558 0.754756
vt 0.567377 0.783403
vt 0.668000 0.497000
vt 0.620258 0.716203
vt 0.595558 0.754756
vt 0.668000 0.497000
vt 0.640530 0.669227
vt 0.620258 0.716203
vt 0.668000 0.497000
vt 0.655592 0.615632
vt 0.640530 0.669227
vt 0.668000 0.497000
vt 0.664868 0.557478
vt 0.655592 0.615632
vt 0.668000 0.497000
usemtl Surface_2
f 8/8 2/2 1/1
usemtl Surface_2
f 7/7 2/2 8/8
usemtl Surface_2
f 6/6 2/2 7/7
usemtl Surface_2
f 5/5 2/2 6/6
usemtl Surface_2
f 4/4 2/2 5/5
usemtl Surface_2
f 3/3 2/2 4/4
usemtl Surface_2
f 16/16 10/10 9/9
usemtl Surface_2
f 15/15 10/10 16/16
usemtl Surface_2
f 14/14 10/10 15/15
usemtl Surface_2
f 13/13 10/10 14/14
usemtl Surface_2
f 12/12 10/10 13/13
usemtl Surface_2
f 11/11 10/10 12/12
usemtl Surface_2
f 20/20 18/18 17/17
usemtl Surface_2
f 19/19 18/18 20/20
usemtl Surface_1
f 24/24 22/22 21/21
usemtl Surface_1
f 23/23 22/22 24/24
usemtl Surface_2
f 28/28 26/26 25/25
usemtl Surface_2
f 27/27 26/26 28/28
usemtl Surface_1
f 32/32 30/30 29/29
usemtl Surface_1
f 31/31 30/30 32/32
usemtl Surface_2
f 36/36 34/34 33/33
usemtl Surface_2
f 35/35 34/34 36/36
usemtl Surface_1
f 40/40 38/38 37/37
usemtl Surface_1
f 39/39 38/38 40/40
usemtl Surface_2
f 44/44 42/42 41/41
usemtl Surface_2
f 43/43 42/42 44/44
usemtl Surface_1
f 48/48 46/46 45/45
usemtl Surface_1
f 47/47 46/46 48/48
usemtl Surface_2
f 52/52 50/50 49/49
usemtl Surface_2
f 51/51 50/50 52/52
usemtl Surface_1
f 56/56 54/54 53/53
usemtl Surface_1
f 55/55 54/54 56/56
usemtl Surface_2
f 60/60 58/58 57/57
usemtl Surface_2
f 59/59 58/58 60/60
usemtl Surface_1
f 64/64 62/62 61/61
usemtl Surface_1
f 63/63 62/62 64/64
usemtl Surface_2
f 68/68 66/66 65/65
usemtl Surface_2
f 67/67 66/66 68/68
usemtl Surface_1
f 72/72 70/70 69/69
usemtl Surface_1
f 71/71 70/70 72/72
usemtl Surface_2
f 76/76 74/74 73/73
usemtl Surface_2
f 75/75 74/74 76/76
usemtl Surface_1
f 80/80 78/78 77/77
usemtl Surface_1
f 79/79 78/78 80/80
usemtl Surface_5
f 81/81 83/83 82/82
usemtl Surface_5
f 84/84 86/86 85/85
usemtl Surface_5
f 87/87 89/89 88/88
usemtl Surface_5
f 90/90 92/92 91/91
usemtl Surface_5
f 93/93 95/95 94/94
usemtl Surface_5
f 96/96 98/98 97/97
usemtl Surface_5
f 99/99 101/101 100/100
usemtl Surface_5
f 102/102 104/104 103/103
usemtl Surface_5
f 105/105 107/107 106/106
usemtl Surface_5
f 108/108 110/110 109/109
usemtl Surface_5
f 111/111 113/113 112/112
usemtl Surface_5
f 114/114 116/116 115/115
usemtl Surface_5
f 117/117 119/119 118/118
usemtl Surface_5
f 120/120 122/122 121/121
usemtl Surface_5
f 123/123 125/125 124/124
usemtl Surface_5
f 126/126 128/128 127/127
usemtl Surface_5
f 129/129 131/131 130/130
usemtl Surface_5
f 132/132 134/134 133/133
usemtl Surface_5
f 135/135 137/137 136/136
usemtl Surface_5
f 138/138 140/140 139/139
usemtl Surface_5
f 141/141 143/143 142/142
usemtl Surface_5
f 144/144 146/146 145/145
usemtl Surface_5
f 147/147 149/149 148/148
usemtl Surface_5
f 150/150 152/152 151/151
usemtl Surface_5
f 153/153 155/155 154/154
usemtl Surface_5
f 156/156 158/158 157/157
usemtl Surface_5
f 159/159 161/161 160/160
usemtl Surface_5
f 162/162 164/164 163/163
usemtl Surface_5
f 165/165 167/167 166/166
usemtl Surface_5
f 168/168 170/170 169/169
