# Null Route authored hard-surface mesh. Centimeters, Z up.
v 1.68564 16.24613 4.30006
v 8.71103 17.78522 4.04213
v 10.75068 18.23206 2.40815
v 10.75072 18.23207 -2.40785
v 8.71111 17.78524 -4.04187
v 1.68572 16.24615 -4.29994
v -0.58054 15.74966 -2.75196
v -0.58060 15.74965 2.75204
v -0.04298 16.27691 2.44932
v -0.04293 16.27693 -2.44924
v 1.97405 16.71880 -3.82694
v 8.22664 18.08859 -3.59725
v 10.04190 18.48627 -2.14297
v 10.04186 18.48626 2.14327
v 8.22657 18.08857 3.59751
v 1.97398 16.71878 3.82706
v -0.58060 15.74965 2.75204
v -0.58054 15.74966 -2.75196
v -0.63404 15.99387 -2.75196
v -0.63410 15.99386 2.75204
v -0.63410 15.99386 2.75204
v -0.63404 15.99387 -2.75196
v -0.04293 16.27693 -2.44924
v -0.04298 16.27691 2.44932
v -0.58054 15.74966 -2.75196
v 1.68572 16.24615 -4.29994
v 1.63222 16.49036 -4.29994
v -0.63404 15.99387 -2.75196
v -0.63404 15.99387 -2.75196
v 1.63222 16.49036 -4.29994
v 1.97405 16.71880 -3.82694
v -0.04293 16.27693 -2.44924
v 1.68572 16.24615 -4.29994
v 8.71111 17.78524 -4.04187
v 8.65761 18.02945 -4.04187
v 1.63222 16.49036 -4.29994
v 1.63222 16.49036 -4.29994
v 8.65761 18.02945 -4.04187
v 8.22664 18.08859 -3.59725
v 1.97405 16.71880 -3.82694
v 8.71111 17.78524 -4.04187
v 10.75072 18.23207 -2.40785
v 10.69722 18.47628 -2.40785
v 8.65761 18.02945 -4.04187
v 8.65761 18.02945 -4.04187
v 10.69722 18.47628 -2.40785
v 10.04190 18.48627 -2.14297
v 8.22664 18.08859 -3.59725
v 10.75072 18.23207 -2.40785
v 10.75068 18.23206 2.40815
v 10.69718 18.47626 2.40815
v 10.69722 18.47628 -2.40785
v 10.69722 18.47628 -2.40785
v 10.69718 18.47626 2.40815
v 10.04186 18.48626 2.14327
v 10.04190 18.48627 -2.14297
v 10.75068 18.23206 2.40815
v 8.71103 17.78522 4.04213
v 8.65753 18.02943 4.04213
v 10.69718 18.47626 2.40815
v 10.69718 18.47626 2.40815
v 8.65753 18.02943 4.04213
v 8.22657 18.08857 3.59751
v 10.04186 18.48626 2.14327
v 8.71103 17.78522 4.04213
v 1.68564 16.24613 4.30006
v 1.63214 16.49033 4.30006
v 8.65753 18.02943 4.04213
v 8.65753 18.02943 4.04213
v 1.63214 16.49033 4.30006
v 1.97398 16.71878 3.82706
v 8.22657 18.08857 3.59751
v 1.68564 16.24613 4.30006
v -0.58060 15.74965 2.75204
v -0.63410 15.99386 2.75204
v 1.63214 16.49033 4.30006
v 1.63214 16.49033 4.30006
v -0.63410 15.99386 2.75204
v -0.04298 16.27691 2.44932
v 1.97398 16.71878 3.82706
v 2.93066 16.98979 -3.69544
v 3.93852 17.21059 -3.92306
v 4.98666 17.44021 -3.99990
v 2.00181 16.78630 -3.32581
v 2.93066 16.98979 -3.69544
v 4.98666 17.44021 -3.99990
v 1.18766 16.60794 -2.82837
v 2.00181 16.78630 -3.32581
v 4.98666 17.44021 -3.99990
v 0.51950 16.46157 -2.22223
v 1.18766 16.60794 -2.82837
v 4.98666 17.44021 -3.99990
v 0.02302 16.35280 -1.53069
v 0.51950 16.46157 -2.22223
v 4.98666 17.44021 -3.99990
v -0.28272 16.28582 -0.78032
v 0.02302 16.35280 -1.53069
v 4.98666 17.44021 -3.99990
v -0.38596 16.26320 0.00004
v -0.28272 16.28582 -0.78032
v 4.98666 17.44021 -3.99990
v -0.28274 16.28581 0.78040
v -0.38596 16.26320 0.00004
v 4.98666 17.44021 -3.99990
v 0.02299 16.35279 1.53078
v -0.28274 16.28581 0.78040
v 4.98666 17.44021 -3.99990
v 0.51946 16.46156 2.22233
v 0.02299 16.35279 1.53078
v 4.98666 17.44021 -3.99990
v 1.18761 16.60793 2.82848
v 0.51946 16.46156 2.22233
v 4.98666 17.44021 -3.99990
v 2.00174 16.78629 3.32594
v 1.18761 16.60793 2.82848
v 4.98666 17.44021 -3.99990
v 2.93059 16.98977 3.69559
v 2.00174 16.78629 3.32594
v 4.98666 17.44021 -3.99990
v 3.93845 17.21057 3.92323
v 2.93059 16.98977 3.69559
v 4.98666 17.44021 -3.99990
v 4.98659 17.44019 4.00010
v 3.93845 17.21057 3.92323
v 4.98666 17.44021 -3.99990
v 6.03473 17.66982 3.92325
v 4.98659 17.44019 4.00010
v 4.98666 17.44021 -3.99990
v 7.04259 17.89061 3.69563
v 6.03473 17.66982 3.92325
v 4.98666 17.44021 -3.99990
v 7.97144 18.09410 3.32600
v 7.04259 17.89061 3.69563
v 4.98666 17.44021 -3.99990
v 8.78559 18.27246 2.82856
v 7.97144 18.09410 3.32600
v 4.98666 17.44021 -3.99990
v 9.45374 18.41884 2.22242
v 8.78559 18.27246 2.82856
v 4.98666 17.44021 -3.99990
v 9.95023 18.52761 1.53088
v 9.45374 18.41884 2.22242
v 4.98666 17.44021 -3.99990
v 10.25597 18.59459 0.78051
v 9.95023 18.52761 1.53088
v 4.98666 17.44021 -3.99990
v 10.35921 18.61721 0.00015
v 10.25597 18.59459 0.78051
v 4.98666 17.44021 -3.99990
v 10.25598 18.59459 -0.78021
v 10.35921 18.61721 0.00015
v 4.98666 17.44021 -3.99990
v 9.95026 18.52762 -1.53059
v 10.25598 18.59459 -0.78021
v 4.98666 17.44021 -3.99990
v 9.45378 18.41885 -2.22214
v 9.95026 18.52762 -1.53059
v 4.98666 17.44021 -3.99990
v 8.78564 18.27248 -2.82829
v 9.45378 18.41885 -2.22214
v 4.98666 17.44021 -3.99990
v 7.97150 18.09412 -3.32575
v 8.78564 18.27248 -2.82829
v 4.98666 17.44021 -3.99990
v 7.04266 17.89063 -3.69540
v 7.97150 18.09412 -3.32575
v 4.98666 17.44021 -3.99990
v 6.03480 17.66984 -3.92304
v 7.04266 17.89063 -3.69540
v 4.98666 17.44021 -3.99990
vt -0.051233 1.043000
vt -0.123153 1.040421
vt -0.144033 1.024081
vt -0.144033 0.975921
vt -0.123154 0.959581
vt -0.051234 0.957000
vt -0.028033 0.972480
vt -0.028033 1.027520
vt 0.034413 1.024493
vt 0.034413 0.975508
vt 0.055062 0.961731
vt 0.119070 0.964027
vt 0.137653 0.978570
vt 0.137653 1.021433
vt 0.119070 1.035975
vt 0.055061 1.038271
vt 0.155090 1.027520
vt 0.155090 0.972480
vt 0.157590 0.972480
vt 0.157590 1.027520
vt 0.131255 1.027521
vt 0.131256 0.972481
vt 0.136828 0.975508
vt 0.136827 1.024494
vt 0.155090 0.961407
vt 0.155090 0.933517
vt 0.157590 0.933517
vt 0.157590 0.961407
vt 0.100988 1.050790
vt 0.121273 1.031649
vt 0.125348 1.035153
vt 0.107294 1.052188
vt 0.015341 1.162122
vt 0.085642 1.177514
vt 0.085107 1.179956
vt 0.014806 1.164564
vt 0.045553 1.082163
vt 0.117427 1.085810
vt 0.113293 1.089912
vt 0.049325 1.086666
vt -0.155090 1.072075
vt -0.155090 1.098589
vt -0.157590 1.098589
vt -0.157590 1.072075
vt 0.022161 1.077116
vt 0.039936 1.096788
vt 0.033718 1.097835
vt 0.017898 1.080327
vt -0.155090 0.975920
vt -0.155090 1.024080
vt -0.157590 1.024080
vt -0.157590 0.975920
vt -0.009586 0.975920
vt -0.009587 1.024080
vt -0.015159 1.021431
vt -0.015158 0.978569
vt -0.155090 0.901411
vt -0.155090 0.927925
vt -0.157590 0.927925
vt -0.157590 0.901411
vt 0.039938 0.903213
vt 0.022162 0.922885
vt 0.017899 0.919674
vt 0.033720 0.902165
vt -0.085642 1.177514
vt -0.015341 1.162122
vt -0.014806 1.164564
vt -0.085107 1.179956
vt 0.117429 0.914193
vt 0.045555 0.917839
vt 0.049327 0.913336
vt 0.113295 0.910091
vt 0.155090 1.066484
vt 0.155090 1.038593
vt 0.157590 1.038593
vt 0.157590 1.066484
vt 0.121274 0.968354
vt 0.100989 0.949212
vt 0.107295 0.947814
vt 0.125349 0.964850
vt 0.655592 0.378368
vt 0.664868 0.436522
vt 0.668000 0.497000
vt 0.640530 0.324773
vt 0.655592 0.378368
vt 0.668000 0.497000
vt 0.620258 0.277797
vt 0.640530 0.324773
vt 0.668000 0.497000
vt 0.595558 0.239244
vt 0.620258 0.277797
vt 0.668000 0.497000
vt 0.567377 0.210597
vt 0.595558 0.239244
vt 0.668000 0.497000
vt 0.536800 0.192957
vt 0.567377 0.210597
vt 0.668000 0.497000
vt 0.505000 0.187000
vt 0.536800 0.192957
vt 0.668000 0.497000
vt 0.473200 0.192957
vt 0.505000 0.187000
vt 0.668000 0.497000
vt 0.442623 0.210597
vt 0.473200 0.192957
vt 0.668000 0.497000
vt 0.414442 0.239244
vt 0.442623 0.210597
vt 0.668000 0.497000
vt 0.389742 0.277797
vt 0.414442 0.239244
vt 0.668000 0.497000
vt 0.369470 0.324773
vt 0.389742 0.277797
vt 0.668000 0.497000
vt 0.354408 0.378368
vt 0.369470 0.324773
vt 0.668000 0.497000
vt 0.345132 0.436522
vt 0.354408 0.378368
vt 0.668000 0.497000
vt 0.342000 0.497000
vt 0.345132 0.436522
vt 0.668000 0.497000
vt 0.345132 0.557478
vt 0.342000 0.497000
vt 0.668000 0.497000
vt 0.354408 0.615632
vt 0.345132 0.557478
vt 0.668000 0.497000
vt 0.369470 0.669227
vt 0.354408 0.615632
vt 0.668000 0.497000
vt 0.389742 0.716203
vt 0.369470 0.669227
vt 0.668000 0.497000
vt 0.414442 0.754756
vt 0.389742 0.716203
vt 0.668000 0.497000
vt 0.442623 0.783403
vt 0.414442 0.754756
vt 0.668000 0.497000
vt 0.473200 0.801043
vt 0.442623 0.783403
vt 0.668000 0.497000
vt 0.505000 0.807000
vt 0.473200 0.801043
vt 0.668000 0.497000
vt 0.536800 0.801043
vt 0.505000 0.807000
vt 0.668000 0.497000
vt 0.567377 0.783403
vt 0.536800 0.801043
vt 0.668000 0.497000
vt 0.595558 0.754756
vt 0.567377 0.783403
vt 0.668000 0.497000
vt 0.620258 0.716203
vt 0.595558 0.754756
vt 0.668000 0.497000
vt 0.640530 0.669227
vt 0.620258 0.716203
vt 0.668000 0.497000
vt 0.655592 0.615632
vt 0.640530 0.669227
vt 0.668000 0.497000
vt 0.664868 0.557478
vt 0.655592 0.615632
vt 0.668000 0.497000
usemtl Surface_2
f 8/8 2/2 1/1
usemtl Surface_2
f 7/7 2/2 8/8
usemtl Surface_2
f 6/6 2/2 7/7
usemtl Surface_2
f 5/5 2/2 6/6
usemtl Surface_2
f 4/4 2/2 5/5
usemtl Surface_2
f 3/3 2/2 4/4
usemtl Surface_2
f 16/16 10/10 9/9
usemtl Surface_2
f 15/15 10/10 16/16
usemtl Surface_2
f 14/14 10/10 15/15
usemtl Surface_2
f 13/13 10/10 14/14
usemtl Surface_2
f 12/12 10/10 13/13
usemtl Surface_2
f 11/11 10/10 12/12
usemtl Surface_2
f 20/20 18/18 17/17
usemtl Surface_2
f 19/19 18/18 20/20
usemtl Surface_2
f 24/24 22/22 21/21
usemtl Surface_2
f 23/23 22/22 24/24
usemtl Surface_2
f 28/28 26/26 25/25
usemtl Surface_2
f 27/27 26/26 28/28
usemtl Surface_2
f 32/32 30/30 29/29
usemtl Surface_2
f 31/31 30/30 32/32
usemtl Surface_2
f 36/36 34/34 33/33
usemtl Surface_2
f 35/35 34/34 36/36
usemtl Surface_2
f 40/40 38/38 37/37
usemtl Surface_2
f 39/39 38/38 40/40
usemtl Surface_2
f 44/44 42/42 41/41
usemtl Surface_2
f 43/43 42/42 44/44
usemtl Surface_2
f 48/48 46/46 45/45
usemtl Surface_2
f 47/47 46/46 48/48
usemtl Surface_2
f 52/52 50/50 49/49
usemtl Surface_2
f 51/51 50/50 52/52
usemtl Surface_2
f 56/56 54/54 53/53
usemtl Surface_2
f 55/55 54/54 56/56
usemtl Surface_2
f 60/60 58/58 57/57
usemtl Surface_2
f 59/59 58/58 60/60
usemtl Surface_2
f 64/64 62/62 61/61
usemtl Surface_2
f 63/63 62/62 64/64
usemtl Surface_2
f 68/68 66/66 65/65
usemtl Surface_2
f 67/67 66/66 68/68
usemtl Surface_2
f 72/72 70/70 69/69
usemtl Surface_2
f 71/71 70/70 72/72
usemtl Surface_2
f 76/76 74/74 73/73
usemtl Surface_2
f 75/75 74/74 76/76
usemtl Surface_2
f 80/80 78/78 77/77
usemtl Surface_2
f 79/79 78/78 80/80
usemtl Surface_5
f 81/81 83/83 82/82
usemtl Surface_5
f 84/84 86/86 85/85
usemtl Surface_5
f 87/87 89/89 88/88
usemtl Surface_5
f 90/90 92/92 91/91
usemtl Surface_5
f 93/93 95/95 94/94
usemtl Surface_5
f 96/96 98/98 97/97
usemtl Surface_5
f 99/99 101/101 100/100
usemtl Surface_5
f 102/102 104/104 103/103
usemtl Surface_5
f 105/105 107/107 106/106
usemtl Surface_5
f 108/108 110/110 109/109
usemtl Surface_5
f 111/111 113/113 112/112
usemtl Surface_5
f 114/114 116/116 115/115
usemtl Surface_5
f 117/117 119/119 118/118
usemtl Surface_5
f 120/120 122/122 121/121
usemtl Surface_5
f 123/123 125/125 124/124
usemtl Surface_5
f 126/126 128/128 127/127
usemtl Surface_5
f 129/129 131/131 130/130
usemtl Surface_5
f 132/132 134/134 133/133
usemtl Surface_5
f 135/135 137/137 136/136
usemtl Surface_5
f 138/138 140/140 139/139
usemtl Surface_5
f 141/141 143/143 142/142
usemtl Surface_5
f 144/144 146/146 145/145
usemtl Surface_5
f 147/147 149/149 148/148
usemtl Surface_5
f 150/150 152/152 151/151
usemtl Surface_5
f 153/153 155/155 154/154
usemtl Surface_5
f 156/156 158/158 157/157
usemtl Surface_5
f 159/159 161/161 160/160
usemtl Surface_5
f 162/162 164/164 163/163
usemtl Surface_5
f 165/165 167/167 166/166
usemtl Surface_5
f 168/168 170/170 169/169
