# Null Route authored hard-surface mesh. Centimeters, Z up.
v 1.94354 3.88419 2.20866
v 5.97719 3.87212 2.08815
v 7.21487 2.60960 2.19767
v 7.42065 -1.27946 2.64406
v 6.32261 -2.65595 2.83744
v 2.31100 -3.06056 3.00579
v 0.94724 -1.87381 2.90889
v 0.71207 2.57083 2.39873
v 1.05184 2.22823 1.42113
v 1.26114 -1.72750 1.87517
v 2.47489 -2.78370 1.96141
v 6.04522 -2.42360 1.81158
v 7.02248 -1.19852 1.63947
v 6.83933 2.26274 1.24218
v 5.73780 3.38638 1.14471
v 2.14785 3.39713 1.25197
v 0.71207 2.57083 2.39873
v 0.94724 -1.87381 2.90889
v 0.92623 -1.95470 2.21390
v 0.69106 2.48994 1.70374
v 0.69106 2.48994 1.70374
v 0.92623 -1.95470 2.21390
v 1.26114 -1.72750 1.87517
v 1.05184 2.22823 1.42113
v 0.94724 -1.87381 2.90889
v 2.31100 -3.06056 3.00579
v 2.29000 -3.14144 2.31079
v 0.92623 -1.95470 2.21390
v 0.92623 -1.95470 2.21390
v 2.29000 -3.14144 2.31079
v 2.47489 -2.78370 1.96141
v 1.26114 -1.72750 1.87517
v 2.31100 -3.06056 3.00579
v 6.32261 -2.65595 2.83744
v 6.30160 -2.73683 2.14245
v 2.29000 -3.14144 2.31079
v 2.29000 -3.14144 2.31079
v 6.30160 -2.73683 2.14245
v 6.04522 -2.42360 1.81158
v 2.47489 -2.78370 1.96141
v 6.32261 -2.65595 2.83744
v 7.42065 -1.27946 2.64406
v 7.39964 -1.36035 1.94907
v 6.30160 -2.73683 2.14245
v 6.30160 -2.73683 2.14245
v 7.39964 -1.36035 1.94907
v 7.02248 -1.19852 1.63947
v 6.04522 -2.42360 1.81158
v 7.42065 -1.27946 2.64406
v 7.21487 2.60960 2.19767
v 7.19386 2.52871 1.50268
v 7.39964 -1.36035 1.94907
v 7.39964 -1.36035 1.94907
v 7.19386 2.52871 1.50268
v 6.83933 2.26274 1.24218
v 7.02248 -1.19852 1.63947
v 7.21487 2.60960 2.19767
v 5.97719 3.87212 2.08815
v 5.95619 3.79123 1.39315
v 7.19386 2.52871 1.50268
v 7.19386 2.52871 1.50268
v 5.95619 3.79123 1.39315
v 5.73780 3.38638 1.14471
v 6.83933 2.26274 1.24218
v 5.97719 3.87212 2.08815
v 1.94354 3.88419 2.20866
v 1.92254 3.80331 1.51367
v 5.95619 3.79123 1.39315
v 5.95619 3.79123 1.39315
v 1.92254 3.80331 1.51367
v 2.14785 3.39713 1.25197
v 5.73780 3.38638 1.14471
v 1.94354 3.88419 2.20866
v 0.71207 2.57083 2.39873
v 0.69106 2.48994 1.70374
v 1.92254 3.80331 1.51367
v 1.92254 3.80331 1.51367
v 0.69106 2.48994 1.70374
v 1.05184 2.22823 1.42113
v 2.14785 3.39713 1.25197
v 6.36418 3.76110 2.39153
v 6.35218 3.71488 1.99439
v 7.45016 3.76846 1.95497
v 7.46217 3.81468 2.35211
v 7.52779 2.57454 2.49445
v 7.51578 2.52832 2.09731
v 6.41780 2.47475 2.13673
v 6.42980 2.52097 2.53387
v 6.39718 3.41048 2.83422
v 7.49517 3.46405 2.79480
v 7.51879 3.01760 2.84604
v 6.42081 2.96403 2.88546
v 6.38479 2.82537 1.69404
v 7.48278 2.87895 1.65462
v 7.45916 3.32539 1.60338
v 6.36117 3.27182 1.64280
v 5.98591 3.34478 2.45141
v 6.00953 2.89833 2.50266
v 5.99753 2.85211 2.10552
v 5.97391 3.29856 2.05428
v 7.87043 3.39109 1.98618
v 7.89405 2.94465 2.03743
v 7.90606 2.99087 2.43457
v 7.88243 3.43731 2.38332
v 6.39718 3.41048 2.83422
v 6.42081 2.96403 2.88546
v 6.00953 2.89833 2.50266
v 5.98591 3.34478 2.45141
v 7.88243 3.43731 2.38332
v 7.90606 2.99087 2.43457
v 7.51879 3.01760 2.84604
v 7.49517 3.46405 2.79480
v 5.97391 3.29856 2.05428
v 5.99753 2.85211 2.10552
v 6.38479 2.82537 1.69404
v 6.36117 3.27182 1.64280
v 7.45916 3.32539 1.60338
v 7.48278 2.87895 1.65462
v 7.89405 2.94465 2.03743
v 7.87043 3.39109 1.98618
v 5.98591 3.34478 2.45141
v 5.97391 3.29856 2.05428
v 6.35218 3.71488 1.99439
v 6.36418 3.76110 2.39153
v 6.42980 2.52097 2.53387
v 6.41780 2.47475 2.13673
v 5.99753 2.85211 2.10552
v 6.00953 2.89833 2.50266
v 7.46217 3.81468 2.35211
v 7.45016 3.76846 1.95497
v 7.87043 3.39109 1.98618
v 7.88243 3.43731 2.38332
v 7.90606 2.99087 2.43457
v 7.89405 2.94465 2.03743
v 7.51578 2.52832 2.09731
v 7.52779 2.57454 2.49445
v 6.36418 3.76110 2.39153
v 7.46217 3.81468 2.35211
v 7.49517 3.46405 2.79480
v 6.39718 3.41048 2.83422
v 6.36117 3.27182 1.64280
v 7.45916 3.32539 1.60338
v 7.45016 3.76846 1.95497
v 6.35218 3.71488 1.99439
v 6.42081 2.96403 2.88546
v 7.51879 3.01760 2.84604
v 7.52779 2.57454 2.49445
v 6.42980 2.52097 2.53387
v 6.41780 2.47475 2.13673
v 7.51578 2.52832 2.09731
v 7.48278 2.87895 1.65462
v 6.38479 2.82537 1.69404
v 6.36418 3.76110 2.39153
v 6.39718 3.41048 2.83422
v 5.98591 3.34478 2.45141
v 7.88243 3.43731 2.38332
v 7.49517 3.46405 2.79480
v 7.46217 3.81468 2.35211
v 5.97391 3.29856 2.05428
v 6.36117 3.27182 1.64280
v 6.35218 3.71488 1.99439
v 7.45016 3.76846 1.95497
v 7.45916 3.32539 1.60338
v 7.87043 3.39109 1.98618
v 6.00953 2.89833 2.50266
v 6.42081 2.96403 2.88546
v 6.42980 2.52097 2.53387
v 7.52779 2.57454 2.49445
v 7.51879 3.01760 2.84604
v 7.90606 2.99087 2.43457
v 6.41780 2.47475 2.13673
v 6.38479 2.82537 1.69404
v 5.99753 2.85211 2.10552
v 7.89405 2.94465 2.03743
v 7.48278 2.87895 1.65462
v 7.51578 2.52832 2.09731
v 6.45080 2.12413 2.57942
v 6.43879 2.07791 2.18228
v 7.53678 2.13148 2.14286
v 7.54878 2.17770 2.54000
v 7.61440 0.93756 2.68235
v 7.60240 0.89135 2.28521
v 6.50441 0.83777 2.32463
v 6.51642 0.88399 2.72177
v 6.48380 1.77350 3.02211
v 7.58179 1.82708 2.98269
v 7.60541 1.38063 3.03393
v 6.50742 1.32706 3.07336
v 6.47141 1.18840 1.88194
v 7.56940 1.24197 1.84252
v 7.54577 1.68842 1.79127
v 6.44779 1.63485 1.83069
v 6.07253 1.70780 2.63931
v 6.09615 1.26136 2.69055
v 6.08415 1.21514 2.29341
v 6.06052 1.66158 2.24217
v 7.95705 1.75412 2.17408
v 7.98067 1.30767 2.22532
v 7.99267 1.35389 2.62246
v 7.96905 1.80034 2.57122
v 6.48380 1.77350 3.02211
v 6.50742 1.32706 3.07336
v 6.09615 1.26136 2.69055
v 6.07253 1.70780 2.63931
v 7.96905 1.80034 2.57122
v 7.99267 1.35389 2.62246
v 7.60541 1.38063 3.03393
v 7.58179 1.82708 2.98269
v 6.06052 1.66158 2.24217
v 6.08415 1.21514 2.29341
v 6.47141 1.18840 1.88194
v 6.44779 1.63485 1.83069
v 7.54577 1.68842 1.79127
v 7.56940 1.24197 1.84252
v 7.98067 1.30767 2.22532
v 7.95705 1.75412 2.17408
v 6.07253 1.70780 2.63931
v 6.06052 1.66158 2.24217
v 6.43879 2.07791 2.18228
v 6.45080 2.12413 2.57942
v 6.51642 0.88399 2.72177
v 6.50441 0.83777 2.32463
v 6.08415 1.21514 2.29341
v 6.09615 1.26136 2.69055
v 7.54878 2.17770 2.54000
v 7.53678 2.13148 2.14286
v 7.95705 1.75412 2.17408
v 7.96905 1.80034 2.57122
v 7.99267 1.35389 2.62246
v 7.98067 1.30767 2.22532
v 7.60240 0.89135 2.28521
v 7.61440 0.93756 2.68235
v 6.45080 2.12413 2.57942
v 7.54878 2.17770 2.54000
v 7.58179 1.82708 2.98269
v 6.48380 1.77350 3.02211
v 6.44779 1.63485 1.83069
v 7.54577 1.68842 1.79127
v 7.53678 2.13148 2.14286
v 6.43879 2.07791 2.18228
v 6.50742 1.32706 3.07336
v 7.60541 1.38063 3.03393
v 7.61440 0.93756 2.68235
v 6.51642 0.88399 2.72177
v 6.50441 0.83777 2.32463
v 7.60240 0.89135 2.28521
v 7.56940 1.24197 1.84252
v 6.47141 1.18840 1.88194
v 6.45080 2.12413 2.57942
v 6.48380 1.77350 3.02211
v 6.07253 1.70780 2.63931
v 7.96905 1.80034 2.57122
v 7.58179 1.82708 2.98269
v 7.54878 2.17770 2.54000
v 6.06052 1.66158 2.24217
v 6.44779 1.63485 1.83069
v 6.43879 2.07791 2.18228
v 7.53678 2.13148 2.14286
v 7.54577 1.68842 1.79127
v 7.95705 1.75412 2.17408
v 6.09615 1.26136 2.69055
v 6.50742 1.32706 3.07336
v 6.51642 0.88399 2.72177
v 7.61440 0.93756 2.68235
v 7.60541 1.38063 3.03393
v 7.99267 1.35389 2.62246
v 6.50441 0.83777 2.32463
v 6.47141 1.18840 1.88194
v 6.08415 1.21514 2.29341
v 7.98067 1.30767 2.22532
v 7.56940 1.24197 1.84252
v 7.60240 0.89135 2.28521
v 6.53741 0.48715 2.76732
v 6.52541 0.44093 2.37018
v 7.62340 0.49450 2.33076
v 7.63540 0.54072 2.72790
v 7.70102 -0.69941 2.87024
v 7.68901 -0.74563 2.47310
v 6.59103 -0.79920 2.51252
v 6.60303 -0.75298 2.90966
v 6.57041 0.13653 3.21001
v 7.66840 0.19010 3.17058
v 7.69202 -0.25635 3.22183
v 6.59404 -0.30992 3.26125
v 6.55803 -0.44858 2.06983
v 7.65601 -0.39501 2.03041
v 7.63239 0.05144 1.97917
v 6.53440 -0.00213 2.01859
v 6.15914 0.07083 2.82720
v 6.18276 -0.37562 2.87845
v 6.17076 -0.42184 2.48131
v 6.14714 0.02461 2.43006
v 8.04366 0.11714 2.36197
v 8.06728 -0.32931 2.41321
v 8.07929 -0.28309 2.81035
v 8.05567 0.16336 2.75911
v 6.57041 0.13653 3.21001
v 6.59404 -0.30992 3.26125
v 6.18276 -0.37562 2.87845
v 6.15914 0.07083 2.82720
v 8.05567 0.16336 2.75911
v 8.07929 -0.28309 2.81035
v 7.69202 -0.25635 3.22183
v 7.66840 0.19010 3.17058
v 6.14714 0.02461 2.43006
v 6.17076 -0.42184 2.48131
v 6.55803 -0.44858 2.06983
v 6.53440 -0.00213 2.01859
v 7.63239 0.05144 1.97917
v 7.65601 -0.39501 2.03041
v 8.06728 -0.32931 2.41321
v 8.04366 0.11714 2.36197
v 6.15914 0.07083 2.82720
v 6.14714 0.02461 2.43006
v 6.52541 0.44093 2.37018
v 6.53741 0.48715 2.76732
v 6.60303 -0.75298 2.90966
v 6.59103 -0.79920 2.51252
v 6.17076 -0.42184 2.48131
v 6.18276 -0.37562 2.87845
v 7.63540 0.54072 2.72790
v 7.62340 0.49450 2.33076
v 8.04366 0.11714 2.36197
v 8.05567 0.16336 2.75911
v 8.07929 -0.28309 2.81035
v 8.06728 -0.32931 2.41321
v 7.68901 -0.74563 2.47310
v 7.70102 -0.69941 2.87024
v 6.53741 0.48715 2.76732
v 7.63540 0.54072 2.72790
v 7.66840 0.19010 3.17058
v 6.57041 0.13653 3.21001
v 6.53440 -0.00213 2.01859
v 7.63239 0.05144 1.97917
v 7.62340 0.49450 2.33076
v 6.52541 0.44093 2.37018
v 6.59404 -0.30992 3.26125
v 7.69202 -0.25635 3.22183
v 7.70102 -0.69941 2.87024
v 6.60303 -0.75298 2.90966
v 6.59103 -0.79920 2.51252
v 7.68901 -0.74563 2.47310
v 7.65601 -0.39501 2.03041
v 6.55803 -0.44858 2.06983
v 6.53741 0.48715 2.76732
v 6.57041 0.13653 3.21001
v 6.15914 0.07083 2.82720
v 8.05567 0.16336 2.75911
v 7.66840 0.19010 3.17058
v 7.63540 0.54072 2.72790
v 6.14714 0.02461 2.43006
v 6.53440 -0.00213 2.01859
v 6.52541 0.44093 2.37018
v 7.62340 0.49450 2.33076
v 7.63239 0.05144 1.97917
v 8.04366 0.11714 2.36197
v 6.18276 -0.37562 2.87845
v 6.59404 -0.30992 3.26125
v 6.60303 -0.75298 2.90966
v 7.70102 -0.69941 2.87024
v 7.69202 -0.25635 3.22183
v 8.07929 -0.28309 2.81035
v 6.59103 -0.79920 2.51252
v 6.55803 -0.44858 2.06983
v 6.17076 -0.42184 2.48131
v 8.06728 -0.32931 2.41321
v 7.65601 -0.39501 2.03041
v 7.68901 -0.74563 2.47310
v 6.62403 -1.14983 2.95521
v 6.61202 -1.19605 2.55807
v 7.71001 -1.14247 2.51865
v 7.72202 -1.09626 2.91579
v 7.78763 -2.33639 3.05813
v 7.77563 -2.38261 2.66099
v 6.67764 -2.43618 2.70042
v 6.68965 -2.38996 3.09755
v 6.65703 -1.50045 3.39790
v 7.75502 -1.44688 3.35848
v 7.77864 -1.89333 3.40972
v 6.68065 -1.94690 3.44914
v 6.64464 -2.08556 2.25773
v 7.74263 -2.03198 2.21830
v 7.71901 -1.58554 2.16706
v 6.62102 -1.63911 2.20648
v 6.24576 -1.56615 3.01510
v 6.26938 -2.01260 3.06634
v 6.25738 -2.05882 2.66920
v 6.23375 -1.61237 2.61796
v 8.13028 -1.51984 2.54986
v 8.15390 -1.96628 2.60111
v 8.16590 -1.92007 2.99825
v 8.14228 -1.47362 2.94700
v 6.65703 -1.50045 3.39790
v 6.68065 -1.94690 3.44914
v 6.26938 -2.01260 3.06634
v 6.24576 -1.56615 3.01510
v 8.14228 -1.47362 2.94700
v 8.16590 -1.92007 2.99825
v 7.77864 -1.89333 3.40972
v 7.75502 -1.44688 3.35848
v 6.23375 -1.61237 2.61796
v 6.25738 -2.05882 2.66920
v 6.64464 -2.08556 2.25773
v 6.62102 -1.63911 2.20648
v 7.71901 -1.58554 2.16706
v 7.74263 -2.03198 2.21830
v 8.15390 -1.96628 2.60111
v 8.13028 -1.51984 2.54986
v 6.24576 -1.56615 3.01510
v 6.23375 -1.61237 2.61796
v 6.61202 -1.19605 2.55807
v 6.62403 -1.14983 2.95521
v 6.68965 -2.38996 3.09755
v 6.67764 -2.43618 2.70042
v 6.25738 -2.05882 2.66920
v 6.26938 -2.01260 3.06634
v 7.72202 -1.09626 2.91579
v 7.71001 -1.14247 2.51865
v 8.13028 -1.51984 2.54986
v 8.14228 -1.47362 2.94700
v 8.16590 -1.92007 2.99825
v 8.15390 -1.96628 2.60111
v 7.77563 -2.38261 2.66099
v 7.78763 -2.33639 3.05813
v 6.62403 -1.14983 2.95521
v 7.72202 -1.09626 2.91579
v 7.75502 -1.44688 3.35848
v 6.65703 -1.50045 3.39790
v 6.62102 -1.63911 2.20648
v 7.71901 -1.58554 2.16706
v 7.71001 -1.14247 2.51865
v 6.61202 -1.19605 2.55807
v 6.68065 -1.94690 3.44914
v 7.77864 -1.89333 3.40972
v 7.78763 -2.33639 3.05813
v 6.68965 -2.38996 3.09755
v 6.67764 -2.43618 2.70042
v 7.77563 -2.38261 2.66099
v 7.74263 -2.03198 2.21830
v 6.64464 -2.08556 2.25773
v 6.62403 -1.14983 2.95521
v 6.65703 -1.50045 3.39790
v 6.24576 -1.56615 3.01510
v 8.14228 -1.47362 2.94700
v 7.75502 -1.44688 3.35848
v 7.72202 -1.09626 2.91579
v 6.23375 -1.61237 2.61796
v 6.62102 -1.63911 2.20648
v 6.61202 -1.19605 2.55807
v 7.71001 -1.14247 2.51865
v 7.71901 -1.58554 2.16706
v 8.13028 -1.51984 2.54986
v 6.26938 -2.01260 3.06634
v 6.68065 -1.94690 3.44914
v 6.68965 -2.38996 3.09755
v 7.78763 -2.33639 3.05813
v 7.77864 -1.89333 3.40972
v 8.16590 -1.92007 2.99825
v 6.67764 -2.43618 2.70042
v 6.64464 -2.08556 2.25773
v 6.25738 -2.05882 2.66920
v 8.15390 -1.96628 2.60111
v 7.74263 -2.03198 2.21830
v 7.77563 -2.38261 2.66099
vt -0.018759 1.035963
vt -0.059114 1.035841
vt -0.071452 1.023131
vt -0.073374 0.983978
vt -0.062340 0.970121
vt -0.022191 0.966047
vt -0.008589 0.977995
vt -0.006393 1.022741
vt 0.010084 1.020455
vt 0.012039 0.980631
vt 0.024145 0.969998
vt 0.059877 0.973623
vt 0.069697 0.985956
vt 0.067987 1.020802
vt 0.057006 1.032115
vt 0.021090 1.032223
vt 0.025331 1.024272
vt -0.019177 1.029377
vt -0.019975 1.022422
vt 0.024533 1.017317
vt 0.023498 1.005268
vt -0.020763 1.012197
vt -0.019048 1.007223
vt 0.020344 1.001056
vt -0.019492 1.028090
vt -0.037569 1.029064
vt -0.037946 1.022075
vt -0.019868 1.021100
vt -0.019427 1.023214
vt -0.037488 1.024457
vt -0.036704 1.019259
vt -0.020630 1.018153
vt -0.019768 1.026193
vt -0.060087 1.024499
vt -0.059793 1.017505
vt -0.019474 1.019199
vt -0.020737 1.038561
vt -0.061034 1.036409
vt -0.058686 1.031766
vt -0.022822 1.033682
vt -0.018315 1.025149
vt -0.035922 1.023213
vt -0.035157 1.016255
vt -0.017550 1.018191
vt -0.024352 1.058852
vt -0.041875 1.056254
vt -0.040403 1.051391
vt -0.024808 1.053703
vt 0.016396 1.029058
vt -0.022549 1.024591
vt -0.021751 1.017636
vt 0.017193 1.022103
vt 0.008474 1.067753
vt -0.030182 1.061248
vt -0.027285 1.057021
vt 0.007120 1.062810
vt 0.031428 1.029009
vt 0.013748 1.027908
vt 0.014183 1.020922
vt 0.031863 1.022023
vt 0.026975 1.064733
vt 0.009346 1.063002
vt 0.011037 1.058118
vt 0.026727 1.059658
vt 0.059791 1.025214
vt 0.019454 1.026427
vt 0.019244 1.019430
vt 0.059580 1.018217
vt 0.060842 1.036729
vt 0.020534 1.038669
vt 0.022645 1.033801
vt 0.058519 1.032074
vt 0.041702 1.022741
vt 0.023698 1.024645
vt 0.022962 1.017683
vt 0.040966 1.015780
vt 0.042016 1.015433
vt 0.024135 1.018269
vt 0.024173 1.013067
vt 0.040087 1.010543
vt 0.065540 1.027654
vt 0.065396 1.023656
vt 0.076389 1.023260
vt 0.076533 1.027257
vt -0.076533 1.027257
vt -0.076389 1.023260
vt -0.065396 1.023656
vt -0.065540 1.027654
vt -0.063086 1.030380
vt -0.074073 1.030919
vt -0.074294 1.026424
vt -0.063307 1.025885
vt 0.063307 1.025885
vt 0.074294 1.026424
vt 0.074073 1.030919
vt 0.063086 1.030380
vt 0.030491 1.026700
vt 0.026020 1.027212
vt 0.025564 1.023238
vt 0.030035 1.022726
vt -0.030035 1.022726
vt -0.025564 1.023238
vt -0.026020 1.027212
vt -0.030491 1.026700
vt 0.038430 1.064162
vt 0.033993 1.064909
vt 0.033054 1.059331
vt 0.037492 1.058584
vt -0.021508 0.961205
vt -0.017063 0.961901
vt -0.017937 0.967489
vt -0.022383 0.966793
vt 0.023149 0.971684
vt 0.018703 0.972380
vt 0.017828 0.966791
vt 0.022274 0.966095
vt -0.038313 1.063465
vt -0.033875 1.064212
vt -0.034814 1.069790
vt -0.039252 1.069043
vt 0.064880 1.023252
vt 0.064456 1.019275
vt 0.070080 1.018675
vt 0.070505 1.022652
vt -0.030636 1.031749
vt -0.030857 1.027755
vt -0.025209 1.027441
vt -0.024987 1.031435
vt 0.029576 1.031690
vt 0.029798 1.027696
vt 0.035447 1.028010
vt 0.035225 1.032004
vt -0.075075 1.022165
vt -0.074651 1.018188
vt -0.069026 1.018788
vt -0.069450 1.022765
vt 0.064392 0.996166
vt 0.075381 0.995663
vt 0.075639 1.001314
vt 0.064651 1.001817
vt 0.066398 1.031054
vt 0.077380 1.030421
vt 0.077705 1.036069
vt 0.066723 1.036702
vt -0.066703 1.036349
vt -0.077685 1.035716
vt -0.077359 1.030068
vt -0.066377 1.030701
vt -0.064667 1.002170
vt -0.075655 1.001667
vt -0.075397 0.996016
vt -0.064408 0.996520
vt 0.071923 1.029331
vt 0.069728 1.034545
vt 0.066311 1.030036
vt 0.038078 0.983286
vt 0.034946 0.987997
vt 0.032433 0.982929
vt 0.062514 0.999227
vt 0.064657 0.993992
vt 0.068120 0.998465
vt 0.026447 1.066932
vt 0.029627 1.062254
vt 0.032088 1.067347
vt -0.022327 1.060284
vt -0.024789 1.065377
vt -0.027969 1.060699
vt -0.066216 0.992338
vt -0.069679 0.996812
vt -0.071822 0.991576
vt -0.033091 0.989311
vt -0.030578 0.984243
vt -0.027446 0.988954
vt -0.077273 1.035037
vt -0.073855 1.030529
vt -0.071660 1.035742
vt 0.065540 1.027654
vt 0.065396 1.023656
vt 0.076389 1.023260
vt 0.076533 1.027257
vt -0.076533 1.027257
vt -0.076389 1.023260
vt -0.065396 1.023656
vt -0.065540 1.027654
vt -0.063895 1.013899
vt -0.074882 1.014439
vt -0.075103 1.009944
vt -0.064116 1.009405
vt 0.064116 1.009405
vt 0.075103 1.009944
vt 0.074882 1.014439
vt 0.063895 1.013899
vt 0.014098 1.028580
vt 0.009628 1.029092
vt 0.009172 1.025118
vt 0.013643 1.024606
vt -0.013643 1.024606
vt -0.009172 1.025118
vt -0.009628 1.029092
vt -0.014098 1.028580
vt 0.022159 1.066900
vt 0.017721 1.067647
vt 0.016783 1.062069
vt 0.021220 1.061322
vt -0.005207 0.963757
vt -0.000761 0.964453
vt -0.001636 0.970042
vt -0.006082 0.969346
vt 0.006847 0.974236
vt 0.002402 0.974932
vt 0.001527 0.969343
vt 0.005973 0.968647
vt -0.022042 1.066203
vt -0.017604 1.066950
vt -0.018543 1.072528
vt -0.022980 1.071782
vt 0.053278 1.024489
vt 0.052854 1.020512
vt 0.058479 1.019912
vt 0.058903 1.023889
vt -0.042285 1.032396
vt -0.042507 1.028403
vt -0.036859 1.028089
vt -0.036637 1.032082
vt 0.041226 1.032338
vt 0.041448 1.028344
vt 0.047096 1.028658
vt 0.046874 1.032651
vt -0.063473 1.023402
vt -0.063049 1.019425
vt -0.057424 1.020024
vt -0.057848 1.024002
vt 0.064926 1.007821
vt 0.075914 1.007318
vt 0.076173 1.012969
vt 0.065185 1.013472
vt 0.065726 1.019406
vt 0.076708 1.018773
vt 0.077034 1.024421
vt 0.066052 1.025054
vt -0.066031 1.024701
vt -0.077013 1.024068
vt -0.076688 1.018420
vt -0.065706 1.019053
vt -0.065201 1.013826
vt -0.076189 1.013322
vt -0.075930 1.007671
vt -0.064942 1.008175
vt 0.061187 1.037469
vt 0.058991 1.042683
vt 0.055574 1.038175
vt 0.049297 0.990746
vt 0.046164 0.995457
vt 0.043651 0.990389
vt 0.050046 0.994124
vt 0.052189 0.988889
vt 0.055651 0.993362
vt 0.038577 1.061070
vt 0.041758 1.056392
vt 0.044219 1.061486
vt -0.034458 1.054422
vt -0.036919 1.059516
vt -0.040099 1.054838
vt -0.053748 0.987235
vt -0.057210 0.991708
vt -0.059353 0.986473
vt -0.044310 0.996771
vt -0.041797 0.991703
vt -0.038664 0.996414
vt -0.066536 1.043175
vt -0.063119 1.038667
vt -0.060923 1.043880
vt 0.065540 1.027654
vt 0.065396 1.023656
vt 0.076389 1.023260
vt 0.076533 1.027257
vt -0.076533 1.027257
vt -0.076389 1.023260
vt -0.065396 1.023656
vt -0.065540 1.027654
vt -0.064704 0.997419
vt -0.075691 0.997959
vt -0.075912 0.993464
vt -0.064925 0.992925
vt 0.064925 0.992925
vt 0.075912 0.993464
vt 0.075691 0.997959
vt 0.064704 0.997419
vt -0.002294 1.030460
vt -0.006765 1.030973
vt -0.007221 1.026999
vt -0.002750 1.026486
vt 0.002750 1.026486
vt 0.007221 1.026999
vt 0.006765 1.030973
vt 0.002294 1.030460
vt 0.005888 1.069638
vt 0.001450 1.070385
vt 0.000511 1.064807
vt 0.004949 1.064060
vt 0.011094 0.966309
vt 0.015540 0.967005
vt 0.014665 0.972594
vt 0.010220 0.971898
vt -0.009454 0.976788
vt -0.013900 0.977484
vt -0.014775 0.971895
vt -0.010329 0.971199
vt -0.005770 1.068941
vt -0.001333 1.069688
vt -0.002272 1.075266
vt -0.006709 1.074520
vt 0.041677 1.025726
vt 0.041253 1.021749
vt 0.046877 1.021149
vt 0.047302 1.025126
vt -0.053934 1.033044
vt -0.054156 1.029050
vt -0.048508 1.028736
vt -0.048286 1.032730
vt 0.052875 1.032985
vt 0.053097 1.028991
vt 0.058745 1.029305
vt 0.058523 1.033299
vt -0.051872 1.024639
vt -0.051448 1.020662
vt -0.045823 1.021261
vt -0.046247 1.025239
vt 0.065460 1.019476
vt 0.076448 1.018973
vt 0.076707 1.024624
vt 0.065718 1.025127
vt 0.065054 1.007758
vt 0.076036 1.007125
vt 0.076362 1.012773
vt 0.065380 1.013406
vt -0.065360 1.013053
vt -0.076342 1.012420
vt -0.076016 1.006772
vt -0.065034 1.007406
vt -0.065734 1.025481
vt -0.076723 1.024977
vt -0.076464 1.019326
vt -0.065476 1.019830
vt 0.050450 1.045607
vt 0.048255 1.050821
vt 0.044838 1.046313
vt 0.060515 0.998206
vt 0.057383 1.002916
vt 0.054870 0.997848
vt 0.037578 0.989021
vt 0.039721 0.983786
vt 0.043183 0.988259
vt 0.050707 1.055209
vt 0.053888 1.050531
vt 0.056349 1.055624
vt -0.046588 1.048561
vt -0.049049 1.053654
vt -0.052230 1.048976
vt -0.041280 0.982132
vt -0.044742 0.986605
vt -0.046885 0.981370
vt -0.055528 1.004231
vt -0.053015 0.999163
vt -0.049883 1.003873
vt -0.055800 1.051313
vt -0.052383 1.046805
vt -0.050187 1.052018
vt 0.065540 1.027654
vt 0.065396 1.023656
vt 0.076389 1.023260
vt 0.076533 1.027257
vt -0.076533 1.027257
vt -0.076389 1.023260
vt -0.065396 1.023656
vt -0.065540 1.027654
vt -0.065513 0.980939
vt -0.076500 0.981479
vt -0.076721 0.976984
vt -0.065734 0.976445
vt 0.065734 0.976445
vt 0.076721 0.976984
vt 0.076500 0.981479
vt 0.065513 0.980939
vt -0.018687 1.032340
vt -0.023157 1.032853
vt -0.023613 1.028879
vt -0.019142 1.028366
vt 0.019142 1.028366
vt 0.023613 1.028879
vt 0.023157 1.032853
vt 0.018687 1.032340
vt -0.010383 1.072377
vt -0.014821 1.073123
vt -0.015760 1.067545
vt -0.011322 1.066798
vt 0.027396 0.968861
vt 0.031842 0.969557
vt 0.030967 0.975146
vt 0.026521 0.974450
vt -0.025755 0.979340
vt -0.030201 0.980036
vt -0.031076 0.974447
vt -0.026630 0.973751
vt 0.010501 1.071679
vt 0.014938 1.072426
vt 0.014000 1.078004
vt 0.009562 1.077258
vt 0.030075 1.026963
vt 0.029651 1.022986
vt 0.035276 1.022386
vt 0.035700 1.026363
vt -0.065583 1.033691
vt -0.065805 1.029697
vt -0.060157 1.029384
vt -0.059935 1.033377
vt 0.064524 1.033632
vt 0.064746 1.029639
vt 0.070394 1.029953
vt 0.070172 1.033946
vt -0.040270 1.025876
vt -0.039846 1.021899
vt -0.034221 1.022498
vt -0.034645 1.026476
vt 0.065993 1.031132
vt 0.076982 1.030628
vt 0.077241 1.036279
vt 0.066252 1.036782
vt 0.064383 0.996110
vt 0.075365 0.995477
vt 0.075690 1.001125
vt 0.064709 1.001758
vt -0.064688 1.001405
vt -0.075670 1.000772
vt -0.075344 0.995124
vt -0.064363 0.995758
vt -0.066268 1.037136
vt -0.077257 1.036632
vt -0.076998 1.030981
vt -0.066009 1.031485
vt 0.039714 1.053746
vt 0.037518 1.058959
vt 0.034101 1.054451
vt 0.071733 1.005665
vt 0.068601 1.010376
vt 0.066088 1.005308
vt 0.025109 0.983918
vt 0.027252 0.978682
vt 0.030715 0.983156
vt 0.062838 1.049348
vt 0.066018 1.044670
vt 0.068479 1.049763
vt -0.058719 1.042700
vt -0.061180 1.047793
vt -0.064360 1.043115
vt -0.028811 0.977028
vt -0.032274 0.981502
vt -0.034417 0.976267
vt -0.066747 1.011690
vt -0.064233 1.006622
vt -0.061101 1.011333
vt -0.045063 1.059451
vt -0.041646 1.054943
vt -0.039451 1.060156
usemtl Surface_0
f 8/8 2/2 1/1
usemtl Surface_0
f 7/7 2/2 8/8
usemtl Surface_0
f 6/6 2/2 7/7
usemtl Surface_0
f 5/5 2/2 6/6
usemtl Surface_0
f 4/4 2/2 5/5
usemtl Surface_0
f 3/3 2/2 4/4
usemtl Surface_0
f 16/16 10/10 9/9
usemtl Surface_0
f 15/15 10/10 16/16
usemtl Surface_0
f 14/14 10/10 15/15
usemtl Surface_0
f 13/13 10/10 14/14
usemtl Surface_0
f 12/12 10/10 13/13
usemtl Surface_0
f 11/11 10/10 12/12
usemtl Surface_0
f 20/20 18/18 17/17
usemtl Surface_0
f 19/19 18/18 20/20
usemtl Surface_4
f 24/24 22/22 21/21
usemtl Surface_4
f 23/23 22/22 24/24
usemtl Surface_0
f 28/28 26/26 25/25
usemtl Surface_0
f 27/27 26/26 28/28
usemtl Surface_4
f 32/32 30/30 29/29
usemtl Surface_4
f 31/31 30/30 32/32
usemtl Surface_0
f 36/36 34/34 33/33
usemtl Surface_0
f 35/35 34/34 36/36
usemtl Surface_4
f 40/40 38/38 37/37
usemtl Surface_4
f 39/39 38/38 40/40
usemtl Surface_0
f 44/44 42/42 41/41
usemtl Surface_0
f 43/43 42/42 44/44
usemtl Surface_4
f 48/48 46/46 45/45
usemtl Surface_4
f 47/47 46/46 48/48
usemtl Surface_0
f 52/52 50/50 49/49
usemtl Surface_0
f 51/51 50/50 52/52
usemtl Surface_4
f 56/56 54/54 53/53
usemtl Surface_4
f 55/55 54/54 56/56
usemtl Surface_0
f 60/60 58/58 57/57
usemtl Surface_0
f 59/59 58/58 60/60
usemtl Surface_4
f 64/64 62/62 61/61
usemtl Surface_4
f 63/63 62/62 64/64
usemtl Surface_0
f 68/68 66/66 65/65
usemtl Surface_0
f 67/67 66/66 68/68
usemtl Surface_4
f 72/72 70/70 69/69
usemtl Surface_4
f 71/71 70/70 72/72
usemtl Surface_0
f 76/76 74/74 73/73
usemtl Surface_0
f 75/75 74/74 76/76
usemtl Surface_4
f 80/80 78/78 77/77
usemtl Surface_4
f 79/79 78/78 80/80
usemtl Surface_1
f 84/84 82/82 81/81
usemtl Surface_1
f 83/83 82/82 84/84
usemtl Surface_1
f 88/88 86/86 85/85
usemtl Surface_1
f 87/87 86/86 88/88
usemtl Surface_1
f 92/92 90/90 89/89
usemtl Surface_1
f 91/91 90/90 92/92
usemtl Surface_1
f 96/96 94/94 93/93
usemtl Surface_1
f 95/95 94/94 96/96
usemtl Surface_1
f 100/100 98/98 97/97
usemtl Surface_1
f 99/99 98/98 100/100
usemtl Surface_1
f 104/104 102/102 101/101
usemtl Surface_1
f 103/103 102/102 104/104
usemtl Surface_1
f 108/108 106/106 105/105
usemtl Surface_1
f 107/107 106/106 108/108
usemtl Surface_1
f 112/112 110/110 109/109
usemtl Surface_1
f 111/111 110/110 112/112
usemtl Surface_1
f 116/116 114/114 113/113
usemtl Surface_1
f 115/115 114/114 116/116
usemtl Surface_1
f 120/120 118/118 117/117
usemtl Surface_1
f 119/119 118/118 120/120
usemtl Surface_1
f 124/124 122/122 121/121
usemtl Surface_1
f 123/123 122/122 124/124
usemtl Surface_1
f 128/128 126/126 125/125
usemtl Surface_1
f 127/127 126/126 128/128
usemtl Surface_1
f 132/132 130/130 129/129
usemtl Surface_1
f 131/131 130/130 132/132
usemtl Surface_1
f 136/136 134/134 133/133
usemtl Surface_1
f 135/135 134/134 136/136
usemtl Surface_1
f 140/140 138/138 137/137
usemtl Surface_1
f 139/139 138/138 140/140
usemtl Surface_1
f 144/144 142/142 141/141
usemtl Surface_1
f 143/143 142/142 144/144
usemtl Surface_1
f 148/148 146/146 145/145
usemtl Surface_1
f 147/147 146/146 148/148
usemtl Surface_1
f 152/152 150/150 149/149
usemtl Surface_1
f 151/151 150/150 152/152
usemtl Surface_1
f 153/153 155/155 154/154
usemtl Surface_1
f 156/156 158/158 157/157
usemtl Surface_1
f 159/159 161/161 160/160
usemtl Surface_1
f 162/162 164/164 163/163
usemtl Surface_1
f 165/165 167/167 166/166
usemtl Surface_1
f 168/168 170/170 169/169
usemtl Surface_1
f 171/171 173/173 172/172
usemtl Surface_1
f 174/174 176/176 175/175
usemtl Surface_1
f 180/180 178/178 177/177
usemtl Surface_1
f 179/179 178/178 180/180
usemtl Surface_1
f 184/184 182/182 181/181
usemtl Surface_1
f 183/183 182/182 184/184
usemtl Surface_1
f 188/188 186/186 185/185
usemtl Surface_1
f 187/187 186/186 188/188
usemtl Surface_1
f 192/192 190/190 189/189
usemtl Surface_1
f 191/191 190/190 192/192
usemtl Surface_1
f 196/196 194/194 193/193
usemtl Surface_1
f 195/195 194/194 196/196
usemtl Surface_1
f 200/200 198/198 197/197
usemtl Surface_1
f 199/199 198/198 200/200
usemtl Surface_1
f 204/204 202/202 201/201
usemtl Surface_1
f 203/203 202/202 204/204
usemtl Surface_1
f 208/208 206/206 205/205
usemtl Surface_1
f 207/207 206/206 208/208
usemtl Surface_1
f 212/212 210/210 209/209
usemtl Surface_1
f 211/211 210/210 212/212
usemtl Surface_1
f 216/216 214/214 213/213
usemtl Surface_1
f 215/215 214/214 216/216
usemtl Surface_1
f 220/220 218/218 217/217
usemtl Surface_1
f 219/219 218/218 220/220
usemtl Surface_1
f 224/224 222/222 221/221
usemtl Surface_1
f 223/223 222/222 224/224
usemtl Surface_1
f 228/228 226/226 225/225
usemtl Surface_1
f 227/227 226/226 228/228
usemtl Surface_1
f 232/232 230/230 229/229
usemtl Surface_1
f 231/231 230/230 232/232
usemtl Surface_1
f 236/236 234/234 233/233
usemtl Surface_1
f 235/235 234/234 236/236
usemtl Surface_1
f 240/240 238/238 237/237
usemtl Surface_1
f 239/239 238/238 240/240
usemtl Surface_1
f 244/244 242/242 241/241
usemtl Surface_1
f 243/243 242/242 244/244
usemtl Surface_1
f 248/248 246/246 245/245
usemtl Surface_1
f 247/247 246/246 248/248
usemtl Surface_1
f 249/249 251/251 250/250
usemtl Surface_1
f 252/252 254/254 253/253
usemtl Surface_1
f 255/255 257/257 256/256
usemtl Surface_1
f 258/258 260/260 259/259
usemtl Surface_1
f 261/261 263/263 262/262
usemtl Surface_1
f 264/264 266/266 265/265
usemtl Surface_1
f 267/267 269/269 268/268
usemtl Surface_1
f 270/270 272/272 271/271
usemtl Surface_1
f 276/276 274/274 273/273
usemtl Surface_1
f 275/275 274/274 276/276
usemtl Surface_1
f 280/280 278/278 277/277
usemtl Surface_1
f 279/279 278/278 280/280
usemtl Surface_1
f 284/284 282/282 281/281
usemtl Surface_1
f 283/283 282/282 284/284
usemtl Surface_1
f 288/288 286/286 285/285
usemtl Surface_1
f 287/287 286/286 288/288
usemtl Surface_1
f 292/292 290/290 289/289
usemtl Surface_1
f 291/291 290/290 292/292
usemtl Surface_1
f 296/296 294/294 293/293
usemtl Surface_1
f 295/295 294/294 296/296
usemtl Surface_1
f 300/300 298/298 297/297
usemtl Surface_1
f 299/299 298/298 300/300
usemtl Surface_1
f 304/304 302/302 301/301
usemtl Surface_1
f 303/303 302/302 304/304
usemtl Surface_1
f 308/308 306/306 305/305
usemtl Surface_1
f 307/307 306/306 308/308
usemtl Surface_1
f 312/312 310/310 309/309
usemtl Surface_1
f 311/311 310/310 312/312
usemtl Surface_1
f 316/316 314/314 313/313
usemtl Surface_1
f 315/315 314/314 316/316
usemtl Surface_1
f 320/320 318/318 317/317
usemtl Surface_1
f 319/319 318/318 320/320
usemtl Surface_1
f 324/324 322/322 321/321
usemtl Surface_1
f 323/323 322/322 324/324
usemtl Surface_1
f 328/328 326/326 325/325
usemtl Surface_1
f 327/327 326/326 328/328
usemtl Surface_1
f 332/332 330/330 329/329
usemtl Surface_1
f 331/331 330/330 332/332
usemtl Surface_1
f 336/336 334/334 333/333
usemtl Surface_1
f 335/335 334/334 336/336
usemtl Surface_1
f 340/340 338/338 337/337
usemtl Surface_1
f 339/339 338/338 340/340
usemtl Surface_1
f 344/344 342/342 341/341
usemtl Surface_1
f 343/343 342/342 344/344
usemtl Surface_1
f 345/345 347/347 346/346
usemtl Surface_1
f 348/348 350/350 349/349
usemtl Surface_1
f 351/351 353/353 352/352
usemtl Surface_1
f 354/354 356/356 355/355
usemtl Surface_1
f 357/357 359/359 358/358
usemtl Surface_1
f 360/360 362/362 361/361
usemtl Surface_1
f 363/363 365/365 364/364
usemtl Surface_1
f 366/366 368/368 367/367
usemtl Surface_1
f 372/372 370/370 369/369
usemtl Surface_1
f 371/371 370/370 372/372
usemtl Surface_1
f 376/376 374/374 373/373
usemtl Surface_1
f 375/375 374/374 376/376
usemtl Surface_1
f 380/380 378/378 377/377
usemtl Surface_1
f 379/379 378/378 380/380
usemtl Surface_1
f 384/384 382/382 381/381
usemtl Surface_1
f 383/383 382/382 384/384
usemtl Surface_1
f 388/388 386/386 385/385
usemtl Surface_1
f 387/387 386/386 388/388
usemtl Surface_1
f 392/392 390/390 389/389
usemtl Surface_1
f 391/391 390/390 392/392
usemtl Surface_1
f 396/396 394/394 393/393
usemtl Surface_1
f 395/395 394/394 396/396
usemtl Surface_1
f 400/400 398/398 397/397
usemtl Surface_1
f 399/399 398/398 400/400
usemtl Surface_1
f 404/404 402/402 401/401
usemtl Surface_1
f 403/403 402/402 404/404
usemtl Surface_1
f 408/408 406/406 405/405
usemtl Surface_1
f 407/407 406/406 408/408
usemtl Surface_1
f 412/412 410/410 409/409
usemtl Surface_1
f 411/411 410/410 412/412
usemtl Surface_1
f 416/416 414/414 413/413
usemtl Surface_1
f 415/415 414/414 416/416
usemtl Surface_1
f 420/420 418/418 417/417
usemtl Surface_1
f 419/419 418/418 420/420
usemtl Surface_1
f 424/424 422/422 421/421
usemtl Surface_1
f 423/423 422/422 424/424
usemtl Surface_1
f 428/428 426/426 425/425
usemtl Surface_1
f 427/427 426/426 428/428
usemtl Surface_1
f 432/432 430/430 429/429
usemtl Surface_1
f 431/431 430/430 432/432
usemtl Surface_1
f 436/436 434/434 433/433
usemtl Surface_1
f 435/435 434/434 436/436
usemtl Surface_1
f 440/440 438/438 437/437
usemtl Surface_1
f 439/439 438/438 440/440
usemtl Surface_1
f 441/441 443/443 442/442
usemtl Surface_1
f 444/444 446/446 445/445
usemtl Surface_1
f 447/447 449/449 448/448
usemtl Surface_1
f 450/450 452/452 451/451
usemtl Surface_1
f 453/453 455/455 454/454
usemtl Surface_1
f 456/456 458/458 457/457
usemtl Surface_1
f 459/459 461/461 460/460
usemtl Surface_1
f 462/462 464/464 463/463
