# Null Route authored hard-surface mesh. Centimeters, Z up.
v -2.31079 3.06070 -3.00581
v -6.32241 2.65619 -2.83766
v -7.42049 1.27973 -2.64437
v -7.21484 -2.60935 -2.19808
v -5.97720 -3.87190 -2.08853
v -1.94354 -3.88408 -2.20886
v -0.71202 -2.57074 -2.39884
v -0.94706 1.87392 -2.90888
v -1.26101 1.72758 -1.87518
v -1.05183 -2.22817 -1.42124
v -2.14788 -3.39704 -1.25216
v -5.73784 -3.38620 -1.14507
v -6.83933 -2.26253 -1.24257
v -7.02237 1.19875 -1.63976
v -6.04507 2.42380 -1.81180
v -2.47473 2.78382 -1.96144
v -0.94706 1.87392 -2.90888
v -0.71202 -2.57074 -2.39884
v -0.69104 -2.48988 -1.70384
v -0.92608 1.95478 -2.21389
v -0.92608 1.95478 -2.21389
v -0.69104 -2.48988 -1.70384
v -1.05183 -2.22817 -1.42124
v -1.26101 1.72758 -1.87518
v -0.71202 -2.57074 -2.39884
v -1.94354 -3.88408 -2.20886
v -1.92257 -3.80322 -1.51386
v -0.69104 -2.48988 -1.70384
v -0.69104 -2.48988 -1.70384
v -1.92257 -3.80322 -1.51386
v -2.14788 -3.39704 -1.25216
v -1.05183 -2.22817 -1.42124
v -1.94354 -3.88408 -2.20886
v -5.97720 -3.87190 -2.08853
v -5.95622 -3.79104 -1.39354
v -1.92257 -3.80322 -1.51386
v -1.92257 -3.80322 -1.51386
v -5.95622 -3.79104 -1.39354
v -5.73784 -3.38620 -1.14507
v -2.14788 -3.39704 -1.25216
v -5.97720 -3.87190 -2.08853
v -7.21484 -2.60935 -2.19808
v -7.19386 -2.52848 -1.50308
v -5.95622 -3.79104 -1.39354
v -5.95622 -3.79104 -1.39354
v -7.19386 -2.52848 -1.50308
v -6.83933 -2.26253 -1.24257
v -5.73784 -3.38620 -1.14507
v -7.21484 -2.60935 -2.19808
v -7.42049 1.27973 -2.64437
v -7.39952 1.36060 -1.94937
v -7.19386 -2.52848 -1.50308
v -7.19386 -2.52848 -1.50308
v -7.39952 1.36060 -1.94937
v -7.02237 1.19875 -1.63976
v -6.83933 -2.26253 -1.24257
v -7.42049 1.27973 -2.64437
v -6.32241 2.65619 -2.83766
v -6.30143 2.73706 -2.14267
v -7.39952 1.36060 -1.94937
v -7.39952 1.36060 -1.94937
v -6.30143 2.73706 -2.14267
v -6.04507 2.42380 -1.81180
v -7.02237 1.19875 -1.63976
v -6.32241 2.65619 -2.83766
v -2.31079 3.06070 -3.00581
v -2.28981 3.14157 -2.31081
v -6.30143 2.73706 -2.14267
v -6.30143 2.73706 -2.14267
v -2.28981 3.14157 -2.31081
v -2.47473 2.78382 -1.96144
v -6.04507 2.42380 -1.81180
v -2.31079 3.06070 -3.00581
v -0.94706 1.87392 -2.90888
v -0.92608 1.95478 -2.21389
v -2.28981 3.14157 -2.31081
v -2.28981 3.14157 -2.31081
v -0.92608 1.95478 -2.21389
v -1.26101 1.72758 -1.87518
v -2.47473 2.78382 -1.96144
v -6.69206 2.43983 -3.10349
v -6.68008 2.48604 -2.70635
v -7.77807 2.43249 -2.66698
v -7.79005 2.38628 -3.06412
v -7.72447 1.14614 -2.92181
v -7.71249 1.19235 -2.52467
v -6.61450 1.24590 -2.56404
v -6.62648 1.19969 -2.96118
v -6.68306 1.99678 -3.45509
v -7.78105 1.94323 -3.41572
v -7.75745 1.49678 -3.36449
v -6.65946 1.55033 -3.40386
v -6.62350 1.68895 -2.21244
v -7.72149 1.63540 -2.17307
v -7.74510 2.08185 -2.22430
v -6.64710 2.13540 -2.26367
v -6.27181 2.06245 -3.07227
v -6.24820 1.61600 -3.02103
v -6.23621 1.66221 -2.62389
v -6.25982 2.10866 -2.67513
v -8.15635 2.01618 -2.60712
v -8.13274 1.56973 -2.55589
v -8.14473 1.52352 -2.95303
v -8.16834 1.96997 -3.00427
v -6.68306 1.99678 -3.45509
v -6.65946 1.55033 -3.40386
v -6.24820 1.61600 -3.02103
v -6.27181 2.06245 -3.07227
v -8.16834 1.96997 -3.00427
v -8.14473 1.52352 -2.95303
v -7.75745 1.49678 -3.36449
v -7.78105 1.94323 -3.41572
v -6.25982 2.10866 -2.67513
v -6.23621 1.66221 -2.62389
v -6.62350 1.68895 -2.21244
v -6.64710 2.13540 -2.26367
v -7.74510 2.08185 -2.22430
v -7.72149 1.63540 -2.17307
v -8.13274 1.56973 -2.55589
v -8.15635 2.01618 -2.60712
v -6.27181 2.06245 -3.07227
v -6.25982 2.10866 -2.67513
v -6.68008 2.48604 -2.70635
v -6.69206 2.43983 -3.10349
v -6.62648 1.19969 -2.96118
v -6.61450 1.24590 -2.56404
v -6.23621 1.66221 -2.62389
v -6.24820 1.61600 -3.02103
v -7.79005 2.38628 -3.06412
v -7.77807 2.43249 -2.66698
v -8.15635 2.01618 -2.60712
v -8.16834 1.96997 -3.00427
v -8.14473 1.52352 -2.95303
v -8.13274 1.56973 -2.55589
v -7.71249 1.19235 -2.52467
v -7.72447 1.14614 -2.92181
v -6.69206 2.43983 -3.10349
v -7.79005 2.38628 -3.06412
v -7.78105 1.94323 -3.41572
v -6.68306 1.99678 -3.45509
v -6.64710 2.13540 -2.26367
v -7.74510 2.08185 -2.22430
v -7.77807 2.43249 -2.66698
v -6.68008 2.48604 -2.70635
v -6.65946 1.55033 -3.40386
v -7.75745 1.49678 -3.36449
v -7.72447 1.14614 -2.92181
v -6.62648 1.19969 -2.96118
v -6.61450 1.24590 -2.56404
v -7.71249 1.19235 -2.52467
v -7.72149 1.63540 -2.17307
v -6.62350 1.68895 -2.21244
v -6.69206 2.43983 -3.10349
v -6.68306 1.99678 -3.45509
v -6.27181 2.06245 -3.07227
v -8.16834 1.96997 -3.00427
v -7.78105 1.94323 -3.41572
v -7.79005 2.38628 -3.06412
v -6.25982 2.10866 -2.67513
v -6.64710 2.13540 -2.26367
v -6.68008 2.48604 -2.70635
v -7.77807 2.43249 -2.66698
v -7.74510 2.08185 -2.22430
v -8.15635 2.01618 -2.60712
v -6.24820 1.61600 -3.02103
v -6.65946 1.55033 -3.40386
v -6.62648 1.19969 -2.96118
v -7.72447 1.14614 -2.92181
v -7.75745 1.49678 -3.36449
v -8.14473 1.52352 -2.95303
v -6.61450 1.24590 -2.56404
v -6.62350 1.68895 -2.21244
v -6.23621 1.66221 -2.62389
v -8.13274 1.56973 -2.55589
v -7.72149 1.63540 -2.17307
v -7.71249 1.19235 -2.52467
v -6.60550 0.80284 -2.91564
v -6.59351 0.84905 -2.51850
v -7.69150 0.79551 -2.47913
v -7.70349 0.74930 -2.87627
v -7.63791 -0.49084 -2.73396
v -7.62592 -0.44463 -2.33682
v -6.52793 -0.39109 -2.37619
v -6.53992 -0.43730 -2.77333
v -6.59650 0.35979 -3.26724
v -7.69449 0.30625 -3.22787
v -7.67088 -0.14020 -3.17664
v -6.57289 -0.08666 -3.21601
v -6.53693 0.05196 -2.02458
v -7.63492 -0.00158 -1.98522
v -7.65853 0.44487 -2.03645
v -6.56054 0.49841 -2.07582
v -6.18524 0.42547 -2.88442
v -6.16164 -0.02098 -2.83318
v -6.14965 0.02523 -2.43604
v -6.17326 0.47168 -2.48727
v -8.06979 0.37919 -2.41927
v -8.04618 -0.06726 -2.36804
v -8.05816 -0.11347 -2.76518
v -8.08177 0.33298 -2.81641
v -6.59650 0.35979 -3.26724
v -6.57289 -0.08666 -3.21601
v -6.16164 -0.02098 -2.83318
v -6.18524 0.42547 -2.88442
v -8.08177 0.33298 -2.81641
v -8.05816 -0.11347 -2.76518
v -7.67088 -0.14020 -3.17664
v -7.69449 0.30625 -3.22787
v -6.17326 0.47168 -2.48727
v -6.14965 0.02523 -2.43604
v -6.53693 0.05196 -2.02458
v -6.56054 0.49841 -2.07582
v -7.65853 0.44487 -2.03645
v -7.63492 -0.00158 -1.98522
v -8.04618 -0.06726 -2.36804
v -8.06979 0.37919 -2.41927
v -6.18524 0.42547 -2.88442
v -6.17326 0.47168 -2.48727
v -6.59351 0.84905 -2.51850
v -6.60550 0.80284 -2.91564
v -6.53992 -0.43730 -2.77333
v -6.52793 -0.39109 -2.37619
v -6.14965 0.02523 -2.43604
v -6.16164 -0.02098 -2.83318
v -7.70349 0.74930 -2.87627
v -7.69150 0.79551 -2.47913
v -8.06979 0.37919 -2.41927
v -8.08177 0.33298 -2.81641
v -8.05816 -0.11347 -2.76518
v -8.04618 -0.06726 -2.36804
v -7.62592 -0.44463 -2.33682
v -7.63791 -0.49084 -2.73396
v -6.60550 0.80284 -2.91564
v -7.70349 0.74930 -2.87627
v -7.69449 0.30625 -3.22787
v -6.59650 0.35979 -3.26724
v -6.56054 0.49841 -2.07582
v -7.65853 0.44487 -2.03645
v -7.69150 0.79551 -2.47913
v -6.59351 0.84905 -2.51850
v -6.57289 -0.08666 -3.21601
v -7.67088 -0.14020 -3.17664
v -7.63791 -0.49084 -2.73396
v -6.53992 -0.43730 -2.77333
v -6.52793 -0.39109 -2.37619
v -7.62592 -0.44463 -2.33682
v -7.63492 -0.00158 -1.98522
v -6.53693 0.05196 -2.02458
v -6.60550 0.80284 -2.91564
v -6.59650 0.35979 -3.26724
v -6.18524 0.42547 -2.88442
v -8.08177 0.33298 -2.81641
v -7.69449 0.30625 -3.22787
v -7.70349 0.74930 -2.87627
v -6.17326 0.47168 -2.48727
v -6.56054 0.49841 -2.07582
v -6.59351 0.84905 -2.51850
v -7.69150 0.79551 -2.47913
v -7.65853 0.44487 -2.03645
v -8.06979 0.37919 -2.41927
v -6.16164 -0.02098 -2.83318
v -6.57289 -0.08666 -3.21601
v -6.53992 -0.43730 -2.77333
v -7.63791 -0.49084 -2.73396
v -7.67088 -0.14020 -3.17664
v -8.05816 -0.11347 -2.76518
v -6.52793 -0.39109 -2.37619
v -6.53693 0.05196 -2.02458
v -6.14965 0.02523 -2.43604
v -8.04618 -0.06726 -2.36804
v -7.63492 -0.00158 -1.98522
v -7.62592 -0.44463 -2.33682
v -6.51893 -0.83414 -2.72779
v -6.50695 -0.78793 -2.33065
v -7.60494 -0.84148 -2.29128
v -7.61692 -0.88769 -2.68842
v -7.55135 -2.12783 -2.54611
v -7.53936 -2.08162 -2.14897
v -6.44137 -2.02807 -2.18833
v -6.45336 -2.07428 -2.58548
v -6.50994 -1.27719 -3.07939
v -7.60793 -1.33074 -3.04002
v -7.58432 -1.77719 -2.98879
v -6.48633 -1.72364 -3.02816
v -6.45037 -1.58502 -1.83673
v -7.54836 -1.63857 -1.79736
v -7.57197 -1.19212 -1.84860
v -6.47398 -1.13857 -1.88797
v -6.09868 -1.21152 -2.69656
v -6.07507 -1.65797 -2.64533
v -6.06309 -1.61176 -2.24819
v -6.08669 -1.16531 -2.29942
v -7.98322 -1.25779 -2.23142
v -7.95961 -1.70424 -2.18019
v -7.97160 -1.75045 -2.57733
v -7.99521 -1.30400 -2.62856
v -6.50994 -1.27719 -3.07939
v -6.48633 -1.72364 -3.02816
v -6.07507 -1.65797 -2.64533
v -6.09868 -1.21152 -2.69656
v -7.99521 -1.30400 -2.62856
v -7.97160 -1.75045 -2.57733
v -7.58432 -1.77719 -2.98879
v -7.60793 -1.33074 -3.04002
v -6.08669 -1.16531 -2.29942
v -6.06309 -1.61176 -2.24819
v -6.45037 -1.58502 -1.83673
v -6.47398 -1.13857 -1.88797
v -7.57197 -1.19212 -1.84860
v -7.54836 -1.63857 -1.79736
v -7.95961 -1.70424 -2.18019
v -7.98322 -1.25779 -2.23142
v -6.09868 -1.21152 -2.69656
v -6.08669 -1.16531 -2.29942
v -6.50695 -0.78793 -2.33065
v -6.51893 -0.83414 -2.72779
v -6.45336 -2.07428 -2.58548
v -6.44137 -2.02807 -2.18833
v -6.06309 -1.61176 -2.24819
v -6.07507 -1.65797 -2.64533
v -7.61692 -0.88769 -2.68842
v -7.60494 -0.84148 -2.29128
v -7.98322 -1.25779 -2.23142
v -7.99521 -1.30400 -2.62856
v -7.97160 -1.75045 -2.57733
v -7.95961 -1.70424 -2.18019
v -7.53936 -2.08162 -2.14897
v -7.55135 -2.12783 -2.54611
v -6.51893 -0.83414 -2.72779
v -7.61692 -0.88769 -2.68842
v -7.60793 -1.33074 -3.04002
v -6.50994 -1.27719 -3.07939
v -6.47398 -1.13857 -1.88797
v -7.57197 -1.19212 -1.84860
v -7.60494 -0.84148 -2.29128
v -6.50695 -0.78793 -2.33065
v -6.48633 -1.72364 -3.02816
v -7.58432 -1.77719 -2.98879
v -7.55135 -2.12783 -2.54611
v -6.45336 -2.07428 -2.58548
v -6.44137 -2.02807 -2.18833
v -7.53936 -2.08162 -2.14897
v -7.54836 -1.63857 -1.79736
v -6.45037 -1.58502 -1.83673
v -6.51893 -0.83414 -2.72779
v -6.50994 -1.27719 -3.07939
v -6.09868 -1.21152 -2.69656
v -7.99521 -1.30400 -2.62856
v -7.60793 -1.33074 -3.04002
v -7.61692 -0.88769 -2.68842
v -6.08669 -1.16531 -2.29942
v -6.47398 -1.13857 -1.88797
v -6.50695 -0.78793 -2.33065
v -7.60494 -0.84148 -2.29128
v -7.57197 -1.19212 -1.84860
v -7.98322 -1.25779 -2.23142
v -6.07507 -1.65797 -2.64533
v -6.48633 -1.72364 -3.02816
v -6.45336 -2.07428 -2.58548
v -7.55135 -2.12783 -2.54611
v -7.58432 -1.77719 -2.98879
v -7.97160 -1.75045 -2.57733
v -6.44137 -2.02807 -2.18833
v -6.45037 -1.58502 -1.83673
v -6.06309 -1.61176 -2.24819
v -7.95961 -1.70424 -2.18019
v -7.54836 -1.63857 -1.79736
v -7.53936 -2.08162 -2.14897
v -6.43237 -2.47113 -2.53994
v -6.42038 -2.42492 -2.14280
v -7.51837 -2.47846 -2.10343
v -7.53036 -2.52467 -2.50057
v -7.46478 -3.76481 -2.35826
v -7.45280 -3.71860 -1.96111
v -6.35480 -3.66506 -2.00048
v -6.36679 -3.71127 -2.39762
v -6.42337 -2.91418 -2.89154
v -7.52136 -2.96772 -2.85217
v -7.49775 -3.41417 -2.80094
v -6.39976 -3.36063 -2.84031
v -6.36380 -3.22201 -1.64888
v -7.46179 -3.27555 -1.60951
v -7.48540 -2.82910 -1.66074
v -6.38741 -2.77556 -1.70011
v -6.01212 -2.84850 -2.50871
v -5.98851 -3.29495 -2.45748
v -5.97652 -3.24874 -2.06034
v -6.00013 -2.80229 -2.11157
v -7.89666 -2.89478 -2.04357
v -7.87305 -3.34123 -1.99234
v -7.88504 -3.38744 -2.38948
v -7.90864 -2.94099 -2.44071
v -6.42337 -2.91418 -2.89154
v -6.39976 -3.36063 -2.84031
v -5.98851 -3.29495 -2.45748
v -6.01212 -2.84850 -2.50871
v -7.90864 -2.94099 -2.44071
v -7.88504 -3.38744 -2.38948
v -7.49775 -3.41417 -2.80094
v -7.52136 -2.96772 -2.85217
v -6.00013 -2.80229 -2.11157
v -5.97652 -3.24874 -2.06034
v -6.36380 -3.22201 -1.64888
v -6.38741 -2.77556 -1.70011
v -7.48540 -2.82910 -1.66074
v -7.46179 -3.27555 -1.60951
v -7.87305 -3.34123 -1.99234
v -7.89666 -2.89478 -2.04357
v -6.01212 -2.84850 -2.50871
v -6.00013 -2.80229 -2.11157
v -6.42038 -2.42492 -2.14280
v -6.43237 -2.47113 -2.53994
v -6.36679 -3.71127 -2.39762
v -6.35480 -3.66506 -2.00048
v -5.97652 -3.24874 -2.06034
v -5.98851 -3.29495 -2.45748
v -7.53036 -2.52467 -2.50057
v -7.51837 -2.47846 -2.10343
v -7.89666 -2.89478 -2.04357
v -7.90864 -2.94099 -2.44071
v -7.88504 -3.38744 -2.38948
v -7.87305 -3.34123 -1.99234
v -7.45280 -3.71860 -1.96111
v -7.46478 -3.76481 -2.35826
v -6.43237 -2.47113 -2.53994
v -7.53036 -2.52467 -2.50057
v -7.52136 -2.96772 -2.85217
v -6.42337 -2.91418 -2.89154
v -6.38741 -2.77556 -1.70011
v -7.48540 -2.82910 -1.66074
v -7.51837 -2.47846 -2.10343
v -6.42038 -2.42492 -2.14280
v -6.39976 -3.36063 -2.84031
v -7.49775 -3.41417 -2.80094
v -7.46478 -3.76481 -2.35826
v -6.36679 -3.71127 -2.39762
v -6.35480 -3.66506 -2.00048
v -7.45280 -3.71860 -1.96111
v -7.46179 -3.27555 -1.60951
v -6.36380 -3.22201 -1.64888
v -6.43237 -2.47113 -2.53994
v -6.42337 -2.91418 -2.89154
v -6.01212 -2.84850 -2.50871
v -7.90864 -2.94099 -2.44071
v -7.52136 -2.96772 -2.85217
v -7.53036 -2.52467 -2.50057
v -6.00013 -2.80229 -2.11157
v -6.38741 -2.77556 -1.70011
v -6.42038 -2.42492 -2.14280
v -7.51837 -2.47846 -2.10343
v -7.48540 -2.82910 -1.66074
v -7.89666 -2.89478 -2.04357
v -5.98851 -3.29495 -2.45748
v -6.39976 -3.36063 -2.84031
v -6.36679 -3.71127 -2.39762
v -7.46478 -3.76481 -2.35826
v -7.49775 -3.41417 -2.80094
v -7.88504 -3.38744 -2.38948
v -6.35480 -3.66506 -2.00048
v -6.36380 -3.22201 -1.64888
v -5.97652 -3.24874 -2.06034
v -7.87305 -3.34123 -1.99234
v -7.46179 -3.27555 -1.60951
v -7.45280 -3.71860 -1.96111
vt -0.022191 1.033953
vt -0.062339 1.029881
vt -0.073373 1.016024
vt -0.071452 0.976871
vt -0.059115 0.964160
vt -0.018760 0.964037
vt -0.006393 0.977259
vt -0.008589 1.022006
vt 0.012039 1.019369
vt 0.010085 0.979545
vt 0.021091 0.967778
vt 0.057007 0.967887
vt 0.067987 0.979199
vt 0.069697 1.014045
vt 0.059877 1.026379
vt 0.024144 1.030003
vt -0.019178 0.970624
vt 0.025330 0.975728
vt 0.024533 0.982682
vt -0.019976 0.977578
vt -0.020764 0.987804
vt 0.023497 0.994731
vt 0.020344 0.998944
vt -0.019048 0.992778
vt 0.023697 0.975354
vt 0.041701 0.977257
vt 0.040965 0.984218
vt 0.022961 0.982315
vt 0.024134 0.981729
vt 0.042015 0.984564
vt 0.040086 0.989454
vt 0.024172 0.986931
vt 0.019453 0.973572
vt 0.059789 0.974783
vt 0.059579 0.981780
vt 0.019243 0.980569
vt 0.020531 0.961329
vt 0.060839 0.963267
vt 0.058517 0.967922
vt 0.022642 0.966197
vt 0.013748 0.972091
vt 0.031427 0.970990
vt 0.031863 0.977977
vt 0.014183 0.979078
vt 0.009345 0.936998
vt 0.026974 0.935267
vt 0.026726 0.940342
vt 0.011036 0.941882
vt -0.022548 0.975409
vt 0.016396 0.970943
vt 0.017194 0.977897
vt -0.021751 0.982363
vt -0.030179 0.938751
vt 0.008477 0.932247
vt 0.007123 0.937190
vt -0.027282 0.942978
vt -0.035921 0.976785
vt -0.018313 0.974850
vt -0.017549 0.981808
vt -0.035157 0.983743
vt -0.041871 0.943743
vt -0.024348 0.941146
vt -0.024804 0.946295
vt -0.040399 0.948607
vt -0.060086 0.975498
vt -0.019767 0.973806
vt -0.019473 0.980800
vt -0.059792 0.982492
vt -0.061032 0.963588
vt -0.020734 0.961438
vt -0.022820 0.966317
vt -0.058685 0.968230
vt -0.037569 0.970935
vt -0.019491 0.971910
vt -0.019868 0.978900
vt -0.037946 0.977925
vt -0.037488 0.975542
vt -0.019426 0.976786
vt -0.020629 0.981847
vt -0.036704 0.980740
vt -0.065539 0.972343
vt -0.065395 0.976340
vt -0.076388 0.976737
vt -0.076532 0.972739
vt 0.076532 0.972739
vt 0.076388 0.976737
vt 0.065395 0.976340
vt 0.065539 0.972343
vt -0.065758 1.024056
vt -0.076745 1.023517
vt -0.076524 1.019023
vt -0.065537 1.019562
vt 0.065537 1.019562
vt 0.076524 1.019023
vt 0.076745 1.023517
vt 0.065758 1.024056
vt -0.023655 0.967091
vt -0.019184 0.967604
vt -0.019640 0.971578
vt -0.024111 0.971065
vt 0.024111 0.971065
vt 0.019640 0.971578
vt 0.019184 0.967604
vt 0.023655 0.967091
vt -0.015317 0.926794
vt -0.010880 0.927541
vt -0.011818 0.933119
vt -0.016256 0.932373
vt 0.032335 1.030367
vt 0.027889 1.031063
vt 0.027014 1.025474
vt 0.031460 1.024778
vt -0.030695 1.019888
vt -0.026249 1.020584
vt -0.027124 1.026172
vt -0.031569 1.025477
vt 0.015435 0.927492
vt 0.010997 0.928238
vt 0.010059 0.922660
vt 0.014496 0.921913
vt -0.060288 0.966602
vt -0.060510 0.970596
vt -0.066158 0.970282
vt -0.065936 0.966288
vt 0.035347 0.973597
vt 0.034923 0.977575
vt 0.029298 0.976975
vt 0.029722 0.972998
vt -0.034292 0.973485
vt -0.033869 0.977462
vt -0.039494 0.978062
vt -0.039917 0.974084
vt 0.070525 0.966033
vt 0.070747 0.970027
vt 0.065099 0.970341
vt 0.064877 0.966347
vt -0.064343 1.004590
vt -0.075324 1.005223
vt -0.075650 0.999575
vt -0.064668 0.998943
vt -0.066024 0.968158
vt -0.077012 0.968661
vt -0.077271 0.963010
vt -0.066282 0.962507
vt 0.066266 0.962860
vt 0.077255 0.963363
vt 0.076996 0.969014
vt 0.066008 0.968511
vt 0.064688 0.998590
vt 0.075670 0.999222
vt 0.075345 1.004870
vt 0.064363 1.004237
vt -0.064727 0.957061
vt -0.061546 0.952383
vt -0.059085 0.957477
vt -0.034041 1.023886
vt -0.031897 1.018651
vt -0.028435 1.023124
vt -0.061441 0.988440
vt -0.064573 0.993150
vt -0.067086 0.988082
vt -0.039121 0.939595
vt -0.041317 0.944808
vt -0.044734 0.940300
vt 0.033773 0.945300
vt 0.037189 0.940792
vt 0.039385 0.946005
vt 0.066428 0.994465
vt 0.068941 0.989397
vt 0.072073 0.994107
vt 0.030338 1.016997
vt 0.026876 1.021470
vt 0.024733 1.016235
vt 0.068846 0.950413
vt 0.066385 0.955507
vt 0.063204 0.950829
vt -0.065539 0.972343
vt -0.065395 0.976340
vt -0.076388 0.976737
vt -0.076532 0.972739
vt 0.076532 0.972739
vt 0.076388 0.976737
vt 0.065395 0.976340
vt 0.065539 0.972343
vt -0.064949 1.007576
vt -0.075936 1.007037
vt -0.075716 1.002543
vt -0.064729 1.003082
vt 0.064729 1.003082
vt 0.075716 1.002543
vt 0.075936 1.007037
vt 0.064949 1.007576
vt -0.007262 0.968971
vt -0.002792 0.969483
vt -0.003247 0.973457
vt -0.007718 0.972945
vt 0.007718 0.972945
vt 0.003247 0.973457
vt 0.002792 0.969483
vt 0.007262 0.968971
vt 0.000954 0.929532
vt 0.005392 0.930278
vt 0.004453 0.935857
vt 0.000015 0.935110
vt 0.016033 1.032918
vt 0.011588 1.033614
vt 0.010713 1.028025
vt 0.015159 1.027330
vt -0.014393 1.022439
vt -0.009947 1.023135
vt -0.010822 1.028724
vt -0.015268 1.028028
vt -0.000837 0.930229
vt -0.005274 0.930976
vt -0.006213 0.925397
vt -0.001775 0.924651
vt -0.048638 0.967250
vt -0.048860 0.971244
vt -0.054509 0.970930
vt -0.054287 0.966936
vt 0.046949 0.974834
vt 0.046525 0.978811
vt 0.040900 0.978212
vt 0.041324 0.974234
vt -0.045894 0.974721
vt -0.045470 0.978699
vt -0.051095 0.979298
vt -0.051519 0.975321
vt 0.058876 0.966681
vt 0.059098 0.970674
vt 0.053450 0.970988
vt 0.053228 0.966995
vt -0.065013 0.992942
vt -0.075995 0.993575
vt -0.076320 0.987927
vt -0.065338 0.987295
vt -0.065491 0.979813
vt -0.076479 0.980316
vt -0.076738 0.974665
vt -0.065749 0.974162
vt 0.065733 0.974515
vt 0.076721 0.975018
vt 0.076463 0.980669
vt 0.065475 0.980166
vt 0.065359 0.986942
vt 0.076341 0.987574
vt 0.076015 0.993222
vt 0.065034 0.992589
vt -0.052596 0.951200
vt -0.049416 0.946522
vt -0.046955 0.951616
vt -0.046508 1.018782
vt -0.044365 1.013547
vt -0.040903 1.018020
vt -0.050223 0.995900
vt -0.053355 1.000610
vt -0.055868 0.995542
vt -0.049858 0.947732
vt -0.052054 0.952945
vt -0.055471 0.948437
vt 0.044510 0.953438
vt 0.047926 0.948930
vt 0.050122 0.954143
vt 0.055209 1.001925
vt 0.057723 0.996857
vt 0.060855 1.001567
vt 0.042806 1.011893
vt 0.039344 1.016366
vt 0.037201 1.011131
vt 0.056716 0.944552
vt 0.054255 0.949646
vt 0.051074 0.944968
vt -0.065539 0.972343
vt -0.065395 0.976340
vt -0.076388 0.976737
vt -0.076532 0.972739
vt 0.076532 0.972739
vt 0.076388 0.976737
vt 0.065395 0.976340
vt 0.065539 0.972343
vt -0.064141 0.991096
vt -0.075128 0.990557
vt -0.074907 0.986062
vt -0.063920 0.986602
vt 0.063920 0.986602
vt 0.074907 0.986062
vt 0.075128 0.990557
vt 0.064141 0.991096
vt 0.009130 0.970850
vt 0.013601 0.971363
vt 0.013145 0.975337
vt 0.008675 0.974824
vt -0.008675 0.974824
vt -0.013145 0.975337
vt -0.013601 0.971363
vt -0.009130 0.970850
vt 0.017225 0.932269
vt 0.021663 0.933016
vt 0.020724 0.938594
vt 0.016287 0.937848
vt -0.000268 1.035470
vt -0.004714 1.036166
vt -0.005589 1.030577
vt -0.001143 1.029881
vt 0.001908 1.024991
vt 0.006354 1.025687
vt 0.005479 1.031276
vt 0.001034 1.030580
vt -0.017108 0.932966
vt -0.021546 0.933713
vt -0.022484 0.928134
vt -0.018046 0.927388
vt -0.036989 0.967897
vt -0.037211 0.971891
vt -0.042859 0.971577
vt -0.042637 0.967583
vt 0.058550 0.976070
vt 0.058126 0.980047
vt 0.052501 0.979448
vt 0.052925 0.975471
vt -0.057496 0.975958
vt -0.057072 0.979935
vt -0.062697 0.980535
vt -0.063121 0.976557
vt 0.047226 0.967328
vt 0.047448 0.971322
vt 0.041800 0.971636
vt 0.041578 0.967642
vt -0.065684 0.981294
vt -0.076666 0.981927
vt -0.076991 0.976279
vt -0.066009 0.975647
vt -0.064958 0.991468
vt -0.075946 0.991971
vt -0.076205 0.986320
vt -0.065216 0.985817
vt 0.065200 0.986171
vt 0.076188 0.986673
vt 0.075930 0.992324
vt 0.064941 0.991822
vt 0.066029 0.975294
vt 0.077011 0.975926
vt 0.076686 0.981574
vt 0.065704 0.980941
vt -0.040466 0.945339
vt -0.037285 0.940661
vt -0.034824 0.945755
vt -0.058976 1.013678
vt -0.056833 1.008443
vt -0.053371 1.012916
vt -0.039004 1.003360
vt -0.042137 1.008070
vt -0.044650 1.003002
vt -0.060595 0.955870
vt -0.062791 0.961083
vt -0.066208 0.956574
vt 0.055246 0.961575
vt 0.058663 0.957067
vt 0.060859 0.962280
vt 0.043991 1.009384
vt 0.046504 1.004316
vt 0.049637 1.009027
vt 0.055274 1.006789
vt 0.051812 1.011262
vt 0.049669 1.006027
vt 0.044585 0.938691
vt 0.042124 0.943784
vt 0.038944 0.939106
vt -0.065539 0.972343
vt -0.065395 0.976340
vt -0.076388 0.976737
vt -0.076532 0.972739
vt 0.076532 0.972739
vt 0.076388 0.976737
vt 0.065395 0.976340
vt 0.065539 0.972343
vt -0.063332 0.974616
vt -0.074319 0.974077
vt -0.074098 0.969582
vt -0.063112 0.970121
vt 0.063112 0.970121
vt 0.074098 0.969582
vt 0.074319 0.974077
vt 0.063332 0.974616
vt 0.025523 0.972730
vt 0.029994 0.973243
vt 0.029538 0.977217
vt 0.025067 0.976704
vt -0.025067 0.976704
vt -0.029538 0.977217
vt -0.029994 0.973243
vt -0.025523 0.972730
vt 0.033497 0.935006
vt 0.037934 0.935753
vt 0.036996 0.941331
vt 0.032558 0.940585
vt -0.016570 1.038021
vt -0.021016 1.038717
vt -0.021890 1.033129
vt -0.017444 1.032433
vt 0.018210 1.027542
vt 0.022656 1.028238
vt 0.021781 1.033827
vt 0.017335 1.033131
vt -0.033379 0.935704
vt -0.037817 0.936450
vt -0.038755 0.930872
vt -0.034318 0.930125
vt -0.025340 0.968545
vt -0.025562 0.972539
vt -0.031210 0.972225
vt -0.030988 0.968231
vt 0.070152 0.977306
vt 0.069728 0.981284
vt 0.064103 0.980684
vt 0.064527 0.976707
vt -0.069097 0.977194
vt -0.068673 0.981171
vt -0.074298 0.981771
vt -0.074722 0.977793
vt 0.035577 0.967976
vt 0.035799 0.971970
vt 0.030151 0.972284
vt 0.029929 0.968290
vt -0.066355 0.969646
vt -0.077336 0.970279
vt -0.077662 0.964631
vt -0.066680 0.963999
vt -0.064425 1.003123
vt -0.075413 1.003626
vt -0.075672 0.997975
vt -0.064683 0.997472
vt 0.064667 0.997826
vt 0.075655 0.998328
vt 0.075397 1.003979
vt 0.064408 1.003477
vt 0.066700 0.963646
vt 0.077682 0.964278
vt 0.077357 0.969926
vt 0.066375 0.969293
vt -0.028336 0.939478
vt -0.025155 0.934800
vt -0.022694 0.939894
vt -0.071444 1.008574
vt -0.069301 1.003339
vt -0.065839 1.007812
vt -0.027786 1.010819
vt -0.030918 1.015530
vt -0.033432 1.010462
vt -0.071332 0.964007
vt -0.073528 0.969220
vt -0.076945 0.964712
vt 0.065983 0.969713
vt 0.069400 0.965204
vt 0.071596 0.970418
vt 0.032773 1.016844
vt 0.035286 1.011776
vt 0.038418 1.016487
vt 0.067742 1.001685
vt 0.064280 1.006158
vt 0.062136 1.000923
vt 0.032455 0.932830
vt 0.029994 0.937923
vt 0.026813 0.933245
usemtl Surface_0
f 8/8 2/2 1/1
usemtl Surface_0
f 7/7 2/2 8/8
usemtl Surface_0
f 6/6 2/2 7/7
usemtl Surface_0
f 5/5 2/2 6/6
usemtl Surface_0
f 4/4 2/2 5/5
usemtl Surface_0
f 3/3 2/2 4/4
usemtl Surface_0
f 16/16 10/10 9/9
usemtl Surface_0
f 15/15 10/10 16/16
usemtl Surface_0
f 14/14 10/10 15/15
usemtl Surface_0
f 13/13 10/10 14/14
usemtl Surface_0
f 12/12 10/10 13/13
usemtl Surface_0
f 11/11 10/10 12/12
usemtl Surface_0
f 20/20 18/18 17/17
usemtl Surface_0
f 19/19 18/18 20/20
usemtl Surface_4
f 24/24 22/22 21/21
usemtl Surface_4
f 23/23 22/22 24/24
usemtl Surface_0
f 28/28 26/26 25/25
usemtl Surface_0
f 27/27 26/26 28/28
usemtl Surface_4
f 32/32 30/30 29/29
usemtl Surface_4
f 31/31 30/30 32/32
usemtl Surface_0
f 36/36 34/34 33/33
usemtl Surface_0
f 35/35 34/34 36/36
usemtl Surface_4
f 40/40 38/38 37/37
usemtl Surface_4
f 39/39 38/38 40/40
usemtl Surface_0
f 44/44 42/42 41/41
usemtl Surface_0
f 43/43 42/42 44/44
usemtl Surface_4
f 48/48 46/46 45/45
usemtl Surface_4
f 47/47 46/46 48/48
usemtl Surface_0
f 52/52 50/50 49/49
usemtl Surface_0
f 51/51 50/50 52/52
usemtl Surface_4
f 56/56 54/54 53/53
usemtl Surface_4
f 55/55 54/54 56/56
usemtl Surface_0
f 60/60 58/58 57/57
usemtl Surface_0
f 59/59 58/58 60/60
usemtl Surface_4
f 64/64 62/62 61/61
usemtl Surface_4
f 63/63 62/62 64/64
usemtl Surface_0
f 68/68 66/66 65/65
usemtl Surface_0
f 67/67 66/66 68/68
usemtl Surface_4
f 72/72 70/70 69/69
usemtl Surface_4
f 71/71 70/70 72/72
usemtl Surface_0
f 76/76 74/74 73/73
usemtl Surface_0
f 75/75 74/74 76/76
usemtl Surface_4
f 80/80 78/78 77/77
usemtl Surface_4
f 79/79 78/78 80/80
usemtl Surface_1
f 84/84 82/82 81/81
usemtl Surface_1
f 83/83 82/82 84/84
usemtl Surface_1
f 88/88 86/86 85/85
usemtl Surface_1
f 87/87 86/86 88/88
usemtl Surface_1
f 92/92 90/90 89/89
usemtl Surface_1
f 91/91 90/90 92/92
usemtl Surface_1
f 96/96 94/94 93/93
usemtl Surface_1
f 95/95 94/94 96/96
usemtl Surface_1
f 100/100 98/98 97/97
usemtl Surface_1
f 99/99 98/98 100/100
usemtl Surface_1
f 104/104 102/102 101/101
usemtl Surface_1
f 103/103 102/102 104/104
usemtl Surface_1
f 108/108 106/106 105/105
usemtl Surface_1
f 107/107 106/106 108/108
usemtl Surface_1
f 112/112 110/110 109/109
usemtl Surface_1
f 111/111 110/110 112/112
usemtl Surface_1
f 116/116 114/114 113/113
usemtl Surface_1
f 115/115 114/114 116/116
usemtl Surface_1
f 120/120 118/118 117/117
usemtl Surface_1
f 119/119 118/118 120/120
usemtl Surface_1
f 124/124 122/122 121/121
usemtl Surface_1
f 123/123 122/122 124/124
usemtl Surface_1
f 128/128 126/126 125/125
usemtl Surface_1
f 127/127 126/126 128/128
usemtl Surface_1
f 132/132 130/130 129/129
usemtl Surface_1
f 131/131 130/130 132/132
usemtl Surface_1
f 136/136 134/134 133/133
usemtl Surface_1
f 135/135 134/134 136/136
usemtl Surface_1
f 140/140 138/138 137/137
usemtl Surface_1
f 139/139 138/138 140/140
usemtl Surface_1
f 144/144 142/142 141/141
usemtl Surface_1
f 143/143 142/142 144/144
usemtl Surface_1
f 148/148 146/146 145/145
usemtl Surface_1
f 147/147 146/146 148/148
usemtl Surface_1
f 152/152 150/150 149/149
usemtl Surface_1
f 151/151 150/150 152/152
usemtl Surface_1
f 153/153 155/155 154/154
usemtl Surface_1
f 156/156 158/158 157/157
usemtl Surface_1
f 159/159 161/161 160/160
usemtl Surface_1
f 162/162 164/164 163/163
usemtl Surface_1
f 165/165 167/167 166/166
usemtl Surface_1
f 168/168 170/170 169/169
usemtl Surface_1
f 171/171 173/173 172/172
usemtl Surface_1
f 174/174 176/176 175/175
usemtl Surface_1
f 180/180 178/178 177/177
usemtl Surface_1
f 179/179 178/178 180/180
usemtl Surface_1
f 184/184 182/182 181/181
usemtl Surface_1
f 183/183 182/182 184/184
usemtl Surface_1
f 188/188 186/186 185/185
usemtl Surface_1
f 187/187 186/186 188/188
usemtl Surface_1
f 192/192 190/190 189/189
usemtl Surface_1
f 191/191 190/190 192/192
usemtl Surface_1
f 196/196 194/194 193/193
usemtl Surface_1
f 195/195 194/194 196/196
usemtl Surface_1
f 200/200 198/198 197/197
usemtl Surface_1
f 199/199 198/198 200/200
usemtl Surface_1
f 204/204 202/202 201/201
usemtl Surface_1
f 203/203 202/202 204/204
usemtl Surface_1
f 208/208 206/206 205/205
usemtl Surface_1
f 207/207 206/206 208/208
usemtl Surface_1
f 212/212 210/210 209/209
usemtl Surface_1
f 211/211 210/210 212/212
usemtl Surface_1
f 216/216 214/214 213/213
usemtl Surface_1
f 215/215 214/214 216/216
usemtl Surface_1
f 220/220 218/218 217/217
usemtl Surface_1
f 219/219 218/218 220/220
usemtl Surface_1
f 224/224 222/222 221/221
usemtl Surface_1
f 223/223 222/222 224/224
usemtl Surface_1
f 228/228 226/226 225/225
usemtl Surface_1
f 227/227 226/226 228/228
usemtl Surface_1
f 232/232 230/230 229/229
usemtl Surface_1
f 231/231 230/230 232/232
usemtl Surface_1
f 236/236 234/234 233/233
usemtl Surface_1
f 235/235 234/234 236/236
usemtl Surface_1
f 240/240 238/238 237/237
usemtl Surface_1
f 239/239 238/238 240/240
usemtl Surface_1
f 244/244 242/242 241/241
usemtl Surface_1
f 243/243 242/242 244/244
usemtl Surface_1
f 248/248 246/246 245/245
usemtl Surface_1
f 247/247 246/246 248/248
usemtl Surface_1
f 249/249 251/251 250/250
usemtl Surface_1
f 252/252 254/254 253/253
usemtl Surface_1
f 255/255 257/257 256/256
usemtl Surface_1
f 258/258 260/260 259/259
usemtl Surface_1
f 261/261 263/263 262/262
usemtl Surface_1
f 264/264 266/266 265/265
usemtl Surface_1
f 267/267 269/269 268/268
usemtl Surface_1
f 270/270 272/272 271/271
usemtl Surface_1
f 276/276 274/274 273/273
usemtl Surface_1
f 275/275 274/274 276/276
usemtl Surface_1
f 280/280 278/278 277/277
usemtl Surface_1
f 279/279 278/278 280/280
usemtl Surface_1
f 284/284 282/282 281/281
usemtl Surface_1
f 283/283 282/282 284/284
usemtl Surface_1
f 288/288 286/286 285/285
usemtl Surface_1
f 287/287 286/286 288/288
usemtl Surface_1
f 292/292 290/290 289/289
usemtl Surface_1
f 291/291 290/290 292/292
usemtl Surface_1
f 296/296 294/294 293/293
usemtl Surface_1
f 295/295 294/294 296/296
usemtl Surface_1
f 300/300 298/298 297/297
usemtl Surface_1
f 299/299 298/298 300/300
usemtl Surface_1
f 304/304 302/302 301/301
usemtl Surface_1
f 303/303 302/302 304/304
usemtl Surface_1
f 308/308 306/306 305/305
usemtl Surface_1
f 307/307 306/306 308/308
usemtl Surface_1
f 312/312 310/310 309/309
usemtl Surface_1
f 311/311 310/310 312/312
usemtl Surface_1
f 316/316 314/314 313/313
usemtl Surface_1
f 315/315 314/314 316/316
usemtl Surface_1
f 320/320 318/318 317/317
usemtl Surface_1
f 319/319 318/318 320/320
usemtl Surface_1
f 324/324 322/322 321/321
usemtl Surface_1
f 323/323 322/322 324/324
usemtl Surface_1
f 328/328 326/326 325/325
usemtl Surface_1
f 327/327 326/326 328/328
usemtl Surface_1
f 332/332 330/330 329/329
usemtl Surface_1
f 331/331 330/330 332/332
usemtl Surface_1
f 336/336 334/334 333/333
usemtl Surface_1
f 335/335 334/334 336/336
usemtl Surface_1
f 340/340 338/338 337/337
usemtl Surface_1
f 339/339 338/338 340/340
usemtl Surface_1
f 344/344 342/342 341/341
usemtl Surface_1
f 343/343 342/342 344/344
usemtl Surface_1
f 345/345 347/347 346/346
usemtl Surface_1
f 348/348 350/350 349/349
usemtl Surface_1
f 351/351 353/353 352/352
usemtl Surface_1
f 354/354 356/356 355/355
usemtl Surface_1
f 357/357 359/359 358/358
usemtl Surface_1
f 360/360 362/362 361/361
usemtl Surface_1
f 363/363 365/365 364/364
usemtl Surface_1
f 366/366 368/368 367/367
usemtl Surface_1
f 372/372 370/370 369/369
usemtl Surface_1
f 371/371 370/370 372/372
usemtl Surface_1
f 376/376 374/374 373/373
usemtl Surface_1
f 375/375 374/374 376/376
usemtl Surface_1
f 380/380 378/378 377/377
usemtl Surface_1
f 379/379 378/378 380/380
usemtl Surface_1
f 384/384 382/382 381/381
usemtl Surface_1
f 383/383 382/382 384/384
usemtl Surface_1
f 388/388 386/386 385/385
usemtl Surface_1
f 387/387 386/386 388/388
usemtl Surface_1
f 392/392 390/390 389/389
usemtl Surface_1
f 391/391 390/390 392/392
usemtl Surface_1
f 396/396 394/394 393/393
usemtl Surface_1
f 395/395 394/394 396/396
usemtl Surface_1
f 400/400 398/398 397/397
usemtl Surface_1
f 399/399 398/398 400/400
usemtl Surface_1
f 404/404 402/402 401/401
usemtl Surface_1
f 403/403 402/402 404/404
usemtl Surface_1
f 408/408 406/406 405/405
usemtl Surface_1
f 407/407 406/406 408/408
usemtl Surface_1
f 412/412 410/410 409/409
usemtl Surface_1
f 411/411 410/410 412/412
usemtl Surface_1
f 416/416 414/414 413/413
usemtl Surface_1
f 415/415 414/414 416/416
usemtl Surface_1
f 420/420 418/418 417/417
usemtl Surface_1
f 419/419 418/418 420/420
usemtl Surface_1
f 424/424 422/422 421/421
usemtl Surface_1
f 423/423 422/422 424/424
usemtl Surface_1
f 428/428 426/426 425/425
usemtl Surface_1
f 427/427 426/426 428/428
usemtl Surface_1
f 432/432 430/430 429/429
usemtl Surface_1
f 431/431 430/430 432/432
usemtl Surface_1
f 436/436 434/434 433/433
usemtl Surface_1
f 435/435 434/434 436/436
usemtl Surface_1
f 440/440 438/438 437/437
usemtl Surface_1
f 439/439 438/438 440/440
usemtl Surface_1
f 441/441 443/443 442/442
usemtl Surface_1
f 444/444 446/446 445/445
usemtl Surface_1
f 447/447 449/449 448/448
usemtl Surface_1
f 450/450 452/452 451/451
usemtl Surface_1
f 453/453 455/455 454/454
usemtl Surface_1
f 456/456 458/458 457/457
usemtl Surface_1
f 459/459 461/461 460/460
usemtl Surface_1
f 462/462 464/464 463/463
